<?xml version="1.0" encoding="UTF-8" standalone="no"?>
<!DOCTYPE svg PUBLIC "-//W3C//DTD SVG 1.1//EN"
 "http://www.w3.org/Graphics/SVG/1.1/DTD/svg11.dtd">
<!-- Generated by graphviz version 7.1.0 (20230121.1956)
 -->
<!-- Title: UML_Class_diagram Pages: 1 -->
<svg width="246pt" height="308pt"
 viewBox="0.00 0.00 245.68 307.68" xmlns="http://www.w3.org/2000/svg" xmlns:xlink="http://www.w3.org/1999/xlink">
<g id="graph0" class="graph" transform="scale(1 1) rotate(0) translate(4 303.68)">
<title>UML_Class_diagram</title>
<polygon fill="white" stroke="none" points="-4,4 -4,-303.68 241.68,-303.68 241.68,4 -4,4"/>
<!-- Client -->
<g id="node1" class="node">
<title>Client</title>
<polygon fill="none" stroke="black" points="80.54,-0.5 80.54,-36.5 134.54,-36.5 134.54,-0.5 80.54,-0.5"/>
<text text-anchor="middle" x="107.54" y="-14.8" font-family="Times,serif" font-size="14.00">Client</text>
</g>
<!-- Interface1 -->
<g id="node2" class="node">
<title>Interface1</title>
<polygon fill="none" stroke="black" points="117.6,-17.39 117.6,-116.39 222.6,-116.39 222.6,-17.39 117.6,-17.39"/>
<text text-anchor="start" x="125.6" y="-102.19" font-family="Times,serif" font-weight="bold" font-size="14.00">«interface» I/O</text>
<polyline fill="none" stroke="black" points="117.6,-93.39 222.6,-93.39"/>
<text text-anchor="start" x="141.1" y="-78.19" font-family="Times,serif" font-size="14.00">+ property</text>
<text text-anchor="start" x="141.1" y="-63.19" font-family="Times,serif" font-size="14.00">...</text>
<polyline fill="none" stroke="black" points="117.6,-55.39 222.6,-55.39"/>
<text text-anchor="start" x="143.1" y="-40.19" font-family="Times,serif" font-size="14.00">+ method</text>
<text text-anchor="start" x="143.1" y="-25.19" font-family="Times,serif" font-size="14.00">...</text>
</g>
<!-- Client&#45;&gt;Interface1 -->
<g id="edge1" class="edge">
<title>Client&#45;&gt;Interface1</title>
<path fill="none" stroke="black" d="M130.48,-36.24C130.55,-36.3 130.62,-36.35 130.69,-36.41"/>
<polygon fill="black" stroke="black" points="119.65,-32.29 129.71,-35.64 123.94,-26.75 119.65,-32.29"/>
<text text-anchor="middle" x="98.09" y="-40.12" font-family="Times,serif" font-size="14.00">dependency</text>
</g>
<!-- Interface2 -->
<g id="node3" class="node">
<title>Interface2</title>
<ellipse fill="none" stroke="black" cx="66" cy="-85.72" rx="18" ry="18"/>
<text text-anchor="middle" x="24" y="-122.52" font-family="Times,serif" font-size="14.00">Simple</text>
<text text-anchor="middle" x="24" y="-107.52" font-family="Times,serif" font-size="14.00">interface</text>
</g>
<!-- Client&#45;&gt;Interface2 -->
<g id="edge2" class="edge">
<title>Client&#45;&gt;Interface2</title>
<path fill="none" stroke="black" d="M96.63,-36.16C92.03,-43.6 86.59,-52.4 81.59,-60.5"/>
<polygon fill="black" stroke="black" points="78.65,-58.6 76.37,-68.95 84.6,-62.28 78.65,-58.6"/>
</g>
<!-- Class1 -->
<g id="node4" class="node">
<title>Class1</title>
<polygon fill="none" stroke="black" points="91.63,-84.89 91.63,-183.89 165.63,-183.89 165.63,-84.89 91.63,-84.89"/>
<text text-anchor="start" x="102.63" y="-169.69" font-family="Times,serif" font-weight="bold" font-size="14.00">I/O class</text>
<polyline fill="none" stroke="black" points="91.63,-160.89 165.63,-160.89"/>
<text text-anchor="start" x="99.63" y="-145.69" font-family="Times,serif" font-size="14.00">+ property</text>
<text text-anchor="start" x="99.63" y="-130.69" font-family="Times,serif" font-size="14.00">...</text>
<polyline fill="none" stroke="black" points="91.63,-122.89 165.63,-122.89"/>
<text text-anchor="start" x="101.63" y="-107.69" font-family="Times,serif" font-size="14.00">+ method</text>
<text text-anchor="start" x="101.63" y="-92.69" font-family="Times,serif" font-size="14.00">...</text>
</g>
<!-- Interface1&#45;&gt;Class1 -->
<g id="edge3" class="edge">
<title>Interface1&#45;&gt;Class1</title>
<path fill="none" stroke="black" d="M139.6,-116.54C139.55,-116.62 139.5,-116.7 139.45,-116.78"/>
<polygon fill="none" stroke="black" points="136.7,-127.95 138.95,-117.59 130.73,-124.28 136.7,-127.95"/>
<text text-anchor="middle" x="170.02" y="-120.46" font-family="Times,serif" font-size="14.00">inheritance</text>
</g>
<!-- Interface2&#45;&gt;Class1 -->
<g id="edge4" class="edge">
<title>Interface2&#45;&gt;Class1</title>
<path fill="none" stroke="black" d="M80.53,-97.01C84,-99.71 87.85,-102.7 91.84,-105.8"/>
</g>
<!-- System_1 -->
<g id="node5" class="node">
<title>System_1</title>
<polygon fill="none" stroke="black" points="97.15,-268.3 97.15,-293.3 190.15,-293.3 190.15,-268.3 97.15,-268.3"/>
<text text-anchor="start" x="118.15" y="-278.1" font-family="Times,serif" font-size="14.00"> </text>
<text text-anchor="start" x="122.15" y="-278.1" font-family="Times,serif" font-weight="bold" font-size="14.00">System</text>
<text text-anchor="start" x="165.15" y="-278.1" font-family="Times,serif" font-size="14.00"> </text>
<polygon fill="none" stroke="black" points="97.15,-163.3 97.15,-268.3 190.15,-268.3 190.15,-163.3 97.15,-163.3"/>
<text text-anchor="start" x="104.15" y="-250.1" font-family="Times,serif" font-size="14.00">+ property</text>
<text text-anchor="start" x="104.15" y="-231.1" font-family="Times,serif" font-size="14.00">&#45; Subsystem 1</text>
<text text-anchor="start" x="104.15" y="-212.1" font-family="Times,serif" font-size="14.00">&#45; Subsystem 2</text>
<text text-anchor="start" x="104.15" y="-193.1" font-family="Times,serif" font-size="14.00">&#45; Subsystem 3</text>
<text text-anchor="start" x="104.15" y="-174.1" font-family="Times,serif" font-size="14.00">...</text>
<polygon fill="none" stroke="black" points="97.15,-123.3 97.15,-163.3 190.15,-163.3 190.15,-123.3 97.15,-123.3"/>
<text text-anchor="start" x="102.15" y="-147.1" font-family="Times,serif" font-size="14.00">+ method</text>
<text text-anchor="start" x="102.15" y="-132.1" font-family="Times,serif" font-size="14.00">...</text>
</g>
<!-- Class1&#45;&gt;System_1 -->
<g id="edge5" class="edge">
<title>Class1&#45;&gt;System_1</title>
<path fill="none" stroke="black" d="M138.35,-183.85C138.36,-183.9 138.37,-183.96 138.38,-184.01"/>
<polygon fill="none" stroke="black" points="143.97,-194.31 138.61,-185.18 137.11,-195.67 143.97,-194.31"/>
<text text-anchor="middle" x="94.86" y="-187.73" font-family="Times,serif" font-size="14.00">implementation</text>
</g>
<!-- Subsystem_1 -->
<g id="node6" class="node">
<title>Subsystem_1</title>
<polygon fill="none" stroke="black" points="101.96,-263.18 101.96,-299.18 190.96,-299.18 190.96,-263.18 101.96,-263.18"/>
<text text-anchor="middle" x="146.46" y="-277.48" font-family="Times,serif" font-size="14.00">Subsystem_1</text>
</g>
<!-- System_1&#45;&gt;Subsystem_1 -->
<g id="edge6" class="edge">
<title>System_1:ss1&#45;&gt;Subsystem_1</title>
<path fill="none" stroke="black" d="M177.84,-243.97C173.24,-249.43 167.13,-256.67 161.53,-263.31"/>
<polygon fill="none" stroke="black" points="180.4,-246.36 184.17,-236.46 175.05,-241.85 180.4,-246.36"/>
<text text-anchor="middle" x="203.68" y="-242.44" font-family="Times,serif" font-size="14.00">composition</text>
</g>
</g>
</svg>
