<?xml version="1.0" encoding="UTF-8" standalone="no"?>
<!DOCTYPE svg PUBLIC "-//W3C//DTD SVG 1.1//EN"
 "http://www.w3.org/Graphics/SVG/1.1/DTD/svg11.dtd">
<!-- Generated by graphviz version 7.1.0 (20230121.1956)
 -->
<!-- Title: UML_Class_diagram Pages: 1 -->
<svg width="225pt" height="628pt"
 viewBox="0.00 0.00 225.10 628.00" xmlns="http://www.w3.org/2000/svg" xmlns:xlink="http://www.w3.org/1999/xlink">
<g id="graph0" class="graph" transform="scale(1 1) rotate(0) translate(4 624)">
<title>UML_Class_diagram</title>
<polygon fill="white" stroke="none" points="-4,4 -4,-624 221.1,-624 221.1,4 -4,4"/>
<!-- Client -->
<g id="node1" class="node">
<title>Client</title>
<polygon fill="none" stroke="black" points="69.5,-583.5 69.5,-619.5 123.5,-619.5 123.5,-583.5 69.5,-583.5"/>
<text text-anchor="middle" x="96.5" y="-597.8" font-family="Times,serif" font-size="14.00">Client</text>
</g>
<!-- Interface1 -->
<g id="node2" class="node">
<title>Interface1</title>
<polygon fill="none" stroke="black" points="0,-432.5 0,-531.5 105,-531.5 105,-432.5 0,-432.5"/>
<text text-anchor="start" x="8" y="-517.3" font-family="Times,serif" font-weight="bold" font-size="14.00">«interface» I/O</text>
<polyline fill="none" stroke="black" points="0,-508.5 105,-508.5"/>
<text text-anchor="start" x="23.5" y="-493.3" font-family="Times,serif" font-size="14.00">+ property</text>
<text text-anchor="start" x="23.5" y="-478.3" font-family="Times,serif" font-size="14.00">...</text>
<polyline fill="none" stroke="black" points="0,-470.5 105,-470.5"/>
<text text-anchor="start" x="25.5" y="-455.3" font-family="Times,serif" font-size="14.00">+ method</text>
<text text-anchor="start" x="25.5" y="-440.3" font-family="Times,serif" font-size="14.00">...</text>
</g>
<!-- Client&#45;&gt;Interface1 -->
<g id="edge1" class="edge">
<title>Client&#45;&gt;Interface1</title>
<path fill="none" stroke="black" d="M73.97,-583.83C68.3,-578.47 62.88,-572.07 59.5,-565 56.19,-558.07 53.96,-550.44 52.51,-542.7"/>
<polygon fill="black" stroke="black" points="55.98,-542.26 51.1,-532.85 49.05,-543.25 55.98,-542.26"/>
<text text-anchor="middle" x="92" y="-553.8" font-family="Times,serif" font-size="14.00">dependency</text>
</g>
<!-- Interface2 -->
<g id="node3" class="node">
<title>Interface2</title>
<ellipse fill="none" stroke="black" cx="141.5" cy="-482" rx="18" ry="18"/>
<text text-anchor="middle" x="147.5" y="-518.8" font-family="Times,serif" font-size="14.00">Simple</text>
<text text-anchor="middle" x="147.5" y="-503.8" font-family="Times,serif" font-size="14.00">interface</text>
</g>
<!-- Client&#45;&gt;Interface2 -->
<g id="edge2" class="edge">
<title>Client&#45;&gt;Interface2</title>
<path fill="none" stroke="black" d="M112.49,-583.52C116.98,-577.97 121.45,-571.55 124.5,-565 132.36,-548.14 136.61,-527.65 138.89,-511.37"/>
<polygon fill="black" stroke="black" points="142.31,-512.22 140.05,-501.87 135.37,-511.38 142.31,-512.22"/>
</g>
<!-- Class1 -->
<g id="node4" class="node">
<title>Class1</title>
<polygon fill="none" stroke="black" points="59.5,-295.5 59.5,-394.5 133.5,-394.5 133.5,-295.5 59.5,-295.5"/>
<text text-anchor="start" x="70.5" y="-380.3" font-family="Times,serif" font-weight="bold" font-size="14.00">I/O class</text>
<polyline fill="none" stroke="black" points="59.5,-371.5 133.5,-371.5"/>
<text text-anchor="start" x="67.5" y="-356.3" font-family="Times,serif" font-size="14.00">+ property</text>
<text text-anchor="start" x="67.5" y="-341.3" font-family="Times,serif" font-size="14.00">...</text>
<polyline fill="none" stroke="black" points="59.5,-333.5 133.5,-333.5"/>
<text text-anchor="start" x="69.5" y="-318.3" font-family="Times,serif" font-size="14.00">+ method</text>
<text text-anchor="start" x="69.5" y="-303.3" font-family="Times,serif" font-size="14.00">...</text>
</g>
<!-- Interface1&#45;&gt;Class1 -->
<g id="edge3" class="edge">
<title>Interface1&#45;&gt;Class1</title>
<path fill="none" stroke="black" d="M71.73,-421.99C74.73,-412.8 77.79,-403.4 80.7,-394.47"/>
<polygon fill="none" stroke="black" points="68.5,-420.61 68.73,-431.2 75.16,-422.78 68.5,-420.61"/>
<text text-anchor="middle" x="43.91" y="-417.57" font-family="Times,serif" font-size="14.00">inheritance</text>
</g>
<!-- Interface2&#45;&gt;Class1 -->
<g id="edge4" class="edge">
<title>Interface2&#45;&gt;Class1</title>
<path fill="none" stroke="black" d="M135.98,-464.45C130.19,-447.06 120.79,-418.88 112.62,-394.37"/>
</g>
<!-- System_1 -->
<g id="node5" class="node">
<title>System_1</title>
<polygon fill="none" stroke="black" points="50.5,-219 50.5,-244 143.5,-244 143.5,-219 50.5,-219"/>
<text text-anchor="start" x="71.5" y="-228.8" font-family="Times,serif" font-size="14.00"> </text>
<text text-anchor="start" x="75.5" y="-228.8" font-family="Times,serif" font-weight="bold" font-size="14.00">System</text>
<text text-anchor="start" x="118.5" y="-228.8" font-family="Times,serif" font-size="14.00"> </text>
<polygon fill="none" stroke="black" points="50.5,-114 50.5,-219 143.5,-219 143.5,-114 50.5,-114"/>
<text text-anchor="start" x="57.5" y="-200.8" font-family="Times,serif" font-size="14.00">+ property</text>
<text text-anchor="start" x="57.5" y="-181.8" font-family="Times,serif" font-size="14.00">&#45; Subsystem 1</text>
<text text-anchor="start" x="57.5" y="-162.8" font-family="Times,serif" font-size="14.00">&#45; Subsystem 2</text>
<text text-anchor="start" x="57.5" y="-143.8" font-family="Times,serif" font-size="14.00">&#45; Subsystem 3</text>
<text text-anchor="start" x="57.5" y="-124.8" font-family="Times,serif" font-size="14.00">...</text>
<polygon fill="none" stroke="black" points="50.5,-74 50.5,-114 143.5,-114 143.5,-74 50.5,-74"/>
<text text-anchor="start" x="55.5" y="-97.8" font-family="Times,serif" font-size="14.00">+ method</text>
<text text-anchor="start" x="55.5" y="-82.8" font-family="Times,serif" font-size="14.00">...</text>
</g>
<!-- Class1&#45;&gt;System_1 -->
<g id="edge5" class="edge">
<title>Class1&#45;&gt;System_1</title>
<path fill="none" stroke="black" d="M96.5,-284.16C96.5,-271.32 96.5,-257.52 96.5,-243.95"/>
<polygon fill="none" stroke="black" points="93,-284.14 96.5,-294.14 100,-284.14 93,-284.14"/>
<text text-anchor="middle" x="140" y="-265.8" font-family="Times,serif" font-size="14.00">implementation</text>
</g>
<!-- Subsystem_1 -->
<g id="node6" class="node">
<title>Subsystem_1</title>
<polygon fill="none" stroke="black" points="53,-0.5 53,-36.5 142,-36.5 142,-0.5 53,-0.5"/>
<text text-anchor="middle" x="97.5" y="-14.8" font-family="Times,serif" font-size="14.00">Subsystem_1</text>
</g>
<!-- System_1&#45;&gt;Subsystem_1 -->
<g id="edge6" class="edge">
<title>System_1:ss1&#45;&gt;Subsystem_1</title>
<path fill="none" stroke="black" d="M150.53,-184.62C183.44,-174.98 153.11,-117.09 138.5,-74 133.71,-59.87 123.7,-46.45 114.77,-36.46"/>
<polygon fill="none" stroke="black" points="150.49,-181.09 141,-185.81 151.36,-188.04 150.49,-181.09"/>
<text text-anchor="middle" x="183.1" y="-106.45" font-family="Times,serif" font-size="14.00">composition</text>
</g>
</g>
</svg>
