<?xml version="1.0" encoding="UTF-8" standalone="no"?>
<!DOCTYPE svg PUBLIC "-//W3C//DTD SVG 1.1//EN"
 "http://www.w3.org/Graphics/SVG/1.1/DTD/svg11.dtd">
<!-- Generated by graphviz version 12.2.1 (20241206.2353)
 -->
<!-- Title: UML_Class_diagram Pages: 1 -->
<svg width="244pt" height="308pt"
 viewBox="0.00 0.00 244.17 307.69" xmlns="http://www.w3.org/2000/svg" xmlns:xlink="http://www.w3.org/1999/xlink">
<g id="graph0" class="graph" transform="scale(1 1) rotate(0) translate(4 303.69)">
<title>UML_Class_diagram</title>
<polygon fill="white" stroke="none" points="-4,4 -4,-303.69 240.17,-303.69 240.17,4 -4,4"/>
<!-- Client -->
<g id="node1" class="node">
<title>Client</title>
<polygon fill="none" stroke="black" points="79.85,-0.5 79.85,-36.5 133.85,-36.5 133.85,-0.5 79.85,-0.5"/>
<text text-anchor="middle" x="106.85" y="-13.45" font-family="Times,serif" font-size="14.00">Client</text>
</g>
<!-- Interface1 -->
<g id="node2" class="node">
<title>Interface1</title>
<polygon fill="none" stroke="black" points="117.12,-13.67 117.12,-120.17 221.62,-120.17 221.62,-13.67 117.12,-13.67"/>
<text text-anchor="start" x="125.12" y="-103.87" font-family="Times,serif" font-weight="bold" font-size="14.00">«interface» I/O</text>
<polyline fill="none" stroke="black" points="117.12,-95.67 221.62,-95.67"/>
<text text-anchor="start" x="140.5" y="-78.37" font-family="Times,serif" font-size="14.00">+ property</text>
<text text-anchor="start" x="140.5" y="-61.87" font-family="Times,serif" font-size="14.00">...</text>
<polyline fill="none" stroke="black" points="117.12,-54.67 221.62,-54.67"/>
<text text-anchor="start" x="142.75" y="-37.37" font-family="Times,serif" font-size="14.00">+ method</text>
<text text-anchor="start" x="142.75" y="-20.87" font-family="Times,serif" font-size="14.00">...</text>
</g>
<!-- Client&#45;&gt;Interface1 -->
<g id="edge1" class="edge">
<title>Client&#45;&gt;Interface1</title>
<path fill="none" stroke="black" d="M130.49,-36.81C130.56,-36.86 130.62,-36.91 130.69,-36.97"/>
<polygon fill="black" stroke="black" points="119.65,-32.84 129.71,-36.2 123.94,-27.31 119.65,-32.84"/>
<text text-anchor="middle" x="98.34" y="-40.09" font-family="Times,serif" font-size="14.00">dependency</text>
</g>
<!-- Interface2 -->
<g id="node3" class="node">
<title>Interface2</title>
<ellipse fill="none" stroke="black" cx="65.25" cy="-85.7" rx="18" ry="18"/>
<text text-anchor="middle" x="23.62" y="-123.4" font-family="Times,serif" font-size="14.00">Simple</text>
<text text-anchor="middle" x="23.62" y="-106.9" font-family="Times,serif" font-size="14.00">interface</text>
</g>
<!-- Client&#45;&gt;Interface2 -->
<g id="edge2" class="edge">
<title>Client&#45;&gt;Interface2</title>
<path fill="none" stroke="black" d="M95.48,-36.86C91,-44.1 85.78,-52.54 80.94,-60.35"/>
<polygon fill="black" stroke="black" points="78,-58.46 75.71,-68.81 83.95,-62.15 78,-58.46"/>
</g>
<!-- Class1 -->
<g id="node4" class="node">
<title>Class1</title>
<polygon fill="none" stroke="black" points="90.96,-81.16 90.96,-187.66 164.71,-187.66 164.71,-81.16 90.96,-81.16"/>
<text text-anchor="start" x="102.34" y="-171.36" font-family="Times,serif" font-weight="bold" font-size="14.00">I/O class</text>
<polyline fill="none" stroke="black" points="90.96,-163.16 164.71,-163.16"/>
<text text-anchor="start" x="98.96" y="-145.86" font-family="Times,serif" font-size="14.00">+ property</text>
<text text-anchor="start" x="98.96" y="-129.36" font-family="Times,serif" font-size="14.00">...</text>
<polyline fill="none" stroke="black" points="90.96,-122.16 164.71,-122.16"/>
<text text-anchor="start" x="101.21" y="-104.86" font-family="Times,serif" font-size="14.00">+ method</text>
<text text-anchor="start" x="101.21" y="-88.36" font-family="Times,serif" font-size="14.00">...</text>
</g>
<!-- Interface1&#45;&gt;Class1 -->
<g id="edge3" class="edge">
<title>Interface1&#45;&gt;Class1</title>
<path fill="none" stroke="black" d="M136.33,-120.61C136.29,-120.68 136.25,-120.74 136.21,-120.8"/>
<polygon fill="none" stroke="black" points="133.39,-132.06 135.65,-121.71 127.43,-128.39 133.39,-132.06"/>
<text text-anchor="middle" x="166.27" y="-123.91" font-family="Times,serif" font-size="14.00">inheritance</text>
</g>
<!-- Interface2&#45;&gt;Class1 -->
<g id="edge4" class="edge">
<title>Interface2&#45;&gt;Class1</title>
<path fill="none" stroke="black" d="M79.77,-97C83.09,-99.58 86.77,-102.45 90.57,-105.41"/>
</g>
<!-- System_1 -->
<g id="node5" class="node">
<title>System_1</title>
<polygon fill="none" stroke="black" points="96.24,-272.82 96.24,-299.32 188.24,-299.32 188.24,-272.82 96.24,-272.82"/>
<text text-anchor="start" x="117.49" y="-282.02" font-family="Times,serif" font-size="14.00"> </text>
<text text-anchor="start" x="121.24" y="-282.02" font-family="Times,serif" font-weight="bold" font-size="14.00">System</text>
<text text-anchor="start" x="163.24" y="-282.02" font-family="Times,serif" font-size="14.00"> </text>
<polygon fill="none" stroke="black" points="96.24,-160.32 96.24,-272.82 188.24,-272.82 188.24,-160.32 96.24,-160.32"/>
<text text-anchor="start" x="103.24" y="-252.52" font-family="Times,serif" font-size="14.00">+ property</text>
<text text-anchor="start" x="103.24" y="-232.02" font-family="Times,serif" font-size="14.00">&#45; Subsystem 1</text>
<text text-anchor="start" x="103.24" y="-211.52" font-family="Times,serif" font-size="14.00">&#45; Subsystem 2</text>
<text text-anchor="start" x="103.24" y="-191.02" font-family="Times,serif" font-size="14.00">&#45; Subsystem 3</text>
<text text-anchor="start" x="103.24" y="-170.52" font-family="Times,serif" font-size="14.00">...</text>
<polygon fill="none" stroke="black" points="96.24,-117.32 96.24,-160.32 188.24,-160.32 188.24,-117.32 96.24,-117.32"/>
<text text-anchor="start" x="101.24" y="-142.02" font-family="Times,serif" font-size="14.00">+ method</text>
<text text-anchor="start" x="101.24" y="-125.52" font-family="Times,serif" font-size="14.00">...</text>
</g>
<!-- Class1&#45;&gt;System_1 -->
<g id="edge5" class="edge">
<title>Class1&#45;&gt;System_1</title>
<path fill="none" stroke="black" d="M138.33,-188.26C138.34,-188.3 138.35,-188.35 138.36,-188.39"/>
<polygon fill="none" stroke="black" points="143.95,-198.75 138.6,-189.61 137.08,-200.09 143.95,-198.75"/>
<text text-anchor="middle" x="95.22" y="-191.52" font-family="Times,serif" font-size="14.00">implementation</text>
</g>
<!-- Subsystem_1 -->
<g id="node6" class="node">
<title>Subsystem_1</title>
<polygon fill="none" stroke="black" points="101.51,-263.19 101.51,-299.19 190.26,-299.19 190.26,-263.19 101.51,-263.19"/>
<text text-anchor="middle" x="145.88" y="-276.14" font-family="Times,serif" font-size="14.00">Subsystem_1</text>
</g>
<!-- System_1&#45;&gt;Subsystem_1 -->
<g id="edge6" class="edge">
<title>System_1:ss1&#45;&gt;Subsystem_1</title>
<path fill="none" stroke="black" d="M175.82,-245.83C171.72,-250.67 166.47,-256.88 161.51,-262.73"/>
<polygon fill="none" stroke="black" points="178.47,-248.12 182.26,-238.22 173.13,-243.59 178.47,-248.12"/>
<text text-anchor="middle" x="202.42" y="-240.98" font-family="Times,serif" font-size="14.00">composition</text>
</g>
</g>
</svg>
