<?xml version="1.0" encoding="UTF-8" standalone="no"?>
<!DOCTYPE svg PUBLIC "-//W3C//DTD SVG 1.1//EN"
 "http://www.w3.org/Graphics/SVG/1.1/DTD/svg11.dtd">
<!-- Generated by graphviz version 12.2.1 (20241206.2353)
 -->
<!-- Title: UML_Class_diagram Pages: 1 -->
<svg width="224pt" height="658pt"
 viewBox="0.00 0.00 223.79 658.00" xmlns="http://www.w3.org/2000/svg" xmlns:xlink="http://www.w3.org/1999/xlink">
<g id="graph0" class="graph" transform="scale(1 1) rotate(0) translate(4 654)">
<title>UML_Class_diagram</title>
<polygon fill="white" stroke="none" points="-4,4 -4,-654 219.79,-654 219.79,4 -4,4"/>
<!-- Client -->
<g id="node1" class="node">
<title>Client</title>
<polygon fill="none" stroke="black" points="69.25,-613.5 69.25,-649.5 123.25,-649.5 123.25,-613.5 69.25,-613.5"/>
<text text-anchor="middle" x="96.25" y="-626.45" font-family="Times,serif" font-size="14.00">Client</text>
</g>
<!-- Interface1 -->
<g id="node2" class="node">
<title>Interface1</title>
<polygon fill="none" stroke="black" points="0,-453.5 0,-560 104.5,-560 104.5,-453.5 0,-453.5"/>
<text text-anchor="start" x="8" y="-543.7" font-family="Times,serif" font-weight="bold" font-size="14.00">«interface» I/O</text>
<polyline fill="none" stroke="black" points="0,-535.5 104.5,-535.5"/>
<text text-anchor="start" x="23.38" y="-518.2" font-family="Times,serif" font-size="14.00">+ property</text>
<text text-anchor="start" x="23.38" y="-501.7" font-family="Times,serif" font-size="14.00">...</text>
<polyline fill="none" stroke="black" points="0,-494.5 104.5,-494.5"/>
<text text-anchor="start" x="25.62" y="-477.2" font-family="Times,serif" font-size="14.00">+ method</text>
<text text-anchor="start" x="25.62" y="-460.7" font-family="Times,serif" font-size="14.00">...</text>
</g>
<!-- Client&#45;&gt;Interface1 -->
<g id="edge1" class="edge">
<title>Client&#45;&gt;Interface1</title>
<path fill="none" stroke="black" d="M73.27,-613.05C67.95,-607.84 62.93,-601.71 59.75,-595 56.26,-587.63 53.9,-579.52 52.36,-571.31"/>
<polygon fill="black" stroke="black" points="55.85,-570.98 50.94,-561.59 48.92,-571.99 55.85,-570.98"/>
<text text-anchor="middle" x="92" y="-581.7" font-family="Times,serif" font-size="14.00">dependency</text>
</g>
<!-- Interface2 -->
<g id="node3" class="node">
<title>Interface2</title>
<ellipse fill="none" stroke="black" cx="140.25" cy="-506.75" rx="18" ry="18"/>
<text text-anchor="middle" x="145.88" y="-544.45" font-family="Times,serif" font-size="14.00">Simple</text>
<text text-anchor="middle" x="145.88" y="-527.95" font-family="Times,serif" font-size="14.00">interface</text>
</g>
<!-- Client&#45;&gt;Interface2 -->
<g id="edge2" class="edge">
<title>Client&#45;&gt;Interface2</title>
<path fill="none" stroke="black" d="M112.63,-613.2C117.02,-607.74 121.34,-601.44 124.25,-595 132.6,-576.53 136.59,-553.99 138.5,-536.44"/>
<polygon fill="black" stroke="black" points="141.97,-536.99 139.38,-526.71 135,-536.36 141.97,-536.99"/>
</g>
<!-- Class1 -->
<g id="node4" class="node">
<title>Class1</title>
<polygon fill="none" stroke="black" points="58.38,-309 58.38,-415.5 132.12,-415.5 132.12,-309 58.38,-309"/>
<text text-anchor="start" x="69.75" y="-399.2" font-family="Times,serif" font-weight="bold" font-size="14.00">I/O class</text>
<polyline fill="none" stroke="black" points="58.38,-391 132.12,-391"/>
<text text-anchor="start" x="66.38" y="-373.7" font-family="Times,serif" font-size="14.00">+ property</text>
<text text-anchor="start" x="66.38" y="-357.2" font-family="Times,serif" font-size="14.00">...</text>
<polyline fill="none" stroke="black" points="58.38,-350 132.12,-350"/>
<text text-anchor="start" x="68.62" y="-332.7" font-family="Times,serif" font-size="14.00">+ method</text>
<text text-anchor="start" x="68.62" y="-316.2" font-family="Times,serif" font-size="14.00">...</text>
</g>
<!-- Interface1&#45;&gt;Class1 -->
<g id="edge3" class="edge">
<title>Interface1&#45;&gt;Class1</title>
<path fill="none" stroke="black" d="M71.38,-442.35C74.07,-433.44 76.81,-424.36 79.43,-415.69"/>
<polygon fill="none" stroke="black" points="68.11,-441.06 68.58,-451.64 74.82,-443.08 68.11,-441.06"/>
<text text-anchor="middle" x="43.79" y="-437.58" font-family="Times,serif" font-size="14.00">inheritance</text>
</g>
<!-- Interface2&#45;&gt;Class1 -->
<g id="edge4" class="edge">
<title>Interface2&#45;&gt;Class1</title>
<path fill="none" stroke="black" d="M135,-489.12C129.34,-471.21 120.05,-441.78 111.87,-415.88"/>
</g>
<!-- System_1 -->
<g id="node5" class="node">
<title>System_1</title>
<polygon fill="none" stroke="black" points="49.25,-229.5 49.25,-256 141.25,-256 141.25,-229.5 49.25,-229.5"/>
<text text-anchor="start" x="70.5" y="-238.7" font-family="Times,serif" font-size="14.00"> </text>
<text text-anchor="start" x="74.25" y="-238.7" font-family="Times,serif" font-weight="bold" font-size="14.00">System</text>
<text text-anchor="start" x="116.25" y="-238.7" font-family="Times,serif" font-size="14.00"> </text>
<polygon fill="none" stroke="black" points="49.25,-117 49.25,-229.5 141.25,-229.5 141.25,-117 49.25,-117"/>
<text text-anchor="start" x="56.25" y="-209.2" font-family="Times,serif" font-size="14.00">+ property</text>
<text text-anchor="start" x="56.25" y="-188.7" font-family="Times,serif" font-size="14.00">&#45; Subsystem 1</text>
<text text-anchor="start" x="56.25" y="-168.2" font-family="Times,serif" font-size="14.00">&#45; Subsystem 2</text>
<text text-anchor="start" x="56.25" y="-147.7" font-family="Times,serif" font-size="14.00">&#45; Subsystem 3</text>
<text text-anchor="start" x="56.25" y="-127.2" font-family="Times,serif" font-size="14.00">...</text>
<polygon fill="none" stroke="black" points="49.25,-74 49.25,-117 141.25,-117 141.25,-74 49.25,-74"/>
<text text-anchor="start" x="54.25" y="-98.7" font-family="Times,serif" font-size="14.00">+ method</text>
<text text-anchor="start" x="54.25" y="-82.2" font-family="Times,serif" font-size="14.00">...</text>
</g>
<!-- Class1&#45;&gt;System_1 -->
<g id="edge5" class="edge">
<title>Class1&#45;&gt;System_1</title>
<path fill="none" stroke="black" d="M95.25,-297.31C95.25,-284.09 95.25,-269.91 95.25,-255.95"/>
<polygon fill="none" stroke="black" points="91.75,-297.16 95.25,-307.16 98.75,-297.16 91.75,-297.16"/>
<text text-anchor="middle" x="138.38" y="-277.2" font-family="Times,serif" font-size="14.00">implementation</text>
</g>
<!-- Subsystem_1 -->
<g id="node6" class="node">
<title>Subsystem_1</title>
<polygon fill="none" stroke="black" points="50.88,-0.5 50.88,-36.5 139.62,-36.5 139.62,-0.5 50.88,-0.5"/>
<text text-anchor="middle" x="95.25" y="-13.45" font-family="Times,serif" font-size="14.00">Subsystem_1</text>
</g>
<!-- System_1&#45;&gt;Subsystem_1 -->
<g id="edge6" class="edge">
<title>System_1:ss1&#45;&gt;Subsystem_1</title>
<path fill="none" stroke="black" d="M148.58,-192.4C184.51,-182.5 151.93,-120.27 136.25,-74 131.54,-60.09 121.77,-46.87 112.95,-36.94"/>
<polygon fill="none" stroke="black" points="148.27,-188.91 138.75,-193.57 149.1,-195.86 148.27,-188.91"/>
<text text-anchor="middle" x="182.04" y="-109.73" font-family="Times,serif" font-size="14.00">composition</text>
</g>
</g>
</svg>
