<?xml version="1.0" encoding="us-ascii" standalone="no"?><svg xmlns="http://www.w3.org/2000/svg" xmlns:xlink="http://www.w3.org/1999/xlink" contentStyleType="text/css" height="284px" preserveAspectRatio="none" style="width:498px;height:284px;background:#FFFFFF;" version="1.1" viewBox="0 0 498 284" width="498px" zoomAndPan="magnify"><defs/><g><!--class Duck--><g id="elem_Duck"><rect codeLine="2" fill="#F1F1F1" height="97.4648" id="Duck" rx="2.5" ry="2.5" style="stroke:#181818;stroke-width:0.5;" width="150" x="7" y="7"/><ellipse cx="60.75" cy="23" fill="#ADD1B2" rx="11" ry="11" style="stroke:#181818;stroke-width:1.0;"/><path d="M63.2231,29.1431 Q62.6421,29.4419 62.0029,29.5913 Q61.3638,29.7407 60.6582,29.7407 Q58.1514,29.7407 56.8315,28.0889 Q55.5117,26.437 55.5117,23.3159 Q55.5117,20.1865 56.8315,18.5347 Q58.1514,16.8828 60.6582,16.8828 Q61.3638,16.8828 62.0112,17.0322 Q62.6587,17.1816 63.2231,17.4805 L63.2231,20.2031 Q62.5923,19.6221 61.9988,19.3523 Q61.4053,19.0825 60.7744,19.0825 Q59.4297,19.0825 58.7449,20.1492 Q58.0601,21.2158 58.0601,23.3159 Q58.0601,25.4077 58.7449,26.4744 Q59.4297,27.541 60.7744,27.541 Q61.4053,27.541 61.9988,27.2712 Q62.5923,27.0015 63.2231,26.4204 Z " fill="#000000"/><text fill="#000000" font-family="sans-serif" font-size="14" lengthAdjust="spacing" textLength="34" x="81.25" y="28.291">Duck</text><line style="stroke:#181818;stroke-width:0.5;" x1="8" x2="156" y1="39" y2="39"/><ellipse cx="18" cy="52.7441" fill="none" rx="3" ry="3" style="stroke:#038048;stroke-width:1.0;"/><text fill="#000000" font-family="sans-serif" font-size="14" lengthAdjust="spacing" textLength="124" x="27" y="56.5352">beakColor : String</text><line style="stroke:#181818;stroke-width:0.5;" x1="8" x2="156" y1="63.4883" y2="63.4883"/><ellipse cx="18" cy="77.2324" fill="#84BE84" rx="3" ry="3" style="stroke:#038048;stroke-width:1.0;"/><text fill="#000000" font-family="sans-serif" font-size="14" lengthAdjust="spacing" textLength="45" x="27" y="81.0234">swim()</text><ellipse cx="18" cy="93.7207" fill="#84BE84" rx="3" ry="3" style="stroke:#038048;stroke-width:1.0;"/><text fill="#000000" font-family="sans-serif" font-size="14" lengthAdjust="spacing" textLength="51" x="27" y="97.5117">quack()</text></g><!--class Fish--><g id="elem_Fish"><rect codeLine="8" fill="#F1F1F1" height="80.9766" id="Fish" rx="2.5" ry="2.5" style="stroke:#181818;stroke-width:0.5;" width="149" x="192.5" y="15"/><ellipse cx="248.75" cy="31" fill="#ADD1B2" rx="11" ry="11" style="stroke:#181818;stroke-width:1.0;"/><path d="M251.2231,37.1431 Q250.6421,37.4419 250.0029,37.5913 Q249.3638,37.7407 248.6582,37.7407 Q246.1514,37.7407 244.8315,36.0889 Q243.5117,34.437 243.5117,31.3159 Q243.5117,28.1865 244.8315,26.5347 Q246.1514,24.8828 248.6582,24.8828 Q249.3638,24.8828 250.0112,25.0322 Q250.6587,25.1816 251.2231,25.4805 L251.2231,28.2031 Q250.5923,27.6221 249.9988,27.3523 Q249.4053,27.0825 248.7744,27.0825 Q247.4297,27.0825 246.7449,28.1492 Q246.0601,29.2158 246.0601,31.3159 Q246.0601,33.4077 246.7449,34.4744 Q247.4297,35.541 248.7744,35.541 Q249.4053,35.541 249.9988,35.2712 Q250.5923,35.0015 251.2231,34.4204 Z " fill="#000000"/><text fill="#000000" font-family="sans-serif" font-size="14" lengthAdjust="spacing" textLength="28" x="269.25" y="36.291">Fish</text><line style="stroke:#181818;stroke-width:0.5;" x1="193.5" x2="340.5" y1="47" y2="47"/><rect fill="none" height="6" style="stroke:#C82930;stroke-width:1.0;" width="6" x="200.5" y="57.7441"/><text fill="#000000" font-family="sans-serif" font-size="14" lengthAdjust="spacing" textLength="99" x="212.5" y="64.5352">sizeInFeet : int</text><line style="stroke:#181818;stroke-width:0.5;" x1="193.5" x2="340.5" y1="71.4883" y2="71.4883"/><ellipse cx="203.5" cy="85.2324" fill="#84BE84" rx="3" ry="3" style="stroke:#038048;stroke-width:1.0;"/><text fill="#000000" font-family="sans-serif" font-size="14" lengthAdjust="spacing" textLength="123" x="212.5" y="89.0234">canEat() : boolean</text></g><!--class Zebra--><g id="elem_Zebra"><rect codeLine="13" fill="#F1F1F1" height="80.9766" id="Zebra" rx="2.5" ry="2.5" style="stroke:#181818;stroke-width:0.5;" width="115" x="376.5" y="15"/><ellipse cx="411.3" cy="31" fill="#ADD1B2" rx="11" ry="11" style="stroke:#181818;stroke-width:1.0;"/><path d="M413.7731,37.1431 Q413.1921,37.4419 412.5529,37.5913 Q411.9138,37.7407 411.2082,37.7407 Q408.7014,37.7407 407.3815,36.0889 Q406.0617,34.437 406.0617,31.3159 Q406.0617,28.1865 407.3815,26.5347 Q408.7014,24.8828 411.2082,24.8828 Q411.9138,24.8828 412.5612,25.0322 Q413.2087,25.1816 413.7731,25.4805 L413.7731,28.2031 Q413.1423,27.6221 412.5488,27.3523 Q411.9553,27.0825 411.3244,27.0825 Q409.9797,27.0825 409.2949,28.1492 Q408.6101,29.2158 408.6101,31.3159 Q408.6101,33.4077 409.2949,34.4744 Q409.9797,35.541 411.3244,35.541 Q411.9553,35.541 412.5488,35.2712 Q413.1423,35.0015 413.7731,34.4204 Z " fill="#000000"/><text fill="#000000" font-family="sans-serif" font-size="14" lengthAdjust="spacing" textLength="39" x="429.7" y="36.291">Zebra</text><line style="stroke:#181818;stroke-width:0.5;" x1="377.5" x2="490.5" y1="47" y2="47"/><ellipse cx="387.5" cy="60.7441" fill="none" rx="3" ry="3" style="stroke:#038048;stroke-width:1.0;"/><text fill="#000000" font-family="sans-serif" font-size="14" lengthAdjust="spacing" textLength="89" x="396.5" y="64.5352">is_wild : bool</text><line style="stroke:#181818;stroke-width:0.5;" x1="377.5" x2="490.5" y1="71.4883" y2="71.4883"/><ellipse cx="387.5" cy="85.2324" fill="#84BE84" rx="3" ry="3" style="stroke:#038048;stroke-width:1.0;"/><text fill="#000000" font-family="sans-serif" font-size="14" lengthAdjust="spacing" textLength="75" x="396.5" y="89.0234">run() : void</text></g><!--class Animal--><g id="elem_Animal"><rect codeLine="18" fill="#F1F1F1" height="113.9531" id="Animal" rx="2.5" ry="2.5" style="stroke:#181818;stroke-width:0.5;" width="148" x="193" y="164"/><ellipse cx="238.75" cy="180" fill="#ADD1B2" rx="11" ry="11" style="stroke:#181818;stroke-width:1.0;"/><path d="M241.2231,186.1431 Q240.6421,186.4419 240.0029,186.5913 Q239.3638,186.7407 238.6582,186.7407 Q236.1514,186.7407 234.8315,185.0889 Q233.5117,183.437 233.5117,180.3159 Q233.5117,177.1865 234.8315,175.5347 Q236.1514,173.8828 238.6582,173.8828 Q239.3638,173.8828 240.0112,174.0322 Q240.6587,174.1816 241.2231,174.4805 L241.2231,177.2031 Q240.5923,176.6221 239.9988,176.3523 Q239.4053,176.0825 238.7744,176.0825 Q237.4297,176.0825 236.7449,177.1492 Q236.0601,178.2158 236.0601,180.3159 Q236.0601,182.4077 236.7449,183.4744 Q237.4297,184.541 238.7744,184.541 Q239.4053,184.541 239.9988,184.2712 Q240.5923,184.0015 241.2231,183.4204 Z " fill="#000000"/><text fill="#000000" font-family="sans-serif" font-size="14" lengthAdjust="spacing" textLength="48" x="259.25" y="185.291">Animal</text><line style="stroke:#181818;stroke-width:0.5;" x1="194" x2="340" y1="196" y2="196"/><ellipse cx="204" cy="209.7441" fill="none" rx="3" ry="3" style="stroke:#038048;stroke-width:1.0;"/><text fill="#000000" font-family="sans-serif" font-size="14" lengthAdjust="spacing" textLength="55" x="213" y="213.5352">age : int</text><ellipse cx="204" cy="226.2324" fill="none" rx="3" ry="3" style="stroke:#038048;stroke-width:1.0;"/><text fill="#000000" font-family="sans-serif" font-size="14" lengthAdjust="spacing" textLength="102" x="213" y="230.0234">gender : String</text><line style="stroke:#181818;stroke-width:0.5;" x1="194" x2="340" y1="236.9766" y2="236.9766"/><ellipse cx="204" cy="250.7207" fill="#84BE84" rx="3" ry="3" style="stroke:#038048;stroke-width:1.0;"/><text fill="#000000" font-family="sans-serif" font-size="14" lengthAdjust="spacing" textLength="122" x="213" y="254.5117">isMammal() : bool</text><ellipse cx="204" cy="267.209" fill="#84BE84" rx="3" ry="3" style="stroke:#038048;stroke-width:1.0;"/><text fill="#000000" font-family="sans-serif" font-size="14" lengthAdjust="spacing" textLength="85" x="213" y="271">mate() : void</text></g><!--link Duck to Animal--><g id="link_Duck_Animal"><path codeLine="25" d="M136.01,104.23 C155.54,121.49 177.86,141.22 198.47,159.44 " fill="none" id="Duck-to-Animal" style="stroke:#181818;stroke-width:1.0;"/><polygon fill="#181818" points="201.99,162.54,197.9038,153.5788,198.2467,159.2253,192.6002,159.5682,201.99,162.54" style="stroke:#181818;stroke-width:1.0;"/></g><!--link Fish to Animal--><g id="link_Fish_Animal"><path codeLine="26" d="M267,96.5 C267,114.83 267,137 267,157.46 " fill="none" id="Fish-to-Animal" style="stroke:#181818;stroke-width:1.0;"/><polygon fill="#181818" points="267,162.24,271,153.24,267,157.24,263,153.24,267,162.24" style="stroke:#181818;stroke-width:1.0;"/></g><!--link Zebra to Animal--><g id="link_Zebra_Animal"><path codeLine="27" d="M393.15,96.5 C373.86,115.38 350.41,138.34 328.99,159.31 " fill="none" id="Zebra-to-Animal" style="stroke:#181818;stroke-width:1.0;"/><polygon fill="#181818" points="325.54,162.69,334.7746,159.2664,329.1182,159.1977,329.1869,153.5412,325.54,162.69" style="stroke:#181818;stroke-width:1.0;"/></g><!--SRC=[LO-n3i8m34JtVaN6LgW_m824W4eCJ6mio4sjOZLnH99I2SI_awGLRJVxTCztbWgS4yTUTkAJ2R6f4Rg3KSQAhRXwIzn6rGsayo9Epnva5yPlbic4LkGU2IqTlV7C5Q8FBB6FTWby0fyNGQcDKGWyapUiBOofvEu3gMPoHSNsdAYNeMP6zamQrCX0YtDEYzpWkZEv2-ZW_eT7KOF7rTtqULdkfjDPUcUnZoKNmWy0]--></g></svg>