<svg xmlns="http://www.w3.org/2000/svg" xmlns:xlink="http://www.w3.org/1999/xlink" contentStyleType="text/css" height="285px" preserveAspectRatio="none" style="width:494px;height:285px;background:#FFFFFF;" version="1.1" viewBox="0 0 494 285" width="494px" zoomAndPan="magnify"><defs/><g><!--class Duck--><g id="elem_Duck"><rect codeLine="2" fill="#F1F1F1" height="97.4648" id="Duck" rx="2.5" ry="2.5" style="stroke:#181818;stroke-width:0.5;" width="148.4453" x="7" y="7"/><ellipse cx="59.7085" cy="23" fill="#ADD1B2" rx="11" ry="11" style="stroke:#181818;stroke-width:1.0;"/><path d="M62.1816,29.1431 Q61.6006,29.4419 60.9614,29.5913 Q60.3223,29.7407 59.6167,29.7407 Q57.1099,29.7407 55.79,28.0889 Q54.4702,26.437 54.4702,23.3159 Q54.4702,20.1865 55.79,18.5347 Q57.1099,16.8828 59.6167,16.8828 Q60.3223,16.8828 60.9697,17.0322 Q61.6172,17.1816 62.1816,17.4805 L62.1816,20.2031 Q61.5508,19.6221 60.9573,19.3523 Q60.3638,19.0825 59.7329,19.0825 Q58.3882,19.0825 57.7034,20.1492 Q57.0186,21.2158 57.0186,23.3159 Q57.0186,25.4077 57.7034,26.4744 Q58.3882,27.541 59.7329,27.541 Q60.3638,27.541 60.9573,27.2712 Q61.5508,27.0015 62.1816,26.4204 Z " fill="#000000"/><text fill="#000000" font-family="sans-serif" font-size="14" lengthAdjust="spacing" textLength="34.5283" x="80.2085" y="28.291">Duck</text><line style="stroke:#181818;stroke-width:0.5;" x1="8" x2="154.4453" y1="39" y2="39"/><ellipse cx="18" cy="52.7441" fill="none" rx="3" ry="3" style="stroke:#038048;stroke-width:1.0;"/><text fill="#000000" font-family="sans-serif" font-size="14" lengthAdjust="spacing" textLength="122.4453" x="27" y="56.5352">beakColor : String</text><line style="stroke:#181818;stroke-width:0.5;" x1="8" x2="154.4453" y1="63.4883" y2="63.4883"/><ellipse cx="18" cy="77.2324" fill="#84BE84" rx="3" ry="3" style="stroke:#038048;stroke-width:1.0;"/><text fill="#000000" font-family="sans-serif" font-size="14" lengthAdjust="spacing" textLength="44.1465" x="27" y="81.0234">swim()</text><ellipse cx="18" cy="93.7207" fill="#84BE84" rx="3" ry="3" style="stroke:#038048;stroke-width:1.0;"/><text fill="#000000" font-family="sans-serif" font-size="14" lengthAdjust="spacing" textLength="49.6904" x="27" y="97.5117">quack()</text></g><!--class Fish--><g id="elem_Fish"><rect codeLine="8" fill="#F1F1F1" height="80.9766" id="Fish" rx="2.5" ry="2.5" style="stroke:#181818;stroke-width:0.5;" width="146.8184" x="190.81" y="15.25"/><ellipse cx="246.2802" cy="31.25" fill="#ADD1B2" rx="11" ry="11" style="stroke:#181818;stroke-width:1.0;"/><path d="M248.7534,37.3931 Q248.1723,37.6919 247.5331,37.8413 Q246.894,37.9907 246.1884,37.9907 Q243.6816,37.9907 242.3618,36.3389 Q241.0419,34.687 241.0419,31.5659 Q241.0419,28.4365 242.3618,26.7847 Q243.6816,25.1328 246.1884,25.1328 Q246.894,25.1328 247.5414,25.2822 Q248.1889,25.4316 248.7534,25.7305 L248.7534,28.4531 Q248.1225,27.8721 247.529,27.6023 Q246.9355,27.3325 246.3046,27.3325 Q244.9599,27.3325 244.2751,28.3992 Q243.5903,29.4658 243.5903,31.5659 Q243.5903,33.6577 244.2751,34.7244 Q244.9599,35.791 246.3046,35.791 Q246.9355,35.791 247.529,35.5212 Q248.1225,35.2515 248.7534,34.6704 Z " fill="#000000"/><text fill="#000000" font-family="sans-serif" font-size="14" lengthAdjust="spacing" textLength="27.3779" x="266.7802" y="36.541">Fish</text><line style="stroke:#181818;stroke-width:0.5;" x1="191.81" x2="336.6284" y1="47.25" y2="47.25"/><rect fill="none" height="6" style="stroke:#C82930;stroke-width:1.0;" width="6" x="198.81" y="57.9941"/><text fill="#000000" font-family="sans-serif" font-size="14" lengthAdjust="spacing" textLength="99.333" x="210.81" y="64.7852">sizeInFeet : int</text><line style="stroke:#181818;stroke-width:0.5;" x1="191.81" x2="336.6284" y1="71.7383" y2="71.7383"/><ellipse cx="201.81" cy="85.4824" fill="#84BE84" rx="3" ry="3" style="stroke:#038048;stroke-width:1.0;"/><text fill="#000000" font-family="sans-serif" font-size="14" lengthAdjust="spacing" textLength="120.8184" x="210.81" y="89.2734">canEat() : boolean</text></g><!--class Zebra--><g id="elem_Zebra"><rect codeLine="13" fill="#F1F1F1" height="80.9766" id="Zebra" rx="2.5" ry="2.5" style="stroke:#181818;stroke-width:0.5;" width="115.2227" x="372.61" y="15.25"/><ellipse cx="407.7198" cy="31.25" fill="#ADD1B2" rx="11" ry="11" style="stroke:#181818;stroke-width:1.0;"/><path d="M410.193,37.3931 Q409.6119,37.6919 408.9727,37.8413 Q408.3336,37.9907 407.628,37.9907 Q405.1212,37.9907 403.8014,36.3389 Q402.4815,34.687 402.4815,31.5659 Q402.4815,28.4365 403.8014,26.7847 Q405.1212,25.1328 407.628,25.1328 Q408.3336,25.1328 408.981,25.2822 Q409.6285,25.4316 410.193,25.7305 L410.193,28.4531 Q409.5621,27.8721 408.9686,27.6023 Q408.3751,27.3325 407.7442,27.3325 Q406.3995,27.3325 405.7147,28.3992 Q405.0299,29.4658 405.0299,31.5659 Q405.0299,33.6577 405.7147,34.7244 Q406.3995,35.791 407.7442,35.791 Q408.3751,35.791 408.9686,35.5212 Q409.5621,35.2515 410.193,34.6704 Z " fill="#000000"/><text fill="#000000" font-family="sans-serif" font-size="14" lengthAdjust="spacing" textLength="38.5342" x="426.1887" y="36.541">Zebra</text><line style="stroke:#181818;stroke-width:0.5;" x1="373.61" x2="486.8327" y1="47.25" y2="47.25"/><ellipse cx="383.61" cy="60.9941" fill="none" rx="3" ry="3" style="stroke:#038048;stroke-width:1.0;"/><text fill="#000000" font-family="sans-serif" font-size="14" lengthAdjust="spacing" textLength="89.2227" x="392.61" y="64.7852">is_wild : bool</text><line style="stroke:#181818;stroke-width:0.5;" x1="373.61" x2="486.8327" y1="71.7383" y2="71.7383"/><ellipse cx="383.61" cy="85.4824" fill="#84BE84" rx="3" ry="3" style="stroke:#038048;stroke-width:1.0;"/><text fill="#000000" font-family="sans-serif" font-size="14" lengthAdjust="spacing" textLength="74.2041" x="392.61" y="89.2734">run() : void</text></g><!--class Animal--><g id="elem_Animal"><rect codeLine="18" fill="#F1F1F1" height="113.9531" id="Animal" rx="2.5" ry="2.5" style="stroke:#181818;stroke-width:0.5;" width="147.3447" x="190.55" y="164.47"/><ellipse cx="236.3508" cy="180.47" fill="#ADD1B2" rx="11" ry="11" style="stroke:#181818;stroke-width:1.0;"/><path d="M238.8239,186.6131 Q238.2429,186.9119 237.6037,187.0613 Q236.9646,187.2107 236.259,187.2107 Q233.7521,187.2107 232.4323,185.5589 Q231.1125,183.907 231.1125,180.7859 Q231.1125,177.6565 232.4323,176.0047 Q233.7521,174.3528 236.259,174.3528 Q236.9646,174.3528 237.612,174.5022 Q238.2595,174.6516 238.8239,174.9505 L238.8239,177.6731 Q238.1931,177.0921 237.5996,176.8223 Q237.0061,176.5525 236.3752,176.5525 Q235.0305,176.5525 234.3457,177.6192 Q233.6608,178.6858 233.6608,180.7859 Q233.6608,182.8777 234.3457,183.9444 Q235.0305,185.011 236.3752,185.011 Q237.0061,185.011 237.5996,184.7412 Q238.1931,184.4715 238.8239,183.8904 Z " fill="#000000"/><text fill="#000000" font-family="sans-serif" font-size="14" lengthAdjust="spacing" textLength="47.2432" x="256.8508" y="185.761">Animal</text><line style="stroke:#181818;stroke-width:0.5;" x1="191.55" x2="336.8947" y1="196.47" y2="196.47"/><ellipse cx="201.55" cy="210.2141" fill="none" rx="3" ry="3" style="stroke:#038048;stroke-width:1.0;"/><text fill="#000000" font-family="sans-serif" font-size="14" lengthAdjust="spacing" textLength="55.5215" x="210.55" y="214.0052">age : int</text><ellipse cx="201.55" cy="226.7024" fill="none" rx="3" ry="3" style="stroke:#038048;stroke-width:1.0;"/><text fill="#000000" font-family="sans-serif" font-size="14" lengthAdjust="spacing" textLength="100.8164" x="210.55" y="230.4934">gender : String</text><line style="stroke:#181818;stroke-width:0.5;" x1="191.55" x2="336.8947" y1="237.4466" y2="237.4466"/><ellipse cx="201.55" cy="251.1907" fill="#84BE84" rx="3" ry="3" style="stroke:#038048;stroke-width:1.0;"/><text fill="#000000" font-family="sans-serif" font-size="14" lengthAdjust="spacing" textLength="121.3447" x="210.55" y="254.9817">isMammal() : bool</text><ellipse cx="201.55" cy="267.679" fill="#84BE84" rx="3" ry="3" style="stroke:#038048;stroke-width:1.0;"/><text fill="#000000" font-family="sans-serif" font-size="14" lengthAdjust="spacing" textLength="84.9365" x="210.55" y="271.47">mate() : void</text></g><!--link Duck to Animal--><g id="link_Duck_Animal"><path codeLine="25" d="M134.65,104.53 C155.53,123.21 175.1791,140.7786 196.8891,160.2086 " fill="none" id="Duck-to-Animal" style="stroke:#181818;stroke-width:1.0;"/><polygon fill="#181818" points="201.36,164.21,197.3212,155.2273,197.6342,160.8755,191.9861,161.1885,201.36,164.21" style="stroke:#181818;stroke-width:1.0;"/></g><!--link Fish to Animal--><g id="link_Fish_Animal"><path codeLine="26" d="M264.22,96.36 C264.22,116.71 264.22,135.85 264.22,158.16 " fill="none" id="Fish-to-Animal" style="stroke:#181818;stroke-width:1.0;"/><polygon fill="#181818" points="264.22,164.16,268.22,155.16,264.22,159.16,260.22,155.16,264.22,164.16" style="stroke:#181818;stroke-width:1.0;"/></g><!--link Zebra to Animal--><g id="link_Zebra_Animal"><path codeLine="27" d="M390.04,96.36 C369.41,116.71 348.1927,137.6377 325.5627,159.9477 " fill="none" id="Zebra-to-Animal" style="stroke:#181818;stroke-width:1.0;"/><polygon fill="#181818" points="321.29,164.16,330.5073,160.69,324.8506,160.6497,324.8909,154.993,321.29,164.16" style="stroke:#181818;stroke-width:1.0;"/></g><!--SRC=[LO-n3i8m34JtVaN6LgW_m824W4eCJ6mio4sjOZLnH99I2SI_awGLRJVxTCztbWgS4yTUTkAJ2R6f4Rg3KSQAhRXwIzn6rGsayo9Epnva5yPlbic4LkGU2IqTlV7C5Q8FBB6FTWby0fyNGQcDKGWyapUiBOofvEu3gMPoHSNsdAYNeMP6zamQrCX0YtDEYzpWkZEv2-ZW_eT7KOF7rTtqULdkfjDPUcUnZoKNmWy0]--></g></svg>