<?xml version="1.0" encoding="UTF-8" standalone="no"?><svg xmlns="http://www.w3.org/2000/svg" xmlns:xlink="http://www.w3.org/1999/xlink" contentStyleType="text/css" height="59px" preserveAspectRatio="none" style="width:234px;height:59px;background:#FFFFFF;" version="1.1" viewBox="0 0 234 59" width="234px" zoomAndPan="magnify"><defs/><g><!--MD5=[59b6c3ea9c26be86a987620d7162f6cd]
entity hello--><g id="elem_hello"><rect fill="#F1F1F1" height="46.4883" rx="2.5" ry="2.5" style="stroke:#181818;stroke-width:0.5;" width="74" x="7" y="7"/><rect fill="#F1F1F1" height="10" style="stroke:#181818;stroke-width:0.5;" width="15" x="61" y="12"/><rect fill="#F1F1F1" height="2" style="stroke:#181818;stroke-width:0.5;" width="4" x="59" y="14"/><rect fill="#F1F1F1" height="2" style="stroke:#181818;stroke-width:0.5;" width="4" x="59" y="18"/><text fill="#000000" font-family="sans-serif" font-size="14" lengthAdjust="spacing" textLength="34" x="22" y="40.5352">hello</text></g><!--MD5=[5b15d04c6eb656314d90c943872e8a65]
entity w--><g id="elem_w"><rect fill="#F1F1F1" height="46.4883" rx="2.5" ry="2.5" style="stroke:#181818;stroke-width:0.5;" width="79" x="149.5" y="7"/><rect fill="#F1F1F1" height="10" style="stroke:#181818;stroke-width:0.5;" width="15" x="208.5" y="12"/><rect fill="#F1F1F1" height="2" style="stroke:#181818;stroke-width:0.5;" width="4" x="206.5" y="14"/><rect fill="#F1F1F1" height="2" style="stroke:#181818;stroke-width:0.5;" width="4" x="206.5" y="18"/><text fill="#000000" font-family="sans-serif" font-size="14" lengthAdjust="spacing" textLength="39" x="164.5" y="40.5352">world</text></g><!--MD5=[7c33d48c3c3352bf903d5413f1af6b42]
link hello to w--><g id="link_hello_w"><path d="M81.34,30 C100.53,30 124.04,30 144.2,30 " fill="none" id="hello-to-w" style="stroke:#181818;stroke-width:1.0;"/><polygon fill="#181818" points="149.25,30,140.25,26,144.25,30,140.25,34,149.25,30" style="stroke:#181818;stroke-width:1.0;"/><text fill="#000000" font-family="sans-serif" font-size="13" lengthAdjust="spacing" textLength="32" x="99.25" y="23.5684">there</text></g><!--MD5=[c2405d6b9481e9d7fc063a8450145945]
@startuml

[hello]
[world] as w

[hello] -> w: there

@enduml

PlantUML version 1.2022.8(Sun Sep 25 02:00:33 PDT 2022)
(GPL source distribution)
Java Runtime: OpenJDK Runtime Environment
JVM: OpenJDK 64-Bit Server VM
Default Encoding: UTF-8
Language: en
Country: US
--></g></svg>