<?xml version="1.0" encoding="us-ascii" standalone="no"?><svg xmlns="http://www.w3.org/2000/svg" xmlns:xlink="http://www.w3.org/1999/xlink" contentStyleType="text/css" height="59px" preserveAspectRatio="none" style="width:234px;height:59px;background:#FFFFFF;" version="1.1" viewBox="0 0 234 59" width="234px" zoomAndPan="magnify"><defs/><g><!--entity hello--><g id="elem_hello"><rect fill="#F1F1F1" height="46.4883" rx="2.5" ry="2.5" style="stroke:#181818;stroke-width:0.5;" width="74" x="7" y="7"/><rect fill="#F1F1F1" height="10" style="stroke:#181818;stroke-width:0.5;" width="15" x="61" y="12"/><rect fill="#F1F1F1" height="2" style="stroke:#181818;stroke-width:0.5;" width="4" x="59" y="14"/><rect fill="#F1F1F1" height="2" style="stroke:#181818;stroke-width:0.5;" width="4" x="59" y="18"/><text fill="#000000" font-family="sans-serif" font-size="14" lengthAdjust="spacing" textLength="34" x="22" y="40.5352">hello</text></g><!--entity w--><g id="elem_w"><rect fill="#F1F1F1" height="46.4883" rx="2.5" ry="2.5" style="stroke:#181818;stroke-width:0.5;" width="79" x="149.5" y="7"/><rect fill="#F1F1F1" height="10" style="stroke:#181818;stroke-width:0.5;" width="15" x="208.5" y="12"/><rect fill="#F1F1F1" height="2" style="stroke:#181818;stroke-width:0.5;" width="4" x="206.5" y="14"/><rect fill="#F1F1F1" height="2" style="stroke:#181818;stroke-width:0.5;" width="4" x="206.5" y="18"/><text fill="#000000" font-family="sans-serif" font-size="14" lengthAdjust="spacing" textLength="39" x="164.5" y="40.5352">world</text></g><!--link hello to w--><g id="link_hello_w"><path d="M81.34,30 C100.12,30 123.05,30 142.91,30 " fill="none" id="hello-to-w" style="stroke:#181818;stroke-width:1.0;"/><polygon fill="#181818" points="147.73,30,138.73,26,142.73,30,138.73,34,147.73,30" style="stroke:#181818;stroke-width:1.0;"/><text fill="#000000" font-family="sans-serif" font-size="13" lengthAdjust="spacing" textLength="32" x="99.25" y="23.5684">there</text></g><!--SRC=[Yyv8pSd9Z-MABiyloac9LKWiLYZdueg6Y2hesYcKMocKPAGMfN810000]--></g></svg>