<svg xmlns="http://www.w3.org/2000/svg" xmlns:xlink="http://www.w3.org/1999/xlink" contentStyleType="text/css" height="59px" preserveAspectRatio="none" style="width:232px;height:59px;background:#FFFFFF;" version="1.1" viewBox="0 0 232 59" width="232px" zoomAndPan="magnify"><defs/><g><!--entity hello--><g id="elem_hello"><rect fill="#F1F1F1" height="46.4883" rx="2.5" ry="2.5" style="stroke:#181818;stroke-width:0.5;" width="73.1816" x="7" y="7"/><rect fill="#F1F1F1" height="10" style="stroke:#181818;stroke-width:0.5;" width="15" x="60.1816" y="12"/><rect fill="#F1F1F1" height="2" style="stroke:#181818;stroke-width:0.5;" width="4" x="58.1816" y="14"/><rect fill="#F1F1F1" height="2" style="stroke:#181818;stroke-width:0.5;" width="4" x="58.1816" y="18"/><text fill="#000000" font-family="sans-serif" font-size="14" lengthAdjust="spacing" textLength="33.1816" x="22" y="40.5352">hello</text></g><!--entity w--><g id="elem_w"><rect fill="#F1F1F1" height="46.4883" rx="2.5" ry="2.5" style="stroke:#181818;stroke-width:0.5;" width="77.9736" x="148.6" y="7"/><rect fill="#F1F1F1" height="10" style="stroke:#181818;stroke-width:0.5;" width="15" x="206.5736" y="12"/><rect fill="#F1F1F1" height="2" style="stroke:#181818;stroke-width:0.5;" width="4" x="204.5736" y="14"/><rect fill="#F1F1F1" height="2" style="stroke:#181818;stroke-width:0.5;" width="4" x="204.5736" y="18"/><text fill="#000000" font-family="sans-serif" font-size="14" lengthAdjust="spacing" textLength="37.9736" x="163.6" y="40.5352">world</text></g><!--link hello to w--><g id="link_hello_w"><path d="M80.67,30.25 C101.34,30.25 121.07,30.25 142.11,30.25 " fill="none" id="hello-to-w" style="stroke:#181818;stroke-width:1.0;"/><polygon fill="#181818" points="148.11,30.25,139.11,26.25,143.11,30.25,139.11,34.25,148.11,30.25" style="stroke:#181818;stroke-width:1.0;"/><text fill="#000000" font-family="sans-serif" font-size="13" lengthAdjust="spacing" textLength="32.7349" x="98.39" y="23.8184">there</text></g><!--SRC=[Yyv8pSd9Z-MABiyloac9LKWiLYZdueg6Y2hesYcKMocKPAGMfN810000]--></g></svg>