<svg width="32" height="32" viewBox="0 0 32 32" fill="none" xmlns="http://www.w3.org/2000/svg">
<path fill-rule="evenodd" clip-rule="evenodd" d="M3.16699 16.0013C3.16699 8.91365 8.91267 3.16797 16.0003 3.16797C23.088 3.16797 28.8337 8.91365 28.8337 16.0013C28.8337 23.089 23.088 28.8346 16.0003 28.8346C8.91267 28.8346 3.16699 23.089 3.16699 16.0013ZM16.0003 2.16797C8.36039 2.16797 2.16699 8.36136 2.16699 16.0013C2.16699 23.6412 8.36039 29.8346 16.0003 29.8346C23.6403 29.8346 29.8337 23.6412 29.8337 16.0013C29.8337 8.36136 23.6403 2.16797 16.0003 2.16797ZM22.577 11.6882C22.7722 11.4929 22.7722 11.1763 22.577 10.9811C22.3817 10.7858 22.0651 10.7858 21.8699 10.9811L13.6679 19.1831L10.1325 15.6477C9.93726 15.4525 9.62068 15.4525 9.42542 15.6477C9.23015 15.843 9.23015 16.1596 9.42542 16.3549L13.3143 20.2437C13.5096 20.439 13.8262 20.439 14.0214 20.2437L22.577 11.6882Z" fill="#4A6FF3"/>
</svg>
