<svg width="100" height="100" viewBox="0 0 100 100" fill="none" xmlns="http://www.w3.org/2000/svg">
<circle cx="50" cy="50" r="50" fill="#E0E7FF"/>
<path fill-rule="evenodd" clip-rule="evenodd" d="M52.2682 80.5329C54.5545 80.9997 55.6977 81.2332 56.5937 80.5017C57.4896 79.7702 57.4896 78.5112 57.4896 75.9933L57.4896 47.352C57.4896 45.0539 57.4896 43.9048 56.7757 43.1909C56.0618 42.477 54.9127 42.477 52.6146 42.477L23.4839 42.477C20.9326 42.477 19.657 42.477 18.9252 43.3883C18.1934 44.2997 18.4487 45.4539 18.9593 47.7624C20.6662 55.4801 24.5215 62.8183 30.5249 68.8218C36.7055 75.0023 44.3006 78.906 52.2682 80.5329Z" fill="#476CEF"/>
<path fill-rule="evenodd" clip-rule="evenodd" d="M74.8519 58.6378C74.8519 61.1557 74.8519 62.4147 73.956 63.1462C73.06 63.8777 71.9168 63.6443 69.6305 63.1774C61.6629 61.5506 54.0678 57.6469 47.8872 51.4663C41.8838 45.4629 38.0285 38.1246 36.3216 30.4069C35.811 28.0984 35.5557 26.9442 36.2875 26.0328C37.0193 25.1215 38.295 25.1215 40.8462 25.1215L69.9769 25.1215C72.275 25.1215 73.4241 25.1215 74.138 25.8354C74.8519 26.5494 74.8519 27.6984 74.8519 29.9965L74.8519 58.6378Z" fill="#94ABFF"/>
<path fill-rule="evenodd" clip-rule="evenodd" d="M57.4875 58.7006L57.4875 47.3516C57.4875 45.0535 57.4875 43.9044 56.7735 43.1905C56.0596 42.4766 54.9106 42.4766 52.6125 42.4766L40.9946 42.4766C42.8419 45.6903 45.1388 48.7161 47.8852 51.4625C50.8066 54.3839 54.044 56.7966 57.4875 58.7006Z" fill="#234CDA"/>
</svg>
