<svg width="16" height="16" viewBox="0 0 16 16" fill="none" xmlns="http://www.w3.org/2000/svg">
<path d="M8 10C9.10457 10 10 9.10457 10 8C10 6.89543 9.10457 6 8 6C6.89543 6 6 6.89543 6 8C6 9.10457 6.89543 10 8 10Z" stroke="#2E3346" stroke-linecap="round" stroke-linejoin="round"/>
<path d="M12.4849 9.81883C12.4042 10.0016 12.3801 10.2044 12.4158 10.401C12.4514 10.5976 12.5451 10.779 12.6849 10.9219L12.7212 10.9582C12.8339 11.0708 12.9233 11.2045 12.9843 11.3516C13.0453 11.4988 13.0767 11.6565 13.0767 11.8158C13.0767 11.9751 13.0453 12.1328 12.9843 12.28C12.9233 12.4271 12.8339 12.5608 12.7212 12.6734C12.6086 12.7861 12.475 12.8755 12.3278 12.9365C12.1807 12.9975 12.0229 13.0289 11.8636 13.0289C11.7044 13.0289 11.5466 12.9975 11.3995 12.9365C11.2523 12.8755 11.1186 12.7861 11.0061 12.6734L10.9697 12.637C10.8269 12.4973 10.6455 12.4036 10.4489 12.3679C10.2522 12.3323 10.0495 12.3563 9.86668 12.437C9.68742 12.5138 9.53455 12.6414 9.42686 12.804C9.31918 12.9666 9.26139 13.1571 9.26062 13.3522V13.4552C9.26062 13.7767 9.13291 14.085 8.90559 14.3123C8.67828 14.5396 8.36997 14.6673 8.0485 14.6673C7.72702 14.6673 7.41871 14.5396 7.1914 14.3123C6.96408 14.085 6.83637 13.7767 6.83637 13.4552V13.4007C6.83168 13.2 6.76675 13.0055 6.65002 12.8423C6.53328 12.6791 6.37015 12.5548 6.18183 12.4855C5.99903 12.4048 5.79626 12.3808 5.59965 12.4164C5.40305 12.4521 5.22163 12.5458 5.0788 12.6855L5.04243 12.7219C4.92986 12.8346 4.79618 12.924 4.64903 12.985C4.50188 13.046 4.34415 13.0774 4.18486 13.0774C4.02557 13.0774 3.86784 13.046 3.72069 12.985C3.57354 12.924 3.43986 12.8346 3.32728 12.7219C3.21458 12.6093 3.12518 12.4756 3.06418 12.3285C3.00318 12.1813 2.97178 12.0236 2.97178 11.8643C2.97178 11.705 3.00318 11.5473 3.06418 11.4001C3.12518 11.253 3.21458 11.1193 3.32728 11.0067L3.36365 10.9703C3.50337 10.8275 3.59709 10.6461 3.63274 10.4495C3.66839 10.2529 3.64432 10.0501 3.56365 9.86732C3.48682 9.68806 3.35926 9.53519 3.19666 9.4275C3.03406 9.31982 2.84352 9.26204 2.6485 9.26126H2.54546C2.22399 9.26126 1.91568 9.13355 1.68837 8.90623C1.46105 8.67892 1.33334 8.37061 1.33334 8.04914C1.33334 7.72766 1.46105 7.41935 1.68837 7.19204C1.91568 6.96472 2.22399 6.83701 2.54546 6.83701H2.60001C2.80061 6.83232 2.99516 6.76739 3.15837 6.65066C3.32158 6.53393 3.4459 6.37079 3.51516 6.18247C3.59584 5.99967 3.6199 5.7969 3.58426 5.60029C3.54861 5.40369 3.45488 5.22227 3.31516 5.07944L3.2788 5.04308C3.1661 4.9305 3.07669 4.79682 3.0157 4.64967C2.9547 4.50252 2.9233 4.34479 2.9233 4.1855C2.9233 4.02621 2.9547 3.86848 3.0157 3.72133C3.07669 3.57418 3.1661 3.4405 3.2788 3.32792C3.39137 3.21523 3.52505 3.12582 3.6722 3.06482C3.81935 3.00382 3.97708 2.97242 4.13637 2.97242C4.29567 2.97242 4.45339 3.00382 4.60054 3.06482C4.74769 3.12582 4.88138 3.21523 4.99395 3.32792L5.03031 3.36429C5.17315 3.50401 5.35457 3.59773 5.55117 3.63338C5.74777 3.66903 5.95055 3.64496 6.13334 3.56429H6.18183C6.36108 3.48746 6.51396 3.3599 6.62164 3.1973C6.72932 3.0347 6.78711 2.84416 6.78789 2.64914V2.54611C6.78789 2.22463 6.91559 1.91632 7.14291 1.68901C7.37023 1.46169 7.67854 1.33398 8.00001 1.33398C8.32148 1.33398 8.62979 1.46169 8.85711 1.68901C9.08443 1.91632 9.21213 2.22463 9.21213 2.54611V2.60065C9.21291 2.79567 9.2707 2.98621 9.37838 3.14881C9.48606 3.31141 9.63894 3.43898 9.81819 3.5158C10.001 3.59648 10.2038 3.62054 10.4004 3.5849C10.597 3.54925 10.7784 3.45552 10.9212 3.3158L10.9576 3.27944C11.0702 3.16674 11.2038 3.07734 11.351 3.01634C11.4981 2.95534 11.6559 2.92394 11.8152 2.92394C11.9745 2.92394 12.1322 2.95534 12.2793 3.01634C12.4265 3.07734 12.5602 3.16674 12.6727 3.27944C12.7854 3.39201 12.8748 3.5257 12.9358 3.67284C12.9968 3.81999 13.0282 3.97772 13.0282 4.13701C13.0282 4.29631 12.9968 4.45404 12.9358 4.60118C12.8748 4.74833 12.7854 4.88202 12.6727 4.99459L12.6364 5.03095C12.4967 5.17379 12.4029 5.35521 12.3673 5.55181C12.3316 5.74841 12.3557 5.95119 12.4364 6.13398V6.18247C12.5132 6.36172 12.6408 6.5146 12.8034 6.62228C12.966 6.72997 13.1565 6.78775 13.3515 6.78853H13.4546C13.776 6.78853 14.0843 6.91624 14.3117 7.14355C14.539 7.37087 14.6667 7.67918 14.6667 8.00065C14.6667 8.32213 14.539 8.63043 14.3117 8.85775C14.0843 9.08507 13.776 9.21277 13.4546 9.21277H13.4C13.205 9.21355 13.0145 9.27134 12.8518 9.37902C12.6892 9.4867 12.5617 9.63958 12.4849 9.81883V9.81883Z" stroke="#2E3346" stroke-linecap="round" stroke-linejoin="round"/>
</svg>
