<svg width="16" height="16" viewBox="0 0 16 16" fill="none" xmlns="http://www.w3.org/2000/svg">
<path d="M5.99967 12.6663C2.66634 13.6663 2.66634 10.9996 1.33301 10.6663M10.6663 14.6663V12.0863C10.6913 11.7684 10.6484 11.4488 10.5404 11.1488C10.4323 10.8488 10.2616 10.5752 10.0397 10.3463C12.133 10.113 14.333 9.31963 14.333 5.67963C14.3328 4.74885 13.9748 3.85377 13.333 3.17963C13.6369 2.3653 13.6154 1.4652 13.273 0.6663C13.273 0.6663 12.4863 0.432966 10.6663 1.65297C9.13835 1.23885 7.52767 1.23885 5.99967 1.65297C4.17967 0.432966 3.39301 0.6663 3.39301 0.6663C3.05059 1.4652 3.0291 2.3653 3.33301 3.17963C2.68643 3.85877 2.32802 4.76194 2.33301 5.69963C2.33301 9.31297 4.53301 10.1063 6.62634 10.3663C6.40701 10.5929 6.23785 10.8632 6.12988 11.1596C6.02191 11.4559 5.97755 11.7717 5.99967 12.0863V14.6663" stroke="#234CDA" stroke-linecap="round" stroke-linejoin="round"/>
</svg>
