<svg width="16" height="16" viewBox="0 0 16 16" fill="none" xmlns="http://www.w3.org/2000/svg">
<path d="M6.79297 8.59734C7.0521 8.94377 7.38271 9.23042 7.76237 9.43785C8.14202 9.64527 8.56185 9.76862 8.99337 9.79952C9.42489 9.83043 9.85801 9.76817 10.2633 9.61696C10.6687 9.46576 11.0368 9.22915 11.3426 8.92318L13.1528 7.11297C13.7024 6.54396 14.0065 5.78185 13.9996 4.9908C13.9928 4.19975 13.6755 3.44304 13.1161 2.88366C12.5567 2.32428 11.8 2.00699 11.0089 2.00011C10.2179 1.99324 9.45579 2.29734 8.88678 2.84691L7.84892 3.87873" stroke="#2E3346" stroke-linecap="round" stroke-linejoin="round"/>
<path d="M9.20678 7.38958C8.94765 7.04314 8.61704 6.7565 8.23738 6.54907C7.85772 6.34165 7.4379 6.2183 7.00638 6.1874C6.57486 6.15649 6.14174 6.21875 5.7364 6.36996C5.33106 6.52116 4.96298 6.75777 4.65712 7.06374L2.84691 8.87395C2.29734 9.44296 1.99324 10.2051 2.00011 10.9961C2.00699 11.7872 2.32428 12.5439 2.88366 13.1033C3.44304 13.6626 4.19975 13.9799 4.9908 13.9868C5.78185 13.9937 6.54395 13.6896 7.11297 13.14L8.14479 12.1082" stroke="#2E3346" stroke-linecap="round" stroke-linejoin="round"/>
</svg>
