<svg width="21" height="20" viewBox="0 0 21 20" fill="none" xmlns="http://www.w3.org/2000/svg">
<path fill-rule="evenodd" clip-rule="evenodd" d="M14.2871 8.89549L18.0166 6.74221C18.1601 6.65936 18.2092 6.47588 18.1264 6.33239L17.4889 5.22818C17.406 5.08469 17.2226 5.03552 17.0791 5.11837L13.3762 7.25631C12.6595 6.48283 11.6364 5.99894 10.5008 5.99894C9.36507 5.99894 8.34204 6.48284 7.62536 7.25632L3.92251 5.11843C3.77902 5.03558 3.59555 5.08474 3.51271 5.22823L2.8752 6.33245C2.79236 6.47594 2.84152 6.65942 2.98501 6.74226L6.71445 8.89551C6.62408 9.22709 6.57584 9.57611 6.57584 9.93644C6.57583 11.7869 7.84824 13.3392 9.5632 13.7609V18.1369C9.5632 18.3026 9.69752 18.4369 9.8632 18.4369H11.1382C11.3039 18.4369 11.4382 18.3026 11.4382 18.1369V13.7609C13.1532 13.3393 14.4257 11.7869 14.4257 9.93644C14.4257 9.57611 14.3774 9.22707 14.2871 8.89549ZM8.45694 9.93644C8.45694 8.79505 9.37766 7.88004 10.5008 7.88004C11.6239 7.88004 12.5446 8.79505 12.5446 9.93644C12.5446 11.0778 11.6239 11.9928 10.5008 11.9928C9.37766 11.9928 8.45694 11.0778 8.45694 9.93644Z" fill="#476CEF"/>
<path d="M9.5625 1.8625C9.5625 1.69681 9.69681 1.5625 9.8625 1.5625H11.1375C11.3032 1.5625 11.4375 1.69681 11.4375 1.8625V4.38758C11.4375 4.55326 11.3032 4.68758 11.1375 4.68758H9.8625C9.69681 4.68758 9.5625 4.55326 9.5625 4.38758V1.8625Z" fill="#94ABFF"/>
<path d="M18.0156 13.2562C18.1591 13.3391 18.2082 13.5226 18.1254 13.6661L17.4879 14.7703C17.405 14.9138 17.2216 14.9629 17.0781 14.8801L14.8914 13.6176C14.7479 13.5347 14.6987 13.3512 14.7816 13.2077L15.4191 12.1035C15.5019 11.96 15.6854 11.9109 15.8289 11.9937L18.0156 13.2562Z" fill="#94ABFF"/>
<path d="M3.92289 14.8812C3.77941 14.9641 3.59593 14.9149 3.51309 14.7714L2.87558 13.6672C2.79274 13.5237 2.84191 13.3403 2.98539 13.2574L5.17211 11.9949C5.3156 11.912 5.49907 11.9612 5.58191 12.1047L6.21942 13.2089C6.30226 13.3524 6.25309 13.5359 6.10961 13.6187L3.92289 14.8812Z" fill="#94ABFF"/>
</svg>
