<?xml version="1.0" encoding="UTF-8" standalone="no"?>
<!DOCTYPE svg PUBLIC "-//W3C//DTD SVG 1.1//EN"
 "http://www.w3.org/Graphics/SVG/1.1/DTD/svg11.dtd">
<!-- Generated by graphviz version 12.2.1 (20241206.2353)
 -->
<!-- Title: G Pages: 1 -->
<svg width="1790pt" height="338pt"
 viewBox="0.00 0.00 1789.74 337.50" xmlns="http://www.w3.org/2000/svg" xmlns:xlink="http://www.w3.org/1999/xlink">
<g id="graph0" class="graph" transform="scale(1 1) rotate(0) translate(4 333.5)">
<title>G</title>
<polygon fill="white" stroke="none" points="-4,4 -4,-333.5 1785.74,-333.5 1785.74,4 -4,4"/>
<g id="clust1" class="cluster">
<title>cluster_ibm</title>
<polygon fill="none" stroke="black" points="8,-136 8,-321.5 754,-321.5 754,-136 8,-136"/>
<text text-anchor="middle" x="381" y="-304.2" font-family="Times,serif" font-size="14.00">IBM &quot;Espresso&quot; CPU</text>
</g>
<g id="clust2" class="cluster">
<title>cluster_amd</title>
<polygon fill="none" stroke="black" points="762,-64 762,-245 1550,-245 1550,-64 762,-64"/>
<text text-anchor="middle" x="1156" y="-227.7" font-family="Times,serif" font-size="14.00">AMD &quot;Latte&quot; GPU</text>
</g>
<g id="clust3" class="cluster">
<title>cluster_gx</title>
<polygon fill="none" stroke="black" points="770,-136 770,-212.5 936,-212.5 936,-136 770,-136"/>
<text text-anchor="middle" x="853" y="-195.2" font-family="Times,serif" font-size="14.00">GX</text>
</g>
<!-- core0 -->
<g id="node1" class="node">
<title>core0</title>
<ellipse fill="none" stroke="black" cx="150" cy="-271" rx="134.26" ry="18"/>
<text text-anchor="middle" x="150" y="-265.95" font-family="Times,serif" font-size="14.00">IBM PowerPC Broadway Core 0</text>
</g>
<!-- core2 -->
<g id="node3" class="node">
<title>core2</title>
<ellipse fill="none" stroke="black" cx="265" cy="-162" rx="134.26" ry="18"/>
<text text-anchor="middle" x="265" y="-156.95" font-family="Times,serif" font-size="14.00">IBM PowerPC Broadway Core 2</text>
</g>
<!-- core0&#45;&gt;core2 -->
<g id="edge1" class="edge">
<title>core0&#45;&gt;core2</title>
<path fill="none" stroke="black" d="M168.48,-252.81C189.94,-232.84 225.13,-200.1 246.57,-180.15"/>
</g>
<!-- core1 -->
<g id="node2" class="node">
<title>core1</title>
<ellipse fill="none" stroke="black" cx="612" cy="-271" rx="134.26" ry="18"/>
<text text-anchor="middle" x="612" y="-265.95" font-family="Times,serif" font-size="14.00">IBM PowerPC Broadway Core 1</text>
</g>
<!-- mem -->
<g id="node5" class="node">
<title>mem</title>
<ellipse fill="none" stroke="black" cx="1042" cy="-162" rx="96.39" ry="18"/>
<text text-anchor="middle" x="1042" y="-156.95" font-family="Times,serif" font-size="14.00">Memory &amp; I/O Bridge</text>
</g>
<!-- core1&#45;&gt;mem -->
<g id="edge13" class="edge">
<title>core1&#45;&gt;mem</title>
<path fill="none" stroke="black" d="M744.5,-267.81C819.49,-265.03 905.08,-258.81 940,-245 975.71,-230.88 1008.72,-199.67 1027.04,-180.08"/>
</g>
<!-- rom -->
<g id="node4" class="node">
<title>rom</title>
<ellipse fill="none" stroke="black" cx="381" cy="-271" rx="78.99" ry="18"/>
<text text-anchor="middle" x="381" y="-265.95" font-family="Times,serif" font-size="14.00">512 B SEEPROM</text>
</g>
<!-- rom&#45;&gt;core2 -->
<g id="edge2" class="edge">
<title>rom&#45;&gt;core2</title>
<path fill="none" stroke="black" d="M362.62,-253.05C343.64,-235.54 313.82,-208.03 292.13,-188.03"/>
<polygon fill="black" stroke="black" points="294.51,-185.46 284.79,-181.26 289.77,-190.61 294.51,-185.46"/>
</g>
<!-- rom&#45;&gt;mem -->
<g id="edge5" class="edge">
<title>rom&#45;&gt;mem</title>
<path fill="none" stroke="black" d="M436.17,-257.82C447.01,-255.86 458.32,-254.11 469,-253 495.03,-250.29 915.39,-253.9 940,-245 976.32,-231.86 1009.38,-200.01 1027.5,-180.1"/>
</g>
<!-- sata -->
<g id="node8" class="node">
<title>sata</title>
<ellipse fill="none" stroke="black" cx="1141" cy="-90" rx="43.67" ry="18"/>
<text text-anchor="middle" x="1141" y="-84.95" font-family="Times,serif" font-size="14.00">SATA IF</text>
</g>
<!-- mem&#45;&gt;sata -->
<g id="edge6" class="edge">
<title>mem&#45;&gt;sata</title>
<path fill="none" stroke="black" d="M1065.71,-144.23C1082.19,-132.58 1103.95,-117.2 1119.84,-105.96"/>
</g>
<!-- exi -->
<g id="node9" class="node">
<title>exi</title>
<ellipse fill="none" stroke="black" cx="1234" cy="-90" rx="27" ry="18"/>
<text text-anchor="middle" x="1234" y="-84.95" font-family="Times,serif" font-size="14.00">EXI</text>
</g>
<!-- mem&#45;&gt;exi -->
<g id="edge7" class="edge">
<title>mem&#45;&gt;exi</title>
<path fill="none" stroke="black" d="M1088.18,-145.78C1118.46,-135.59 1158.81,-121.6 1194,-108 1199.77,-105.77 1205.95,-103.22 1211.68,-100.79"/>
</g>
<!-- radeon -->
<g id="node11" class="node">
<title>radeon</title>
<ellipse fill="none" stroke="black" cx="892" cy="-90" rx="106.63" ry="18"/>
<text text-anchor="middle" x="892" y="-84.95" font-family="Times,serif" font-size="14.00">AMD Radeon R7xx GX2</text>
</g>
<!-- mem&#45;&gt;radeon -->
<g id="edge4" class="edge">
<title>mem&#45;&gt;radeon</title>
<path fill="none" stroke="black" d="M1007.21,-144.76C983.15,-133.54 951.25,-118.65 927.12,-107.39"/>
</g>
<!-- gx -->
<g id="node12" class="node">
<title>gx</title>
<ellipse fill="none" stroke="black" cx="1044" cy="-90" rx="27" ry="18"/>
<text text-anchor="middle" x="1044" y="-84.95" font-family="Times,serif" font-size="14.00">gx</text>
</g>
<!-- mem&#45;&gt;gx -->
<g id="edge3" class="edge">
<title>mem&#45;&gt;gx</title>
<path fill="none" stroke="black" d="M1042.49,-143.7C1042.8,-132.85 1043.2,-118.92 1043.51,-108.1"/>
</g>
<!-- ddr3 -->
<g id="node13" class="node">
<title>ddr3</title>
<ellipse fill="none" stroke="black" cx="1670" cy="-90" rx="111.74" ry="18"/>
<text text-anchor="middle" x="1670" y="-84.95" font-family="Times,serif" font-size="14.00">2 GB DDR3 RAM MEM2</text>
</g>
<!-- mem&#45;&gt;ddr3 -->
<g id="edge10" class="edge">
<title>mem&#45;&gt;ddr3</title>
<path fill="none" stroke="black" d="M1095.08,-146.56C1111.6,-142.56 1129.96,-138.6 1147,-136 1326.25,-108.69 1373.72,-127.38 1554,-108 1566.34,-106.67 1579.39,-105.01 1592.11,-103.25"/>
</g>
<!-- dram -->
<g id="node6" class="node">
<title>dram</title>
<ellipse fill="none" stroke="black" cx="1236" cy="-162" rx="79.5" ry="18"/>
<text text-anchor="middle" x="1236" y="-156.95" font-family="Times,serif" font-size="14.00">DRAM Controller</text>
</g>
<!-- dram&#45;&gt;sata -->
<g id="edge8" class="edge">
<title>dram&#45;&gt;sata</title>
<path fill="none" stroke="black" d="M1213.49,-144.41C1197.79,-132.85 1177.02,-117.54 1161.73,-106.27"/>
</g>
<!-- dram&#45;&gt;exi -->
<g id="edge9" class="edge">
<title>dram&#45;&gt;exi</title>
<path fill="none" stroke="black" d="M1235.51,-143.7C1235.2,-132.85 1234.8,-118.92 1234.49,-108.1"/>
</g>
<!-- dram&#45;&gt;ddr3 -->
<g id="edge11" class="edge">
<title>dram&#45;&gt;ddr3</title>
<path fill="none" stroke="black" d="M1281.41,-146.81C1295.29,-142.86 1310.68,-138.87 1325,-136 1425.54,-115.86 1452.38,-121.66 1554,-108 1565.7,-106.43 1578.05,-104.7 1590.16,-102.96"/>
</g>
<!-- edram -->
<g id="node7" class="node">
<title>edram</title>
<ellipse fill="none" stroke="black" cx="1438" cy="-162" rx="104.07" ry="18"/>
<text text-anchor="middle" x="1438" y="-156.95" font-family="Times,serif" font-size="14.00">32 MB EDRAM MEM1</text>
</g>
<!-- edram&#45;&gt;ddr3 -->
<g id="edge12" class="edge">
<title>edram&#45;&gt;ddr3</title>
<path fill="none" stroke="black" d="M1488.34,-145.81C1526.99,-134.15 1580.13,-118.11 1618.96,-106.4"/>
</g>
<!-- rtc -->
<g id="node14" class="node">
<title>rtc</title>
<ellipse fill="none" stroke="black" cx="1234" cy="-18" rx="27" ry="18"/>
<text text-anchor="middle" x="1234" y="-12.95" font-family="Times,serif" font-size="14.00">rtc</text>
</g>
<!-- exi&#45;&gt;rtc -->
<g id="edge14" class="edge">
<title>exi&#45;&gt;rtc</title>
<path fill="none" stroke="black" d="M1234,-71.7C1234,-60.85 1234,-46.92 1234,-36.1"/>
</g>
<!-- sram -->
<g id="node10" class="node">
<title>sram</title>
<ellipse fill="none" stroke="black" cx="853" cy="-162" rx="74.89" ry="18"/>
<text text-anchor="middle" x="853" y="-156.95" font-family="Times,serif" font-size="14.00">3 MB 1T&#45;SRAM</text>
</g>
</g>
</svg>
