<?xml version="1.0" encoding="UTF-8" standalone="no"?>
<!DOCTYPE svg PUBLIC "-//W3C//DTD SVG 1.1//EN"
 "http://www.w3.org/Graphics/SVG/1.1/DTD/svg11.dtd">
<!-- Generated by graphviz version 7.1.0 (20230121.1956)
 -->
<!-- Title: G Pages: 1 -->
<svg width="1716pt" height="333pt"
 viewBox="0.00 0.00 1715.59 333.00" xmlns="http://www.w3.org/2000/svg" xmlns:xlink="http://www.w3.org/1999/xlink">
<g id="graph0" class="graph" transform="scale(1 1) rotate(0) translate(4 329)">
<title>G</title>
<polygon fill="white" stroke="none" points="-4,4 -4,-329 1711.59,-329 1711.59,4 -4,4"/>
<g id="clust1" class="cluster">
<title>cluster_ibm</title>
<polygon fill="none" stroke="black" points="8,-136 8,-317 722,-317 722,-136 8,-136"/>
<text text-anchor="middle" x="365" y="-301.8" font-family="Times,serif" font-size="14.00">IBM &quot;Espresso&quot; CPU</text>
</g>
<g id="clust2" class="cluster">
<title>cluster_amd</title>
<polygon fill="none" stroke="black" points="730,-64 730,-242 1486,-242 1486,-64 730,-64"/>
<text text-anchor="middle" x="1108" y="-226.8" font-family="Times,serif" font-size="14.00">AMD &quot;Latte&quot; GPU</text>
</g>
<g id="clust3" class="cluster">
<title>cluster_gx</title>
<polygon fill="none" stroke="black" points="1320,-136 1320,-211 1478,-211 1478,-136 1320,-136"/>
<text text-anchor="middle" x="1399" y="-195.8" font-family="Times,serif" font-size="14.00">GX</text>
</g>
<!-- core0 -->
<g id="node1" class="node">
<title>core0</title>
<ellipse fill="none" stroke="black" cx="144" cy="-268" rx="128.08" ry="18"/>
<text text-anchor="middle" x="144" y="-264.3" font-family="Times,serif" font-size="14.00">IBM PowerPC Broadway Core 0</text>
</g>
<!-- core2 -->
<g id="node3" class="node">
<title>core2</title>
<ellipse fill="none" stroke="black" cx="254" cy="-162" rx="128.08" ry="18"/>
<text text-anchor="middle" x="254" y="-158.3" font-family="Times,serif" font-size="14.00">IBM PowerPC Broadway Core 2</text>
</g>
<!-- core0&#45;&gt;core2 -->
<g id="edge1" class="edge">
<title>core0&#45;&gt;core2</title>
<path fill="none" stroke="black" d="M162.16,-249.83C182.55,-230.56 215.42,-199.48 235.81,-180.2"/>
</g>
<!-- core1 -->
<g id="node2" class="node">
<title>core1</title>
<ellipse fill="none" stroke="black" cx="586" cy="-268" rx="128.08" ry="18"/>
<text text-anchor="middle" x="586" y="-264.3" font-family="Times,serif" font-size="14.00">IBM PowerPC Broadway Core 1</text>
</g>
<!-- mem -->
<g id="node5" class="node">
<title>mem</title>
<ellipse fill="none" stroke="black" cx="1000" cy="-162" rx="92.08" ry="18"/>
<text text-anchor="middle" x="1000" y="-158.3" font-family="Times,serif" font-size="14.00">Memory &amp; I/O Bridge</text>
</g>
<!-- core1&#45;&gt;mem -->
<g id="edge13" class="edge">
<title>core1&#45;&gt;mem</title>
<path fill="none" stroke="black" d="M711.57,-264.28C783.31,-261.31 865.48,-255.07 899,-242 933.64,-228.5 966.06,-198.99 984.43,-180.11"/>
</g>
<!-- rom -->
<g id="node4" class="node">
<title>rom</title>
<ellipse fill="none" stroke="black" cx="365" cy="-268" rx="75.29" ry="18"/>
<text text-anchor="middle" x="365" y="-264.3" font-family="Times,serif" font-size="14.00">512 B SEEPROM</text>
</g>
<!-- rom&#45;&gt;core2 -->
<g id="edge2" class="edge">
<title>rom&#45;&gt;core2</title>
<path fill="none" stroke="black" d="M347.17,-250.29C329.15,-233.41 301.1,-207.13 280.49,-187.82"/>
<polygon fill="black" stroke="black" points="282.95,-185.33 273.26,-181.05 278.17,-190.44 282.95,-185.33"/>
</g>
<!-- rom&#45;&gt;mem -->
<g id="edge5" class="edge">
<title>rom&#45;&gt;mem</title>
<path fill="none" stroke="black" d="M417.65,-254.82C427.99,-252.86 438.79,-251.11 449,-250 473.86,-247.29 875.43,-250.36 899,-242 934.25,-229.5 966.73,-199.38 984.9,-180.16"/>
</g>
<!-- sata -->
<g id="node8" class="node">
<title>sata</title>
<ellipse fill="none" stroke="black" cx="797" cy="-90" rx="42.49" ry="18"/>
<text text-anchor="middle" x="797" y="-86.3" font-family="Times,serif" font-size="14.00">SATA IF</text>
</g>
<!-- mem&#45;&gt;sata -->
<g id="edge6" class="edge">
<title>mem&#45;&gt;sata</title>
<path fill="none" stroke="black" d="M955.95,-145.81C917.82,-132.66 863.56,-113.95 829.33,-102.15"/>
</g>
<!-- exi -->
<g id="node9" class="node">
<title>exi</title>
<ellipse fill="none" stroke="black" cx="884" cy="-90" rx="27" ry="18"/>
<text text-anchor="middle" x="884" y="-86.3" font-family="Times,serif" font-size="14.00">EXI</text>
</g>
<!-- mem&#45;&gt;exi -->
<g id="edge7" class="edge">
<title>mem&#45;&gt;exi</title>
<path fill="none" stroke="black" d="M972.51,-144.41C951.34,-131.64 922.59,-114.28 903.67,-102.87"/>
</g>
<!-- radeon -->
<g id="node11" class="node">
<title>radeon</title>
<ellipse fill="none" stroke="black" cx="1031" cy="-90" rx="102.08" ry="18"/>
<text text-anchor="middle" x="1031" y="-86.3" font-family="Times,serif" font-size="14.00">AMD Radeon R7xx GX2</text>
</g>
<!-- mem&#45;&gt;radeon -->
<g id="edge4" class="edge">
<title>mem&#45;&gt;radeon</title>
<path fill="none" stroke="black" d="M1007.66,-143.7C1012.47,-132.85 1018.64,-118.92 1023.43,-108.1"/>
</g>
<!-- gx -->
<g id="node12" class="node">
<title>gx</title>
<ellipse fill="none" stroke="black" cx="1178" cy="-90" rx="27" ry="18"/>
<text text-anchor="middle" x="1178" y="-86.3" font-family="Times,serif" font-size="14.00">gx</text>
</g>
<!-- mem&#45;&gt;gx -->
<g id="edge3" class="edge">
<title>mem&#45;&gt;gx</title>
<path fill="none" stroke="black" d="M1043.56,-145.81C1071.85,-135.69 1109.39,-121.76 1142,-108 1146.84,-105.96 1151.98,-103.63 1156.81,-101.37"/>
</g>
<!-- ddr3 -->
<g id="node13" class="node">
<title>ddr3</title>
<ellipse fill="none" stroke="black" cx="1601" cy="-90" rx="106.68" ry="18"/>
<text text-anchor="middle" x="1601" y="-86.3" font-family="Times,serif" font-size="14.00">2 GB DDR3 RAM MEM2</text>
</g>
<!-- mem&#45;&gt;ddr3 -->
<g id="edge10" class="edge">
<title>mem&#45;&gt;ddr3</title>
<path fill="none" stroke="black" d="M1051.29,-146.64C1067.4,-142.62 1085.34,-138.62 1102,-136 1272.79,-109.1 1318.19,-127.32 1490,-108 1501.82,-106.67 1514.31,-105.01 1526.47,-103.25"/>
</g>
<!-- dram -->
<g id="node6" class="node">
<title>dram</title>
<ellipse fill="none" stroke="black" cx="814" cy="-162" rx="76.09" ry="18"/>
<text text-anchor="middle" x="814" y="-158.3" font-family="Times,serif" font-size="14.00">DRAM Controller</text>
</g>
<!-- dram&#45;&gt;sata -->
<g id="edge8" class="edge">
<title>dram&#45;&gt;sata</title>
<path fill="none" stroke="black" d="M809.8,-143.7C807.16,-132.85 803.78,-118.92 801.15,-108.1"/>
</g>
<!-- dram&#45;&gt;exi -->
<g id="edge9" class="edge">
<title>dram&#45;&gt;exi</title>
<path fill="none" stroke="black" d="M830.95,-144.05C842.76,-132.24 858.36,-116.64 869.58,-105.42"/>
</g>
<!-- dram&#45;&gt;ddr3 -->
<g id="edge11" class="edge">
<title>dram&#45;&gt;ddr3</title>
<path fill="none" stroke="black" d="M855.91,-146.52C869.49,-142.41 884.74,-138.4 899,-136 1158.32,-92.37 1228.34,-134.16 1490,-108 1502.12,-106.79 1514.94,-105.15 1527.4,-103.38"/>
</g>
<!-- edram -->
<g id="node7" class="node">
<title>edram</title>
<ellipse fill="none" stroke="black" cx="1210" cy="-162" rx="99.38" ry="18"/>
<text text-anchor="middle" x="1210" y="-158.3" font-family="Times,serif" font-size="14.00">32 MB EDRAM MEM1</text>
</g>
<!-- edram&#45;&gt;ddr3 -->
<g id="edge12" class="edge">
<title>edram&#45;&gt;ddr3</title>
<path fill="none" stroke="black" d="M1266.77,-146.78C1282.65,-143.03 1299.95,-139.15 1316,-136 1336.09,-132.05 1446.77,-114.79 1524.13,-102.83"/>
</g>
<!-- rtc -->
<g id="node14" class="node">
<title>rtc</title>
<ellipse fill="none" stroke="black" cx="884" cy="-18" rx="27" ry="18"/>
<text text-anchor="middle" x="884" y="-14.3" font-family="Times,serif" font-size="14.00">rtc</text>
</g>
<!-- exi&#45;&gt;rtc -->
<g id="edge14" class="edge">
<title>exi&#45;&gt;rtc</title>
<path fill="none" stroke="black" d="M884,-71.7C884,-60.85 884,-46.92 884,-36.1"/>
</g>
<!-- sram -->
<g id="node10" class="node">
<title>sram</title>
<ellipse fill="none" stroke="black" cx="1399" cy="-162" rx="71.49" ry="18"/>
<text text-anchor="middle" x="1399" y="-158.3" font-family="Times,serif" font-size="14.00">3 MB 1T&#45;SRAM</text>
</g>
</g>
</svg>
