<?xml version="1.0" encoding="UTF-8" standalone="no"?>
<!DOCTYPE svg PUBLIC "-//W3C//DTD SVG 1.1//EN"
 "http://www.w3.org/Graphics/SVG/1.1/DTD/svg11.dtd">
<!-- Generated by graphviz version 7.0.6 (20230106.0513)
 -->
<!-- Title: G Pages: 1 -->
<svg width="523pt" height="323pt"
 viewBox="0.00 0.00 522.99 323.00" xmlns="http://www.w3.org/2000/svg" xmlns:xlink="http://www.w3.org/1999/xlink">
<g id="graph0" class="graph" transform="scale(1 1) rotate(0) translate(4 319)">
<title>G</title>
<polygon fill="white" stroke="none" points="-4,4 -4,-319 518.99,-319 518.99,4 -4,4"/>
<g id="clust1" class="cluster">
<title>cluster_ibm</title>
<polygon fill="none" stroke="black" points="0,-168.4 0,-300.14 453.25,-300.14 453.25,-168.4 0,-168.4"/>
<text text-anchor="middle" x="226.62" y="-284.94" font-family="Times,serif" font-size="14.00">IBM &quot;Espresso&quot; CPU</text>
</g>
<g id="clust2" class="cluster">
<title>cluster_amd</title>
<polygon fill="none" stroke="black" points="119.15,0 119.15,-315 514.99,-315 514.99,0 119.15,0"/>
<text text-anchor="middle" x="317.07" y="-299.8" font-family="Times,serif" font-size="14.00">AMD &quot;Latte&quot; GPU</text>
</g>
<!-- core0 -->
<g id="node1" class="node">
<title>core0</title>
<ellipse fill="none" stroke="black" cx="128.04" cy="-282.14" rx="128.08" ry="18"/>
<text text-anchor="middle" x="128.04" y="-278.44" font-family="Times,serif" font-size="14.00">IBM PowerPC Broadway Core 0</text>
</g>
<!-- core2 -->
<g id="node3" class="node">
<title>core2</title>
<ellipse fill="none" stroke="black" cx="187.57" cy="-237.08" rx="128.08" ry="18"/>
<text text-anchor="middle" x="187.57" y="-233.38" font-family="Times,serif" font-size="14.00">IBM PowerPC Broadway Core 2</text>
</g>
<!-- core0&#45;&gt;core2 -->
<g id="edge1" class="edge">
<title>core0&#45;&gt;core2</title>
<path fill="none" stroke="black" d="M151.91,-264.07C155.79,-261.13 159.81,-258.09 163.69,-255.15"/>
</g>
<!-- core1 -->
<g id="node2" class="node">
<title>core1</title>
<ellipse fill="none" stroke="black" cx="325.21" cy="-218.88" rx="128.08" ry="18"/>
<text text-anchor="middle" x="325.21" y="-215.18" font-family="Times,serif" font-size="14.00">IBM PowerPC Broadway Core 1</text>
</g>
<!-- mem -->
<g id="node5" class="node">
<title>mem</title>
<ellipse fill="none" stroke="black" cx="322.42" cy="-137.59" rx="92.08" ry="18"/>
<text text-anchor="middle" x="322.42" y="-133.89" font-family="Times,serif" font-size="14.00">Memory &amp; I/O Bridge</text>
</g>
<!-- core1&#45;&gt;mem -->
<g id="edge13" class="edge">
<title>core1&#45;&gt;mem</title>
<path fill="none" stroke="black" d="M324.58,-200.44C324.12,-187.13 323.51,-169.25 323.05,-155.96"/>
</g>
<!-- rom -->
<g id="node4" class="node">
<title>rom</title>
<ellipse fill="none" stroke="black" cx="248.2" cy="-186.4" rx="75.29" ry="18"/>
<text text-anchor="middle" x="248.2" y="-182.7" font-family="Times,serif" font-size="14.00">512 B SEEPROM</text>
</g>
<!-- rom&#45;&gt;core2 -->
<g id="edge2" class="edge">
<title>rom&#45;&gt;core2</title>
<path fill="none" stroke="black" d="M226.99,-204.12C224.03,-206.6 220.95,-209.18 217.86,-211.75"/>
<polygon fill="black" stroke="black" points="215.86,-208.86 210.44,-217.96 220.35,-214.24 215.86,-208.86"/>
</g>
<!-- rom&#45;&gt;mem -->
<g id="edge5" class="edge">
<title>rom&#45;&gt;mem</title>
<path fill="none" stroke="black" d="M274.16,-169.33C281.1,-164.76 288.61,-159.82 295.6,-155.23"/>
</g>
<!-- sata -->
<g id="node8" class="node">
<title>sata</title>
<ellipse fill="none" stroke="black" cx="411.46" cy="-121.51" rx="42.49" ry="18"/>
<text text-anchor="middle" x="411.46" y="-117.81" font-family="Times,serif" font-size="14.00">SATA IF</text>
</g>
<!-- mem&#45;&gt;sata -->
<g id="edge6" class="edge">
<title>mem&#45;&gt;sata</title>
<path fill="none" stroke="black" d="M390.81,-125.24C390.9,-125.22 391,-125.2 391.09,-125.19"/>
</g>
<!-- exi -->
<g id="node9" class="node">
<title>exi</title>
<ellipse fill="none" stroke="black" cx="392.42" cy="-175.55" rx="27" ry="18"/>
<text text-anchor="middle" x="392.42" y="-171.85" font-family="Times,serif" font-size="14.00">EXI</text>
</g>
<!-- mem&#45;&gt;exi -->
<g id="edge7" class="edge">
<title>mem&#45;&gt;exi</title>
<path fill="none" stroke="black" d="M354.14,-154.79C359.93,-157.93 365.84,-161.14 371.23,-164.06"/>
</g>
<!-- radeon -->
<g id="node11" class="node">
<title>radeon</title>
<ellipse fill="none" stroke="black" cx="372.09" cy="-52.8" rx="102.08" ry="18"/>
<text text-anchor="middle" x="372.09" y="-49.1" font-family="Times,serif" font-size="14.00">AMD Radeon R7xx GX2</text>
</g>
<!-- mem&#45;&gt;radeon -->
<g id="edge4" class="edge">
<title>mem&#45;&gt;radeon</title>
<path fill="none" stroke="black" d="M332.96,-119.61C341.33,-105.31 352.99,-85.41 361.4,-71.04"/>
</g>
<!-- gx -->
<g id="node12" class="node">
<title>gx</title>
<ellipse fill="none" stroke="black" cx="304.75" cy="-53.08" rx="27" ry="18"/>
<text text-anchor="middle" x="304.75" y="-49.38" font-family="Times,serif" font-size="14.00">gx</text>
</g>
<!-- mem&#45;&gt;gx -->
<g id="edge3" class="edge">
<title>mem&#45;&gt;gx</title>
<path fill="none" stroke="black" d="M318.59,-119.25C315.62,-105.07 311.54,-85.54 308.57,-71.38"/>
</g>
<!-- ddr3 -->
<g id="node13" class="node">
<title>ddr3</title>
<ellipse fill="none" stroke="black" cx="270.57" cy="-84.45" rx="106.68" ry="18"/>
<text text-anchor="middle" x="270.57" y="-80.75" font-family="Times,serif" font-size="14.00">2 GB DDR3 RAM MEM2</text>
</g>
<!-- mem&#45;&gt;ddr3 -->
<g id="edge10" class="edge">
<title>mem&#45;&gt;ddr3</title>
<path fill="none" stroke="black" d="M304.87,-119.6C299.46,-114.06 293.51,-107.96 288.11,-102.42"/>
</g>
<!-- dram -->
<g id="node6" class="node">
<title>dram</title>
<ellipse fill="none" stroke="black" cx="365.65" cy="-93.12" rx="76.09" ry="18"/>
<text text-anchor="middle" x="365.65" y="-89.42" font-family="Times,serif" font-size="14.00">DRAM Controller</text>
</g>
<!-- dram&#45;&gt;sata -->
<g id="edge8" class="edge">
<title>dram&#45;&gt;sata</title>
<path fill="none" stroke="black" d="M393.36,-110.29C393.51,-110.38 393.66,-110.47 393.81,-110.57"/>
</g>
<!-- dram&#45;&gt;exi -->
<g id="edge9" class="edge">
<title>dram&#45;&gt;exi</title>
<path fill="none" stroke="black" d="M371.59,-111.41C376.06,-125.17 382.15,-143.92 386.59,-157.59"/>
</g>
<!-- dram&#45;&gt;ddr3 -->
<g id="edge11" class="edge">
<title>dram&#45;&gt;ddr3</title>
<path fill="none" stroke="black" d="M294.07,-86.59C293.97,-86.59 293.86,-86.58 293.76,-86.57"/>
</g>
<!-- edram -->
<g id="node7" class="node">
<title>edram</title>
<ellipse fill="none" stroke="black" cx="218.59" cy="-18" rx="99.38" ry="18"/>
<text text-anchor="middle" x="218.59" y="-14.3" font-family="Times,serif" font-size="14.00">32 MB EDRAM MEM1</text>
</g>
<!-- edram&#45;&gt;ddr3 -->
<g id="edge12" class="edge">
<title>edram&#45;&gt;ddr3</title>
<path fill="none" stroke="black" d="M232.79,-36.16C240.13,-45.54 249.05,-56.94 256.38,-66.32"/>
</g>
<!-- rtc -->
<g id="node14" class="node">
<title>rtc</title>
<ellipse fill="none" stroke="black" cx="460.82" cy="-219.49" rx="27" ry="18"/>
<text text-anchor="middle" x="460.82" y="-215.79" font-family="Times,serif" font-size="14.00">rtc</text>
</g>
<!-- exi&#45;&gt;rtc -->
<g id="edge14" class="edge">
<title>exi&#45;&gt;rtc</title>
<path fill="none" stroke="black" d="M412.2,-188.26C421.36,-194.14 432.2,-201.1 441.32,-206.96"/>
</g>
<!-- sram -->
<g id="node10" class="node">
<title>sram</title>
<ellipse fill="none" stroke="black" cx="443.49" cy="-297" rx="71.49" ry="18"/>
<text text-anchor="middle" x="443.49" y="-293.3" font-family="Times,serif" font-size="14.00">3 MB 1T&#45;SRAM</text>
</g>
</g>
</svg>
