<?xml version="1.0" encoding="UTF-8" standalone="no"?>
<!DOCTYPE svg PUBLIC "-//W3C//DTD SVG 1.1//EN"
 "http://www.w3.org/Graphics/SVG/1.1/DTD/svg11.dtd">
<!-- Generated by graphviz version 12.2.1 (20241206.2353)
 -->
<!-- Title: G Pages: 1 -->
<svg width="561pt" height="354pt"
 viewBox="0.00 0.00 560.79 354.00" xmlns="http://www.w3.org/2000/svg" xmlns:xlink="http://www.w3.org/1999/xlink">
<g id="graph0" class="graph" transform="scale(1 1) rotate(0) translate(4 350)">
<title>G</title>
<polygon fill="white" stroke="none" points="-4,4 -4,-350 556.79,-350 556.79,4 -4,4"/>
<g id="clust1" class="cluster">
<title>cluster_ibm</title>
<polygon fill="none" stroke="black" points="0,-168.4 0,-300.14 465.7,-300.14 465.7,-168.4 0,-168.4"/>
<text text-anchor="middle" x="232.85" y="-282.84" font-family="Times,serif" font-size="14.00">IBM &quot;Espresso&quot; CPU</text>
</g>
<g id="clust2" class="cluster">
<title>cluster_amd</title>
<polygon fill="none" stroke="black" points="120.75,0 120.75,-346 552.79,-346 552.79,0 120.75,0"/>
<text text-anchor="middle" x="336.77" y="-328.7" font-family="Times,serif" font-size="14.00">AMD &quot;Latte&quot; GPU</text>
</g>
<!-- core0 -->
<g id="node1" class="node">
<title>core0</title>
<ellipse fill="none" stroke="black" cx="134.26" cy="-282.14" rx="134.26" ry="18"/>
<text text-anchor="middle" x="134.26" y="-277.09" font-family="Times,serif" font-size="14.00">IBM PowerPC Broadway Core 0</text>
</g>
<!-- core2 -->
<g id="node3" class="node">
<title>core2</title>
<ellipse fill="none" stroke="black" cx="193.79" cy="-237.08" rx="134.26" ry="18"/>
<text text-anchor="middle" x="193.79" y="-232.03" font-family="Times,serif" font-size="14.00">IBM PowerPC Broadway Core 2</text>
</g>
<!-- core0&#45;&gt;core2 -->
<g id="edge1" class="edge">
<title>core0&#45;&gt;core2</title>
<path fill="none" stroke="black" d="M158.13,-264.07C162.02,-261.13 166.04,-258.09 169.92,-255.15"/>
</g>
<!-- core1 -->
<g id="node2" class="node">
<title>core1</title>
<ellipse fill="none" stroke="black" cx="331.43" cy="-218.88" rx="134.26" ry="18"/>
<text text-anchor="middle" x="331.43" y="-213.83" font-family="Times,serif" font-size="14.00">IBM PowerPC Broadway Core 1</text>
</g>
<!-- mem -->
<g id="node5" class="node">
<title>mem</title>
<ellipse fill="none" stroke="black" cx="328.65" cy="-137.59" rx="96.39" ry="18"/>
<text text-anchor="middle" x="328.65" y="-132.54" font-family="Times,serif" font-size="14.00">Memory &amp; I/O Bridge</text>
</g>
<!-- core1&#45;&gt;mem -->
<g id="edge13" class="edge">
<title>core1&#45;&gt;mem</title>
<path fill="none" stroke="black" d="M330.8,-200.44C330.35,-187.13 329.73,-169.25 329.28,-155.96"/>
</g>
<!-- rom -->
<g id="node4" class="node">
<title>rom</title>
<ellipse fill="none" stroke="black" cx="254.42" cy="-186.4" rx="78.99" ry="18"/>
<text text-anchor="middle" x="254.42" y="-181.35" font-family="Times,serif" font-size="14.00">512 B SEEPROM</text>
</g>
<!-- rom&#45;&gt;core2 -->
<g id="edge2" class="edge">
<title>rom&#45;&gt;core2</title>
<path fill="none" stroke="black" d="M233.22,-204.12C230.26,-206.6 227.17,-209.18 224.09,-211.75"/>
<polygon fill="black" stroke="black" points="222.09,-208.86 216.66,-217.96 226.58,-214.24 222.09,-208.86"/>
</g>
<!-- rom&#45;&gt;mem -->
<g id="edge5" class="edge">
<title>rom&#45;&gt;mem</title>
<path fill="none" stroke="black" d="M280.8,-169.05C287.64,-164.56 295,-159.72 301.85,-155.21"/>
</g>
<!-- sata -->
<g id="node8" class="node">
<title>sata</title>
<ellipse fill="none" stroke="black" cx="417.69" cy="-121.51" rx="43.67" ry="18"/>
<text text-anchor="middle" x="417.69" y="-116.46" font-family="Times,serif" font-size="14.00">SATA IF</text>
</g>
<!-- mem&#45;&gt;sata -->
<g id="edge6" class="edge">
<title>mem&#45;&gt;sata</title>
<path fill="none" stroke="black" d="M398.81,-124.92C398.89,-124.9 398.98,-124.89 399.06,-124.87"/>
</g>
<!-- exi -->
<g id="node9" class="node">
<title>exi</title>
<ellipse fill="none" stroke="black" cx="398.65" cy="-175.55" rx="27" ry="18"/>
<text text-anchor="middle" x="398.65" y="-170.5" font-family="Times,serif" font-size="14.00">EXI</text>
</g>
<!-- mem&#45;&gt;exi -->
<g id="edge7" class="edge">
<title>mem&#45;&gt;exi</title>
<path fill="none" stroke="black" d="M360.78,-155.02C366.39,-158.06 372.09,-161.15 377.31,-163.98"/>
</g>
<!-- radeon -->
<g id="node11" class="node">
<title>radeon</title>
<ellipse fill="none" stroke="black" cx="378.32" cy="-52.8" rx="106.63" ry="18"/>
<text text-anchor="middle" x="378.32" y="-47.75" font-family="Times,serif" font-size="14.00">AMD Radeon R7xx GX2</text>
</g>
<!-- mem&#45;&gt;radeon -->
<g id="edge4" class="edge">
<title>mem&#45;&gt;radeon</title>
<path fill="none" stroke="black" d="M339.18,-119.61C347.55,-105.31 359.22,-85.41 367.63,-71.04"/>
</g>
<!-- gx -->
<g id="node12" class="node">
<title>gx</title>
<ellipse fill="none" stroke="black" cx="310.97" cy="-53.08" rx="27" ry="18"/>
<text text-anchor="middle" x="310.97" y="-48.03" font-family="Times,serif" font-size="14.00">gx</text>
</g>
<!-- mem&#45;&gt;gx -->
<g id="edge3" class="edge">
<title>mem&#45;&gt;gx</title>
<path fill="none" stroke="black" d="M324.81,-119.25C321.85,-105.07 317.76,-85.54 314.8,-71.38"/>
</g>
<!-- ddr3 -->
<g id="node13" class="node">
<title>ddr3</title>
<ellipse fill="none" stroke="black" cx="276.79" cy="-84.45" rx="111.74" ry="18"/>
<text text-anchor="middle" x="276.79" y="-79.4" font-family="Times,serif" font-size="14.00">2 GB DDR3 RAM MEM2</text>
</g>
<!-- mem&#45;&gt;ddr3 -->
<g id="edge10" class="edge">
<title>mem&#45;&gt;ddr3</title>
<path fill="none" stroke="black" d="M311.09,-119.6C305.69,-114.06 299.74,-107.96 294.33,-102.42"/>
</g>
<!-- dram -->
<g id="node6" class="node">
<title>dram</title>
<ellipse fill="none" stroke="black" cx="371.88" cy="-93.12" rx="79.5" ry="18"/>
<text text-anchor="middle" x="371.88" y="-88.07" font-family="Times,serif" font-size="14.00">DRAM Controller</text>
</g>
<!-- dram&#45;&gt;sata -->
<g id="edge8" class="edge">
<title>dram&#45;&gt;sata</title>
<path fill="none" stroke="black" d="M399.58,-110.29C399.73,-110.38 399.88,-110.47 400.03,-110.57"/>
</g>
<!-- dram&#45;&gt;exi -->
<g id="edge9" class="edge">
<title>dram&#45;&gt;exi</title>
<path fill="none" stroke="black" d="M377.82,-111.41C382.29,-125.17 388.37,-143.92 392.81,-157.59"/>
</g>
<!-- dram&#45;&gt;ddr3 -->
<g id="edge11" class="edge">
<title>dram&#45;&gt;ddr3</title>
<path fill="none" stroke="black" d="M297.9,-86.38C297.8,-86.37 297.7,-86.36 297.61,-86.35"/>
</g>
<!-- edram -->
<g id="node7" class="node">
<title>edram</title>
<ellipse fill="none" stroke="black" cx="224.82" cy="-18" rx="104.07" ry="18"/>
<text text-anchor="middle" x="224.82" y="-12.95" font-family="Times,serif" font-size="14.00">32 MB EDRAM MEM1</text>
</g>
<!-- edram&#45;&gt;ddr3 -->
<g id="edge12" class="edge">
<title>edram&#45;&gt;ddr3</title>
<path fill="none" stroke="black" d="M239.02,-36.16C246.35,-45.54 255.28,-56.94 262.61,-66.32"/>
</g>
<!-- rtc -->
<g id="node14" class="node">
<title>rtc</title>
<ellipse fill="none" stroke="black" cx="467.04" cy="-219.49" rx="27" ry="18"/>
<text text-anchor="middle" x="467.04" y="-214.44" font-family="Times,serif" font-size="14.00">rtc</text>
</g>
<!-- exi&#45;&gt;rtc -->
<g id="edge14" class="edge">
<title>exi&#45;&gt;rtc</title>
<path fill="none" stroke="black" d="M418.43,-188.26C427.58,-194.14 438.42,-201.1 447.54,-206.96"/>
</g>
<!-- sram -->
<g id="node10" class="node">
<title>sram</title>
<ellipse fill="none" stroke="black" cx="477.89" cy="-328" rx="74.89" ry="18"/>
<text text-anchor="middle" x="477.89" y="-322.95" font-family="Times,serif" font-size="14.00">3 MB 1T&#45;SRAM</text>
</g>
</g>
</svg>
