<?xml version="1.0" encoding="UTF-8" standalone="no"?><svg xmlns="http://www.w3.org/2000/svg" xmlns:xlink="http://www.w3.org/1999/xlink" contentStyleType="text/css" height="582px" preserveAspectRatio="none" style="width:960px;height:582px;background:#FFFFFF;" version="1.1" viewBox="0 0 960 582" width="960px" zoomAndPan="magnify"><defs/><g><!--cluster ibm--><g id="cluster_ibm"><polygon fill="none" points="43,16,53,6,626,6,626,204,616,214,43,214,43,16" style="stroke:#181818;stroke-width:1.0;"/><line style="stroke:#181818;stroke-width:1.0;" x1="616" x2="626" y1="16" y2="6"/><line style="stroke:#181818;stroke-width:1.0;" x1="43" x2="616" y1="16" y2="16"/><line style="stroke:#181818;stroke-width:1.0;" x1="616" x2="616" y1="16" y2="214"/><text fill="#000000" font-family="sans-serif" font-size="14" font-weight="bold" lengthAdjust="spacing" textLength="142" x="259.5" y="32.5352">IBM "Espresso" CPU</text></g><!--cluster amd--><g id="cluster_amd"><polygon fill="none" points="16,248,26,238,735,238,735,488,725,498,16,498,16,248" style="stroke:#181818;stroke-width:1.0;"/><line style="stroke:#181818;stroke-width:1.0;" x1="725" x2="735" y1="248" y2="238"/><line style="stroke:#181818;stroke-width:1.0;" x1="16" x2="725" y1="248" y2="248"/><line style="stroke:#181818;stroke-width:1.0;" x1="725" x2="725" y1="248" y2="498"/><text fill="#000000" font-family="sans-serif" font-size="14" font-weight="bold" lengthAdjust="spacing" textLength="121" x="311" y="264.5352">AMD "Latte" GPU</text></g><!--cluster gx--><g id="cluster_gx"><polygon fill="none" points="494,358,504,348,703,348,703,456,693,466,494,466,494,358" style="stroke:#181818;stroke-width:1.0;"/><line style="stroke:#181818;stroke-width:1.0;" x1="693" x2="703" y1="358" y2="348"/><line style="stroke:#181818;stroke-width:1.0;" x1="494" x2="693" y1="358" y2="358"/><line style="stroke:#181818;stroke-width:1.0;" x1="693" x2="693" y1="358" y2="466"/><text fill="#000000" font-family="sans-serif" font-size="14" font-weight="bold" lengthAdjust="spacing" textLength="19" x="585" y="374.5352">GX</text></g><!--entity core0--><g id="elem_core0"><rect fill="#F1F1F1" height="46.4883" rx="2.5" ry="2.5" style="stroke:#181818;stroke-width:0.5;" width="258" x="59" y="46"/><rect fill="#F1F1F1" height="10" style="stroke:#181818;stroke-width:0.5;" width="15" x="297" y="51"/><rect fill="#F1F1F1" height="2" style="stroke:#181818;stroke-width:0.5;" width="4" x="295" y="53"/><rect fill="#F1F1F1" height="2" style="stroke:#181818;stroke-width:0.5;" width="4" x="295" y="57"/><text fill="#000000" font-family="sans-serif" font-size="14" lengthAdjust="spacing" textLength="218" x="74" y="79.5352">IBM PowerPC "Broadway" Core 0</text></g><!--entity core1--><g id="elem_core1"><rect fill="#F1F1F1" height="46.4883" rx="2.5" ry="2.5" style="stroke:#181818;stroke-width:0.5;" width="258" x="352" y="46"/><rect fill="#F1F1F1" height="10" style="stroke:#181818;stroke-width:0.5;" width="15" x="590" y="51"/><rect fill="#F1F1F1" height="2" style="stroke:#181818;stroke-width:0.5;" width="4" x="588" y="53"/><rect fill="#F1F1F1" height="2" style="stroke:#181818;stroke-width:0.5;" width="4" x="588" y="57"/><text fill="#000000" font-family="sans-serif" font-size="14" lengthAdjust="spacing" textLength="218" x="367" y="79.5352">IBM PowerPC "Broadway" Core 1</text></g><!--entity core2--><g id="elem_core2"><rect fill="#F1F1F1" height="46.4883" rx="2.5" ry="2.5" style="stroke:#181818;stroke-width:0.5;" width="258" x="242" y="152"/><rect fill="#F1F1F1" height="10" style="stroke:#181818;stroke-width:0.5;" width="15" x="480" y="157"/><rect fill="#F1F1F1" height="2" style="stroke:#181818;stroke-width:0.5;" width="4" x="478" y="159"/><rect fill="#F1F1F1" height="2" style="stroke:#181818;stroke-width:0.5;" width="4" x="478" y="163"/><text fill="#000000" font-family="sans-serif" font-size="14" lengthAdjust="spacing" textLength="218" x="257" y="185.5352">IBM PowerPC "Broadway" Core 2</text></g><!--entity rom--><g id="elem_rom"><rect fill="#F1F1F1" height="46.4883" rx="2.5" ry="2.5" style="stroke:#181818;stroke-width:0.5;" width="147" x="59.5" y="152"/><rect fill="#F1F1F1" height="10" style="stroke:#181818;stroke-width:0.5;" width="15" x="186.5" y="157"/><rect fill="#F1F1F1" height="2" style="stroke:#181818;stroke-width:0.5;" width="4" x="184.5" y="159"/><rect fill="#F1F1F1" height="2" style="stroke:#181818;stroke-width:0.5;" width="4" x="184.5" y="163"/><text fill="#000000" font-family="sans-serif" font-size="14" lengthAdjust="spacing" textLength="107" x="74.5" y="185.5352">512 B SEEPROM</text></g><!--entity mem--><g id="elem_mem"><rect fill="#F1F1F1" height="46.4883" rx="2.5" ry="2.5" style="stroke:#181818;stroke-width:0.5;" width="183" x="286.5" y="278"/><rect fill="#F1F1F1" height="10" style="stroke:#181818;stroke-width:0.5;" width="15" x="449.5" y="283"/><rect fill="#F1F1F1" height="2" style="stroke:#181818;stroke-width:0.5;" width="4" x="447.5" y="285"/><rect fill="#F1F1F1" height="2" style="stroke:#181818;stroke-width:0.5;" width="4" x="447.5" y="289"/><text fill="#000000" font-family="sans-serif" font-size="14" lengthAdjust="spacing" textLength="143" x="301.5" y="311.5352">Memory &amp; I/O Bridge</text></g><!--entity dram--><g id="elem_dram"><rect fill="#F1F1F1" height="46.4883" rx="2.5" ry="2.5" style="stroke:#181818;stroke-width:0.5;" width="155" x="96.5" y="278"/><rect fill="#F1F1F1" height="10" style="stroke:#181818;stroke-width:0.5;" width="15" x="231.5" y="283"/><rect fill="#F1F1F1" height="2" style="stroke:#181818;stroke-width:0.5;" width="4" x="229.5" y="285"/><rect fill="#F1F1F1" height="2" style="stroke:#181818;stroke-width:0.5;" width="4" x="229.5" y="289"/><text fill="#000000" font-family="sans-serif" font-size="14" lengthAdjust="spacing" textLength="115" x="111.5" y="311.5352">DRAM Controller</text></g><!--entity edram--><g id="elem_edram"><rect fill="#F1F1F1" height="46.4883" rx="2.5" ry="2.5" style="stroke:#181818;stroke-width:0.5;" width="190" x="529" y="278"/><rect fill="#F1F1F1" height="10" style="stroke:#181818;stroke-width:0.5;" width="15" x="699" y="283"/><rect fill="#F1F1F1" height="2" style="stroke:#181818;stroke-width:0.5;" width="4" x="697" y="285"/><rect fill="#F1F1F1" height="2" style="stroke:#181818;stroke-width:0.5;" width="4" x="697" y="289"/><text fill="#000000" font-family="sans-serif" font-size="14" lengthAdjust="spacing" textLength="150" x="544" y="311.5352">32 MB EDRAM "MEM1"</text></g><!--entity sata--><g id="elem_sata"><rect fill="#F1F1F1" height="46.4883" rx="2.5" ry="2.5" style="stroke:#181818;stroke-width:0.5;" width="93" x="32.5" y="396"/><rect fill="#F1F1F1" height="10" style="stroke:#181818;stroke-width:0.5;" width="15" x="105.5" y="401"/><rect fill="#F1F1F1" height="2" style="stroke:#181818;stroke-width:0.5;" width="4" x="103.5" y="403"/><rect fill="#F1F1F1" height="2" style="stroke:#181818;stroke-width:0.5;" width="4" x="103.5" y="407"/><text fill="#000000" font-family="sans-serif" font-size="14" lengthAdjust="spacing" textLength="53" x="47.5" y="429.5352">SATA IF</text></g><!--entity exi--><g id="elem_exi"><rect fill="#F1F1F1" height="46.4883" rx="2.5" ry="2.5" style="stroke:#181818;stroke-width:0.5;" width="61" x="160.5" y="396"/><rect fill="#F1F1F1" height="10" style="stroke:#181818;stroke-width:0.5;" width="15" x="201.5" y="401"/><rect fill="#F1F1F1" height="2" style="stroke:#181818;stroke-width:0.5;" width="4" x="199.5" y="403"/><rect fill="#F1F1F1" height="2" style="stroke:#181818;stroke-width:0.5;" width="4" x="199.5" y="407"/><text fill="#000000" font-family="sans-serif" font-size="14" lengthAdjust="spacing" textLength="21" x="175.5" y="429.5352">EXI</text></g><!--entity radeon--><g id="elem_radeon"><rect fill="#F1F1F1" height="46.4883" rx="2.5" ry="2.5" style="stroke:#181818;stroke-width:0.5;" width="210" x="257" y="396"/><rect fill="#F1F1F1" height="10" style="stroke:#181818;stroke-width:0.5;" width="15" x="447" y="401"/><rect fill="#F1F1F1" height="2" style="stroke:#181818;stroke-width:0.5;" width="4" x="445" y="403"/><rect fill="#F1F1F1" height="2" style="stroke:#181818;stroke-width:0.5;" width="4" x="445" y="407"/><text fill="#000000" font-family="sans-serif" font-size="14" lengthAdjust="spacing" textLength="170" x="272" y="429.5352">AMD Radeon R7xx "GX2"</text></g><!--entity 3 MB 1T-SRAM--><g id="elem_3 MB 1T-SRAM"><rect fill="#F1F1F1" height="46.4883" rx="2.5" ry="2.5" style="stroke:#181818;stroke-width:0.5;" width="142" x="537" y="396"/><rect fill="#F1F1F1" height="10" style="stroke:#181818;stroke-width:0.5;" width="15" x="659" y="401"/><rect fill="#F1F1F1" height="2" style="stroke:#181818;stroke-width:0.5;" width="4" x="657" y="403"/><rect fill="#F1F1F1" height="2" style="stroke:#181818;stroke-width:0.5;" width="4" x="657" y="407"/><text fill="#000000" font-family="sans-serif" font-size="14" lengthAdjust="spacing" textLength="102" x="552" y="429.5352">3 MB 1T-SRAM</text></g><!--entity ddr3--><g id="elem_ddr3"><rect fill="#F1F1F1" height="46.4883" rx="2.5" ry="2.5" style="stroke:#181818;stroke-width:0.5;" width="203" x="751.5" y="396"/><rect fill="#F1F1F1" height="10" style="stroke:#181818;stroke-width:0.5;" width="15" x="934.5" y="401"/><rect fill="#F1F1F1" height="2" style="stroke:#181818;stroke-width:0.5;" width="4" x="932.5" y="403"/><rect fill="#F1F1F1" height="2" style="stroke:#181818;stroke-width:0.5;" width="4" x="932.5" y="407"/><text fill="#000000" font-family="sans-serif" font-size="14" lengthAdjust="spacing" textLength="163" x="766.5" y="429.5352">2 GB DDR3 RAM "MEM2"</text></g><!--entity RTC--><g id="elem_RTC"><ellipse cx="191" cy="543" fill="#F1F1F1" rx="8" ry="8" style="stroke:#181818;stroke-width:0.5;"/><text fill="#000000" font-family="sans-serif" font-size="14" lengthAdjust="spacing" textLength="28" x="177" y="573.5352">RTC</text></g><!--link core0 to core2--><g id="link_core0_core2"><path d="M227.26,92.31 C258.03,109.8 300.66,134.02 331.49,151.55 " fill="none" id="core0-core2" style="stroke:#181818;stroke-width:1.0;"/></g><!--link rom to core2--><g id="link_rom_core2"><path d="M206.91,175 C216.28,175 225.66,175 235.03,175 " fill="none" id="rom-to-core2" style="stroke:#181818;stroke-width:1.0;"/><polygon fill="#181818" points="240.01,175,231.01,171,235.01,175,231.01,179,240.01,175" style="stroke:#181818;stroke-width:1.0;"/></g><!--link mem to gx--><g id="link_mem_gx"><path d="M469.9,317.72 C482.9,321.66 493.41,326.39 498,332 C500.935,335.585 503.2178,339.5628 504.9634,343.7857 C505.3997,344.8415 505.8026,345.9125 506.1736,346.9966 C506.2663,347.2676 506.3571,347.5394 506.4459,347.812 " fill="none" id="mem-gx" style="stroke:#181818;stroke-width:1.0;"/></g><!--link mem to radeon--><g id="link_mem_radeon"><path d="M374.92,324.37 C372.08,344.91 367.91,375.18 365.08,395.7 " fill="none" id="mem-radeon" style="stroke:#181818;stroke-width:1.0;"/></g><!--link rom to mem--><g id="link_rom_mem"><path d="M170.89,198.28 C186.83,206.82 205.86,215.95 224,222 C243.27,228.43 250.09,222.59 269,230 C298.73,241.65 329.02,261.91 350.1,277.65 " fill="none" id="rom-mem" style="stroke:#181818;stroke-width:1.0;"/></g><!--link mem to sata--><g id="link_mem_sata"><path d="M286.27,321.44 C280.44,322.39 274.65,323.25 269,324 C241.19,327.67 167.66,318.62 143,332 C117.32,345.94 99.07,375.13 88.79,395.62 " fill="none" id="mem-sata" style="stroke:#181818;stroke-width:1.0;"/></g><!--link mem to exi--><g id="link_mem_exi"><path d="M286.15,320.36 C261.73,325.53 241.39,330.23 239,332 C217.7,347.77 204.59,375.97 197.57,395.77 " fill="none" id="mem-exi" style="stroke:#181818;stroke-width:1.0;"/></g><!--link dram to sata--><g id="link_dram_sata"><path d="M150.23,324.22 C147.73,326.78 145.27,329.41 143,332 C124.94,352.55 106.52,377.86 94.11,395.68 " fill="none" id="dram-sata" style="stroke:#181818;stroke-width:1.0;"/></g><!--link dram to exi--><g id="link_dram_exi"><path d="M177.28,324.37 C180.29,344.91 184.73,375.18 187.73,395.7 " fill="none" id="dram-exi" style="stroke:#181818;stroke-width:1.0;"/></g><!--link mem to ddr3--><g id="link_mem_ddr3"><path d="M469.71,318.54 C483.84,320.66 498.28,322.58 512,324 C552.49,328.19 655.78,321.1 695,332 C742.54,345.21 791.59,374.88 822.17,395.65 " fill="none" id="mem-ddr3" style="stroke:#181818;stroke-width:1.0;"/></g><!--link dram to ddr3--><g id="link_dram_ddr3"><path d="M251.79,321.39 C257.59,322.41 263.37,323.3 269,324 C315.98,329.82 649.23,319.89 695,332 C742.85,344.66 792.02,374.61 822.53,395.59 " fill="none" id="dram-ddr3" style="stroke:#181818;stroke-width:1.0;"/></g><!--link edram to ddr3--><g id="link_edram_ddr3"><path d="M678.52,324.39 C684.12,326.88 689.7,329.44 695,332 C736.5,352 782.63,377.5 814.28,395.53 " fill="none" id="edram-ddr3" style="stroke:#181818;stroke-width:1.0;"/></g><!--link core1 to mem--><g id="link_core1_mem"><path d="M496.19,92.39 C515.19,123.44 542.42,180.44 518,222 C507.99,239.03 466.01,261.17 430.61,277.51 " fill="none" id="core1-mem" style="stroke:#181818;stroke-width:1.0;"/></g><!--link exi to RTC--><g id="link_exi_RTC"><path d="M191,442.38 C191,470.03 191,515.67 191,534.01 " fill="none" id="exi-RTC" style="stroke:#181818;stroke-width:1.0;"/></g><!--SRC=[XLBBQiCm4BphAnOTUZED7ThU2durc5R4E2a4GWvg9K8WjefiY4F9lrUxbkEsbzmqExExCuiQepJm8X70y_RBwhOr7DBodODiuV1HmpS3s29VcfEsPGeyiKQgapmxdR4QPZkKVhhdx9Oql4h3MzBeAeqOQiD7U4sWMWggMrDZbPP244mwHq3mxF65iORYnI83_YQxJdDO-6ooLaCseMjZpt07nVqI4djGUqqxQbqZdLMnS9QQpfhZKLkYb9N4pICG2UGauI8N8ITQZ_n36442gpml_ndVhk9r3CKBrLhPIQpbcs9exm-e6QmlDkHstvDPt8ahmtMmSajthdIXUPYmaagR1ggdliU-Q31ZgOeY5mXljU-dzqJIuG8AFT7UcKVU5uRxHOuGMUTb6y4YWIohvZ1UnHjHoiuPyxC8ZAq4z1_4w9DS7RdX-AxMAVi1]--></g></svg>