<?xml version="1.0" encoding="UTF-8" standalone="no"?><svg xmlns="http://www.w3.org/2000/svg" xmlns:xlink="http://www.w3.org/1999/xlink" contentStyleType="text/css" height="582px" preserveAspectRatio="none" style="width:960px;height:582px;background:#FFFFFF;" version="1.1" viewBox="0 0 960 582" width="960px" zoomAndPan="magnify"><defs/><g><!--MD5=[0042f287872062d5ba1e0bf72d84d741]
cluster ibm--><g id="cluster_ibm"><polygon fill="none" points="43,16,53,6,626,6,626,204,616,214,43,214,43,16" style="stroke:#181818;stroke-width:1.0;"/><line style="stroke:#181818;stroke-width:1.0;" x1="616" x2="626" y1="16" y2="6"/><line style="stroke:#181818;stroke-width:1.0;" x1="43" x2="616" y1="16" y2="16"/><line style="stroke:#181818;stroke-width:1.0;" x1="616" x2="616" y1="16" y2="214"/><text fill="#000000" font-family="sans-serif" font-size="14" font-weight="bold" lengthAdjust="spacing" textLength="142" x="259.5" y="32.5352">IBM "Espresso" CPU</text></g><!--MD5=[5fa39c1b507fbc7069c1965ad2178eb9]
cluster amd--><g id="cluster_amd"><polygon fill="none" points="16,248,26,238,735,238,735,488,725,498,16,498,16,248" style="stroke:#181818;stroke-width:1.0;"/><line style="stroke:#181818;stroke-width:1.0;" x1="725" x2="735" y1="248" y2="238"/><line style="stroke:#181818;stroke-width:1.0;" x1="16" x2="725" y1="248" y2="248"/><line style="stroke:#181818;stroke-width:1.0;" x1="725" x2="725" y1="248" y2="498"/><text fill="#000000" font-family="sans-serif" font-size="14" font-weight="bold" lengthAdjust="spacing" textLength="121" x="311" y="264.5352">AMD "Latte" GPU</text></g><!--MD5=[109b4e14aa90d5dad6951567690fb982]
cluster gx--><g id="cluster_gx"><polygon fill="none" points="494,358,504,348,703,348,703,456,693,466,494,466,494,358" style="stroke:#181818;stroke-width:1.0;"/><line style="stroke:#181818;stroke-width:1.0;" x1="693" x2="703" y1="358" y2="348"/><line style="stroke:#181818;stroke-width:1.0;" x1="494" x2="693" y1="358" y2="358"/><line style="stroke:#181818;stroke-width:1.0;" x1="693" x2="693" y1="358" y2="466"/><text fill="#000000" font-family="sans-serif" font-size="14" font-weight="bold" lengthAdjust="spacing" textLength="19" x="585" y="374.5352">GX</text></g><!--MD5=[a045bad0e7c1cb4dddda3ee1afe54bd2]
entity core0--><g id="elem_core0"><rect fill="#F1F1F1" height="46.4883" rx="2.5" ry="2.5" style="stroke:#181818;stroke-width:0.5;" width="258" x="59" y="46"/><rect fill="#F1F1F1" height="10" style="stroke:#181818;stroke-width:0.5;" width="15" x="297" y="51"/><rect fill="#F1F1F1" height="2" style="stroke:#181818;stroke-width:0.5;" width="4" x="295" y="53"/><rect fill="#F1F1F1" height="2" style="stroke:#181818;stroke-width:0.5;" width="4" x="295" y="57"/><text fill="#000000" font-family="sans-serif" font-size="14" lengthAdjust="spacing" textLength="218" x="74" y="79.5352">IBM PowerPC "Broadway" Core 0</text></g><!--MD5=[6fa167b440f6fb66b1b0330a63436afe]
entity core1--><g id="elem_core1"><rect fill="#F1F1F1" height="46.4883" rx="2.5" ry="2.5" style="stroke:#181818;stroke-width:0.5;" width="258" x="352" y="46"/><rect fill="#F1F1F1" height="10" style="stroke:#181818;stroke-width:0.5;" width="15" x="590" y="51"/><rect fill="#F1F1F1" height="2" style="stroke:#181818;stroke-width:0.5;" width="4" x="588" y="53"/><rect fill="#F1F1F1" height="2" style="stroke:#181818;stroke-width:0.5;" width="4" x="588" y="57"/><text fill="#000000" font-family="sans-serif" font-size="14" lengthAdjust="spacing" textLength="218" x="367" y="79.5352">IBM PowerPC "Broadway" Core 1</text></g><!--MD5=[456988fec64c9e825ae5a28cfab127a7]
entity core2--><g id="elem_core2"><rect fill="#F1F1F1" height="46.4883" rx="2.5" ry="2.5" style="stroke:#181818;stroke-width:0.5;" width="258" x="242" y="152"/><rect fill="#F1F1F1" height="10" style="stroke:#181818;stroke-width:0.5;" width="15" x="480" y="157"/><rect fill="#F1F1F1" height="2" style="stroke:#181818;stroke-width:0.5;" width="4" x="478" y="159"/><rect fill="#F1F1F1" height="2" style="stroke:#181818;stroke-width:0.5;" width="4" x="478" y="163"/><text fill="#000000" font-family="sans-serif" font-size="14" lengthAdjust="spacing" textLength="218" x="257" y="185.5352">IBM PowerPC "Broadway" Core 2</text></g><!--MD5=[c08aaa17dd6f7e27a3b57712176080b2]
entity rom--><g id="elem_rom"><rect fill="#F1F1F1" height="46.4883" rx="2.5" ry="2.5" style="stroke:#181818;stroke-width:0.5;" width="147" x="59.5" y="152"/><rect fill="#F1F1F1" height="10" style="stroke:#181818;stroke-width:0.5;" width="15" x="186.5" y="157"/><rect fill="#F1F1F1" height="2" style="stroke:#181818;stroke-width:0.5;" width="4" x="184.5" y="159"/><rect fill="#F1F1F1" height="2" style="stroke:#181818;stroke-width:0.5;" width="4" x="184.5" y="163"/><text fill="#000000" font-family="sans-serif" font-size="14" lengthAdjust="spacing" textLength="107" x="74.5" y="185.5352">512 B SEEPROM</text></g><!--MD5=[e35db7c651b6c460ad2880ac9bc676be]
entity mem--><g id="elem_mem"><rect fill="#F1F1F1" height="46.4883" rx="2.5" ry="2.5" style="stroke:#181818;stroke-width:0.5;" width="183" x="286.5" y="278"/><rect fill="#F1F1F1" height="10" style="stroke:#181818;stroke-width:0.5;" width="15" x="449.5" y="283"/><rect fill="#F1F1F1" height="2" style="stroke:#181818;stroke-width:0.5;" width="4" x="447.5" y="285"/><rect fill="#F1F1F1" height="2" style="stroke:#181818;stroke-width:0.5;" width="4" x="447.5" y="289"/><text fill="#000000" font-family="sans-serif" font-size="14" lengthAdjust="spacing" textLength="143" x="301.5" y="311.5352">Memory &amp; I/O Bridge</text></g><!--MD5=[cd0be80b2af6a9ebd090addbeb4f08e5]
entity dram--><g id="elem_dram"><rect fill="#F1F1F1" height="46.4883" rx="2.5" ry="2.5" style="stroke:#181818;stroke-width:0.5;" width="155" x="96.5" y="278"/><rect fill="#F1F1F1" height="10" style="stroke:#181818;stroke-width:0.5;" width="15" x="231.5" y="283"/><rect fill="#F1F1F1" height="2" style="stroke:#181818;stroke-width:0.5;" width="4" x="229.5" y="285"/><rect fill="#F1F1F1" height="2" style="stroke:#181818;stroke-width:0.5;" width="4" x="229.5" y="289"/><text fill="#000000" font-family="sans-serif" font-size="14" lengthAdjust="spacing" textLength="115" x="111.5" y="311.5352">DRAM Controller</text></g><!--MD5=[72390891e1e56002458d86e713d14e55]
entity edram--><g id="elem_edram"><rect fill="#F1F1F1" height="46.4883" rx="2.5" ry="2.5" style="stroke:#181818;stroke-width:0.5;" width="190" x="529" y="278"/><rect fill="#F1F1F1" height="10" style="stroke:#181818;stroke-width:0.5;" width="15" x="699" y="283"/><rect fill="#F1F1F1" height="2" style="stroke:#181818;stroke-width:0.5;" width="4" x="697" y="285"/><rect fill="#F1F1F1" height="2" style="stroke:#181818;stroke-width:0.5;" width="4" x="697" y="289"/><text fill="#000000" font-family="sans-serif" font-size="14" lengthAdjust="spacing" textLength="150" x="544" y="311.5352">32 MB EDRAM "MEM1"</text></g><!--MD5=[b39768d38d1f241375bfc36086b0ec18]
entity sata--><g id="elem_sata"><rect fill="#F1F1F1" height="46.4883" rx="2.5" ry="2.5" style="stroke:#181818;stroke-width:0.5;" width="93" x="32.5" y="396"/><rect fill="#F1F1F1" height="10" style="stroke:#181818;stroke-width:0.5;" width="15" x="105.5" y="401"/><rect fill="#F1F1F1" height="2" style="stroke:#181818;stroke-width:0.5;" width="4" x="103.5" y="403"/><rect fill="#F1F1F1" height="2" style="stroke:#181818;stroke-width:0.5;" width="4" x="103.5" y="407"/><text fill="#000000" font-family="sans-serif" font-size="14" lengthAdjust="spacing" textLength="53" x="47.5" y="429.5352">SATA IF</text></g><!--MD5=[5d7eaf79d81fb21ca7bc068bbeab25fd]
entity exi--><g id="elem_exi"><rect fill="#F1F1F1" height="46.4883" rx="2.5" ry="2.5" style="stroke:#181818;stroke-width:0.5;" width="61" x="160.5" y="396"/><rect fill="#F1F1F1" height="10" style="stroke:#181818;stroke-width:0.5;" width="15" x="201.5" y="401"/><rect fill="#F1F1F1" height="2" style="stroke:#181818;stroke-width:0.5;" width="4" x="199.5" y="403"/><rect fill="#F1F1F1" height="2" style="stroke:#181818;stroke-width:0.5;" width="4" x="199.5" y="407"/><text fill="#000000" font-family="sans-serif" font-size="14" lengthAdjust="spacing" textLength="21" x="175.5" y="429.5352">EXI</text></g><!--MD5=[c1d832d933683d965aaf52d33268ea6d]
entity radeon--><g id="elem_radeon"><rect fill="#F1F1F1" height="46.4883" rx="2.5" ry="2.5" style="stroke:#181818;stroke-width:0.5;" width="210" x="257" y="396"/><rect fill="#F1F1F1" height="10" style="stroke:#181818;stroke-width:0.5;" width="15" x="447" y="401"/><rect fill="#F1F1F1" height="2" style="stroke:#181818;stroke-width:0.5;" width="4" x="445" y="403"/><rect fill="#F1F1F1" height="2" style="stroke:#181818;stroke-width:0.5;" width="4" x="445" y="407"/><text fill="#000000" font-family="sans-serif" font-size="14" lengthAdjust="spacing" textLength="170" x="272" y="429.5352">AMD Radeon R7xx "GX2"</text></g><!--MD5=[ceaf568179fcd369af7447689c5ecf6a]
entity 3 MB 1T-SRAM--><g id="elem_3 MB 1T-SRAM"><rect fill="#F1F1F1" height="46.4883" rx="2.5" ry="2.5" style="stroke:#181818;stroke-width:0.5;" width="142" x="537" y="396"/><rect fill="#F1F1F1" height="10" style="stroke:#181818;stroke-width:0.5;" width="15" x="659" y="401"/><rect fill="#F1F1F1" height="2" style="stroke:#181818;stroke-width:0.5;" width="4" x="657" y="403"/><rect fill="#F1F1F1" height="2" style="stroke:#181818;stroke-width:0.5;" width="4" x="657" y="407"/><text fill="#000000" font-family="sans-serif" font-size="14" lengthAdjust="spacing" textLength="102" x="552" y="429.5352">3 MB 1T-SRAM</text></g><!--MD5=[f4e215c4f0d9c049331f5b7f188062d1]
entity ddr3--><g id="elem_ddr3"><rect fill="#F1F1F1" height="46.4883" rx="2.5" ry="2.5" style="stroke:#181818;stroke-width:0.5;" width="203" x="751.5" y="396"/><rect fill="#F1F1F1" height="10" style="stroke:#181818;stroke-width:0.5;" width="15" x="934.5" y="401"/><rect fill="#F1F1F1" height="2" style="stroke:#181818;stroke-width:0.5;" width="4" x="932.5" y="403"/><rect fill="#F1F1F1" height="2" style="stroke:#181818;stroke-width:0.5;" width="4" x="932.5" y="407"/><text fill="#000000" font-family="sans-serif" font-size="14" lengthAdjust="spacing" textLength="163" x="766.5" y="429.5352">2 GB DDR3 RAM "MEM2"</text></g><!--MD5=[fbc73e0d35586b34e1f6eec82ec1eee3]
entity RTC--><g id="elem_RTC"><ellipse cx="191" cy="543" fill="#F1F1F1" rx="8" ry="8" style="stroke:#181818;stroke-width:0.5;"/><text fill="#000000" font-family="sans-serif" font-size="14" lengthAdjust="spacing" textLength="28" x="177" y="573.5352">RTC</text></g><!--MD5=[34d83298b193fd42589bce5fd4d4e82d]
link core0 to core2--><g id="link_core0_core2"><path d="M226.81,92.06 C257.87,109.7 301.21,134.34 332.25,151.98 " fill="none" id="core0-core2" style="stroke:#181818;stroke-width:1.0;"/></g><!--MD5=[c7fc78caa20f28b61258d01ec8ad6493]
link rom to core2--><g id="link_rom_core2"><path d="M206.91,175 C216.83,175 226.74,175 236.66,175 " fill="none" id="rom-to-core2" style="stroke:#181818;stroke-width:1.0;"/><polygon fill="#181818" points="241.84,175,232.84,171,236.84,175,232.84,179,241.84,175" style="stroke:#181818;stroke-width:1.0;"/></g><!--MD5=[01da3abc8ddef397e5f2e6496ae0caf7]
link mem to gx--><g id="link_mem_gx"><path d="M469.61,317.63 C482.74,321.59 493.37,326.35 498,332 C500.935,335.585 503.2178,339.5628 504.9634,343.7857 C505.3997,344.8415 505.8026,345.9125 506.1736,346.9966 C506.2663,347.2676 506.3571,347.5394 506.4459,347.812 " fill="none" id="mem-gx" style="stroke:#181818;stroke-width:1.0;"/></g><!--MD5=[52aabb5079cb88c4d7c39fca6aa054b5]
link mem to radeon--><g id="link_mem_radeon"><path d="M374.95,324.09 C372.11,344.73 367.88,375.38 365.04,395.99 " fill="none" id="mem-radeon" style="stroke:#181818;stroke-width:1.0;"/></g><!--MD5=[b577fad1acd9a19f38c8ea41256536ae]
link rom to mem--><g id="link_rom_mem"><path d="M170.45,198.04 C186.48,206.65 205.7,215.89 224,222 C243.27,228.43 250.09,222.59 269,230 C298.94,241.73 329.45,262.2 350.54,277.98 " fill="none" id="rom-mem" style="stroke:#181818;stroke-width:1.0;"/></g><!--MD5=[d8c697f84f1c8b64aaf4011a3ad57511]
link mem to sata--><g id="link_mem_sata"><path d="M286.27,321.44 C280.44,322.39 274.65,323.25 269,324 C241.19,327.67 167.66,318.62 143,332 C117.32,345.94 99.07,375.13 88.79,395.62 " fill="none" id="mem-sata" style="stroke:#181818;stroke-width:1.0;"/></g><!--MD5=[8ba9ed11dfc4a92b011c9ea3cbd5668e]
link mem to exi--><g id="link_mem_exi"><path d="M286.15,320.36 C261.73,325.53 241.39,330.23 239,332 C217.7,347.77 204.59,375.97 197.57,395.77 " fill="none" id="mem-exi" style="stroke:#181818;stroke-width:1.0;"/></g><!--MD5=[2b5465f7b72191da838483fc65392c7d]
link dram to sata--><g id="link_dram_sata"><path d="M150.23,324.22 C147.73,326.78 145.27,329.41 143,332 C124.94,352.55 106.52,377.86 94.11,395.68 " fill="none" id="dram-sata" style="stroke:#181818;stroke-width:1.0;"/></g><!--MD5=[4f6f5eac23c84c544f4e2780a6489563]
link dram to exi--><g id="link_dram_exi"><path d="M177.24,324.09 C180.26,344.73 184.75,375.38 187.77,395.99 " fill="none" id="dram-exi" style="stroke:#181818;stroke-width:1.0;"/></g><!--MD5=[a6962389b5b426870440ddcb7bcc10c4]
link mem to ddr3--><g id="link_mem_ddr3"><path d="M469.71,318.54 C483.84,320.66 498.28,322.58 512,324 C552.49,328.19 655.78,321.1 695,332 C742.69,345.25 791.9,375.06 822.46,395.85 " fill="none" id="mem-ddr3" style="stroke:#181818;stroke-width:1.0;"/></g><!--MD5=[65d7ddd54b5be3876667f9a64a84d965]
link dram to ddr3--><g id="link_dram_ddr3"><path d="M251.53,321.34 C257.42,322.39 263.29,323.29 269,324 C315.98,329.82 649.23,319.89 695,332 C743.16,344.74 792.64,374.99 823.1,395.98 " fill="none" id="dram-ddr3" style="stroke:#181818;stroke-width:1.0;"/></g><!--MD5=[452bb85531f418c89b142385780a6a62]
link edram to ddr3--><g id="link_edram_ddr3"><path d="M677.75,324.05 C683.61,326.65 689.45,329.33 695,332 C736.78,352.14 783.25,377.85 814.92,395.89 " fill="none" id="edram-ddr3" style="stroke:#181818;stroke-width:1.0;"/></g><!--MD5=[3a2f9ac7bfd6d1cfd47b4a98f4b5fe74]
link core1 to mem--><g id="link_core1_mem"><path d="M496.03,92.13 C515.04,123.11 542.49,180.32 518,222 C507.92,239.15 465.42,261.48 429.86,277.85 " fill="none" id="core1-mem" style="stroke:#181818;stroke-width:1.0;"/></g><!--MD5=[c5fb095442e6bf0119ff5c32e2f381a1]
link exi to RTC--><g id="link_exi_RTC"><path d="M191,442.09 C191,469.7 191,515.54 191,533.97 " fill="none" id="exi-RTC" style="stroke:#181818;stroke-width:1.0;"/></g><!--MD5=[2d6f8ea5c84d228bf80353984d9212b5]
@startuml

node "IBM "Espresso" CPU" as ibm {
  [IBM PowerPC "Broadway" Core 0] as core0
  [IBM PowerPC "Broadway" Core 1] as core1
  [IBM PowerPC "Broadway" Core 2] as core2

  [16 KB ROM] as rom

  core0 - - core2

  rom -> core2
}

node "AMD "Latte" GPU" as amd {
  [Memory & I/O Bridge] as mem
  [DRAM Controller] as dram
  [32 MB EDRAM "MEM1"] as edram
  [512 B SEEPROM] as rom

  [SATA IF] as sata
  [EXI] as exi

  node "GX" as gx {
    [3 MB 1T-SRAM]
  }

  [AMD Radeon R7xx "GX2"] as radeon

  mem - - gx
  mem - - radeon

  rom - - mem

  mem - - sata
  mem - - exi

  dram - - sata
  dram - - exi
}

[2 GB DDR3 RAM "MEM2"] as ddr3

mem - - ddr3
dram - - ddr3
edram - - ddr3

core1 - - mem

exi - - RTC

@enduml

PlantUML version 1.2022.8(Sun Sep 25 02:00:33 PDT 2022)
(GPL source distribution)
Java Runtime: OpenJDK Runtime Environment
JVM: OpenJDK 64-Bit Server VM
Default Encoding: UTF-8
Language: en
Country: US
--></g></svg>