<svg xmlns="http://www.w3.org/2000/svg" xmlns:xlink="http://www.w3.org/1999/xlink" contentStyleType="text/css" height="583px" preserveAspectRatio="none" style="width:981px;height:583px;background:#FFFFFF;" version="1.1" viewBox="0 0 981 583" width="981px" zoomAndPan="magnify"><defs/><g><!--cluster ibm--><g id="cluster_ibm"><polygon fill="none" points="16,16,26,6,595,6,595,204.97,585,214.97,16,214.97,16,16" style="stroke:#181818;stroke-width:1.0;"/><line style="stroke:#181818;stroke-width:1.0;" x1="585" x2="595" y1="16" y2="6"/><line style="stroke:#181818;stroke-width:1.0;" x1="16" x2="585" y1="16" y2="16"/><line style="stroke:#181818;stroke-width:1.0;" x1="585" x2="585" y1="16" y2="214.97"/><text fill="#000000" font-family="sans-serif" font-size="14" font-weight="bold" lengthAdjust="spacing" textLength="141.8525" x="230.5737" y="32.5352">IBM "Espresso" CPU</text></g><!--cluster amd--><g id="cluster_amd"><polygon fill="none" points="58,248.97,68,238.97,751,238.97,751,489.95,741,499.95,58,499.95,58,248.97" style="stroke:#181818;stroke-width:1.0;"/><line style="stroke:#181818;stroke-width:1.0;" x1="741" x2="751" y1="248.97" y2="238.97"/><line style="stroke:#181818;stroke-width:1.0;" x1="58" x2="741" y1="248.97" y2="248.97"/><line style="stroke:#181818;stroke-width:1.0;" x1="741" x2="741" y1="248.97" y2="499.95"/><text fill="#000000" font-family="sans-serif" font-size="14" font-weight="bold" lengthAdjust="spacing" textLength="121.249" x="339.8755" y="265.5052">AMD "Latte" GPU</text></g><!--cluster gx--><g id="cluster_gx"><polygon fill="none" points="308,359.46,318,349.46,521,349.46,521,457.95,511,467.95,308,467.95,308,359.46" style="stroke:#181818;stroke-width:1.0;"/><line style="stroke:#181818;stroke-width:1.0;" x1="511" x2="521" y1="359.46" y2="349.46"/><line style="stroke:#181818;stroke-width:1.0;" x1="308" x2="511" y1="359.46" y2="359.46"/><line style="stroke:#181818;stroke-width:1.0;" x1="511" x2="511" y1="359.46" y2="467.95"/><text fill="#000000" font-family="sans-serif" font-size="14" font-weight="bold" lengthAdjust="spacing" textLength="19.7764" x="400.6118" y="375.9952">GX</text></g><!--entity core0--><g id="elem_core0"><rect fill="#F1F1F1" height="46.4883" rx="2.5" ry="2.5" style="stroke:#181818;stroke-width:0.5;" width="255.8242" x="32.09" y="46"/><rect fill="#F1F1F1" height="10" style="stroke:#181818;stroke-width:0.5;" width="15" x="267.9142" y="51"/><rect fill="#F1F1F1" height="2" style="stroke:#181818;stroke-width:0.5;" width="4" x="265.9142" y="53"/><rect fill="#F1F1F1" height="2" style="stroke:#181818;stroke-width:0.5;" width="4" x="265.9142" y="57"/><text fill="#000000" font-family="sans-serif" font-size="14" lengthAdjust="spacing" textLength="215.8242" x="47.09" y="79.5352">IBM PowerPC "Broadway" Core 0</text></g><!--entity core1--><g id="elem_core1"><rect fill="#F1F1F1" height="46.4883" rx="2.5" ry="2.5" style="stroke:#181818;stroke-width:0.5;" width="255.8242" x="323.09" y="46"/><rect fill="#F1F1F1" height="10" style="stroke:#181818;stroke-width:0.5;" width="15" x="558.9142" y="51"/><rect fill="#F1F1F1" height="2" style="stroke:#181818;stroke-width:0.5;" width="4" x="556.9142" y="53"/><rect fill="#F1F1F1" height="2" style="stroke:#181818;stroke-width:0.5;" width="4" x="556.9142" y="57"/><text fill="#000000" font-family="sans-serif" font-size="14" lengthAdjust="spacing" textLength="215.8242" x="338.09" y="79.5352">IBM PowerPC "Broadway" Core 1</text></g><!--entity core2--><g id="elem_core2"><rect fill="#F1F1F1" height="46.4883" rx="2.5" ry="2.5" style="stroke:#181818;stroke-width:0.5;" width="255.8242" x="213.09" y="152.49"/><rect fill="#F1F1F1" height="10" style="stroke:#181818;stroke-width:0.5;" width="15" x="448.9142" y="157.49"/><rect fill="#F1F1F1" height="2" style="stroke:#181818;stroke-width:0.5;" width="4" x="446.9142" y="159.49"/><rect fill="#F1F1F1" height="2" style="stroke:#181818;stroke-width:0.5;" width="4" x="446.9142" y="163.49"/><text fill="#000000" font-family="sans-serif" font-size="14" lengthAdjust="spacing" textLength="215.8242" x="228.09" y="186.0252">IBM PowerPC "Broadway" Core 2</text></g><!--entity rom--><g id="elem_rom"><rect fill="#F1F1F1" height="46.4883" rx="2.5" ry="2.5" style="stroke:#181818;stroke-width:0.5;" width="145.7109" x="32.14" y="152.49"/><rect fill="#F1F1F1" height="10" style="stroke:#181818;stroke-width:0.5;" width="15" x="157.8509" y="157.49"/><rect fill="#F1F1F1" height="2" style="stroke:#181818;stroke-width:0.5;" width="4" x="155.8509" y="159.49"/><rect fill="#F1F1F1" height="2" style="stroke:#181818;stroke-width:0.5;" width="4" x="155.8509" y="163.49"/><text fill="#000000" font-family="sans-serif" font-size="14" lengthAdjust="spacing" textLength="105.7109" x="47.14" y="186.0252">512 B SEEPROM</text></g><!--entity mem--><g id="elem_mem"><rect fill="#F1F1F1" height="46.4883" rx="2.5" ry="2.5" style="stroke:#181818;stroke-width:0.5;" width="183.042" x="138.48" y="278.97"/><rect fill="#F1F1F1" height="10" style="stroke:#181818;stroke-width:0.5;" width="15" x="301.522" y="283.97"/><rect fill="#F1F1F1" height="2" style="stroke:#181818;stroke-width:0.5;" width="4" x="299.522" y="285.97"/><rect fill="#F1F1F1" height="2" style="stroke:#181818;stroke-width:0.5;" width="4" x="299.522" y="289.97"/><text fill="#000000" font-family="sans-serif" font-size="14" lengthAdjust="spacing" textLength="143.042" x="153.48" y="312.5052">Memory &amp; I/O Bridge</text></g><!--entity dram--><g id="elem_dram"><rect fill="#F1F1F1" height="46.4883" rx="2.5" ry="2.5" style="stroke:#181818;stroke-width:0.5;" width="153.6475" x="356.18" y="278.97"/><rect fill="#F1F1F1" height="10" style="stroke:#181818;stroke-width:0.5;" width="15" x="489.8275" y="283.97"/><rect fill="#F1F1F1" height="2" style="stroke:#181818;stroke-width:0.5;" width="4" x="487.8275" y="285.97"/><rect fill="#F1F1F1" height="2" style="stroke:#181818;stroke-width:0.5;" width="4" x="487.8275" y="289.97"/><text fill="#000000" font-family="sans-serif" font-size="14" lengthAdjust="spacing" textLength="113.6475" x="371.18" y="312.5052">DRAM Controller</text></g><!--entity edram--><g id="elem_edram"><rect fill="#F1F1F1" height="46.4883" rx="2.5" ry="2.5" style="stroke:#181818;stroke-width:0.5;" width="190.7666" x="544.62" y="278.97"/><rect fill="#F1F1F1" height="10" style="stroke:#181818;stroke-width:0.5;" width="15" x="715.3866" y="283.97"/><rect fill="#F1F1F1" height="2" style="stroke:#181818;stroke-width:0.5;" width="4" x="713.3866" y="285.97"/><rect fill="#F1F1F1" height="2" style="stroke:#181818;stroke-width:0.5;" width="4" x="713.3866" y="289.97"/><text fill="#000000" font-family="sans-serif" font-size="14" lengthAdjust="spacing" textLength="150.7666" x="559.62" y="312.5052">32 MB EDRAM "MEM1"</text></g><!--entity sata--><g id="elem_sata"><rect fill="#F1F1F1" height="46.4883" rx="2.5" ry="2.5" style="stroke:#181818;stroke-width:0.5;" width="91.6797" x="548.16" y="397.46"/><rect fill="#F1F1F1" height="10" style="stroke:#181818;stroke-width:0.5;" width="15" x="619.8397" y="402.46"/><rect fill="#F1F1F1" height="2" style="stroke:#181818;stroke-width:0.5;" width="4" x="617.8397" y="404.46"/><rect fill="#F1F1F1" height="2" style="stroke:#181818;stroke-width:0.5;" width="4" x="617.8397" y="408.46"/><text fill="#000000" font-family="sans-serif" font-size="14" lengthAdjust="spacing" textLength="51.6797" x="563.16" y="430.9952">SATA IF</text></g><!--entity exi--><g id="elem_exi"><rect fill="#F1F1F1" height="46.4883" rx="2.5" ry="2.5" style="stroke:#181818;stroke-width:0.5;" width="60.3848" x="674.81" y="397.46"/><rect fill="#F1F1F1" height="10" style="stroke:#181818;stroke-width:0.5;" width="15" x="715.1948" y="402.46"/><rect fill="#F1F1F1" height="2" style="stroke:#181818;stroke-width:0.5;" width="4" x="713.1948" y="404.46"/><rect fill="#F1F1F1" height="2" style="stroke:#181818;stroke-width:0.5;" width="4" x="713.1948" y="408.46"/><text fill="#000000" font-family="sans-serif" font-size="14" lengthAdjust="spacing" textLength="20.3848" x="689.81" y="430.9952">EXI</text></g><!--entity radeon--><g id="elem_radeon"><rect fill="#F1F1F1" height="46.4883" rx="2.5" ry="2.5" style="stroke:#181818;stroke-width:0.5;" width="209.0459" x="74.48" y="397.46"/><rect fill="#F1F1F1" height="10" style="stroke:#181818;stroke-width:0.5;" width="15" x="263.5259" y="402.46"/><rect fill="#F1F1F1" height="2" style="stroke:#181818;stroke-width:0.5;" width="4" x="261.5259" y="404.46"/><rect fill="#F1F1F1" height="2" style="stroke:#181818;stroke-width:0.5;" width="4" x="261.5259" y="408.46"/><text fill="#000000" font-family="sans-serif" font-size="14" lengthAdjust="spacing" textLength="169.0459" x="89.48" y="430.9952">AMD Radeon R7xx "GX2"</text></g><!--entity 3 MB 1T-SRAM--><g id="elem_3 MB 1T-SRAM"><rect fill="#F1F1F1" height="46.4883" rx="2.5" ry="2.5" style="stroke:#181818;stroke-width:0.5;" width="141.7393" x="332.13" y="397.46"/><rect fill="#F1F1F1" height="10" style="stroke:#181818;stroke-width:0.5;" width="15" x="453.8693" y="402.46"/><rect fill="#F1F1F1" height="2" style="stroke:#181818;stroke-width:0.5;" width="4" x="451.8693" y="404.46"/><rect fill="#F1F1F1" height="2" style="stroke:#181818;stroke-width:0.5;" width="4" x="451.8693" y="408.46"/><text fill="#000000" font-family="sans-serif" font-size="14" lengthAdjust="spacing" textLength="101.7393" x="347.13" y="430.9952">3 MB 1T-SRAM</text></g><!--entity ddr3--><g id="elem_ddr3"><rect fill="#F1F1F1" height="46.4883" rx="2.5" ry="2.5" style="stroke:#181818;stroke-width:0.5;" width="205.0059" x="770.5" y="397.46"/><rect fill="#F1F1F1" height="10" style="stroke:#181818;stroke-width:0.5;" width="15" x="955.5059" y="402.46"/><rect fill="#F1F1F1" height="2" style="stroke:#181818;stroke-width:0.5;" width="4" x="953.5059" y="404.46"/><rect fill="#F1F1F1" height="2" style="stroke:#181818;stroke-width:0.5;" width="4" x="953.5059" y="408.46"/><text fill="#000000" font-family="sans-serif" font-size="14" lengthAdjust="spacing" textLength="165.0059" x="785.5" y="430.9952">2 GB DDR3 RAM "MEM2"</text></g><!--entity RTC--><g id="elem_RTC"><ellipse cx="705" cy="544.95" fill="#F1F1F1" rx="8" ry="8" style="stroke:#181818;stroke-width:0.5;"/><text fill="#000000" font-family="sans-serif" font-size="14" lengthAdjust="spacing" textLength="27.3916" x="691.3042" y="575.4852">RTC</text></g><!--link core0 to core2--><g id="link_core0_core2"><path d="M199.27,92.91 C229.63,110.44 271.46,134.59 301.8,152.1 " fill="none" id="core0-core2" style="stroke:#181818;stroke-width:1.0;"/></g><!--link rom to core2--><g id="link_rom_core2"><path d="M178.29,175.73 C189.73,175.73 195.17,175.73 206.61,175.73 " fill="none" id="rom-to-core2" style="stroke:#181818;stroke-width:1.0;"/><polygon fill="#181818" points="212.61,175.73,203.61,171.73,207.61,175.73,203.61,179.73,212.61,175.73" style="stroke:#181818;stroke-width:1.0;"/></g><!--link mem to gx--><g id="link_mem_gx"><path d="M322.02,323 C327.75,323.92 333.44,324.75 339,325.46 C355.67,327.59 477.07,322.74 490,333.46 C493.4988,336.3625 496.47,339.7413 498.9889,343.4479 C500.2483,345.3013 501.3946,347.2366 502.4373,349.2354 " fill="none" id="mem-gx" style="stroke:#181818;stroke-width:1.0;"/></g><!--link mem to radeon--><g id="link_mem_radeon"><path d="M220.05,325.95 C211.06,346.48 197.91,376.52 188.93,397.03 " fill="none" id="mem-radeon" style="stroke:#181818;stroke-width:1.0;"/></g><!--link rom to mem--><g id="link_rom_mem"><path d="M127.64,199.27 C150.29,221.83 184.94,256.34 207.53,278.84 " fill="none" id="rom-mem" style="stroke:#181818;stroke-width:1.0;"/></g><!--link mem to sata--><g id="link_mem_sata"><path d="M322.01,323.07 C327.74,323.97 333.44,324.78 339,325.46 C359.97,328.03 510.29,323.64 529,333.46 C555.06,347.15 573.6,376.48 584.05,397.13 " fill="none" id="mem-sata" style="stroke:#181818;stroke-width:1.0;"/></g><!--link mem to exi--><g id="link_mem_exi"><path d="M321.99,323.18 C327.73,324.05 333.43,324.83 339,325.46 C356.56,327.46 641.88,324.31 657,333.46 C680.02,347.39 692.86,376.67 699.34,397.24 " fill="none" id="mem-exi" style="stroke:#181818;stroke-width:1.0;"/></g><!--link dram to sata--><g id="link_dram_sata"><path d="M510.02,322.64 C516.71,325.74 523.15,329.33 529,333.46 C552.43,350.01 571.07,377.59 582.28,397.1 " fill="none" id="dram-sata" style="stroke:#181818;stroke-width:1.0;"/></g><!--link dram to exi--><g id="link_dram_exi"><path d="M510.25,322.6 C515.9,323.68 521.53,324.65 527,325.46 C541.32,327.58 644.76,325.75 657,333.46 C679.62,347.71 692.49,376.62 699.1,397.03 " fill="none" id="dram-exi" style="stroke:#181818;stroke-width:1.0;"/></g><!--link mem to ddr3--><g id="link_mem_ddr3"><path d="M321.99,323.21 C327.73,324.08 333.43,324.84 339,325.46 C384.51,330.5 707.5,319.17 751,333.46 C789.94,346.25 827.28,376.11 850.17,397.09 " fill="none" id="mem-ddr3" style="stroke:#181818;stroke-width:1.0;"/></g><!--link dram to ddr3--><g id="link_dram_ddr3"><path d="M510.23,322.76 C515.88,323.8 521.52,324.72 527,325.46 C576.36,332.12 703.81,317.53 751,333.46 C789.83,346.57 827.2,376.35 850.12,397.23 " fill="none" id="dram-ddr3" style="stroke:#181818;stroke-width:1.0;"/></g><!--link edram to ddr3--><g id="link_edram_ddr3"><path d="M732.95,325.9 C739.15,328.22 745.22,330.74 751,333.46 C786.89,350.39 823.46,377.89 847.08,397.28 " fill="none" id="edram-ddr3" style="stroke:#181818;stroke-width:1.0;"/></g><!--link core1 to mem--><g id="link_core1_mem"><path d="M467.15,92.96 C488.52,126.02 519.76,187.32 486,222.97 C474.75,234.85 354.56,225.93 339,230.97 C307.95,241.04 277.1,262.24 256.19,278.73 " fill="none" id="core1-mem" style="stroke:#181818;stroke-width:1.0;"/></g><!--link exi to RTC--><g id="link_exi_RTC"><path d="M705,444.41 C705,472.17 705,517.7 705,535.98 " fill="none" id="exi-RTC" style="stroke:#181818;stroke-width:1.0;"/></g><!--SRC=[XLBBQiCm4BphAnOTUZED7ThU2durc5R4E2a4GWvg9K8WjefiY4F9lrUxbkEsbzmqExExCuiQepJm8X70y_RBwhOr7DBodODiuV1HmpS3s29VcfEsPGeyiKQgapmxdR4QPZkKVhhdx9Oql4h3MzBeAeqOQiD7U4sWMWggMrDZbPP244mwHq3mxF65iORYnI83_YQxJdDO-6ooLaCseMjZpt07nVqI4djGUqqxQbqZdLMnS9QQpfhZKLkYb9N4pICG2UGauI8N8ITQZ_n36442gpml_ndVhk9r3CKBrLhPIQpbcs9exm-e6QmlDkHstvDPt8ahmtMmSajthdIXUPYmaagR1ggdliU-Q31ZgOeY5mXljU-dzqJIuG8AFT7UcKVU5uRxHOuGMUTb6y4YWIohvZ1UnHjHoiuPyxC8ZAq4z1_4w9DS7RdX-AxMAVi1]--></g></svg>