<svg xmlns="http://www.w3.org/2000/svg" xmlns:xlink="http://www.w3.org/1999/xlink" contentStyleType="text/css" height="783px" preserveAspectRatio="none" style="width:1768px;height:783px;background:#FFFFFF;" version="1.1" viewBox="0 0 1768 783" width="1768px" zoomAndPan="magnify"><defs/><g><!--cluster ibm--><g id="cluster_ibm"><polygon fill="none" points="16,16,26,6,1078,6,1078,98.3,1068,108.3,16,108.3,16,16" style="stroke:#181818;stroke-width:1.0;"/><line style="stroke:#181818;stroke-width:1.0;" x1="1068" x2="1078" y1="16" y2="6"/><line style="stroke:#181818;stroke-width:1.0;" x1="16" x2="1068" y1="16" y2="16"/><line style="stroke:#181818;stroke-width:1.0;" x1="1068" x2="1068" y1="16" y2="108.3"/><text fill="#000000" font-family="sans-serif" font-size="14" font-weight="bold" lengthAdjust="spacing" textLength="156.6523" x="464.6738" y="31.9951">IBM "Espresso" CPU</text></g><!--cluster amd--><g id="cluster_amd"><polygon fill="none" points="795,142.3,805,132.3,1533,132.3,1533,661.78,1523,671.78,795,671.78,795,142.3" style="stroke:#181818;stroke-width:1.0;"/><line style="stroke:#181818;stroke-width:1.0;" x1="1523" x2="1533" y1="142.3" y2="132.3"/><line style="stroke:#181818;stroke-width:1.0;" x1="795" x2="1523" y1="142.3" y2="142.3"/><line style="stroke:#181818;stroke-width:1.0;" x1="1523" x2="1523" y1="142.3" y2="671.78"/><text fill="#000000" font-family="sans-serif" font-size="14" font-weight="bold" lengthAdjust="spacing" textLength="135.0918" x="1092.4541" y="158.2951">AMD "Latte" GPU</text></g><!--cluster gx--><g id="cluster_gx"><polygon fill="none" points="1125,358.89,1135,348.89,1334,348.89,1334,457.19,1324,467.19,1125,467.19,1125,358.89" style="stroke:#181818;stroke-width:1.0;"/><line style="stroke:#181818;stroke-width:1.0;" x1="1324" x2="1334" y1="358.89" y2="348.89"/><line style="stroke:#181818;stroke-width:1.0;" x1="1125" x2="1324" y1="358.89" y2="358.89"/><line style="stroke:#181818;stroke-width:1.0;" x1="1324" x2="1324" y1="358.89" y2="467.19"/><text fill="#000000" font-family="sans-serif" font-size="14" font-weight="bold" lengthAdjust="spacing" textLength="22.2852" x="1214.3574" y="374.8851">GX</text></g><!--entity core0--><g id="elem_core0"><rect fill="#F1F1F1" height="46.2969" rx="2.5" ry="2.5" style="stroke:#181818;stroke-width:0.5;" width="268.8604" x="489.57" y="46"/><rect fill="#F1F1F1" height="10" style="stroke:#181818;stroke-width:0.5;" width="15" x="738.4304" y="51"/><rect fill="#F1F1F1" height="2" style="stroke:#181818;stroke-width:0.5;" width="4" x="736.4304" y="53"/><rect fill="#F1F1F1" height="2" style="stroke:#181818;stroke-width:0.5;" width="4" x="736.4304" y="57"/><text fill="#000000" font-family="sans-serif" font-size="14" lengthAdjust="spacing" textLength="228.8604" x="504.57" y="78.9951">IBM PowerPC "Broadway" Core 0</text></g><!--entity core1--><g id="elem_core1"><rect fill="#F1F1F1" height="46.2969" rx="2.5" ry="2.5" style="stroke:#181818;stroke-width:0.5;" width="268.8604" x="793.57" y="46"/><rect fill="#F1F1F1" height="10" style="stroke:#181818;stroke-width:0.5;" width="15" x="1042.4304" y="51"/><rect fill="#F1F1F1" height="2" style="stroke:#181818;stroke-width:0.5;" width="4" x="1040.4304" y="53"/><rect fill="#F1F1F1" height="2" style="stroke:#181818;stroke-width:0.5;" width="4" x="1040.4304" y="57"/><text fill="#000000" font-family="sans-serif" font-size="14" lengthAdjust="spacing" textLength="228.8604" x="808.57" y="78.9951">IBM PowerPC "Broadway" Core 1</text></g><!--entity core2--><g id="elem_core2"><rect fill="#F1F1F1" height="46.2969" rx="2.5" ry="2.5" style="stroke:#181818;stroke-width:0.5;" width="268.8604" x="185.57" y="46"/><rect fill="#F1F1F1" height="10" style="stroke:#181818;stroke-width:0.5;" width="15" x="434.4304" y="51"/><rect fill="#F1F1F1" height="2" style="stroke:#181818;stroke-width:0.5;" width="4" x="432.4304" y="53"/><rect fill="#F1F1F1" height="2" style="stroke:#181818;stroke-width:0.5;" width="4" x="432.4304" y="57"/><text fill="#000000" font-family="sans-serif" font-size="14" lengthAdjust="spacing" textLength="228.8604" x="200.57" y="78.9951">IBM PowerPC "Broadway" Core 2</text></g><!--entity rom--><g id="elem_rom"><rect fill="#F1F1F1" height="46.2969" rx="2.5" ry="2.5" style="stroke:#181818;stroke-width:0.5;" width="118.3262" x="31.84" y="46"/><rect fill="#F1F1F1" height="10" style="stroke:#181818;stroke-width:0.5;" width="15" x="130.1662" y="51"/><rect fill="#F1F1F1" height="2" style="stroke:#181818;stroke-width:0.5;" width="4" x="128.1662" y="53"/><rect fill="#F1F1F1" height="2" style="stroke:#181818;stroke-width:0.5;" width="4" x="128.1662" y="57"/><text fill="#000000" font-family="sans-serif" font-size="14" lengthAdjust="spacing" textLength="78.3262" x="46.84" y="78.9951">16 KB ROM</text></g><!--entity mem--><g id="elem_mem"><rect fill="#F1F1F1" height="46.2969" rx="2.5" ry="2.5" style="stroke:#181818;stroke-width:0.5;" width="186.7061" x="899.65" y="278.59"/><rect fill="#F1F1F1" height="10" style="stroke:#181818;stroke-width:0.5;" width="15" x="1066.3561" y="283.59"/><rect fill="#F1F1F1" height="2" style="stroke:#181818;stroke-width:0.5;" width="4" x="1064.3561" y="285.59"/><rect fill="#F1F1F1" height="2" style="stroke:#181818;stroke-width:0.5;" width="4" x="1064.3561" y="289.59"/><text fill="#000000" font-family="sans-serif" font-size="14" lengthAdjust="spacing" textLength="146.7061" x="914.65" y="311.5851">Memory &amp; I/O Bridge</text></g><!--entity dram--><g id="elem_dram"><rect fill="#F1F1F1" height="46.2969" rx="2.5" ry="2.5" style="stroke:#181818;stroke-width:0.5;" width="155.7871" x="1361.11" y="396.89"/><rect fill="#F1F1F1" height="10" style="stroke:#181818;stroke-width:0.5;" width="15" x="1496.8971" y="401.89"/><rect fill="#F1F1F1" height="2" style="stroke:#181818;stroke-width:0.5;" width="4" x="1494.8971" y="403.89"/><rect fill="#F1F1F1" height="2" style="stroke:#181818;stroke-width:0.5;" width="4" x="1494.8971" y="407.89"/><text fill="#000000" font-family="sans-serif" font-size="14" lengthAdjust="spacing" textLength="115.7871" x="1376.11" y="429.8851">DRAM Controller</text></g><!--entity edram--><g id="elem_edram"><rect fill="#F1F1F1" height="46.2969" rx="2.5" ry="2.5" style="stroke:#181818;stroke-width:0.5;" width="198.6484" x="1318.68" y="172.3"/><rect fill="#F1F1F1" height="10" style="stroke:#181818;stroke-width:0.5;" width="15" x="1497.3284" y="177.3"/><rect fill="#F1F1F1" height="2" style="stroke:#181818;stroke-width:0.5;" width="4" x="1495.3284" y="179.3"/><rect fill="#F1F1F1" height="2" style="stroke:#181818;stroke-width:0.5;" width="4" x="1495.3284" y="183.3"/><text fill="#000000" font-family="sans-serif" font-size="14" lengthAdjust="spacing" textLength="158.6484" x="1333.68" y="205.2951">32 MB EDRAM "MEM1"</text></g><!--entity prom--><g id="elem_prom"><rect fill="#F1F1F1" height="46.2969" rx="2.5" ry="2.5" style="stroke:#181818;stroke-width:0.5;" width="153.0732" x="981.46" y="172.3"/><rect fill="#F1F1F1" height="10" style="stroke:#181818;stroke-width:0.5;" width="15" x="1114.5332" y="177.3"/><rect fill="#F1F1F1" height="2" style="stroke:#181818;stroke-width:0.5;" width="4" x="1112.5332" y="179.3"/><rect fill="#F1F1F1" height="2" style="stroke:#181818;stroke-width:0.5;" width="4" x="1112.5332" y="183.3"/><text fill="#000000" font-family="sans-serif" font-size="14" lengthAdjust="spacing" textLength="113.0732" x="996.46" y="205.2951">512 B SEEPROM</text></g><!--entity sata--><g id="elem_sata"><rect fill="#F1F1F1" height="46.2969" rx="2.5" ry="2.5" style="stroke:#181818;stroke-width:0.5;" width="93.2246" x="1078.39" y="503.19"/><rect fill="#F1F1F1" height="10" style="stroke:#181818;stroke-width:0.5;" width="15" x="1151.6146" y="508.19"/><rect fill="#F1F1F1" height="2" style="stroke:#181818;stroke-width:0.5;" width="4" x="1149.6146" y="510.19"/><rect fill="#F1F1F1" height="2" style="stroke:#181818;stroke-width:0.5;" width="4" x="1149.6146" y="514.19"/><text fill="#000000" font-family="sans-serif" font-size="14" lengthAdjust="spacing" textLength="53.2246" x="1093.39" y="536.1851">SATA IF</text></g><!--entity exi--><g id="elem_exi"><rect fill="#F1F1F1" height="46.2969" rx="2.5" ry="2.5" style="stroke:#181818;stroke-width:0.5;" width="62.5654" x="1050.72" y="609.48"/><rect fill="#F1F1F1" height="10" style="stroke:#181818;stroke-width:0.5;" width="15" x="1093.2854" y="614.48"/><rect fill="#F1F1F1" height="2" style="stroke:#181818;stroke-width:0.5;" width="4" x="1091.2854" y="616.48"/><rect fill="#F1F1F1" height="2" style="stroke:#181818;stroke-width:0.5;" width="4" x="1091.2854" y="620.48"/><text fill="#000000" font-family="sans-serif" font-size="14" lengthAdjust="spacing" textLength="22.5654" x="1065.72" y="642.4751">EXI</text></g><!--entity radeon--><g id="elem_radeon"><rect fill="#F1F1F1" height="46.2969" rx="2.5" ry="2.5" style="stroke:#181818;stroke-width:0.5;" width="216.4629" x="884.77" y="396.89"/><rect fill="#F1F1F1" height="10" style="stroke:#181818;stroke-width:0.5;" width="15" x="1081.2329" y="401.89"/><rect fill="#F1F1F1" height="2" style="stroke:#181818;stroke-width:0.5;" width="4" x="1079.2329" y="403.89"/><rect fill="#F1F1F1" height="2" style="stroke:#181818;stroke-width:0.5;" width="4" x="1079.2329" y="407.89"/><text fill="#000000" font-family="sans-serif" font-size="14" lengthAdjust="spacing" textLength="176.4629" x="899.77" y="429.8851">AMD Radeon R7xx "GX2"</text></g><!--entity 3 MB 1T-SRAM--><g id="elem_3 MB 1T-SRAM"><rect fill="#F1F1F1" height="46.2969" rx="2.5" ry="2.5" style="stroke:#181818;stroke-width:0.5;" width="142.2725" x="1148.86" y="396.89"/><rect fill="#F1F1F1" height="10" style="stroke:#181818;stroke-width:0.5;" width="15" x="1271.1325" y="401.89"/><rect fill="#F1F1F1" height="2" style="stroke:#181818;stroke-width:0.5;" width="4" x="1269.1325" y="403.89"/><rect fill="#F1F1F1" height="2" style="stroke:#181818;stroke-width:0.5;" width="4" x="1269.1325" y="407.89"/><text fill="#000000" font-family="sans-serif" font-size="14" lengthAdjust="spacing" textLength="102.2725" x="1163.86" y="429.8851">3 MB 1T-SRAM</text></g><!--entity ddr3--><g id="elem_ddr3"><rect fill="#F1F1F1" height="46.2969" rx="2.5" ry="2.5" style="stroke:#181818;stroke-width:0.5;" width="213.5303" x="1549.23" y="278.59"/><rect fill="#F1F1F1" height="10" style="stroke:#181818;stroke-width:0.5;" width="15" x="1742.7603" y="283.59"/><rect fill="#F1F1F1" height="2" style="stroke:#181818;stroke-width:0.5;" width="4" x="1740.7603" y="285.59"/><rect fill="#F1F1F1" height="2" style="stroke:#181818;stroke-width:0.5;" width="4" x="1740.7603" y="289.59"/><text fill="#000000" font-family="sans-serif" font-size="14" lengthAdjust="spacing" textLength="173.5303" x="1564.23" y="311.5851">2 GB DDR3 RAM "MEM2"</text></g><!--entity RTC--><g id="elem_RTC"><ellipse cx="1082" cy="744.78" fill="#F1F1F1" rx="8" ry="8" style="stroke:#181818;stroke-width:0.5;"/><text fill="#000000" font-family="sans-serif" font-size="14" lengthAdjust="spacing" textLength="28.0547" x="1067.9727" y="774.7751">RTC</text></g><!--link core2 to core0--><g id="link_core2_core0"><path d="M454.78,69.15 C466.24,69.15 477.7,69.15 489.15,69.15 " fill="none" id="core2-core0" style="stroke:#181818;stroke-width:1.0;"/></g><!--link rom to core2--><g id="link_rom_core2"><path d="M150.49,69.15 C162.07,69.15 167.66,69.15 179.25,69.15 " fill="none" id="rom-to-core2" style="stroke:#181818;stroke-width:1.0;"/><polygon fill="#181818" points="185.25,69.15,176.25,65.15,180.25,69.15,176.25,73.15,185.25,69.15" style="stroke:#181818;stroke-width:1.0;"/></g><!--link mem to gx--><g id="link_mem_gx"><path d="M1086.65,306.21 C1173.15,310.3 1290.68,318.44 1307,332.89 C1310.6125,336.0888 1313.6236,339.8047 1316.1266,343.8621 C1316.7524,344.8764 1317.3464,345.9121 1317.91,346.9664 C1318.1919,347.4936 1318.4662,348.0254 1318.7331,348.5615 " fill="none" id="mem-gx" style="stroke:#181818;stroke-width:1.0;"/></g><!--link mem to radeon--><g id="link_mem_radeon"><path d="M993,325.16 C993,345.76 993,376.11 993,396.68 " fill="none" id="mem-radeon" style="stroke:#181818;stroke-width:1.0;"/></g><!--link prom to mem--><g id="link_prom_mem"><path d="M1043.9,219.07 C1032.99,236.57 1017.97,260.67 1007.08,278.15 " fill="none" id="prom-mem" style="stroke:#181818;stroke-width:1.0;"/></g><!--link mem to sata--><g id="link_mem_sata"><path d="M899.38,317.14 C884.35,321.29 872.05,326.49 867,332.89 C825.63,385.33 823.74,432.29 867,483.19 C893.56,514.44 1011.23,522.57 1078.11,524.65 " fill="none" id="mem-sata" style="stroke:#181818;stroke-width:1.0;"/></g><!--link mem to exi--><g id="link_mem_exi"><path d="M899.51,309.33 C867.4,313.69 837,320.92 827,332.89 C784.19,384.17 793.7,425.28 827,483.19 C875.77,568.01 993.71,608.89 1050.46,624.19 " fill="none" id="mem-exi" style="stroke:#181818;stroke-width:1.0;"/></g><!--link dram to sata--><g id="link_dram_sata"><path d="M1410.44,443.44 C1391.91,456.91 1366.69,473.3 1342,483.19 C1285.89,505.65 1216.68,516.43 1171.73,521.4 " fill="none" id="dram-sata" style="stroke:#181818;stroke-width:1.0;"/></g><!--link dram to exi--><g id="link_dram_exi"><path d="M1404.7,443.62 C1386.26,455.6 1363.05,470.45 1342,483.19 C1260.63,532.44 1162.73,587.13 1113.52,614.32 " fill="none" id="dram-exi" style="stroke:#181818;stroke-width:1.0;"/></g><!--link ddr3 to mem--><g id="link_ddr3_mem"><path d="M1548.95,301.74 C1394.82,301.74 1240.69,301.74 1086.56,301.74 " fill="none" id="ddr3-mem" style="stroke:#181818;stroke-width:1.0;"/></g><!--link dram to ddr3--><g id="link_dram_ddr3"><path d="M1480.98,396.54 C1519.27,376.02 1575.57,345.84 1613.9,325.3 " fill="none" id="dram-ddr3" style="stroke:#181818;stroke-width:1.0;"/></g><!--link edram to ddr3--><g id="link_edram_ddr3"><path d="M1469.64,219.07 C1509.56,236.57 1564.56,260.67 1604.46,278.15 " fill="none" id="edram-ddr3" style="stroke:#181818;stroke-width:1.0;"/></g><!--link core1 to mem--><g id="link_core1_mem"><path d="M932.73,92.72 C939.02,121.98 950.9,174.49 964,218.59 C970.07,239.04 978.25,261.88 984.38,278.28 " fill="none" id="core1-mem" style="stroke:#181818;stroke-width:1.0;"/></g><!--link exi to RTC--><g id="link_exi_RTC"><path d="M1082,656.19 C1082,680.99 1082,719.49 1082,735.92 " fill="none" id="exi-RTC" style="stroke:#181818;stroke-width:1.0;"/></g><!--SRC=[XP91QuD048Nl_eh77dfR6WrjRmMDDaYxH4mAWP33jhk4G7J3QecXvBztTzI4dd9ptdipyyrYRPG6onC1bZL7gvl6CCoAJmRPOFzLuJS0Djulp4dROWQMM2FLIPvTpbYDoTP7lztdv5uql4R3Uz7e6eq2dmsVyPwWN0ZIhQcyIZRuiDm9JWT_7TekGL3JTR58mJvassg6-N2Qh5H_cj2LiMSy87zS8B5xjTEqejALjzCo5eweRgqv7BGbIrb9tZI2I91HX8bCX8niFVfFOOG4oomhHkxZ0BvPngiO-Hk9ZMobrx9rtlTtUv_fsUThmjrrHEkN-ftXYY_TrgsJBZJFdrXAfKsDygNhV5_KqrXIVSXT1CxTgDltpJpIqt4w- -hpaMqe-SZcByJD7allEfvDX7c2D2sd69zcW57AJeE0fltmlXfxgT3_ge3-5E8WB3VUU-LgzWS0]--></g></svg>
