<svg xmlns="http://www.w3.org/2000/svg" xmlns:xlink="http://www.w3.org/1999/xlink" contentStyleType="text/css" data-diagram-type="DESCRIPTION" height="784px" preserveAspectRatio="none" style="width:1718px;height:784px;background:#FFFFFF;" version="1.1" viewBox="0 0 1718 784" width="1718px" zoomAndPan="magnify"><defs/><g><!--cluster ibm--><g id="cluster_ibm"><polygon fill="transparent" points="16,16,26,6,1037,6,1037,98.49,1027,108.49,16,108.49,16,16" style="stroke:#181818;stroke-width:1;"/><line style="stroke:#181818;stroke-width:1;" x1="1027" x2="1037" y1="16" y2="6"/><line style="stroke:#181818;stroke-width:1;" x1="16" x2="1027" y1="16" y2="16"/><line style="stroke:#181818;stroke-width:1;" x1="1027" x2="1027" y1="16" y2="108.49"/><text fill="#000000" font-family="sans-serif" font-size="14" font-weight="bold" lengthAdjust="spacing" textLength="141.8525" x="451.5737" y="32.5352">IBM "Espresso" CPU</text></g><!--cluster amd--><g id="cluster_amd"><polygon fill="transparent" points="761,142.49,771,132.49,1491,132.49,1491,662.93,1481,672.93,761,672.93,761,142.49" style="stroke:#181818;stroke-width:1;"/><line style="stroke:#181818;stroke-width:1;" x1="1481" x2="1491" y1="142.49" y2="132.49"/><line style="stroke:#181818;stroke-width:1;" x1="761" x2="1481" y1="142.49" y2="142.49"/><line style="stroke:#181818;stroke-width:1;" x1="1481" x2="1481" y1="142.49" y2="672.93"/><text fill="#000000" font-family="sans-serif" font-size="14" font-weight="bold" lengthAdjust="spacing" textLength="121.249" x="1061.3755" y="159.0252">AMD "Latte" GPU</text></g><!--cluster gx--><g id="cluster_gx"><polygon fill="transparent" points="1085,359.47,1095,349.47,1294,349.47,1294,457.95,1284,467.95,1085,467.95,1085,359.47" style="stroke:#181818;stroke-width:1;"/><line style="stroke:#181818;stroke-width:1;" x1="1284" x2="1294" y1="359.47" y2="349.47"/><line style="stroke:#181818;stroke-width:1;" x1="1085" x2="1284" y1="359.47" y2="359.47"/><line style="stroke:#181818;stroke-width:1;" x1="1284" x2="1284" y1="359.47" y2="467.95"/><text fill="#000000" font-family="sans-serif" font-size="14" font-weight="bold" lengthAdjust="spacing" textLength="19.7764" x="1175.6118" y="376.0052">GX</text></g><!--entity core0--><g id="elem_core0"><rect fill="#F1F1F1" height="46.4883" rx="2.5" ry="2.5" style="stroke:#181818;stroke-width:0.5;" width="255.8242" x="474.09" y="46"/><rect fill="#F1F1F1" height="10" style="stroke:#181818;stroke-width:0.5;" width="15" x="709.9142" y="51"/><rect fill="#F1F1F1" height="2" style="stroke:#181818;stroke-width:0.5;" width="4" x="707.9142" y="53"/><rect fill="#F1F1F1" height="2" style="stroke:#181818;stroke-width:0.5;" width="4" x="707.9142" y="57"/><text fill="#000000" font-family="sans-serif" font-size="14" lengthAdjust="spacing" textLength="215.8242" x="489.09" y="79.5352">IBM PowerPC "Broadway" Core 0</text></g><!--entity core1--><g id="elem_core1"><rect fill="#F1F1F1" height="46.4883" rx="2.5" ry="2.5" style="stroke:#181818;stroke-width:0.5;" width="255.8242" x="765.09" y="46"/><rect fill="#F1F1F1" height="10" style="stroke:#181818;stroke-width:0.5;" width="15" x="1000.9142" y="51"/><rect fill="#F1F1F1" height="2" style="stroke:#181818;stroke-width:0.5;" width="4" x="998.9142" y="53"/><rect fill="#F1F1F1" height="2" style="stroke:#181818;stroke-width:0.5;" width="4" x="998.9142" y="57"/><text fill="#000000" font-family="sans-serif" font-size="14" lengthAdjust="spacing" textLength="215.8242" x="780.09" y="79.5352">IBM PowerPC "Broadway" Core 1</text></g><!--entity core2--><g id="elem_core2"><rect fill="#F1F1F1" height="46.4883" rx="2.5" ry="2.5" style="stroke:#181818;stroke-width:0.5;" width="255.8242" x="183.09" y="46"/><rect fill="#F1F1F1" height="10" style="stroke:#181818;stroke-width:0.5;" width="15" x="418.9142" y="51"/><rect fill="#F1F1F1" height="2" style="stroke:#181818;stroke-width:0.5;" width="4" x="416.9142" y="53"/><rect fill="#F1F1F1" height="2" style="stroke:#181818;stroke-width:0.5;" width="4" x="416.9142" y="57"/><text fill="#000000" font-family="sans-serif" font-size="14" lengthAdjust="spacing" textLength="215.8242" x="198.09" y="79.5352">IBM PowerPC "Broadway" Core 2</text></g><!--entity rom--><g id="elem_rom"><rect fill="#F1F1F1" height="46.4883" rx="2.5" ry="2.5" style="stroke:#181818;stroke-width:0.5;" width="115.5439" x="32.23" y="46"/><rect fill="#F1F1F1" height="10" style="stroke:#181818;stroke-width:0.5;" width="15" x="127.7739" y="51"/><rect fill="#F1F1F1" height="2" style="stroke:#181818;stroke-width:0.5;" width="4" x="125.7739" y="53"/><rect fill="#F1F1F1" height="2" style="stroke:#181818;stroke-width:0.5;" width="4" x="125.7739" y="57"/><text fill="#000000" font-family="sans-serif" font-size="14" lengthAdjust="spacing" textLength="75.5439" x="47.23" y="79.5352">16 KB ROM</text></g><!--entity mem--><g id="elem_mem"><rect fill="#F1F1F1" height="46.4883" rx="2.5" ry="2.5" style="stroke:#181818;stroke-width:0.5;" width="183.042" x="864.48" y="278.98"/><rect fill="#F1F1F1" height="10" style="stroke:#181818;stroke-width:0.5;" width="15" x="1027.522" y="283.98"/><rect fill="#F1F1F1" height="2" style="stroke:#181818;stroke-width:0.5;" width="4" x="1025.522" y="285.98"/><rect fill="#F1F1F1" height="2" style="stroke:#181818;stroke-width:0.5;" width="4" x="1025.522" y="289.98"/><text fill="#000000" font-family="sans-serif" font-size="14" lengthAdjust="spacing" textLength="143.042" x="879.48" y="312.5152">Memory &amp; I/O Bridge</text></g><!--entity dram--><g id="elem_dram"><rect fill="#F1F1F1" height="46.4883" rx="2.5" ry="2.5" style="stroke:#181818;stroke-width:0.5;" width="153.6475" x="1321.18" y="397.47"/><rect fill="#F1F1F1" height="10" style="stroke:#181818;stroke-width:0.5;" width="15" x="1454.8275" y="402.47"/><rect fill="#F1F1F1" height="2" style="stroke:#181818;stroke-width:0.5;" width="4" x="1452.8275" y="404.47"/><rect fill="#F1F1F1" height="2" style="stroke:#181818;stroke-width:0.5;" width="4" x="1452.8275" y="408.47"/><text fill="#000000" font-family="sans-serif" font-size="14" lengthAdjust="spacing" textLength="113.6475" x="1336.18" y="431.0052">DRAM Controller</text></g><!--entity edram--><g id="elem_edram"><rect fill="#F1F1F1" height="46.4883" rx="2.5" ry="2.5" style="stroke:#181818;stroke-width:0.5;" width="190.7666" x="1284.62" y="172.49"/><rect fill="#F1F1F1" height="10" style="stroke:#181818;stroke-width:0.5;" width="15" x="1455.3866" y="177.49"/><rect fill="#F1F1F1" height="2" style="stroke:#181818;stroke-width:0.5;" width="4" x="1453.3866" y="179.49"/><rect fill="#F1F1F1" height="2" style="stroke:#181818;stroke-width:0.5;" width="4" x="1453.3866" y="183.49"/><text fill="#000000" font-family="sans-serif" font-size="14" lengthAdjust="spacing" textLength="150.7666" x="1299.62" y="206.0252">32 MB EDRAM "MEM1"</text></g><!--entity prom--><g id="elem_prom"><rect fill="#F1F1F1" height="46.4883" rx="2.5" ry="2.5" style="stroke:#181818;stroke-width:0.5;" width="145.7109" x="946.14" y="172.49"/><rect fill="#F1F1F1" height="10" style="stroke:#181818;stroke-width:0.5;" width="15" x="1071.8509" y="177.49"/><rect fill="#F1F1F1" height="2" style="stroke:#181818;stroke-width:0.5;" width="4" x="1069.8509" y="179.49"/><rect fill="#F1F1F1" height="2" style="stroke:#181818;stroke-width:0.5;" width="4" x="1069.8509" y="183.49"/><text fill="#000000" font-family="sans-serif" font-size="14" lengthAdjust="spacing" textLength="105.7109" x="961.14" y="206.0252">512 B SEEPROM</text></g><!--entity sata--><g id="elem_sata"><rect fill="#F1F1F1" height="46.4883" rx="2.5" ry="2.5" style="stroke:#181818;stroke-width:0.5;" width="91.6797" x="1042.16" y="503.95"/><rect fill="#F1F1F1" height="10" style="stroke:#181818;stroke-width:0.5;" width="15" x="1113.8397" y="508.95"/><rect fill="#F1F1F1" height="2" style="stroke:#181818;stroke-width:0.5;" width="4" x="1111.8397" y="510.95"/><rect fill="#F1F1F1" height="2" style="stroke:#181818;stroke-width:0.5;" width="4" x="1111.8397" y="514.95"/><text fill="#000000" font-family="sans-serif" font-size="14" lengthAdjust="spacing" textLength="51.6797" x="1057.16" y="537.4852">SATA IF</text></g><!--entity exi--><g id="elem_exi"><rect fill="#F1F1F1" height="46.4883" rx="2.5" ry="2.5" style="stroke:#181818;stroke-width:0.5;" width="60.3848" x="1014.81" y="610.44"/><rect fill="#F1F1F1" height="10" style="stroke:#181818;stroke-width:0.5;" width="15" x="1055.1948" y="615.44"/><rect fill="#F1F1F1" height="2" style="stroke:#181818;stroke-width:0.5;" width="4" x="1053.1948" y="617.44"/><rect fill="#F1F1F1" height="2" style="stroke:#181818;stroke-width:0.5;" width="4" x="1053.1948" y="621.44"/><text fill="#000000" font-family="sans-serif" font-size="14" lengthAdjust="spacing" textLength="20.3848" x="1029.81" y="643.9752">EXI</text></g><!--entity radeon--><g id="elem_radeon"><rect fill="#F1F1F1" height="46.4883" rx="2.5" ry="2.5" style="stroke:#181818;stroke-width:0.5;" width="209.0459" x="851.48" y="397.47"/><rect fill="#F1F1F1" height="10" style="stroke:#181818;stroke-width:0.5;" width="15" x="1040.5259" y="402.47"/><rect fill="#F1F1F1" height="2" style="stroke:#181818;stroke-width:0.5;" width="4" x="1038.5259" y="404.47"/><rect fill="#F1F1F1" height="2" style="stroke:#181818;stroke-width:0.5;" width="4" x="1038.5259" y="408.47"/><text fill="#000000" font-family="sans-serif" font-size="14" lengthAdjust="spacing" textLength="169.0459" x="866.48" y="431.0052">AMD Radeon R7xx "GX2"</text></g><!--entity 3 MB 1T-SRAM--><g id="elem_3 MB 1T-SRAM"><rect fill="#F1F1F1" height="46.4883" rx="2.5" ry="2.5" style="stroke:#181818;stroke-width:0.5;" width="141.7393" x="1109.13" y="397.47"/><rect fill="#F1F1F1" height="10" style="stroke:#181818;stroke-width:0.5;" width="15" x="1230.8693" y="402.47"/><rect fill="#F1F1F1" height="2" style="stroke:#181818;stroke-width:0.5;" width="4" x="1228.8693" y="404.47"/><rect fill="#F1F1F1" height="2" style="stroke:#181818;stroke-width:0.5;" width="4" x="1228.8693" y="408.47"/><text fill="#000000" font-family="sans-serif" font-size="14" lengthAdjust="spacing" textLength="101.7393" x="1124.13" y="431.0052">3 MB 1T-SRAM</text></g><!--entity ddr3--><g id="elem_ddr3"><rect fill="#F1F1F1" height="46.4883" rx="2.5" ry="2.5" style="stroke:#181818;stroke-width:0.5;" width="205.0059" x="1507.5" y="278.98"/><rect fill="#F1F1F1" height="10" style="stroke:#181818;stroke-width:0.5;" width="15" x="1692.5059" y="283.98"/><rect fill="#F1F1F1" height="2" style="stroke:#181818;stroke-width:0.5;" width="4" x="1690.5059" y="285.98"/><rect fill="#F1F1F1" height="2" style="stroke:#181818;stroke-width:0.5;" width="4" x="1690.5059" y="289.98"/><text fill="#000000" font-family="sans-serif" font-size="14" lengthAdjust="spacing" textLength="165.0059" x="1522.5" y="312.5152">2 GB DDR3 RAM "MEM2"</text></g><!--entity RTC--><g id="elem_RTC"><ellipse cx="1045" cy="745.93" fill="#F1F1F1" rx="8" ry="8" style="stroke:#181818;stroke-width:0.5;"/><text fill="#000000" font-family="sans-serif" font-size="14" lengthAdjust="spacing" textLength="27.3916" x="1031.3042" y="776.4652">RTC</text></g><!--link core2 to core0--><g id="link_core2_core0"><path d="M439.17,69.24 C450.72,69.24 462.28,69.24 473.83,69.24 " fill="transparent" id="core2-core0" style="stroke:#181818;stroke-width:1;"/></g><!--link rom to core2--><g id="link_rom_core2"><path d="M148.27,69.24 C159.71,69.24 165.16,69.24 176.6,69.24 " fill="transparent" id="rom-to-core2" style="stroke:#181818;stroke-width:1;"/><polygon fill="#181818" points="182.6,69.24,173.6,65.24,177.6,69.24,173.6,73.24,182.6,69.24" style="stroke:#181818;stroke-width:1;"/></g><!--link mem to gx--><g id="link_mem_gx"><path d="M1047.96,306.74 C1133.71,310.88 1250.79,319.09 1267,333.47 C1270.6138,336.6737 1273.6258,340.3948 1276.1295,344.4575 C1276.7554,345.4731 1277.3495,346.5101 1277.9134,347.5657 C1278.1953,348.0935 1278.4696,348.626 1278.7366,349.1627 " fill="transparent" id="mem-gx" style="stroke:#181818;stroke-width:1;"/></g><!--link mem to radeon--><g id="link_mem_radeon"><path d="M956,325.96 C956,346.48 956,376.52 956,397.03 " fill="transparent" id="mem-radeon" style="stroke:#181818;stroke-width:1;"/></g><!--link prom to mem--><g id="link_prom_mem"><path d="M1005.33,219.41 C994.76,236.93 980.2,261.08 969.64,278.59 " fill="transparent" id="prom-mem" style="stroke:#181818;stroke-width:1;"/></g><!--link mem to sata--><g id="link_mem_sata"><path d="M864.13,318.3 C850.12,322.39 838.74,327.41 834,333.47 C792.79,386.14 790.76,432.93 834,483.95 C860.12,514.78 975.98,523.13 1041.83,525.38 " fill="transparent" id="mem-sata" style="stroke:#181818;stroke-width:1;"/></g><!--link mem to exi--><g id="link_mem_exi"><path d="M864.3,310.19 C833.13,314.61 803.69,321.8 794,333.47 C751.27,384.92 760.89,425.84 794,483.95 C842.02,568.23 958.65,609.65 1014.37,625.17 " fill="transparent" id="mem-exi" style="stroke:#181818;stroke-width:1;"/></g><!--link dram to sata--><g id="link_dram_sata"><path d="M1369.35,444.44 C1351.06,457.86 1326.3,474.1 1302,483.95 C1246.72,506.36 1178.46,517.18 1134.11,522.2 " fill="transparent" id="dram-sata" style="stroke:#181818;stroke-width:1;"/></g><!--link dram to exi--><g id="link_dram_exi"><path d="M1364.06,444.31 C1345.8,456.32 1322.83,471.18 1302,483.95 C1221.13,533.53 1123.74,588.67 1075.36,615.77 " fill="transparent" id="dram-exi" style="stroke:#181818;stroke-width:1;"/></g><!--link ddr3 to mem--><g id="link_ddr3_mem"><path d="M1507.09,302.22 C1354.05,302.22 1201.01,302.22 1047.97,302.22 " fill="transparent" id="ddr3-mem" style="stroke:#181818;stroke-width:1;"/></g><!--link dram to ddr3--><g id="link_dram_ddr3"><path d="M1439.27,397.03 C1476.6,376.52 1531.27,346.48 1568.62,325.96 " fill="transparent" id="dram-ddr3" style="stroke:#181818;stroke-width:1;"/></g><!--link edram to ddr3--><g id="link_edram_ddr3"><path d="M1429.91,219.41 C1468.49,236.93 1521.64,261.08 1560.19,278.59 " fill="transparent" id="edram-ddr3" style="stroke:#181818;stroke-width:1;"/></g><!--link core1 to mem--><g id="link_core1_mem"><path d="M897.87,92.82 C904.33,122.09 916.38,174.64 929,218.98 C934.8,239.36 942.4,262.24 948.06,278.68 " fill="transparent" id="core1-mem" style="stroke:#181818;stroke-width:1;"/></g><!--link exi to RTC--><g id="link_exi_RTC"><path d="M1045,657.26 C1045,682.08 1045,720.62 1045,737.06 " fill="transparent" id="exi-RTC" style="stroke:#181818;stroke-width:1;"/></g><!--SRC=[XP91QyCm38Nl_XN2XztCcfHjjq7SP2LifY7je51wy6PJ2arSd8ocZFxtMKhIibDlqNjFqYUJsXaBF9SAUDOSlMqQns5MV7BG3Uo_AlXb01lq2tUolfW1bzvfSzBda7FUmcIBqU_mERaNZQxHw5uqlaPZXjde6Tubb0j5kdSLgcI369O78UWWNeUs2sCrNPUe5FY7RblBOJwSfYlJdwPivVmP7Y1_N83qUxEpjAAo5TffcQX0LBVU7GxMasMy9cyQWvAGKOIhJ4MSR3lwJr4C4fPPLepSnm5yiqnM2UHl93QwrQXbwxplx_QOwTddQyBTTKIBIt5dj1BBi7KRf0lDmnDBRQoheNpfEkoBUnfFAeR2HI1467Nxlfb7UZf1PrzzCR8DfHZPy4AusME9Rk3Pn32NaARb5CQd6M2CyLF6QDgFwAknbmhxhsBqfn07OONnw9Mh6Vi3]--></g></svg>