<?xml version="1.0" encoding="UTF-8" standalone="no"?>
<!DOCTYPE svg PUBLIC "-//W3C//DTD SVG 1.1//EN"
 "http://www.w3.org/Graphics/SVG/1.1/DTD/svg11.dtd">
<!-- Generated by graphviz version 12.2.1 (20241206.2353)
 -->
<!-- Title: G Pages: 1 -->
<svg width="153pt" height="169pt"
 viewBox="0.00 0.00 153.45 169.48" xmlns="http://www.w3.org/2000/svg" xmlns:xlink="http://www.w3.org/1999/xlink">
<g id="graph0" class="graph" transform="scale(1 1) rotate(0) translate(4 165.48)">
<title>G</title>
<polygon fill="white" stroke="none" points="-4,4 -4,-165.48 149.45,-165.48 149.45,4 -4,4"/>
<g id="clust1" class="cluster">
<title>cluster_0</title>
<polygon fill="none" stroke="black" points="0,-68.15 0,-161.48 130.35,-161.48 130.35,-68.15 0,-68.15"/>
<text text-anchor="middle" x="65.17" y="-144.18" font-family="Times,serif" font-size="14.00">parent</text>
</g>
<!-- grandchild -->
<g id="node1" class="node">
<title>grandchild</title>
<ellipse fill="none" stroke="black" cx="50.33" cy="-143.48" rx="50.33" ry="18"/>
<text text-anchor="middle" x="50.33" y="-138.43" font-family="Times,serif" font-size="14.00">grandchild</text>
</g>
<!-- childA -->
<g id="node2" class="node">
<title>childA</title>
<ellipse fill="none" stroke="black" cx="94.35" cy="-86.15" rx="36" ry="18"/>
<text text-anchor="middle" x="94.35" y="-81.1" font-family="Times,serif" font-size="14.00">childA</text>
</g>
<!-- childA&#45;&gt;grandchild -->
<g id="edge1" class="edge">
<title>childA&#45;&gt;grandchild</title>
<path fill="none" stroke="black" d="M81.14,-103.35C77.89,-107.58 74.34,-112.21 70.84,-116.77"/>
<polygon fill="black" stroke="black" points="68.07,-114.63 64.75,-124.69 73.62,-118.89 68.07,-114.63"/>
</g>
<!-- foo -->
<g id="node3" class="node">
<title>foo</title>
<ellipse fill="none" stroke="black" cx="118.45" cy="-18" rx="27" ry="18"/>
<text text-anchor="middle" x="118.45" y="-12.95" font-family="Times,serif" font-size="14.00">foo</text>
</g>
<!-- foo&#45;&gt;childA -->
<g id="edge2" class="edge">
<title>foo&#45;&gt;childA</title>
<path fill="none" stroke="black" d="M112.12,-35.91C109.79,-42.51 107.08,-50.16 104.49,-57.47"/>
<polygon fill="black" stroke="black" points="101.26,-56.11 101.23,-66.7 107.86,-58.44 101.26,-56.11"/>
</g>
</g>
</svg>
