<?xml version="1.0" encoding="UTF-8" standalone="no"?>
<!DOCTYPE svg PUBLIC "-//W3C//DTD SVG 1.1//EN"
 "http://www.w3.org/Graphics/SVG/1.1/DTD/svg11.dtd">
<!-- Generated by graphviz version 6.0.2 (20221011.1828)
 -->
<!-- Title: G Pages: 1 -->
<svg width="151pt" height="169pt"
 viewBox="0.00 0.00 151.22 169.48" xmlns="http://www.w3.org/2000/svg" xmlns:xlink="http://www.w3.org/1999/xlink">
<g id="graph0" class="graph" transform="scale(1 1) rotate(0) translate(4 165.48)">
<title>G</title>
<polygon fill="white" stroke="none" points="-4,4 -4,-165.48 147.22,-165.48 147.22,4 -4,4"/>
<g id="clust1" class="cluster">
<title>cluster_0</title>
<polygon fill="none" stroke="black" points="0,-68.15 0,-161.48 126.56,-161.48 126.56,-68.15 0,-68.15"/>
<text text-anchor="middle" x="63.28" y="-146.28" font-family="Times,serif" font-size="14.00">parent</text>
</g>
<!-- grandchild -->
<g id="node1" class="node">
<title>grandchild</title>
<ellipse fill="none" stroke="black" cx="48.1" cy="-143.48" rx="48.19" ry="18"/>
<text text-anchor="middle" x="48.1" y="-139.78" font-family="Times,serif" font-size="14.00">grandchild</text>
</g>
<!-- childA -->
<g id="node2" class="node">
<title>childA</title>
<ellipse fill="none" stroke="black" cx="92.12" cy="-86.15" rx="34.39" ry="18"/>
<text text-anchor="middle" x="92.12" y="-82.45" font-family="Times,serif" font-size="14.00">childA</text>
</g>
<!-- childA&#45;&gt;grandchild -->
<g id="edge1" class="edge">
<title>childA&#45;&gt;grandchild</title>
<path fill="none" stroke="black" d="M79.15,-103.04C75.57,-107.7 71.61,-112.85 67.75,-117.88"/>
<polygon fill="black" stroke="black" points="64.75,-116.05 61.43,-126.11 70.3,-120.31 64.75,-116.05"/>
</g>
<!-- foo -->
<g id="node3" class="node">
<title>foo</title>
<ellipse fill="none" stroke="black" cx="116.22" cy="-18" rx="27" ry="18"/>
<text text-anchor="middle" x="116.22" y="-14.3" font-family="Times,serif" font-size="14.00">foo</text>
</g>
<!-- foo&#45;&gt;childA -->
<g id="edge2" class="edge">
<title>foo&#45;&gt;childA</title>
<path fill="none" stroke="black" d="M110.01,-35.55C107.5,-42.65 104.54,-51.01 101.77,-58.87"/>
<polygon fill="black" stroke="black" points="98.42,-57.83 98.39,-68.43 105.02,-60.16 98.42,-57.83"/>
</g>
</g>
</svg>
