<?xml version="1.0" encoding="UTF-8" standalone="no"?>
<!DOCTYPE svg PUBLIC "-//W3C//DTD SVG 1.1//EN"
 "http://www.w3.org/Graphics/SVG/1.1/DTD/svg11.dtd">
<!-- Generated by graphviz version 7.0.4 (20221203.1631)
 -->
<!-- Title: G Pages: 1 -->
<svg width="152pt" height="218pt"
 viewBox="0.00 0.00 152.00 218.00" xmlns="http://www.w3.org/2000/svg" xmlns:xlink="http://www.w3.org/1999/xlink">
<g id="graph0" class="graph" transform="scale(1 1) rotate(0) translate(4 214)">
<title>G</title>
<polygon fill="white" stroke="none" points="-4,4 -4,-214 148,-214 148,4 -4,4"/>
<g id="clust1" class="cluster">
<title>cluster_0</title>
<polygon fill="none" stroke="black" points="8,-8 8,-166 136,-166 136,-8 8,-8"/>
<text text-anchor="middle" x="72" y="-150.8" font-family="Times,serif" font-size="14.00">parent</text>
</g>
<g id="clust2" class="cluster">
<title>cluster_1</title>
<polygon fill="none" stroke="black" points="16,-16 16,-91 128,-91 128,-16 16,-16"/>
<text text-anchor="middle" x="72" y="-75.8" font-family="Times,serif" font-size="14.00">childB</text>
</g>
<!-- grandchild -->
<g id="node1" class="node">
<title>grandchild</title>
<ellipse fill="none" stroke="black" cx="72" cy="-42" rx="48.19" ry="18"/>
<text text-anchor="middle" x="72" y="-38.3" font-family="Times,serif" font-size="14.00">grandchild</text>
</g>
<!-- childA -->
<g id="node2" class="node">
<title>childA</title>
<ellipse fill="none" stroke="black" cx="72" cy="-117" rx="34.39" ry="18"/>
<text text-anchor="middle" x="72" y="-113.3" font-family="Times,serif" font-size="14.00">childA</text>
</g>
<!-- childA&#45;&gt;grandchild -->
<g id="edge1" class="edge">
<title>childA&#45;&gt;grandchild</title>
<path fill="none" stroke="black" d="M72,-98.7C72,-90.67 72,-80.9 72,-71.8"/>
<polygon fill="black" stroke="black" points="75.5,-71.94 72,-61.94 68.5,-71.94 75.5,-71.94"/>
</g>
<!-- foo -->
<g id="node3" class="node">
<title>foo</title>
<ellipse fill="none" stroke="black" cx="72" cy="-192" rx="27" ry="18"/>
<text text-anchor="middle" x="72" y="-188.3" font-family="Times,serif" font-size="14.00">foo</text>
</g>
<!-- foo&#45;&gt;childA -->
<g id="edge2" class="edge">
<title>foo&#45;&gt;childA</title>
<path fill="none" stroke="black" d="M72,-173.7C72,-165.67 72,-155.9 72,-146.8"/>
<polygon fill="black" stroke="black" points="75.5,-146.94 72,-136.94 68.5,-146.94 75.5,-146.94"/>
</g>
</g>
</svg>
