<?xml version="1.0" encoding="UTF-8" standalone="no"?>
<!DOCTYPE svg PUBLIC "-//W3C//DTD SVG 1.1//EN"
 "http://www.w3.org/Graphics/SVG/1.1/DTD/svg11.dtd">
<!-- Generated by graphviz version 12.2.1 (20241206.2353)
 -->
<!-- Title: G Pages: 1 -->
<svg width="156pt" height="221pt"
 viewBox="0.00 0.00 156.00 221.00" xmlns="http://www.w3.org/2000/svg" xmlns:xlink="http://www.w3.org/1999/xlink">
<g id="graph0" class="graph" transform="scale(1 1) rotate(0) translate(4 217)">
<title>G</title>
<polygon fill="white" stroke="none" points="-4,4 -4,-217 152,-217 152,4 -4,4"/>
<g id="clust1" class="cluster">
<title>cluster_0</title>
<polygon fill="none" stroke="black" points="8,-8 8,-169 140,-169 140,-8 8,-8"/>
<text text-anchor="middle" x="74" y="-151.7" font-family="Times,serif" font-size="14.00">parent</text>
</g>
<g id="clust2" class="cluster">
<title>cluster_1</title>
<polygon fill="none" stroke="black" points="16,-16 16,-92.5 132,-92.5 132,-16 16,-16"/>
<text text-anchor="middle" x="74" y="-75.2" font-family="Times,serif" font-size="14.00">childB</text>
</g>
<!-- grandchild -->
<g id="node1" class="node">
<title>grandchild</title>
<ellipse fill="none" stroke="black" cx="74" cy="-42" rx="50.33" ry="18"/>
<text text-anchor="middle" x="74" y="-36.95" font-family="Times,serif" font-size="14.00">grandchild</text>
</g>
<!-- childA -->
<g id="node2" class="node">
<title>childA</title>
<ellipse fill="none" stroke="black" cx="74" cy="-118.5" rx="36" ry="18"/>
<text text-anchor="middle" x="74" y="-113.45" font-family="Times,serif" font-size="14.00">childA</text>
</g>
<!-- childA&#45;&gt;grandchild -->
<g id="edge1" class="edge">
<title>childA&#45;&gt;grandchild</title>
<path fill="none" stroke="black" d="M74,-100.22C74,-91.82 74,-81.49 74,-71.93"/>
<polygon fill="black" stroke="black" points="77.5,-71.96 74,-61.96 70.5,-71.96 77.5,-71.96"/>
</g>
<!-- foo -->
<g id="node3" class="node">
<title>foo</title>
<ellipse fill="none" stroke="black" cx="74" cy="-195" rx="27" ry="18"/>
<text text-anchor="middle" x="74" y="-189.95" font-family="Times,serif" font-size="14.00">foo</text>
</g>
<!-- foo&#45;&gt;childA -->
<g id="edge2" class="edge">
<title>foo&#45;&gt;childA</title>
<path fill="none" stroke="black" d="M74,-176.72C74,-168.32 74,-157.99 74,-148.43"/>
<polygon fill="black" stroke="black" points="77.5,-148.46 74,-138.46 70.5,-148.46 77.5,-148.46"/>
</g>
</g>
</svg>
