<?xml version="1.0" encoding="UTF-8" standalone="no"?><svg xmlns="http://www.w3.org/2000/svg" xmlns:xlink="http://www.w3.org/1999/xlink" contentStyleType="text/css" height="259px" preserveAspectRatio="none" style="width:390px;height:259px;background:#FFFFFF;" version="1.1" viewBox="0 0 390 259" width="390px" zoomAndPan="magnify"><defs/><g><!--MD5=[7bda1f4875589eeb1bc1dac2af2ea597]
cluster parent--><g id="cluster_parent"><polygon fill="none" points="16,78.57,26,68.57,305,68.57,305,232.57,295,242.57,16,242.57,16,78.57" style="stroke:#181818;stroke-width:1.0;"/><line style="stroke:#181818;stroke-width:1.0;" x1="295" x2="305" y1="78.57" y2="68.57"/><line style="stroke:#181818;stroke-width:1.0;" x1="16" x2="295" y1="78.57" y2="78.57"/><line style="stroke:#181818;stroke-width:1.0;" x1="295" x2="295" y1="78.57" y2="242.57"/><text fill="#000000" font-family="sans-serif" font-size="14" font-weight="bold" lengthAdjust="spacing" textLength="46" x="133.5" y="95.1052">parent</text></g><!--MD5=[990e9202aa8ff16945c9d12b9ba578d6]
cluster childB--><g id="cluster_childB"><polygon fill="none" points="135,126.57,145,116.57,281,116.57,281,208.57,271,218.57,135,218.57,135,126.57" style="stroke:#181818;stroke-width:1.0;"/><line style="stroke:#181818;stroke-width:1.0;" x1="271" x2="281" y1="126.57" y2="116.57"/><line style="stroke:#181818;stroke-width:1.0;" x1="135" x2="271" y1="126.57" y2="126.57"/><line style="stroke:#181818;stroke-width:1.0;" x1="271" x2="271" y1="126.57" y2="218.57"/><text fill="#000000" font-family="sans-serif" font-size="14" font-weight="bold" lengthAdjust="spacing" textLength="44" x="182" y="143.1052">childB</text></g><!--MD5=[f013ca7c0eafbcd4a60952ef171f24a6]
entity childA--><g id="elem_childA"><rect fill="#F1F1F1" height="46.4883" rx="2.5" ry="2.5" style="stroke:#181818;stroke-width:0.5;" width="83" x="32.5" y="156.57"/><rect fill="#F1F1F1" height="10" style="stroke:#181818;stroke-width:0.5;" width="15" x="95.5" y="161.57"/><rect fill="#F1F1F1" height="2" style="stroke:#181818;stroke-width:0.5;" width="4" x="93.5" y="163.57"/><rect fill="#F1F1F1" height="2" style="stroke:#181818;stroke-width:0.5;" width="4" x="93.5" y="167.57"/><text fill="#000000" font-family="sans-serif" font-size="14" lengthAdjust="spacing" textLength="43" x="47.5" y="190.1052">childA</text></g><!--MD5=[6c3c5c19778a97b8f27c30bab5cf2569]
entity grandchild--><g id="elem_grandchild"><rect fill="#F1F1F1" height="46.4883" rx="2.5" ry="2.5" style="stroke:#181818;stroke-width:0.5;" width="114" x="151" y="156.57"/><rect fill="#F1F1F1" height="10" style="stroke:#181818;stroke-width:0.5;" width="15" x="245" y="161.57"/><rect fill="#F1F1F1" height="2" style="stroke:#181818;stroke-width:0.5;" width="4" x="243" y="163.57"/><rect fill="#F1F1F1" height="2" style="stroke:#181818;stroke-width:0.5;" width="4" x="243" y="167.57"/><text fill="#000000" font-family="sans-serif" font-size="14" lengthAdjust="spacing" textLength="74" x="166" y="190.1052">grandchild</text></g><!--MD5=[fee4b3aad4cf285741449ffd553b2200]
entity foo--><g id="elem_foo"><rect fill="#F1F1F1" height="46.4883" rx="2.5" ry="2.5" style="stroke:#181818;stroke-width:0.5;" width="63" x="321.5" y="156.57"/><rect fill="#F1F1F1" height="10" style="stroke:#181818;stroke-width:0.5;" width="15" x="364.5" y="161.57"/><rect fill="#F1F1F1" height="2" style="stroke:#181818;stroke-width:0.5;" width="4" x="362.5" y="163.57"/><rect fill="#F1F1F1" height="2" style="stroke:#181818;stroke-width:0.5;" width="4" x="362.5" y="167.57"/><text fill="#000000" font-family="sans-serif" font-size="14" lengthAdjust="spacing" textLength="23" x="336.5" y="190.1052">foo</text></g><!--MD5=[f4a6b1bc3deb329735de6fb3e3fc4dae]
link childA to grandchild--><g id="link_childA_grandchild"><path d="M115.61,179.57 C125.65,179.57 135.69,179.57 145.73,179.57 " fill="none" id="childA-to-grandchild" style="stroke:#181818;stroke-width:1.0;"/><polygon fill="#181818" points="150.98,179.57,141.98,175.57,145.98,179.57,141.98,183.57,150.98,179.57" style="stroke:#181818;stroke-width:1.0;"/></g><!--MD5=[1633dfd89032730b484da1ea9b151358]
link foo to childA--><g id="link_foo_childA"><path d="M346.96,156.48 C336.51,121.87 311.43,57.69 263.5,30.57 C220.56,6.27 195.28,6 152.5,30.57 C108.4,55.9 87.99,115.6 79.43,151.27 " fill="none" id="foo-to-childA" style="stroke:#181818;stroke-width:1.0;"/><polygon fill="#181818" points="78.25,156.35,84.178,148.485,79.3785,151.479,76.3845,146.6794,78.25,156.35" style="stroke:#181818;stroke-width:1.0;"/></g><!--MD5=[186865a5c1b27e37baaae90fd28dfee3]
@startuml

node "parent" {
  node "childB" {
    [grandchild]
  }
  [childA] -> [grandchild]
}

[foo] -> [childA]

@enduml

PlantUML version 1.2022.8(Sun Sep 25 02:00:33 PDT 2022)
(GPL source distribution)
Java Runtime: OpenJDK Runtime Environment
JVM: OpenJDK 64-Bit Server VM
Default Encoding: UTF-8
Language: en
Country: US
--></g></svg>