<svg xmlns="http://www.w3.org/2000/svg" xmlns:xlink="http://www.w3.org/1999/xlink" contentStyleType="text/css" data-diagram-type="DESCRIPTION" height="197px" preserveAspectRatio="none" style="width:388px;height:197px;background:#FFFFFF;" version="1.1" viewBox="0 0 388 197" width="388px" zoomAndPan="magnify"><defs/><g><!--cluster parent--><g id="cluster_parent"><polygon fill="transparent" points="16,16,26,6,301,6,301,170.49,291,180.49,16,180.49,16,16" style="stroke:#181818;stroke-width:1;"/><line style="stroke:#181818;stroke-width:1;" x1="291" x2="301" y1="16" y2="6"/><line style="stroke:#181818;stroke-width:1;" x1="16" x2="291" y1="16" y2="16"/><line style="stroke:#181818;stroke-width:1;" x1="291" x2="291" y1="16" y2="180.49"/><text fill="#000000" font-family="sans-serif" font-size="14" font-weight="bold" lengthAdjust="spacing" textLength="46.9424" x="131.0288" y="32.5352">parent</text></g><!--cluster childB--><g id="cluster_childB"><polygon fill="transparent" points="40,64,50,54,184,54,184,146.49,174,156.49,40,156.49,40,64" style="stroke:#181818;stroke-width:1;"/><line style="stroke:#181818;stroke-width:1;" x1="174" x2="184" y1="64" y2="54"/><line style="stroke:#181818;stroke-width:1;" x1="40" x2="174" y1="64" y2="64"/><line style="stroke:#181818;stroke-width:1;" x1="174" x2="174" y1="64" y2="156.49"/><text fill="#000000" font-family="sans-serif" font-size="14" font-weight="bold" lengthAdjust="spacing" textLength="43.8457" x="86.0771" y="80.5352">childB</text></g><!--entity childA--><g id="elem_childA"><rect fill="#F1F1F1" height="46.4883" rx="2.5" ry="2.5" style="stroke:#181818;stroke-width:0.5;" width="82.4238" x="202.79" y="94"/><rect fill="#F1F1F1" height="10" style="stroke:#181818;stroke-width:0.5;" width="15" x="265.2138" y="99"/><rect fill="#F1F1F1" height="2" style="stroke:#181818;stroke-width:0.5;" width="4" x="263.2138" y="101"/><rect fill="#F1F1F1" height="2" style="stroke:#181818;stroke-width:0.5;" width="4" x="263.2138" y="105"/><text fill="#000000" font-family="sans-serif" font-size="14" lengthAdjust="spacing" textLength="42.4238" x="217.79" y="127.5352">childA</text></g><!--entity grandchild--><g id="elem_grandchild"><rect fill="#F1F1F1" height="46.4883" rx="2.5" ry="2.5" style="stroke:#181818;stroke-width:0.5;" width="112.4541" x="55.77" y="94"/><rect fill="#F1F1F1" height="10" style="stroke:#181818;stroke-width:0.5;" width="15" x="148.2241" y="99"/><rect fill="#F1F1F1" height="2" style="stroke:#181818;stroke-width:0.5;" width="4" x="146.2241" y="101"/><rect fill="#F1F1F1" height="2" style="stroke:#181818;stroke-width:0.5;" width="4" x="146.2241" y="105"/><text fill="#000000" font-family="sans-serif" font-size="14" lengthAdjust="spacing" textLength="72.4541" x="70.77" y="127.5352">grandchild</text></g><!--entity foo--><g id="elem_foo"><rect fill="#F1F1F1" height="46.4883" rx="2.5" ry="2.5" style="stroke:#181818;stroke-width:0.5;" width="62.3467" x="319.83" y="94"/><rect fill="#F1F1F1" height="10" style="stroke:#181818;stroke-width:0.5;" width="15" x="362.1767" y="99"/><rect fill="#F1F1F1" height="2" style="stroke:#181818;stroke-width:0.5;" width="4" x="360.1767" y="101"/><rect fill="#F1F1F1" height="2" style="stroke:#181818;stroke-width:0.5;" width="4" x="360.1767" y="105"/><text fill="#000000" font-family="sans-serif" font-size="14" lengthAdjust="spacing" textLength="22.3467" x="334.83" y="127.5352">foo</text></g><!--link childA to grandchild--><g id="link_childA_grandchild"><path d="M202.54,117.25 C191.26,117.25 185.99,117.25 174.72,117.25 " fill="transparent" id="childA-to-grandchild" style="stroke:#181818;stroke-width:1;"/><polygon fill="#181818" points="168.72,117.25,177.72,121.25,173.72,117.25,177.72,113.25,168.72,117.25" style="stroke:#181818;stroke-width:1;"/></g><!--link foo to childA--><g id="link_foo_childA"><path d="M319.47,117.25 C308.11,117.25 302.74,117.25 291.38,117.25 " fill="transparent" id="foo-to-childA" style="stroke:#181818;stroke-width:1;"/><polygon fill="#181818" points="285.38,117.25,294.38,121.25,290.38,117.25,294.38,113.25,285.38,117.25" style="stroke:#181818;stroke-width:1;"/></g><!--SRC=[oyjFILLGAaWiIiqhKLAevb9Go0EB96TavgGuGKGK5ABJYnBpKi1YiK21MY2E1lCSOnLqxL2bQxcuejFoyo4IK4LS0000]--></g></svg>