<?xml version="1.0" encoding="UTF-8" standalone="no"?>
<!DOCTYPE svg PUBLIC "-//W3C//DTD SVG 1.1//EN"
 "http://www.w3.org/Graphics/SVG/1.1/DTD/svg11.dtd">
<!-- Generated by graphviz version 12.2.1 (20241206.2353)
 -->
<!-- Title: G Pages: 1 -->
<svg width="790pt" height="260pt"
 viewBox="0.00 0.00 789.68 260.00" xmlns="http://www.w3.org/2000/svg" xmlns:xlink="http://www.w3.org/1999/xlink">
<g id="graph0" class="graph" transform="scale(1 1) rotate(0) translate(4 256)">
<title>G</title>
<polygon fill="white" stroke="none" points="-4,4 -4,-256 785.68,-256 785.68,4 -4,4"/>
<!-- root -->
<g id="node1" class="node">
<title>root</title>
<ellipse fill="none" stroke="black" cx="576.24" cy="-234" rx="27" ry="18"/>
<text text-anchor="middle" x="576.24" y="-228.95" font-family="Times,serif" font-size="14.00">root</text>
</g>
<!-- child A -->
<g id="node2" class="node">
<title>child A</title>
<ellipse fill="none" stroke="black" cx="375.24" cy="-162" rx="38.04" ry="18"/>
<text text-anchor="middle" x="375.24" y="-156.95" font-family="Times,serif" font-size="14.00">child A</text>
</g>
<!-- root&#45;&gt;child A -->
<g id="edge1" class="edge">
<title>root&#45;&gt;child A</title>
<path fill="none" stroke="black" d="M552.79,-224.83C519.3,-213.17 457.3,-191.58 416.15,-177.25"/>
<polygon fill="black" stroke="black" points="417.42,-173.98 406.83,-174 415.12,-180.59 417.42,-173.98"/>
</g>
<!-- child B -->
<g id="node3" class="node">
<title>child B</title>
<ellipse fill="none" stroke="black" cx="576.24" cy="-162" rx="38.04" ry="18"/>
<text text-anchor="middle" x="576.24" y="-156.95" font-family="Times,serif" font-size="14.00">child B</text>
</g>
<!-- root&#45;&gt;child B -->
<g id="edge2" class="edge">
<title>root&#45;&gt;child B</title>
<path fill="none" stroke="black" d="M576.24,-215.7C576.24,-208.41 576.24,-199.73 576.24,-191.54"/>
<polygon fill="black" stroke="black" points="579.74,-191.62 576.24,-181.62 572.74,-191.62 579.74,-191.62"/>
</g>
<!-- child C -->
<g id="node4" class="node">
<title>child C</title>
<ellipse fill="none" stroke="black" cx="670.24" cy="-162" rx="38.04" ry="18"/>
<text text-anchor="middle" x="670.24" y="-156.95" font-family="Times,serif" font-size="14.00">child C</text>
</g>
<!-- root&#45;&gt;child C -->
<g id="edge3" class="edge">
<title>root&#45;&gt;child C</title>
<path fill="none" stroke="black" d="M593.92,-219.83C607.22,-209.93 625.74,-196.14 641.2,-184.62"/>
<polygon fill="black" stroke="black" points="643.22,-187.49 649.15,-178.71 639.04,-181.87 643.22,-187.49"/>
</g>
<!-- grand child AA -->
<g id="node5" class="node">
<title>grand child AA</title>
<ellipse fill="none" stroke="black" cx="68.24" cy="-90" rx="68.24" ry="18"/>
<text text-anchor="middle" x="68.24" y="-84.95" font-family="Times,serif" font-size="14.00">grand child AA</text>
</g>
<!-- child A&#45;&gt;grand child AA -->
<g id="edge4" class="edge">
<title>child A&#45;&gt;grand child AA</title>
<path fill="none" stroke="black" d="M341.51,-153.31C290.67,-141.72 193.59,-119.58 129.89,-105.06"/>
<polygon fill="black" stroke="black" points="130.8,-101.67 120.27,-102.86 129.24,-108.5 130.8,-101.67"/>
</g>
<!-- grand child AB -->
<g id="node6" class="node">
<title>grand child AB</title>
<ellipse fill="none" stroke="black" cx="222.24" cy="-90" rx="67.73" ry="18"/>
<text text-anchor="middle" x="222.24" y="-84.95" font-family="Times,serif" font-size="14.00">grand child AB</text>
</g>
<!-- child A&#45;&gt;grand child AB -->
<g id="edge5" class="edge">
<title>child A&#45;&gt;grand child AB</title>
<path fill="none" stroke="black" d="M348.59,-148.81C325.69,-138.33 292.23,-123.02 265.5,-110.79"/>
<polygon fill="black" stroke="black" points="267.17,-107.71 256.62,-106.73 264.26,-114.07 267.17,-107.71"/>
</g>
<!-- grand child AC -->
<g id="node7" class="node">
<title>grand child AC</title>
<ellipse fill="none" stroke="black" cx="375.24" cy="-90" rx="67.73" ry="18"/>
<text text-anchor="middle" x="375.24" y="-84.95" font-family="Times,serif" font-size="14.00">grand child AC</text>
</g>
<!-- child A&#45;&gt;grand child AC -->
<g id="edge6" class="edge">
<title>child A&#45;&gt;grand child AC</title>
<path fill="none" stroke="black" d="M375.24,-143.7C375.24,-136.41 375.24,-127.73 375.24,-119.54"/>
<polygon fill="black" stroke="black" points="378.74,-119.62 375.24,-109.62 371.74,-119.62 378.74,-119.62"/>
</g>
<!-- grand child AD -->
<g id="node8" class="node">
<title>grand child AD</title>
<ellipse fill="none" stroke="black" cx="529.24" cy="-90" rx="68.24" ry="18"/>
<text text-anchor="middle" x="529.24" y="-84.95" font-family="Times,serif" font-size="14.00">grand child AD</text>
</g>
<!-- child A&#45;&gt;grand child AD -->
<g id="edge7" class="edge">
<title>child A&#45;&gt;grand child AD</title>
<path fill="none" stroke="black" d="M402.07,-148.81C425.12,-138.33 458.79,-123.02 485.7,-110.79"/>
<polygon fill="black" stroke="black" points="486.99,-114.05 494.64,-106.73 484.09,-107.68 486.99,-114.05"/>
</g>
<!-- grand child BA -->
<g id="node9" class="node">
<title>grand child BA</title>
<ellipse fill="none" stroke="black" cx="683.24" cy="-90" rx="68.24" ry="18"/>
<text text-anchor="middle" x="683.24" y="-84.95" font-family="Times,serif" font-size="14.00">grand child BA</text>
</g>
<!-- child B&#45;&gt;grand child BA -->
<g id="edge8" class="edge">
<title>child B&#45;&gt;grand child BA</title>
<path fill="none" stroke="black" d="M597.89,-146.83C612.6,-137.22 632.34,-124.3 649.14,-113.31"/>
<polygon fill="black" stroke="black" points="650.91,-116.34 657.36,-107.93 647.07,-110.48 650.91,-116.34"/>
</g>
<!-- grand grand child BAA -->
<g id="node10" class="node">
<title>grand grand child BAA</title>
<ellipse fill="none" stroke="black" cx="683.24" cy="-18" rx="98.44" ry="18"/>
<text text-anchor="middle" x="683.24" y="-12.95" font-family="Times,serif" font-size="14.00">grand grand child BAA</text>
</g>
<!-- grand child BA&#45;&gt;grand grand child BAA -->
<g id="edge9" class="edge">
<title>grand child BA&#45;&gt;grand grand child BAA</title>
<path fill="none" stroke="black" d="M683.24,-71.7C683.24,-64.41 683.24,-55.73 683.24,-47.54"/>
<polygon fill="black" stroke="black" points="686.74,-47.62 683.24,-37.62 679.74,-47.62 686.74,-47.62"/>
</g>
</g>
</svg>
