<?xml version="1.0" encoding="UTF-8" standalone="no"?>
<!DOCTYPE svg PUBLIC "-//W3C//DTD SVG 1.1//EN"
 "http://www.w3.org/Graphics/SVG/1.1/DTD/svg11.dtd">
<!-- Generated by graphviz version 6.0.2 (20221011.1828)
 -->
<!-- Title: G Pages: 1 -->
<svg width="763pt" height="260pt"
 viewBox="0.00 0.00 762.89 260.00" xmlns="http://www.w3.org/2000/svg" xmlns:xlink="http://www.w3.org/1999/xlink">
<g id="graph0" class="graph" transform="scale(1 1) rotate(0) translate(4 256)">
<title>G</title>
<polygon fill="white" stroke="none" points="-4,4 -4,-256 758.89,-256 758.89,4 -4,4"/>
<!-- root -->
<g id="node1" class="node">
<title>root</title>
<ellipse fill="none" stroke="black" cx="556.64" cy="-234" rx="27" ry="18"/>
<text text-anchor="middle" x="556.64" y="-230.3" font-family="Times,serif" font-size="14.00">root</text>
</g>
<!-- child A -->
<g id="node2" class="node">
<title>child A</title>
<ellipse fill="none" stroke="black" cx="362.64" cy="-162" rx="36.29" ry="18"/>
<text text-anchor="middle" x="362.64" y="-158.3" font-family="Times,serif" font-size="14.00">child A</text>
</g>
<!-- root&#45;&gt;child A -->
<g id="edge1" class="edge">
<title>root&#45;&gt;child A</title>
<path fill="none" stroke="black" d="M533.24,-224.56C500.36,-212.69 440.08,-190.94 400.7,-176.73"/>
<polygon fill="black" stroke="black" points="401.76,-173.39 391.16,-173.29 399.38,-179.98 401.76,-173.39"/>
</g>
<!-- child B -->
<g id="node3" class="node">
<title>child B</title>
<ellipse fill="none" stroke="black" cx="556.64" cy="-162" rx="36.29" ry="18"/>
<text text-anchor="middle" x="556.64" y="-158.3" font-family="Times,serif" font-size="14.00">child B</text>
</g>
<!-- root&#45;&gt;child B -->
<g id="edge2" class="edge">
<title>root&#45;&gt;child B</title>
<path fill="none" stroke="black" d="M556.64,-215.7C556.64,-207.98 556.64,-198.71 556.64,-190.11"/>
<polygon fill="black" stroke="black" points="560.14,-190.1 556.64,-180.1 553.14,-190.1 560.14,-190.1"/>
</g>
<!-- child C -->
<g id="node4" class="node">
<title>child C</title>
<ellipse fill="none" stroke="black" cx="647.64" cy="-162" rx="36.29" ry="18"/>
<text text-anchor="middle" x="647.64" y="-158.3" font-family="Times,serif" font-size="14.00">child C</text>
</g>
<!-- root&#45;&gt;child C -->
<g id="edge3" class="edge">
<title>root&#45;&gt;child C</title>
<path fill="none" stroke="black" d="M573.76,-219.83C586.97,-209.68 605.48,-195.43 620.68,-183.74"/>
<polygon fill="black" stroke="black" points="622.93,-186.43 628.72,-177.56 618.66,-180.88 622.93,-186.43"/>
</g>
<!-- grand child AA -->
<g id="node5" class="node">
<title>grand child AA</title>
<ellipse fill="none" stroke="black" cx="65.64" cy="-90" rx="65.79" ry="18"/>
<text text-anchor="middle" x="65.64" y="-86.3" font-family="Times,serif" font-size="14.00">grand child AA</text>
</g>
<!-- child A&#45;&gt;grand child AA -->
<g id="edge4" class="edge">
<title>child A&#45;&gt;grand child AA</title>
<path fill="none" stroke="black" d="M330.58,-153.44C281.13,-141.79 185.53,-119.26 123.71,-104.69"/>
<polygon fill="black" stroke="black" points="124.25,-101.22 113.71,-102.33 122.64,-108.03 124.25,-101.22"/>
</g>
<!-- grand child AB -->
<g id="node6" class="node">
<title>grand child AB</title>
<ellipse fill="none" stroke="black" cx="214.64" cy="-90" rx="64.99" ry="18"/>
<text text-anchor="middle" x="214.64" y="-86.3" font-family="Times,serif" font-size="14.00">grand child AB</text>
</g>
<!-- child A&#45;&gt;grand child AB -->
<g id="edge5" class="edge">
<title>child A&#45;&gt;grand child AB</title>
<path fill="none" stroke="black" d="M337.2,-148.97C314.68,-138.31 281.41,-122.58 255.21,-110.19"/>
<polygon fill="black" stroke="black" points="256.45,-106.9 245.92,-105.79 253.46,-113.23 256.45,-106.9"/>
</g>
<!-- grand child AC -->
<g id="node7" class="node">
<title>grand child AC</title>
<ellipse fill="none" stroke="black" cx="362.64" cy="-90" rx="64.99" ry="18"/>
<text text-anchor="middle" x="362.64" y="-86.3" font-family="Times,serif" font-size="14.00">grand child AC</text>
</g>
<!-- child A&#45;&gt;grand child AC -->
<g id="edge6" class="edge">
<title>child A&#45;&gt;grand child AC</title>
<path fill="none" stroke="black" d="M362.64,-143.7C362.64,-135.98 362.64,-126.71 362.64,-118.11"/>
<polygon fill="black" stroke="black" points="366.14,-118.1 362.64,-108.1 359.14,-118.1 366.14,-118.1"/>
</g>
<!-- grand child AD -->
<g id="node8" class="node">
<title>grand child AD</title>
<ellipse fill="none" stroke="black" cx="511.64" cy="-90" rx="65.79" ry="18"/>
<text text-anchor="middle" x="511.64" y="-86.3" font-family="Times,serif" font-size="14.00">grand child AD</text>
</g>
<!-- child A&#45;&gt;grand child AD -->
<g id="edge7" class="edge">
<title>child A&#45;&gt;grand child AD</title>
<path fill="none" stroke="black" d="M388.26,-148.97C410.86,-138.35 444.21,-122.68 470.54,-110.31"/>
<polygon fill="black" stroke="black" points="472.33,-113.34 479.89,-105.92 469.35,-107 472.33,-113.34"/>
</g>
<!-- grand child BA -->
<g id="node9" class="node">
<title>grand child BA</title>
<ellipse fill="none" stroke="black" cx="660.64" cy="-90" rx="65.79" ry="18"/>
<text text-anchor="middle" x="660.64" y="-86.3" font-family="Times,serif" font-size="14.00">grand child BA</text>
</g>
<!-- child B&#45;&gt;grand child BA -->
<g id="edge8" class="edge">
<title>child B&#45;&gt;grand child BA</title>
<path fill="none" stroke="black" d="M577.69,-146.83C592.35,-136.97 612.16,-123.63 628.75,-112.47"/>
<polygon fill="black" stroke="black" points="630.75,-115.34 637.09,-106.85 626.84,-109.53 630.75,-115.34"/>
</g>
<!-- grand grand child BAA -->
<g id="node10" class="node">
<title>grand grand child BAA</title>
<ellipse fill="none" stroke="black" cx="660.64" cy="-18" rx="94.48" ry="18"/>
<text text-anchor="middle" x="660.64" y="-14.3" font-family="Times,serif" font-size="14.00">grand grand child BAA</text>
</g>
<!-- grand child BA&#45;&gt;grand grand child BAA -->
<g id="edge9" class="edge">
<title>grand child BA&#45;&gt;grand grand child BAA</title>
<path fill="none" stroke="black" d="M660.64,-71.7C660.64,-63.98 660.64,-54.71 660.64,-46.11"/>
<polygon fill="black" stroke="black" points="664.14,-46.1 660.64,-36.1 657.14,-46.1 664.14,-46.1"/>
</g>
</g>
</svg>
