<?xml version="1.0" encoding="UTF-8" standalone="no"?>
<!DOCTYPE svg PUBLIC "-//W3C//DTD SVG 1.1//EN"
 "http://www.w3.org/Graphics/SVG/1.1/DTD/svg11.dtd">
<!-- Generated by graphviz version 12.1.0 (20240811.2233)
 -->
<!-- Title: G Pages: 1 -->
<svg width="350pt" height="406pt"
 viewBox="0.00 0.00 350.49 406.22" xmlns="http://www.w3.org/2000/svg" xmlns:xlink="http://www.w3.org/1999/xlink">
<g id="graph0" class="graph" transform="scale(1 1) rotate(0) translate(4 402.22)">
<title>G</title>
<polygon fill="white" stroke="none" points="-4,4 -4,-402.22 346.49,-402.22 346.49,4 -4,4"/>
<!-- root -->
<g id="node1" class="node">
<title>root</title>
<ellipse fill="none" stroke="black" cx="130.88" cy="-244.26" rx="27" ry="18"/>
<text text-anchor="middle" x="130.88" y="-239.21" font-family="Times,serif" font-size="14.00">root</text>
</g>
<!-- child A -->
<g id="node2" class="node">
<title>child A</title>
<ellipse fill="none" stroke="black" cx="194.68" cy="-301.63" rx="38.04" ry="18"/>
<text text-anchor="middle" x="194.68" y="-296.58" font-family="Times,serif" font-size="14.00">child A</text>
</g>
<!-- root&#45;&gt;child A -->
<g id="edge1" class="edge">
<title>root&#45;&gt;child A</title>
<path fill="none" stroke="black" d="M147.31,-259.03C153.79,-264.85 161.39,-271.69 168.58,-278.15"/>
<polygon fill="black" stroke="black" points="165.84,-280.4 175.61,-284.48 170.52,-275.19 165.84,-280.4"/>
</g>
<!-- child B -->
<g id="node3" class="node">
<title>child B</title>
<ellipse fill="none" stroke="black" cx="120.79" cy="-164.62" rx="38.04" ry="18"/>
<text text-anchor="middle" x="120.79" y="-159.57" font-family="Times,serif" font-size="14.00">child B</text>
</g>
<!-- root&#45;&gt;child B -->
<g id="edge2" class="edge">
<title>root&#45;&gt;child B</title>
<path fill="none" stroke="black" d="M128.59,-226.19C127.39,-216.68 125.88,-204.8 124.51,-194.01"/>
<polygon fill="black" stroke="black" points="128.02,-193.88 123.29,-184.4 121.08,-194.76 128.02,-193.88"/>
</g>
<!-- child C -->
<g id="node4" class="node">
<title>child C</title>
<ellipse fill="none" stroke="black" cx="51.2" cy="-266.81" rx="38.04" ry="18"/>
<text text-anchor="middle" x="51.2" y="-261.76" font-family="Times,serif" font-size="14.00">child C</text>
</g>
<!-- root&#45;&gt;child C -->
<g id="edge3" class="edge">
<title>root&#45;&gt;child C</title>
<path fill="none" stroke="black" d="M105.67,-251.39C102.25,-252.36 98.67,-253.37 95.03,-254.4"/>
<polygon fill="black" stroke="black" points="94.25,-250.99 85.59,-257.08 96.16,-257.72 94.25,-250.99"/>
</g>
<!-- grand child AA -->
<g id="node5" class="node">
<title>grand child AA</title>
<ellipse fill="none" stroke="black" cx="216.68" cy="-380.22" rx="68.24" ry="18"/>
<text text-anchor="middle" x="216.68" y="-375.17" font-family="Times,serif" font-size="14.00">grand child AA</text>
</g>
<!-- child A&#45;&gt;grand child AA -->
<g id="edge4" class="edge">
<title>child A&#45;&gt;grand child AA</title>
<path fill="none" stroke="black" d="M199.78,-319.86C202.37,-329.11 205.58,-340.59 208.51,-351.04"/>
<polygon fill="black" stroke="black" points="205.05,-351.67 211.12,-360.36 211.79,-349.79 205.05,-351.67"/>
</g>
<!-- grand child AB -->
<g id="node6" class="node">
<title>grand child AB</title>
<ellipse fill="none" stroke="black" cx="141.67" cy="-365.54" rx="67.73" ry="18"/>
<text text-anchor="middle" x="141.67" y="-360.49" font-family="Times,serif" font-size="14.00">grand child AB</text>
</g>
<!-- child A&#45;&gt;grand child AB -->
<g id="edge5" class="edge">
<title>child A&#45;&gt;grand child AB</title>
<path fill="none" stroke="black" d="M180.48,-318.76C175.22,-325.1 169.12,-332.45 163.35,-339.41"/>
<polygon fill="black" stroke="black" points="160.95,-336.83 157.26,-346.76 166.33,-341.29 160.95,-336.83"/>
</g>
<!-- grand child AC -->
<g id="node7" class="node">
<title>grand child AC</title>
<ellipse fill="none" stroke="black" cx="258.45" cy="-249.88" rx="67.73" ry="18"/>
<text text-anchor="middle" x="258.45" y="-244.83" font-family="Times,serif" font-size="14.00">grand child AC</text>
</g>
<!-- child A&#45;&gt;grand child AC -->
<g id="edge6" class="edge">
<title>child A&#45;&gt;grand child AC</title>
<path fill="none" stroke="black" d="M214.16,-285.82C218.54,-282.27 223.28,-278.42 227.98,-274.61"/>
<polygon fill="black" stroke="black" points="230.13,-277.37 235.69,-268.35 225.72,-271.94 230.13,-277.37"/>
</g>
<!-- grand child AD -->
<g id="node8" class="node">
<title>grand child AD</title>
<ellipse fill="none" stroke="black" cx="274.25" cy="-322.73" rx="68.24" ry="18"/>
<text text-anchor="middle" x="274.25" y="-317.68" font-family="Times,serif" font-size="14.00">grand child AD</text>
</g>
<!-- child A&#45;&gt;grand child AD -->
<g id="edge7" class="edge">
<title>child A&#45;&gt;grand child AD</title>
<path fill="none" stroke="black" d="M227.96,-310.46C228.01,-310.47 228.05,-310.48 228.09,-310.49"/>
<polygon fill="black" stroke="black" points="216.19,-310.95 226.76,-310.13 217.99,-304.18 216.19,-310.95"/>
</g>
<!-- grand child BA -->
<g id="node9" class="node">
<title>grand child BA</title>
<ellipse fill="none" stroke="black" cx="103.3" cy="-91.36" rx="68.24" ry="18"/>
<text text-anchor="middle" x="103.3" y="-86.31" font-family="Times,serif" font-size="14.00">grand child BA</text>
</g>
<!-- child B&#45;&gt;grand child BA -->
<g id="edge8" class="edge">
<title>child B&#45;&gt;grand child BA</title>
<path fill="none" stroke="black" d="M116.46,-146.51C114.61,-138.74 112.39,-129.45 110.31,-120.73"/>
<polygon fill="black" stroke="black" points="113.77,-120.16 108.05,-111.24 106.96,-121.78 113.77,-120.16"/>
</g>
<!-- grand grand child BAA -->
<g id="node10" class="node">
<title>grand grand child BAA</title>
<ellipse fill="none" stroke="black" cx="98.44" cy="-18" rx="98.44" ry="18"/>
<text text-anchor="middle" x="98.44" y="-12.95" font-family="Times,serif" font-size="14.00">grand grand child BAA</text>
</g>
<!-- grand child BA&#45;&gt;grand grand child BAA -->
<g id="edge9" class="edge">
<title>grand child BA&#45;&gt;grand grand child BAA</title>
<path fill="none" stroke="black" d="M102.1,-73.23C101.59,-65.52 100.98,-56.34 100.41,-47.7"/>
<polygon fill="black" stroke="black" points="103.91,-47.69 99.76,-37.94 96.93,-48.15 103.91,-47.69"/>
</g>
</g>
</svg>
