<?xml version="1.0" encoding="UTF-8" standalone="no"?>
<!DOCTYPE svg PUBLIC "-//W3C//DTD SVG 1.1//EN"
 "http://www.w3.org/Graphics/SVG/1.1/DTD/svg11.dtd">
<!-- Generated by graphviz version 7.0.4 (20221203.1631)
 -->
<!-- Title: G Pages: 1 -->
<svg width="763pt" height="260pt"
 viewBox="0.00 0.00 762.89 260.00" xmlns="http://www.w3.org/2000/svg" xmlns:xlink="http://www.w3.org/1999/xlink">
<g id="graph0" class="graph" transform="scale(1 1) rotate(0) translate(4 256)">
<title>G</title>
<polygon fill="white" stroke="none" points="-4,4 -4,-256 758.89,-256 758.89,4 -4,4"/>
<!-- root -->
<g id="node1" class="node">
<title>root</title>
<ellipse fill="none" stroke="black" cx="556.64" cy="-234" rx="27" ry="18"/>
<text text-anchor="middle" x="556.64" y="-230.3" font-family="Times,serif" font-size="14.00">root</text>
</g>
<!-- child A -->
<g id="node2" class="node">
<title>child A</title>
<ellipse fill="none" stroke="black" cx="362.64" cy="-162" rx="36.29" ry="18"/>
<text text-anchor="middle" x="362.64" y="-158.3" font-family="Times,serif" font-size="14.00">child A</text>
</g>
<!-- root&#45;&gt;child A -->
<g id="edge1" class="edge">
<title>root&#45;&gt;child A</title>
<path fill="none" stroke="black" d="M533.24,-224.56C500.8,-212.85 441.69,-191.52 402.29,-177.31"/>
<polygon fill="black" stroke="black" points="403.51,-174.02 392.91,-173.92 401.13,-180.61 403.51,-174.02"/>
</g>
<!-- child B -->
<g id="node3" class="node">
<title>child B</title>
<ellipse fill="none" stroke="black" cx="556.64" cy="-162" rx="36.29" ry="18"/>
<text text-anchor="middle" x="556.64" y="-158.3" font-family="Times,serif" font-size="14.00">child B</text>
</g>
<!-- root&#45;&gt;child B -->
<g id="edge2" class="edge">
<title>root&#45;&gt;child B</title>
<path fill="none" stroke="black" d="M556.64,-215.7C556.64,-208.41 556.64,-199.73 556.64,-191.54"/>
<polygon fill="black" stroke="black" points="560.14,-191.62 556.64,-181.62 553.14,-191.62 560.14,-191.62"/>
</g>
<!-- child C -->
<g id="node4" class="node">
<title>child C</title>
<ellipse fill="none" stroke="black" cx="647.64" cy="-162" rx="36.29" ry="18"/>
<text text-anchor="middle" x="647.64" y="-158.3" font-family="Times,serif" font-size="14.00">child C</text>
</g>
<!-- root&#45;&gt;child C -->
<g id="edge3" class="edge">
<title>root&#45;&gt;child C</title>
<path fill="none" stroke="black" d="M573.76,-219.83C586.72,-209.86 604.8,-195.96 619.83,-184.4"/>
<polygon fill="black" stroke="black" points="621.73,-187.35 627.52,-178.48 617.46,-181.8 621.73,-187.35"/>
</g>
<!-- grand child AA -->
<g id="node5" class="node">
<title>grand child AA</title>
<ellipse fill="none" stroke="black" cx="65.64" cy="-90" rx="65.79" ry="18"/>
<text text-anchor="middle" x="65.64" y="-86.3" font-family="Times,serif" font-size="14.00">grand child AA</text>
</g>
<!-- child A&#45;&gt;grand child AA -->
<g id="edge4" class="edge">
<title>child A&#45;&gt;grand child AA</title>
<path fill="none" stroke="black" d="M330.29,-153.38C281.25,-141.82 187.28,-119.67 125.53,-105.11"/>
<polygon fill="black" stroke="black" points="126.4,-101.72 115.87,-102.84 124.8,-108.54 126.4,-101.72"/>
</g>
<!-- grand child AB -->
<g id="node6" class="node">
<title>grand child AB</title>
<ellipse fill="none" stroke="black" cx="214.64" cy="-90" rx="64.99" ry="18"/>
<text text-anchor="middle" x="214.64" y="-86.3" font-family="Times,serif" font-size="14.00">grand child AB</text>
</g>
<!-- child A&#45;&gt;grand child AB -->
<g id="edge5" class="edge">
<title>child A&#45;&gt;grand child AB</title>
<path fill="none" stroke="black" d="M336.86,-148.81C314.81,-138.38 282.63,-123.16 256.83,-110.95"/>
<polygon fill="black" stroke="black" points="258.47,-107.86 247.94,-106.75 255.48,-114.19 258.47,-107.86"/>
</g>
<!-- grand child AC -->
<g id="node7" class="node">
<title>grand child AC</title>
<ellipse fill="none" stroke="black" cx="362.64" cy="-90" rx="64.99" ry="18"/>
<text text-anchor="middle" x="362.64" y="-86.3" font-family="Times,serif" font-size="14.00">grand child AC</text>
</g>
<!-- child A&#45;&gt;grand child AC -->
<g id="edge6" class="edge">
<title>child A&#45;&gt;grand child AC</title>
<path fill="none" stroke="black" d="M362.64,-143.7C362.64,-136.41 362.64,-127.73 362.64,-119.54"/>
<polygon fill="black" stroke="black" points="366.14,-119.62 362.64,-109.62 359.14,-119.62 366.14,-119.62"/>
</g>
<!-- grand child AD -->
<g id="node8" class="node">
<title>grand child AD</title>
<ellipse fill="none" stroke="black" cx="511.64" cy="-90" rx="65.79" ry="18"/>
<text text-anchor="middle" x="511.64" y="-86.3" font-family="Times,serif" font-size="14.00">grand child AD</text>
</g>
<!-- child A&#45;&gt;grand child AD -->
<g id="edge7" class="edge">
<title>child A&#45;&gt;grand child AD</title>
<path fill="none" stroke="black" d="M388.26,-148.97C410.49,-138.52 443.12,-123.19 469.24,-110.92"/>
<polygon fill="black" stroke="black" points="470.69,-114.11 478.25,-106.69 467.71,-107.77 470.69,-114.11"/>
</g>
<!-- grand child BA -->
<g id="node9" class="node">
<title>grand child BA</title>
<ellipse fill="none" stroke="black" cx="660.64" cy="-90" rx="65.79" ry="18"/>
<text text-anchor="middle" x="660.64" y="-86.3" font-family="Times,serif" font-size="14.00">grand child BA</text>
</g>
<!-- child B&#45;&gt;grand child BA -->
<g id="edge8" class="edge">
<title>child B&#45;&gt;grand child BA</title>
<path fill="none" stroke="black" d="M577.69,-146.83C591.98,-137.22 611.17,-124.3 627.5,-113.31"/>
<polygon fill="black" stroke="black" points="629.12,-116.44 635.46,-107.95 625.21,-110.63 629.12,-116.44"/>
</g>
<!-- grand grand child BAA -->
<g id="node10" class="node">
<title>grand grand child BAA</title>
<ellipse fill="none" stroke="black" cx="660.64" cy="-18" rx="94.48" ry="18"/>
<text text-anchor="middle" x="660.64" y="-14.3" font-family="Times,serif" font-size="14.00">grand grand child BAA</text>
</g>
<!-- grand child BA&#45;&gt;grand grand child BAA -->
<g id="edge9" class="edge">
<title>grand child BA&#45;&gt;grand grand child BAA</title>
<path fill="none" stroke="black" d="M660.64,-71.7C660.64,-64.41 660.64,-55.73 660.64,-47.54"/>
<polygon fill="black" stroke="black" points="664.14,-47.62 660.64,-37.62 657.14,-47.62 664.14,-47.62"/>
</g>
</g>
</svg>
