<?xml version="1.0" encoding="UTF-8" standalone="no"?>
<!DOCTYPE svg PUBLIC "-//W3C//DTD SVG 1.1//EN"
 "http://www.w3.org/Graphics/SVG/1.1/DTD/svg11.dtd">
<!-- Generated by graphviz version 7.0.4 (20221203.1631)
 -->
<!-- Title: G Pages: 1 -->
<svg width="344pt" height="406pt"
 viewBox="0.00 0.00 343.69 406.22" xmlns="http://www.w3.org/2000/svg" xmlns:xlink="http://www.w3.org/1999/xlink">
<g id="graph0" class="graph" transform="scale(1 1) rotate(0) translate(4 402.22)">
<title>G</title>
<polygon fill="white" stroke="none" points="-4,4 -4,-402.22 339.69,-402.22 339.69,4 -4,4"/>
<!-- root -->
<g id="node1" class="node">
<title>root</title>
<ellipse fill="none" stroke="black" cx="126.69" cy="-244.26" rx="27" ry="18"/>
<text text-anchor="middle" x="126.69" y="-240.56" font-family="Times,serif" font-size="14.00">root</text>
</g>
<!-- child A -->
<g id="node2" class="node">
<title>child A</title>
<ellipse fill="none" stroke="black" cx="190.49" cy="-301.63" rx="36.29" ry="18"/>
<text text-anchor="middle" x="190.49" y="-297.93" font-family="Times,serif" font-size="14.00">child A</text>
</g>
<!-- root&#45;&gt;child A -->
<g id="edge1" class="edge">
<title>root&#45;&gt;child A</title>
<path fill="none" stroke="black" d="M143.12,-259.03C149.59,-264.85 157.19,-271.69 164.38,-278.15"/>
<polygon fill="black" stroke="black" points="161.64,-280.4 171.42,-284.48 166.32,-275.19 161.64,-280.4"/>
</g>
<!-- child B -->
<g id="node3" class="node">
<title>child B</title>
<ellipse fill="none" stroke="black" cx="116.59" cy="-164.62" rx="36.29" ry="18"/>
<text text-anchor="middle" x="116.59" y="-160.92" font-family="Times,serif" font-size="14.00">child B</text>
</g>
<!-- root&#45;&gt;child B -->
<g id="edge2" class="edge">
<title>root&#45;&gt;child B</title>
<path fill="none" stroke="black" d="M124.4,-226.19C123.19,-216.68 121.68,-204.8 120.32,-194.01"/>
<polygon fill="black" stroke="black" points="123.83,-193.88 119.1,-184.4 116.88,-194.76 123.83,-193.88"/>
</g>
<!-- child C -->
<g id="node4" class="node">
<title>child C</title>
<ellipse fill="none" stroke="black" cx="47.01" cy="-266.81" rx="36.29" ry="18"/>
<text text-anchor="middle" x="47.01" y="-263.11" font-family="Times,serif" font-size="14.00">child C</text>
</g>
<!-- root&#45;&gt;child C -->
<g id="edge3" class="edge">
<title>root&#45;&gt;child C</title>
<path fill="none" stroke="black" d="M101.48,-251.39C97.65,-252.47 93.61,-253.62 89.54,-254.77"/>
<polygon fill="black" stroke="black" points="88.91,-251.31 80.24,-257.4 90.82,-258.05 88.91,-251.31"/>
</g>
<!-- grand child AA -->
<g id="node5" class="node">
<title>grand child AA</title>
<ellipse fill="none" stroke="black" cx="212.48" cy="-380.22" rx="65.79" ry="18"/>
<text text-anchor="middle" x="212.48" y="-376.52" font-family="Times,serif" font-size="14.00">grand child AA</text>
</g>
<!-- child A&#45;&gt;grand child AA -->
<g id="edge4" class="edge">
<title>child A&#45;&gt;grand child AA</title>
<path fill="none" stroke="black" d="M195.59,-319.86C198.18,-329.11 201.39,-340.59 204.31,-351.04"/>
<polygon fill="black" stroke="black" points="200.86,-351.67 206.92,-360.36 207.6,-349.79 200.86,-351.67"/>
</g>
<!-- grand child AB -->
<g id="node6" class="node">
<title>grand child AB</title>
<ellipse fill="none" stroke="black" cx="137.48" cy="-365.54" rx="64.99" ry="18"/>
<text text-anchor="middle" x="137.48" y="-361.84" font-family="Times,serif" font-size="14.00">grand child AB</text>
</g>
<!-- child A&#45;&gt;grand child AB -->
<g id="edge5" class="edge">
<title>child A&#45;&gt;grand child AB</title>
<path fill="none" stroke="black" d="M176.56,-318.42C171.3,-324.77 165.17,-332.15 159.36,-339.16"/>
<polygon fill="black" stroke="black" points="156.9,-336.65 153.21,-346.58 162.28,-341.12 156.9,-336.65"/>
</g>
<!-- grand child AC -->
<g id="node7" class="node">
<title>grand child AC</title>
<ellipse fill="none" stroke="black" cx="254.26" cy="-249.88" rx="64.99" ry="18"/>
<text text-anchor="middle" x="254.26" y="-246.18" font-family="Times,serif" font-size="14.00">grand child AC</text>
</g>
<!-- child A&#45;&gt;grand child AC -->
<g id="edge6" class="edge">
<title>child A&#45;&gt;grand child AC</title>
<path fill="none" stroke="black" d="M209.62,-286.1C214.21,-282.38 219.21,-278.32 224.16,-274.3"/>
<polygon fill="black" stroke="black" points="226.17,-277.18 231.73,-268.16 221.76,-271.75 226.17,-277.18"/>
</g>
<!-- grand child AD -->
<g id="node8" class="node">
<title>grand child AD</title>
<ellipse fill="none" stroke="black" cx="270.05" cy="-322.73" rx="65.79" ry="18"/>
<text text-anchor="middle" x="270.05" y="-319.03" font-family="Times,serif" font-size="14.00">grand child AD</text>
</g>
<!-- child A&#45;&gt;grand child AD -->
<g id="edge7" class="edge">
<title>child A&#45;&gt;grand child AD</title>
<path fill="none" stroke="black" d="M222.85,-310.21C222.89,-310.22 222.93,-310.23 222.98,-310.25"/>
<polygon fill="black" stroke="black" points="211.08,-310.71 221.64,-309.89 212.88,-303.94 211.08,-310.71"/>
</g>
<!-- grand child BA -->
<g id="node9" class="node">
<title>grand child BA</title>
<ellipse fill="none" stroke="black" cx="99.1" cy="-91.36" rx="65.79" ry="18"/>
<text text-anchor="middle" x="99.1" y="-87.66" font-family="Times,serif" font-size="14.00">grand child BA</text>
</g>
<!-- child B&#45;&gt;grand child BA -->
<g id="edge8" class="edge">
<title>child B&#45;&gt;grand child BA</title>
<path fill="none" stroke="black" d="M112.27,-146.51C110.41,-138.74 108.19,-129.45 106.11,-120.73"/>
<polygon fill="black" stroke="black" points="109.58,-120.16 103.85,-111.24 102.77,-121.78 109.58,-120.16"/>
</g>
<!-- grand grand child BAA -->
<g id="node10" class="node">
<title>grand grand child BAA</title>
<ellipse fill="none" stroke="black" cx="94.24" cy="-18" rx="94.48" ry="18"/>
<text text-anchor="middle" x="94.24" y="-14.3" font-family="Times,serif" font-size="14.00">grand grand child BAA</text>
</g>
<!-- grand child BA&#45;&gt;grand grand child BAA -->
<g id="edge9" class="edge">
<title>grand child BA&#45;&gt;grand grand child BAA</title>
<path fill="none" stroke="black" d="M97.9,-73.23C97.39,-65.52 96.78,-56.34 96.21,-47.7"/>
<polygon fill="black" stroke="black" points="99.72,-47.69 95.56,-37.94 92.73,-48.15 99.72,-47.69"/>
</g>
</g>
</svg>
