<?xml version="1.0" encoding="UTF-8" standalone="no"?>
<!DOCTYPE svg PUBLIC "-//W3C//DTD SVG 1.1//EN"
 "http://www.w3.org/Graphics/SVG/1.1/DTD/svg11.dtd">
<!-- Generated by graphviz version 6.0.2 (20221011.1828)
 -->
<!-- Title: G Pages: 1 -->
<svg width="344pt" height="406pt"
 viewBox="0.00 0.00 343.69 406.22" xmlns="http://www.w3.org/2000/svg" xmlns:xlink="http://www.w3.org/1999/xlink">
<g id="graph0" class="graph" transform="scale(1 1) rotate(0) translate(4 402.22)">
<title>G</title>
<polygon fill="white" stroke="none" points="-4,4 -4,-402.22 339.69,-402.22 339.69,4 -4,4"/>
<!-- root -->
<g id="node1" class="node">
<title>root</title>
<ellipse fill="none" stroke="black" cx="126.69" cy="-244.26" rx="27" ry="18"/>
<text text-anchor="middle" x="126.69" y="-240.56" font-family="Times,serif" font-size="14.00">root</text>
</g>
<!-- child A -->
<g id="node2" class="node">
<title>child A</title>
<ellipse fill="none" stroke="black" cx="190.49" cy="-301.63" rx="36.29" ry="18"/>
<text text-anchor="middle" x="190.49" y="-297.93" font-family="Times,serif" font-size="14.00">child A</text>
</g>
<!-- root&#45;&gt;child A -->
<g id="edge1" class="edge">
<title>root&#45;&gt;child A</title>
<path fill="none" stroke="black" d="M142.79,-258.73C149.51,-264.78 157.49,-271.95 164.97,-278.69"/>
<polygon fill="black" stroke="black" points="163.05,-281.66 172.82,-285.74 167.73,-276.45 163.05,-281.66"/>
</g>
<!-- child B -->
<g id="node3" class="node">
<title>child B</title>
<ellipse fill="none" stroke="black" cx="116.59" cy="-164.62" rx="36.29" ry="18"/>
<text text-anchor="middle" x="116.59" y="-160.92" font-family="Times,serif" font-size="14.00">child B</text>
</g>
<!-- root&#45;&gt;child B -->
<g id="edge2" class="edge">
<title>root&#45;&gt;child B</title>
<path fill="none" stroke="black" d="M124.4,-226.19C123.14,-216.31 121.57,-203.86 120.16,-192.74"/>
<polygon fill="black" stroke="black" points="123.6,-192.1 118.87,-182.62 116.66,-192.98 123.6,-192.1"/>
</g>
<!-- child C -->
<g id="node4" class="node">
<title>child C</title>
<ellipse fill="none" stroke="black" cx="47.01" cy="-266.81" rx="36.29" ry="18"/>
<text text-anchor="middle" x="47.01" y="-263.11" font-family="Times,serif" font-size="14.00">child C</text>
</g>
<!-- root&#45;&gt;child C -->
<g id="edge3" class="edge">
<title>root&#45;&gt;child C</title>
<path fill="none" stroke="black" d="M101.48,-251.39C97.31,-252.57 92.9,-253.82 88.46,-255.08"/>
<polygon fill="black" stroke="black" points="87.45,-251.72 78.78,-257.81 89.36,-258.46 87.45,-251.72"/>
</g>
<!-- grand child AA -->
<g id="node5" class="node">
<title>grand child AA</title>
<ellipse fill="none" stroke="black" cx="212.48" cy="-380.22" rx="65.79" ry="18"/>
<text text-anchor="middle" x="212.48" y="-376.52" font-family="Times,serif" font-size="14.00">grand child AA</text>
</g>
<!-- child A&#45;&gt;grand child AA -->
<g id="edge4" class="edge">
<title>child A&#45;&gt;grand child AA</title>
<path fill="none" stroke="black" d="M195.48,-319.46C198.19,-329.14 201.6,-341.32 204.65,-352.24"/>
<polygon fill="black" stroke="black" points="201.37,-353.5 207.43,-362.18 208.11,-351.61 201.37,-353.5"/>
</g>
<!-- grand child AB -->
<g id="node6" class="node">
<title>grand child AB</title>
<ellipse fill="none" stroke="black" cx="137.48" cy="-365.54" rx="64.99" ry="18"/>
<text text-anchor="middle" x="137.48" y="-361.84" font-family="Times,serif" font-size="14.00">grand child AB</text>
</g>
<!-- child A&#45;&gt;grand child AB -->
<g id="edge5" class="edge">
<title>child A&#45;&gt;grand child AB</title>
<path fill="none" stroke="black" d="M176.56,-318.42C171.18,-324.91 164.9,-332.48 158.97,-339.63"/>
<polygon fill="black" stroke="black" points="155.93,-337.81 152.24,-347.74 161.32,-342.28 155.93,-337.81"/>
</g>
<!-- grand child AC -->
<g id="node7" class="node">
<title>grand child AC</title>
<ellipse fill="none" stroke="black" cx="254.26" cy="-249.88" rx="64.99" ry="18"/>
<text text-anchor="middle" x="254.26" y="-246.18" font-family="Times,serif" font-size="14.00">grand child AC</text>
</g>
<!-- child A&#45;&gt;grand child AC -->
<g id="edge6" class="edge">
<title>child A&#45;&gt;grand child AC</title>
<path fill="none" stroke="black" d="M209.62,-286.1C214.44,-282.2 219.72,-277.91 224.91,-273.7"/>
<polygon fill="black" stroke="black" points="227.35,-276.23 232.91,-267.21 222.94,-270.79 227.35,-276.23"/>
</g>
<!-- grand child AD -->
<g id="node8" class="node">
<title>grand child AD</title>
<ellipse fill="none" stroke="black" cx="270.05" cy="-322.73" rx="65.79" ry="18"/>
<text text-anchor="middle" x="270.05" y="-319.03" font-family="Times,serif" font-size="14.00">grand child AD</text>
</g>
<!-- child A&#45;&gt;grand child AD -->
<g id="edge7" class="edge">
<title>child A&#45;&gt;grand child AD</title>
<path fill="none" stroke="black" d="M222.85,-310.21C222.89,-310.22 222.93,-310.23 222.98,-310.25"/>
<polygon fill="black" stroke="black" points="212.54,-311.09 223.11,-310.28 214.34,-304.33 212.54,-311.09"/>
</g>
<!-- grand child BA -->
<g id="node9" class="node">
<title>grand child BA</title>
<ellipse fill="none" stroke="black" cx="99.1" cy="-91.36" rx="65.79" ry="18"/>
<text text-anchor="middle" x="99.1" y="-87.66" font-family="Times,serif" font-size="14.00">grand child BA</text>
</g>
<!-- child B&#45;&gt;grand child BA -->
<g id="edge8" class="edge">
<title>child B&#45;&gt;grand child BA</title>
<path fill="none" stroke="black" d="M112.27,-146.51C110.31,-138.32 107.96,-128.46 105.78,-119.35"/>
<polygon fill="black" stroke="black" points="109.16,-118.43 103.44,-109.52 102.35,-120.05 109.16,-118.43"/>
</g>
<!-- grand grand child BAA -->
<g id="node10" class="node">
<title>grand grand child BAA</title>
<ellipse fill="none" stroke="black" cx="94.24" cy="-18" rx="94.48" ry="18"/>
<text text-anchor="middle" x="94.24" y="-14.3" font-family="Times,serif" font-size="14.00">grand grand child BAA</text>
</g>
<!-- grand child BA&#45;&gt;grand grand child BAA -->
<g id="edge9" class="edge">
<title>grand child BA&#45;&gt;grand grand child BAA</title>
<path fill="none" stroke="black" d="M97.9,-73.23C97.36,-65.11 96.72,-55.36 96.12,-46.32"/>
<polygon fill="black" stroke="black" points="99.6,-45.93 95.45,-36.18 92.62,-46.39 99.6,-45.93"/>
</g>
</g>
</svg>
