<svg xmlns="http://www.w3.org/2000/svg" xmlns:xlink="http://www.w3.org/1999/xlink" contentStyleType="text/css" height="378px" preserveAspectRatio="none" style="width:880px;height:378px;background:#FFFFFF;" version="1.1" viewBox="0 0 880 378" width="880px" zoomAndPan="magnify"><defs/><g><!--entity root--><g id="elem_root"><rect fill="#F1F1F1" height="46.4883" rx="2.5" ry="2.5" style="stroke:#181818;stroke-width:0.5;" width="68.1641" x="629.23" y="7"/><rect fill="#F1F1F1" height="10" style="stroke:#181818;stroke-width:0.5;" width="15" x="677.3941" y="12"/><rect fill="#F1F1F1" height="2" style="stroke:#181818;stroke-width:0.5;" width="4" x="675.3941" y="14"/><rect fill="#F1F1F1" height="2" style="stroke:#181818;stroke-width:0.5;" width="4" x="675.3941" y="18"/><text fill="#000000" font-family="sans-serif" font-size="14" lengthAdjust="spacing" textLength="28.1641" x="644.23" y="40.5352">root</text></g><!--entity child A--><g id="elem_child A"><rect fill="#F1F1F1" height="46.4883" rx="2.5" ry="2.5" style="stroke:#181818;stroke-width:0.5;" width="86.8535" x="383.89" y="113.49"/><rect fill="#F1F1F1" height="10" style="stroke:#181818;stroke-width:0.5;" width="15" x="450.7435" y="118.49"/><rect fill="#F1F1F1" height="2" style="stroke:#181818;stroke-width:0.5;" width="4" x="448.7435" y="120.49"/><rect fill="#F1F1F1" height="2" style="stroke:#181818;stroke-width:0.5;" width="4" x="448.7435" y="124.49"/><text fill="#000000" font-family="sans-serif" font-size="14" lengthAdjust="spacing" textLength="46.8535" x="398.89" y="147.0252">child A</text></g><!--entity child B--><g id="elem_child B"><rect fill="#F1F1F1" height="46.4883" rx="2.5" ry="2.5" style="stroke:#181818;stroke-width:0.5;" width="85.2471" x="620.69" y="113.49"/><rect fill="#F1F1F1" height="10" style="stroke:#181818;stroke-width:0.5;" width="15" x="685.9371" y="118.49"/><rect fill="#F1F1F1" height="2" style="stroke:#181818;stroke-width:0.5;" width="4" x="683.9371" y="120.49"/><rect fill="#F1F1F1" height="2" style="stroke:#181818;stroke-width:0.5;" width="4" x="683.9371" y="124.49"/><text fill="#000000" font-family="sans-serif" font-size="14" lengthAdjust="spacing" textLength="45.2471" x="635.69" y="147.0252">child B</text></g><!--entity child C--><g id="elem_child C"><rect fill="#F1F1F1" height="46.4883" rx="2.5" ry="2.5" style="stroke:#181818;stroke-width:0.5;" width="86.8809" x="740.88" y="113.49"/><rect fill="#F1F1F1" height="10" style="stroke:#181818;stroke-width:0.5;" width="15" x="807.7609" y="118.49"/><rect fill="#F1F1F1" height="2" style="stroke:#181818;stroke-width:0.5;" width="4" x="805.7609" y="120.49"/><rect fill="#F1F1F1" height="2" style="stroke:#181818;stroke-width:0.5;" width="4" x="805.7609" y="124.49"/><text fill="#000000" font-family="sans-serif" font-size="14" lengthAdjust="spacing" textLength="46.8809" x="755.88" y="147.0252">child C</text></g><!--entity grand child AA--><g id="elem_grand child AA"><rect fill="#F1F1F1" height="46.4883" rx="2.5" ry="2.5" style="stroke:#181818;stroke-width:0.5;" width="140.6318" x="7" y="219.97"/><rect fill="#F1F1F1" height="10" style="stroke:#181818;stroke-width:0.5;" width="15" x="127.6318" y="224.97"/><rect fill="#F1F1F1" height="2" style="stroke:#181818;stroke-width:0.5;" width="4" x="125.6318" y="226.97"/><rect fill="#F1F1F1" height="2" style="stroke:#181818;stroke-width:0.5;" width="4" x="125.6318" y="230.97"/><text fill="#000000" font-family="sans-serif" font-size="14" lengthAdjust="spacing" textLength="100.6318" x="22" y="253.5052">grand child AA</text></g><!--entity grand child AB--><g id="elem_grand child AB"><rect fill="#F1F1F1" height="46.4883" rx="2.5" ry="2.5" style="stroke:#181818;stroke-width:0.5;" width="139.0254" x="182.8" y="219.97"/><rect fill="#F1F1F1" height="10" style="stroke:#181818;stroke-width:0.5;" width="15" x="301.8254" y="224.97"/><rect fill="#F1F1F1" height="2" style="stroke:#181818;stroke-width:0.5;" width="4" x="299.8254" y="226.97"/><rect fill="#F1F1F1" height="2" style="stroke:#181818;stroke-width:0.5;" width="4" x="299.8254" y="230.97"/><text fill="#000000" font-family="sans-serif" font-size="14" lengthAdjust="spacing" textLength="99.0254" x="197.8" y="253.5052">grand child AB</text></g><!--entity grand child AC--><g id="elem_grand child AC"><rect fill="#F1F1F1" height="46.4883" rx="2.5" ry="2.5" style="stroke:#181818;stroke-width:0.5;" width="140.6592" x="356.99" y="219.97"/><rect fill="#F1F1F1" height="10" style="stroke:#181818;stroke-width:0.5;" width="15" x="477.6492" y="224.97"/><rect fill="#F1F1F1" height="2" style="stroke:#181818;stroke-width:0.5;" width="4" x="475.6492" y="226.97"/><rect fill="#F1F1F1" height="2" style="stroke:#181818;stroke-width:0.5;" width="4" x="475.6492" y="230.97"/><text fill="#000000" font-family="sans-serif" font-size="14" lengthAdjust="spacing" textLength="100.6592" x="371.99" y="253.5052">grand child AC</text></g><!--entity grand child AD--><g id="elem_grand child AD"><rect fill="#F1F1F1" height="46.4883" rx="2.5" ry="2.5" style="stroke:#181818;stroke-width:0.5;" width="141.459" x="532.59" y="219.97"/><rect fill="#F1F1F1" height="10" style="stroke:#181818;stroke-width:0.5;" width="15" x="654.049" y="224.97"/><rect fill="#F1F1F1" height="2" style="stroke:#181818;stroke-width:0.5;" width="4" x="652.049" y="226.97"/><rect fill="#F1F1F1" height="2" style="stroke:#181818;stroke-width:0.5;" width="4" x="652.049" y="230.97"/><text fill="#000000" font-family="sans-serif" font-size="14" lengthAdjust="spacing" textLength="101.459" x="547.59" y="253.5052">grand child AD</text></g><!--entity grand child BA--><g id="elem_grand child BA"><rect fill="#F1F1F1" height="46.4883" rx="2.5" ry="2.5" style="stroke:#181818;stroke-width:0.5;" width="139.0254" x="708.8" y="219.97"/><rect fill="#F1F1F1" height="10" style="stroke:#181818;stroke-width:0.5;" width="15" x="827.8254" y="224.97"/><rect fill="#F1F1F1" height="2" style="stroke:#181818;stroke-width:0.5;" width="4" x="825.8254" y="226.97"/><rect fill="#F1F1F1" height="2" style="stroke:#181818;stroke-width:0.5;" width="4" x="825.8254" y="230.97"/><text fill="#000000" font-family="sans-serif" font-size="14" lengthAdjust="spacing" textLength="99.0254" x="723.8" y="253.5052">grand child BA</text></g><!--entity grand grand child BAA--><g id="elem_grand grand child BAA"><rect fill="#F1F1F1" height="46.4883" rx="2.5" ry="2.5" style="stroke:#181818;stroke-width:0.5;" width="192.8037" x="681.91" y="326.46"/><rect fill="#F1F1F1" height="10" style="stroke:#181818;stroke-width:0.5;" width="15" x="854.7137" y="331.46"/><rect fill="#F1F1F1" height="2" style="stroke:#181818;stroke-width:0.5;" width="4" x="852.7137" y="333.46"/><rect fill="#F1F1F1" height="2" style="stroke:#181818;stroke-width:0.5;" width="4" x="852.7137" y="337.46"/><text fill="#000000" font-family="sans-serif" font-size="14" lengthAdjust="spacing" textLength="152.8037" x="696.91" y="359.9952">grand grand child BAA</text></g><!--link root to child A--><g id="link_root_child A"><path d="M628.75,46.55 C587.01,65.03 522.2462,93.7008 476.7162,113.8608 " fill="none" id="root-to-child A" style="stroke:#181818;stroke-width:1.0;"/><polygon fill="#181818" points="471.23,116.29,481.0788,116.3037,475.8019,114.2656,477.8399,108.9887,471.23,116.29" style="stroke:#181818;stroke-width:1.0;"/></g><!--link root to child B--><g id="link_root_child B"><path d="M663.32,53.91 C663.32,71.44 663.32,89.59 663.32,107.1 " fill="none" id="root-to-child B" style="stroke:#181818;stroke-width:1.0;"/><polygon fill="#181818" points="663.32,113.1,667.32,104.1,663.32,108.1,659.32,104.1,663.32,113.1" style="stroke:#181818;stroke-width:1.0;"/></g><!--link root to child C--><g id="link_root_child C"><path d="M689.57,53.91 C709.87,71.44 733.2886,91.6689 753.5686,109.1789 " fill="none" id="root-to-child C" style="stroke:#181818;stroke-width:1.0;"/><polygon fill="#181818" points="758.11,113.1,753.9119,104.1907,754.3255,109.8324,748.6837,110.2459,758.11,113.1" style="stroke:#181818;stroke-width:1.0;"/></g><!--link child A to grand child AA--><g id="link_child A_grand child AA"><path d="M383.7,150.75 C324.6,168.39 224.1393,198.3838 153.6193,219.4338 " fill="none" id="child A-to-grand child AA" style="stroke:#181818;stroke-width:1.0;"/><polygon fill="#181818" points="147.87,221.15,157.6381,222.4087,152.6611,219.7199,155.3499,214.7429,147.87,221.15" style="stroke:#181818;stroke-width:1.0;"/></g><!--link child A to grand child AB--><g id="link_child A_grand child AB"><path d="M389.34,160.4 C359.99,177.93 324.7015,198.9939 295.3615,216.5139 " fill="none" id="child A-to-grand child AB" style="stroke:#181818;stroke-width:1.0;"/><polygon fill="#181818" points="290.21,219.59,299.9879,218.4101,294.5029,217.0266,295.8864,211.5415,290.21,219.59" style="stroke:#181818;stroke-width:1.0;"/></g><!--link child A to grand child AC--><g id="link_child A_grand child AC"><path d="M427.32,160.4 C427.32,177.93 427.32,196.07 427.32,213.59 " fill="none" id="child A-to-grand child AC" style="stroke:#181818;stroke-width:1.0;"/><polygon fill="#181818" points="427.32,219.59,431.32,210.59,427.32,214.59,423.32,210.59,427.32,219.59" style="stroke:#181818;stroke-width:1.0;"/></g><!--link child A to grand child AD--><g id="link_child A_grand child AD"><path d="M465.51,160.4 C495.03,177.93 530.5412,199.0062 560.0412,216.5262 " fill="none" id="child A-to-grand child AD" style="stroke:#181818;stroke-width:1.0;"/><polygon fill="#181818" points="565.2,219.59,559.5043,211.5551,560.901,217.0368,555.4193,218.4335,565.2,219.59" style="stroke:#181818;stroke-width:1.0;"/></g><!--link child B to grand child BA--><g id="link_child B_grand child BA"><path d="M688.27,160.4 C707.56,177.93 729.6895,198.0349 748.9695,215.5549 " fill="none" id="child B-to-grand child BA" style="stroke:#181818;stroke-width:1.0;"/><polygon fill="#181818" points="753.41,219.59,749.4394,210.577,749.7096,216.2274,744.0592,216.4976,753.41,219.59" style="stroke:#181818;stroke-width:1.0;"/></g><!--link grand child BA to grand grand child BAA--><g id="link_grand child BA_grand grand child BAA"><path d="M778.32,266.89 C778.32,284.42 778.32,302.56 778.32,320.08 " fill="none" id="grand child BA-to-grand grand child BAA" style="stroke:#181818;stroke-width:1.0;"/><polygon fill="#181818" points="778.32,326.08,782.32,317.08,778.32,321.08,774.32,317.08,778.32,326.08" style="stroke:#181818;stroke-width:1.0;"/></g><!--SRC=[YoxApo-9vUAA1jCAkhfs2j796PavAGgEiLW4dR09EeFqmpH19DAB4lDI5A1Y89FmI3lXbtR6B-s2iDm9YxmJo78q0MHLg590nG00]--></g></svg>