<?xml version="1.0" encoding="UTF-8" standalone="no"?><svg xmlns="http://www.w3.org/2000/svg" xmlns:xlink="http://www.w3.org/1999/xlink" contentStyleType="text/css" height="129px" preserveAspectRatio="none" style="width:1558px;height:129px;background:#FFFFFF;" version="1.1" viewBox="0 0 1558 129" width="1558px" zoomAndPan="magnify"><defs/><g><!--entity root--><g id="elem_root"><rect fill="#F1F1F1" height="46.4883" rx="2.5" ry="2.5" style="stroke:#181818;stroke-width:0.5;" width="69" x="7" y="77.08"/><rect fill="#F1F1F1" height="10" style="stroke:#181818;stroke-width:0.5;" width="15" x="56" y="82.08"/><rect fill="#F1F1F1" height="2" style="stroke:#181818;stroke-width:0.5;" width="4" x="54" y="84.08"/><rect fill="#F1F1F1" height="2" style="stroke:#181818;stroke-width:0.5;" width="4" x="54" y="88.08"/><text fill="#000000" font-family="sans-serif" font-size="14" lengthAdjust="spacing" textLength="29" x="22" y="110.6152">root</text></g><!--entity child A--><g id="elem_child A"><rect fill="#F1F1F1" height="46.4883" rx="2.5" ry="2.5" style="stroke:#181818;stroke-width:0.5;" width="87" x="759" y="77.08"/><rect fill="#F1F1F1" height="10" style="stroke:#181818;stroke-width:0.5;" width="15" x="826" y="82.08"/><rect fill="#F1F1F1" height="2" style="stroke:#181818;stroke-width:0.5;" width="4" x="824" y="84.08"/><rect fill="#F1F1F1" height="2" style="stroke:#181818;stroke-width:0.5;" width="4" x="824" y="88.08"/><text fill="#000000" font-family="sans-serif" font-size="14" lengthAdjust="spacing" textLength="47" x="774" y="110.6152">child A</text></g><!--entity child B--><g id="elem_child B"><rect fill="#F1F1F1" height="46.4883" rx="2.5" ry="2.5" style="stroke:#181818;stroke-width:0.5;" width="85" x="233" y="77.08"/><rect fill="#F1F1F1" height="10" style="stroke:#181818;stroke-width:0.5;" width="15" x="298" y="82.08"/><rect fill="#F1F1F1" height="2" style="stroke:#181818;stroke-width:0.5;" width="4" x="296" y="84.08"/><rect fill="#F1F1F1" height="2" style="stroke:#181818;stroke-width:0.5;" width="4" x="296" y="88.08"/><text fill="#000000" font-family="sans-serif" font-size="14" lengthAdjust="spacing" textLength="45" x="248" y="110.6152">child B</text></g><!--entity child C--><g id="elem_child C"><rect fill="#F1F1F1" height="46.4883" rx="2.5" ry="2.5" style="stroke:#181818;stroke-width:0.5;" width="87" x="111" y="77.08"/><rect fill="#F1F1F1" height="10" style="stroke:#181818;stroke-width:0.5;" width="15" x="178" y="82.08"/><rect fill="#F1F1F1" height="2" style="stroke:#181818;stroke-width:0.5;" width="4" x="176" y="84.08"/><rect fill="#F1F1F1" height="2" style="stroke:#181818;stroke-width:0.5;" width="4" x="176" y="88.08"/><text fill="#000000" font-family="sans-serif" font-size="14" lengthAdjust="spacing" textLength="47" x="126" y="110.6152">child C</text></g><!--entity grand child AA--><g id="elem_grand child AA"><rect fill="#F1F1F1" height="46.4883" rx="2.5" ry="2.5" style="stroke:#181818;stroke-width:0.5;" width="142" x="1410.5" y="77.08"/><rect fill="#F1F1F1" height="10" style="stroke:#181818;stroke-width:0.5;" width="15" x="1532.5" y="82.08"/><rect fill="#F1F1F1" height="2" style="stroke:#181818;stroke-width:0.5;" width="4" x="1530.5" y="84.08"/><rect fill="#F1F1F1" height="2" style="stroke:#181818;stroke-width:0.5;" width="4" x="1530.5" y="88.08"/><text fill="#000000" font-family="sans-serif" font-size="14" lengthAdjust="spacing" textLength="102" x="1425.5" y="110.6152">grand child AA</text></g><!--entity grand child AB--><g id="elem_grand child AB"><rect fill="#F1F1F1" height="46.4883" rx="2.5" ry="2.5" style="stroke:#181818;stroke-width:0.5;" width="140" x="1235.5" y="77.08"/><rect fill="#F1F1F1" height="10" style="stroke:#181818;stroke-width:0.5;" width="15" x="1355.5" y="82.08"/><rect fill="#F1F1F1" height="2" style="stroke:#181818;stroke-width:0.5;" width="4" x="1353.5" y="84.08"/><rect fill="#F1F1F1" height="2" style="stroke:#181818;stroke-width:0.5;" width="4" x="1353.5" y="88.08"/><text fill="#000000" font-family="sans-serif" font-size="14" lengthAdjust="spacing" textLength="100" x="1250.5" y="110.6152">grand child AB</text></g><!--entity grand child AC--><g id="elem_grand child AC"><rect fill="#F1F1F1" height="46.4883" rx="2.5" ry="2.5" style="stroke:#181818;stroke-width:0.5;" width="142" x="1058.5" y="77.08"/><rect fill="#F1F1F1" height="10" style="stroke:#181818;stroke-width:0.5;" width="15" x="1180.5" y="82.08"/><rect fill="#F1F1F1" height="2" style="stroke:#181818;stroke-width:0.5;" width="4" x="1178.5" y="84.08"/><rect fill="#F1F1F1" height="2" style="stroke:#181818;stroke-width:0.5;" width="4" x="1178.5" y="88.08"/><text fill="#000000" font-family="sans-serif" font-size="14" lengthAdjust="spacing" textLength="102" x="1073.5" y="110.6152">grand child AC</text></g><!--entity grand child AD--><g id="elem_grand child AD"><rect fill="#F1F1F1" height="46.4883" rx="2.5" ry="2.5" style="stroke:#181818;stroke-width:0.5;" width="142" x="881.5" y="77.08"/><rect fill="#F1F1F1" height="10" style="stroke:#181818;stroke-width:0.5;" width="15" x="1003.5" y="82.08"/><rect fill="#F1F1F1" height="2" style="stroke:#181818;stroke-width:0.5;" width="4" x="1001.5" y="84.08"/><rect fill="#F1F1F1" height="2" style="stroke:#181818;stroke-width:0.5;" width="4" x="1001.5" y="88.08"/><text fill="#000000" font-family="sans-serif" font-size="14" lengthAdjust="spacing" textLength="102" x="896.5" y="110.6152">grand child AD</text></g><!--entity grand child BA--><g id="elem_grand child BA"><rect fill="#F1F1F1" height="46.4883" rx="2.5" ry="2.5" style="stroke:#181818;stroke-width:0.5;" width="140" x="353.5" y="77.08"/><rect fill="#F1F1F1" height="10" style="stroke:#181818;stroke-width:0.5;" width="15" x="473.5" y="82.08"/><rect fill="#F1F1F1" height="2" style="stroke:#181818;stroke-width:0.5;" width="4" x="471.5" y="84.08"/><rect fill="#F1F1F1" height="2" style="stroke:#181818;stroke-width:0.5;" width="4" x="471.5" y="88.08"/><text fill="#000000" font-family="sans-serif" font-size="14" lengthAdjust="spacing" textLength="100" x="368.5" y="110.6152">grand child BA</text></g><!--entity grand grand child BAA--><g id="elem_grand grand child BAA"><rect fill="#F1F1F1" height="46.4883" rx="2.5" ry="2.5" style="stroke:#181818;stroke-width:0.5;" width="195" x="529" y="77.08"/><rect fill="#F1F1F1" height="10" style="stroke:#181818;stroke-width:0.5;" width="15" x="704" y="82.08"/><rect fill="#F1F1F1" height="2" style="stroke:#181818;stroke-width:0.5;" width="4" x="702" y="84.08"/><rect fill="#F1F1F1" height="2" style="stroke:#181818;stroke-width:0.5;" width="4" x="702" y="88.08"/><text fill="#000000" font-family="sans-serif" font-size="14" lengthAdjust="spacing" textLength="155" x="544" y="110.6152">grand grand child BAA</text></g><!--link root to child A--><g id="link_root_child A"><path d="M64.28,76.59 C76.85,65.32 93.46,53 111,47.08 C175.53,25.28 658.87,27.15 724,47.08 C741.23,52.35 758.08,62.82 771.73,73.06 " fill="none" id="root-to-child A" style="stroke:#181818;stroke-width:1.0;"/><polygon fill="#181818" points="775.41,75.9,770.7333,67.2323,771.4533,72.8432,765.8424,73.5631,775.41,75.9" style="stroke:#181818;stroke-width:1.0;"/></g><!--link root to child B--><g id="link_root_child B"><path d="M64.28,76.59 C76.85,65.32 93.46,53 111,47.08 C147.63,34.71 161.06,35.66 198,47.08 C215.06,52.36 231.71,62.82 245.18,73.07 " fill="none" id="root-to-child B" style="stroke:#181818;stroke-width:1.0;"/><polygon fill="#181818" points="248.8,75.89,244.1581,67.2036,244.8555,72.8173,239.2419,73.5148,248.8,75.89" style="stroke:#181818;stroke-width:1.0;"/></g><!--link root to child C--><g id="link_root_child C"><path d="M76.37,100.08 C85.63,100.08 94.89,100.08 104.14,100.08 " fill="none" id="root-to-child C" style="stroke:#181818;stroke-width:1.0;"/><polygon fill="#181818" points="109.04,100.08,100.04,96.08,104.04,100.08,100.04,104.08,109.04,100.08" style="stroke:#181818;stroke-width:1.0;"/></g><!--link child A to grand child AA--><g id="link_child A_grand child AA"><path d="M828.77,76.82 C843.36,65.46 862.47,52.99 882,47.08 C987.07,15.27 1269.18,21.76 1376,47.08 C1398.42,52.4 1421.5,63.27 1440.33,73.78 " fill="none" id="child A-to-grand child AA" style="stroke:#181818;stroke-width:1.0;"/><polygon fill="#181818" points="1444.21,75.99,1438.3663,68.0621,1439.8644,73.517,1434.4095,75.0151,1444.21,75.99" style="stroke:#181818;stroke-width:1.0;"/></g><!--link child A to grand child AB--><g id="link_child A_grand child AB"><path d="M828.77,76.82 C843.36,65.46 862.47,52.99 882,47.08 C1017.69,6 1063.11,14.11 1201,47.08 C1223.05,52.35 1245.71,63.08 1264.27,73.52 " fill="none" id="child A-to-grand child AB" style="stroke:#181818;stroke-width:1.0;"/><polygon fill="#181818" points="1268.58,75.99,1262.756,68.0477,1264.2405,73.5062,1258.782,74.9908,1268.58,75.99" style="stroke:#181818;stroke-width:1.0;"/></g><!--link child A to grand child AC--><g id="link_child A_grand child AC"><path d="M828.77,76.82 C843.36,65.46 862.47,52.99 882,47.08 C942.4,28.79 962.59,32.52 1024,47.08 C1046.42,52.4 1069.5,63.27 1088.33,73.78 " fill="none" id="child A-to-grand child AC" style="stroke:#181818;stroke-width:1.0;"/><polygon fill="#181818" points="1092.21,75.99,1086.3663,68.0621,1087.8644,73.517,1082.4095,75.0151,1092.21,75.99" style="stroke:#181818;stroke-width:1.0;"/></g><!--link child A to grand child AD--><g id="link_child A_grand child AD"><path d="M846.45,100.08 C855.96,100.08 865.48,100.08 874.99,100.08 " fill="none" id="child A-to-grand child AD" style="stroke:#181818;stroke-width:1.0;"/><polygon fill="#181818" points="879.73,100.08,870.73,96.08,874.73,100.08,870.73,104.08,879.73,100.08" style="stroke:#181818;stroke-width:1.0;"/></g><!--link child B to grand child BA--><g id="link_child B_grand child BA"><path d="M318.28,100.08 C327.83,100.08 337.39,100.08 346.94,100.08 " fill="none" id="child B-to-grand child BA" style="stroke:#181818;stroke-width:1.0;"/><polygon fill="#181818" points="351.7,100.08,342.7,96.08,346.7,100.08,342.7,104.08,351.7,100.08" style="stroke:#181818;stroke-width:1.0;"/></g><!--link grand child BA to grand grand child BAA--><g id="link_grand child BA_grand grand child BAA"><path d="M493.68,100.08 C503.25,100.08 512.83,100.08 522.41,100.08 " fill="none" id="grand child BA-to-grand grand child BAA" style="stroke:#181818;stroke-width:1.0;"/><polygon fill="#181818" points="527.19,100.08,518.19,96.08,522.19,100.08,518.19,104.08,527.19,100.08" style="stroke:#181818;stroke-width:1.0;"/></g><!--SRC=[YoxApo-9vUAA1jCAkdOAqSaPcJaf2ewnc69EMCISGPfXMi3YwKM9UIaAK26GCRXbdV3AEkELTK5Ox8GfxGIo64q0IH6g350j0000]--></g></svg>