<?xml version="1.0" encoding="UTF-8" standalone="no"?><svg xmlns="http://www.w3.org/2000/svg" xmlns:xlink="http://www.w3.org/1999/xlink" contentStyleType="text/css" height="129px" preserveAspectRatio="none" style="width:1558px;height:129px;background:#FFFFFF;" version="1.1" viewBox="0 0 1558 129" width="1558px" zoomAndPan="magnify"><defs/><g><!--MD5=[eab4eb7d0ef44c19c3b4c8ba4c3c2b5b]
entity root--><g id="elem_root"><rect fill="#F1F1F1" height="46.4883" rx="2.5" ry="2.5" style="stroke:#181818;stroke-width:0.5;" width="69" x="7" y="77.08"/><rect fill="#F1F1F1" height="10" style="stroke:#181818;stroke-width:0.5;" width="15" x="56" y="82.08"/><rect fill="#F1F1F1" height="2" style="stroke:#181818;stroke-width:0.5;" width="4" x="54" y="84.08"/><rect fill="#F1F1F1" height="2" style="stroke:#181818;stroke-width:0.5;" width="4" x="54" y="88.08"/><text fill="#000000" font-family="sans-serif" font-size="14" lengthAdjust="spacing" textLength="29" x="22" y="110.6152">root</text></g><!--MD5=[0f81b4eb8ecd762ea104c8f688a841b9]
entity child A--><g id="elem_child A"><rect fill="#F1F1F1" height="46.4883" rx="2.5" ry="2.5" style="stroke:#181818;stroke-width:0.5;" width="87" x="759" y="77.08"/><rect fill="#F1F1F1" height="10" style="stroke:#181818;stroke-width:0.5;" width="15" x="826" y="82.08"/><rect fill="#F1F1F1" height="2" style="stroke:#181818;stroke-width:0.5;" width="4" x="824" y="84.08"/><rect fill="#F1F1F1" height="2" style="stroke:#181818;stroke-width:0.5;" width="4" x="824" y="88.08"/><text fill="#000000" font-family="sans-serif" font-size="14" lengthAdjust="spacing" textLength="47" x="774" y="110.6152">child A</text></g><!--MD5=[e84c6178ed3a42cf105509d333e73f6b]
entity child B--><g id="elem_child B"><rect fill="#F1F1F1" height="46.4883" rx="2.5" ry="2.5" style="stroke:#181818;stroke-width:0.5;" width="85" x="233" y="77.08"/><rect fill="#F1F1F1" height="10" style="stroke:#181818;stroke-width:0.5;" width="15" x="298" y="82.08"/><rect fill="#F1F1F1" height="2" style="stroke:#181818;stroke-width:0.5;" width="4" x="296" y="84.08"/><rect fill="#F1F1F1" height="2" style="stroke:#181818;stroke-width:0.5;" width="4" x="296" y="88.08"/><text fill="#000000" font-family="sans-serif" font-size="14" lengthAdjust="spacing" textLength="45" x="248" y="110.6152">child B</text></g><!--MD5=[bbdbc496aceeca5393193bdc429a74a2]
entity child C--><g id="elem_child C"><rect fill="#F1F1F1" height="46.4883" rx="2.5" ry="2.5" style="stroke:#181818;stroke-width:0.5;" width="87" x="111" y="77.08"/><rect fill="#F1F1F1" height="10" style="stroke:#181818;stroke-width:0.5;" width="15" x="178" y="82.08"/><rect fill="#F1F1F1" height="2" style="stroke:#181818;stroke-width:0.5;" width="4" x="176" y="84.08"/><rect fill="#F1F1F1" height="2" style="stroke:#181818;stroke-width:0.5;" width="4" x="176" y="88.08"/><text fill="#000000" font-family="sans-serif" font-size="14" lengthAdjust="spacing" textLength="47" x="126" y="110.6152">child C</text></g><!--MD5=[1b7ebeb1aa7f5c341056607aecfc9a5e]
entity grand child AA--><g id="elem_grand child AA"><rect fill="#F1F1F1" height="46.4883" rx="2.5" ry="2.5" style="stroke:#181818;stroke-width:0.5;" width="142" x="1410.5" y="77.08"/><rect fill="#F1F1F1" height="10" style="stroke:#181818;stroke-width:0.5;" width="15" x="1532.5" y="82.08"/><rect fill="#F1F1F1" height="2" style="stroke:#181818;stroke-width:0.5;" width="4" x="1530.5" y="84.08"/><rect fill="#F1F1F1" height="2" style="stroke:#181818;stroke-width:0.5;" width="4" x="1530.5" y="88.08"/><text fill="#000000" font-family="sans-serif" font-size="14" lengthAdjust="spacing" textLength="102" x="1425.5" y="110.6152">grand child AA</text></g><!--MD5=[4d2954989c76d43c1cada438a600184a]
entity grand child AB--><g id="elem_grand child AB"><rect fill="#F1F1F1" height="46.4883" rx="2.5" ry="2.5" style="stroke:#181818;stroke-width:0.5;" width="140" x="1235.5" y="77.08"/><rect fill="#F1F1F1" height="10" style="stroke:#181818;stroke-width:0.5;" width="15" x="1355.5" y="82.08"/><rect fill="#F1F1F1" height="2" style="stroke:#181818;stroke-width:0.5;" width="4" x="1353.5" y="84.08"/><rect fill="#F1F1F1" height="2" style="stroke:#181818;stroke-width:0.5;" width="4" x="1353.5" y="88.08"/><text fill="#000000" font-family="sans-serif" font-size="14" lengthAdjust="spacing" textLength="100" x="1250.5" y="110.6152">grand child AB</text></g><!--MD5=[d8c879e259e1b39f8e9a290af26656a5]
entity grand child AC--><g id="elem_grand child AC"><rect fill="#F1F1F1" height="46.4883" rx="2.5" ry="2.5" style="stroke:#181818;stroke-width:0.5;" width="142" x="1058.5" y="77.08"/><rect fill="#F1F1F1" height="10" style="stroke:#181818;stroke-width:0.5;" width="15" x="1180.5" y="82.08"/><rect fill="#F1F1F1" height="2" style="stroke:#181818;stroke-width:0.5;" width="4" x="1178.5" y="84.08"/><rect fill="#F1F1F1" height="2" style="stroke:#181818;stroke-width:0.5;" width="4" x="1178.5" y="88.08"/><text fill="#000000" font-family="sans-serif" font-size="14" lengthAdjust="spacing" textLength="102" x="1073.5" y="110.6152">grand child AC</text></g><!--MD5=[5e470320613d12f1a8d9697f7b67a093]
entity grand child AD--><g id="elem_grand child AD"><rect fill="#F1F1F1" height="46.4883" rx="2.5" ry="2.5" style="stroke:#181818;stroke-width:0.5;" width="142" x="881.5" y="77.08"/><rect fill="#F1F1F1" height="10" style="stroke:#181818;stroke-width:0.5;" width="15" x="1003.5" y="82.08"/><rect fill="#F1F1F1" height="2" style="stroke:#181818;stroke-width:0.5;" width="4" x="1001.5" y="84.08"/><rect fill="#F1F1F1" height="2" style="stroke:#181818;stroke-width:0.5;" width="4" x="1001.5" y="88.08"/><text fill="#000000" font-family="sans-serif" font-size="14" lengthAdjust="spacing" textLength="102" x="896.5" y="110.6152">grand child AD</text></g><!--MD5=[64043cb8adbc2770e07722461e9786fb]
entity grand child BA--><g id="elem_grand child BA"><rect fill="#F1F1F1" height="46.4883" rx="2.5" ry="2.5" style="stroke:#181818;stroke-width:0.5;" width="140" x="353.5" y="77.08"/><rect fill="#F1F1F1" height="10" style="stroke:#181818;stroke-width:0.5;" width="15" x="473.5" y="82.08"/><rect fill="#F1F1F1" height="2" style="stroke:#181818;stroke-width:0.5;" width="4" x="471.5" y="84.08"/><rect fill="#F1F1F1" height="2" style="stroke:#181818;stroke-width:0.5;" width="4" x="471.5" y="88.08"/><text fill="#000000" font-family="sans-serif" font-size="14" lengthAdjust="spacing" textLength="100" x="368.5" y="110.6152">grand child BA</text></g><!--MD5=[03b1ccc2d6c5f3bff3eb9f1da9d74c84]
entity grand grand child BAA--><g id="elem_grand grand child BAA"><rect fill="#F1F1F1" height="46.4883" rx="2.5" ry="2.5" style="stroke:#181818;stroke-width:0.5;" width="195" x="529" y="77.08"/><rect fill="#F1F1F1" height="10" style="stroke:#181818;stroke-width:0.5;" width="15" x="704" y="82.08"/><rect fill="#F1F1F1" height="2" style="stroke:#181818;stroke-width:0.5;" width="4" x="702" y="84.08"/><rect fill="#F1F1F1" height="2" style="stroke:#181818;stroke-width:0.5;" width="4" x="702" y="88.08"/><text fill="#000000" font-family="sans-serif" font-size="14" lengthAdjust="spacing" textLength="155" x="544" y="110.6152">grand grand child BAA</text></g><!--MD5=[7206a79cfa5cc1d0e0a37b5cad6beec7]
link root to child A--><g id="link_root_child A"><path d="M63.97,76.86 C76.58,65.52 93.32,53.05 111,47.08 C175.53,25.28 658.87,27.15 724,47.08 C741.53,52.44 758.67,63.18 772.45,73.6 " fill="none" id="root-to-child A" style="stroke:#181818;stroke-width:1.0;"/><polygon fill="#181818" points="776.61,76.82,771.9333,68.1523,772.6533,73.7632,767.0424,74.4831,776.61,76.82" style="stroke:#181818;stroke-width:1.0;"/></g><!--MD5=[f3ce6e170a682a9f3487132279c7794c]
link root to child B--><g id="link_root_child B"><path d="M63.97,76.86 C76.58,65.52 93.32,53.05 111,47.08 C147.63,34.71 161.06,35.66 198,47.08 C215.36,52.45 232.29,63.19 245.88,73.61 " fill="none" id="root-to-child B" style="stroke:#181818;stroke-width:1.0;"/><polygon fill="#181818" points="249.99,76.82,245.3481,68.1336,246.0455,73.7473,240.4319,74.4448,249.99,76.82" style="stroke:#181818;stroke-width:1.0;"/></g><!--MD5=[a71533a1d64ea030ce4f0f0ea76c6557]
link root to child C--><g id="link_root_child C"><path d="M76.37,100.08 C86.16,100.08 95.95,100.08 105.74,100.08 " fill="none" id="root-to-child C" style="stroke:#181818;stroke-width:1.0;"/><polygon fill="#181818" points="110.86,100.08,101.86,96.08,105.86,100.08,101.86,104.08,110.86,100.08" style="stroke:#181818;stroke-width:1.0;"/></g><!--MD5=[0ca5d45af0076a961edeb5a625bc3e9c]
link child A to grand child AA--><g id="link_child A_grand child AA"><path d="M828.77,76.82 C843.36,65.46 862.47,52.99 882,47.08 C987.07,15.27 1269.18,21.76 1376,47.08 C1398.8,52.48 1422.27,63.63 1441.27,74.31 " fill="none" id="child A-to-grand child AA" style="stroke:#181818;stroke-width:1.0;"/><polygon fill="#181818" points="1446,77.01,1440.1873,69.0594,1441.6641,74.5201,1436.2034,75.9969,1446,77.01" style="stroke:#181818;stroke-width:1.0;"/></g><!--MD5=[d3a72499ffd7a323443aa4ba1b6b24af]
link child A to grand child AB--><g id="link_child A_grand child AB"><path d="M828.77,76.82 C843.36,65.46 862.47,52.99 882,47.08 C1017.69,6 1063.11,14.11 1201,47.08 C1223.62,52.49 1246.87,63.63 1265.68,74.31 " fill="none" id="child A-to-grand child AB" style="stroke:#181818;stroke-width:1.0;"/><polygon fill="#181818" points="1270.37,77.02,1264.577,69.055,1266.0403,74.5193,1260.5759,75.9826,1270.37,77.02" style="stroke:#181818;stroke-width:1.0;"/></g><!--MD5=[5bf6c7c80210143bbd4cf4cd87197e30]
link child A to grand child AC--><g id="link_child A_grand child AC"><path d="M828.77,76.82 C843.36,65.46 862.47,52.99 882,47.08 C942.4,28.79 962.59,32.52 1024,47.08 C1046.8,52.48 1070.27,63.63 1089.27,74.31 " fill="none" id="child A-to-grand child AC" style="stroke:#181818;stroke-width:1.0;"/><polygon fill="#181818" points="1094,77.01,1088.1873,69.0594,1089.6641,74.5201,1084.2034,75.9969,1094,77.01" style="stroke:#181818;stroke-width:1.0;"/></g><!--MD5=[05ecec067105753c3a4881c5e21f0694]
link child A to grand child AD--><g id="link_child A_grand child AD"><path d="M846.15,100.08 C856.18,100.08 866.2,100.08 876.22,100.08 " fill="none" id="child A-to-grand child AD" style="stroke:#181818;stroke-width:1.0;"/><polygon fill="#181818" points="881.46,100.08,872.46,96.08,876.46,100.08,872.46,104.08,881.46,100.08" style="stroke:#181818;stroke-width:1.0;"/></g><!--MD5=[79896397006b7aa02350609d3814abda]
link child B to grand child BA--><g id="link_child B_grand child BA"><path d="M318.28,100.08 C328.2,100.08 338.11,100.08 348.03,100.08 " fill="none" id="child B-to-grand child BA" style="stroke:#181818;stroke-width:1.0;"/><polygon fill="#181818" points="353.22,100.08,344.22,96.08,348.22,100.08,344.22,104.08,353.22,100.08" style="stroke:#181818;stroke-width:1.0;"/></g><!--MD5=[1d329010c61158caf1646116da933c89]
link grand child BA to grand grand child BAA--><g id="link_grand child BA_grand grand child BAA"><path d="M493.68,100.08 C503.69,100.08 513.71,100.08 523.72,100.08 " fill="none" id="grand child BA-to-grand grand child BAA" style="stroke:#181818;stroke-width:1.0;"/><polygon fill="#181818" points="528.96,100.08,519.96,96.08,523.96,100.08,519.96,104.08,528.96,100.08" style="stroke:#181818;stroke-width:1.0;"/></g><!--MD5=[c17607a53ee7058f6e713512126d1a7f]
@startuml

[root]

[root] -> [child A]
[root] -> [child B]
[root] -> [child C]

[child A] -> [grand child AA]
[child A] -> [grand child AB]
[child A] -> [grand child AC]
[child A] -> [grand child AD]

[child B] -> [grand child BA]
[grand child BA] -> [grand grand child BAA]

@enduml

PlantUML version 1.2022.8(Sun Sep 25 02:00:33 PDT 2022)
(GPL source distribution)
Java Runtime: OpenJDK Runtime Environment
JVM: OpenJDK 64-Bit Server VM
Default Encoding: UTF-8
Language: en
Country: US
--></g></svg>