<?xml version="1.0" encoding="UTF-8" standalone="no"?><svg xmlns="http://www.w3.org/2000/svg" xmlns:xlink="http://www.w3.org/1999/xlink" contentStyleType="text/css" height="377px" preserveAspectRatio="none" style="width:886px;height:377px;background:#FFFFFF;" version="1.1" viewBox="0 0 886 377" width="886px" zoomAndPan="magnify"><defs/><g><!--entity root--><g id="elem_root"><rect fill="#F1F1F1" height="46.4883" rx="2.5" ry="2.5" style="stroke:#181818;stroke-width:0.5;" width="69" x="632.5" y="7"/><rect fill="#F1F1F1" height="10" style="stroke:#181818;stroke-width:0.5;" width="15" x="681.5" y="12"/><rect fill="#F1F1F1" height="2" style="stroke:#181818;stroke-width:0.5;" width="4" x="679.5" y="14"/><rect fill="#F1F1F1" height="2" style="stroke:#181818;stroke-width:0.5;" width="4" x="679.5" y="18"/><text fill="#000000" font-family="sans-serif" font-size="14" lengthAdjust="spacing" textLength="29" x="647.5" y="40.5352">root</text></g><!--entity child A--><g id="elem_child A"><rect fill="#F1F1F1" height="46.4883" rx="2.5" ry="2.5" style="stroke:#181818;stroke-width:0.5;" width="87" x="386.5" y="113"/><rect fill="#F1F1F1" height="10" style="stroke:#181818;stroke-width:0.5;" width="15" x="453.5" y="118"/><rect fill="#F1F1F1" height="2" style="stroke:#181818;stroke-width:0.5;" width="4" x="451.5" y="120"/><rect fill="#F1F1F1" height="2" style="stroke:#181818;stroke-width:0.5;" width="4" x="451.5" y="124"/><text fill="#000000" font-family="sans-serif" font-size="14" lengthAdjust="spacing" textLength="47" x="401.5" y="146.5352">child A</text></g><!--entity child B--><g id="elem_child B"><rect fill="#F1F1F1" height="46.4883" rx="2.5" ry="2.5" style="stroke:#181818;stroke-width:0.5;" width="85" x="624.5" y="113"/><rect fill="#F1F1F1" height="10" style="stroke:#181818;stroke-width:0.5;" width="15" x="689.5" y="118"/><rect fill="#F1F1F1" height="2" style="stroke:#181818;stroke-width:0.5;" width="4" x="687.5" y="120"/><rect fill="#F1F1F1" height="2" style="stroke:#181818;stroke-width:0.5;" width="4" x="687.5" y="124"/><text fill="#000000" font-family="sans-serif" font-size="14" lengthAdjust="spacing" textLength="45" x="639.5" y="146.5352">child B</text></g><!--entity child C--><g id="elem_child C"><rect fill="#F1F1F1" height="46.4883" rx="2.5" ry="2.5" style="stroke:#181818;stroke-width:0.5;" width="87" x="744.5" y="113"/><rect fill="#F1F1F1" height="10" style="stroke:#181818;stroke-width:0.5;" width="15" x="811.5" y="118"/><rect fill="#F1F1F1" height="2" style="stroke:#181818;stroke-width:0.5;" width="4" x="809.5" y="120"/><rect fill="#F1F1F1" height="2" style="stroke:#181818;stroke-width:0.5;" width="4" x="809.5" y="124"/><text fill="#000000" font-family="sans-serif" font-size="14" lengthAdjust="spacing" textLength="47" x="759.5" y="146.5352">child C</text></g><!--entity grand child AA--><g id="elem_grand child AA"><rect fill="#F1F1F1" height="46.4883" rx="2.5" ry="2.5" style="stroke:#181818;stroke-width:0.5;" width="142" x="7" y="219"/><rect fill="#F1F1F1" height="10" style="stroke:#181818;stroke-width:0.5;" width="15" x="129" y="224"/><rect fill="#F1F1F1" height="2" style="stroke:#181818;stroke-width:0.5;" width="4" x="127" y="226"/><rect fill="#F1F1F1" height="2" style="stroke:#181818;stroke-width:0.5;" width="4" x="127" y="230"/><text fill="#000000" font-family="sans-serif" font-size="14" lengthAdjust="spacing" textLength="102" x="22" y="252.5352">grand child AA</text></g><!--entity grand child AB--><g id="elem_grand child AB"><rect fill="#F1F1F1" height="46.4883" rx="2.5" ry="2.5" style="stroke:#181818;stroke-width:0.5;" width="140" x="184" y="219"/><rect fill="#F1F1F1" height="10" style="stroke:#181818;stroke-width:0.5;" width="15" x="304" y="224"/><rect fill="#F1F1F1" height="2" style="stroke:#181818;stroke-width:0.5;" width="4" x="302" y="226"/><rect fill="#F1F1F1" height="2" style="stroke:#181818;stroke-width:0.5;" width="4" x="302" y="230"/><text fill="#000000" font-family="sans-serif" font-size="14" lengthAdjust="spacing" textLength="100" x="199" y="252.5352">grand child AB</text></g><!--entity grand child AC--><g id="elem_grand child AC"><rect fill="#F1F1F1" height="46.4883" rx="2.5" ry="2.5" style="stroke:#181818;stroke-width:0.5;" width="142" x="359" y="219"/><rect fill="#F1F1F1" height="10" style="stroke:#181818;stroke-width:0.5;" width="15" x="481" y="224"/><rect fill="#F1F1F1" height="2" style="stroke:#181818;stroke-width:0.5;" width="4" x="479" y="226"/><rect fill="#F1F1F1" height="2" style="stroke:#181818;stroke-width:0.5;" width="4" x="479" y="230"/><text fill="#000000" font-family="sans-serif" font-size="14" lengthAdjust="spacing" textLength="102" x="374" y="252.5352">grand child AC</text></g><!--entity grand child AD--><g id="elem_grand child AD"><rect fill="#F1F1F1" height="46.4883" rx="2.5" ry="2.5" style="stroke:#181818;stroke-width:0.5;" width="142" x="536" y="219"/><rect fill="#F1F1F1" height="10" style="stroke:#181818;stroke-width:0.5;" width="15" x="658" y="224"/><rect fill="#F1F1F1" height="2" style="stroke:#181818;stroke-width:0.5;" width="4" x="656" y="226"/><rect fill="#F1F1F1" height="2" style="stroke:#181818;stroke-width:0.5;" width="4" x="656" y="230"/><text fill="#000000" font-family="sans-serif" font-size="14" lengthAdjust="spacing" textLength="102" x="551" y="252.5352">grand child AD</text></g><!--entity grand child BA--><g id="elem_grand child BA"><rect fill="#F1F1F1" height="46.4883" rx="2.5" ry="2.5" style="stroke:#181818;stroke-width:0.5;" width="140" x="713" y="219"/><rect fill="#F1F1F1" height="10" style="stroke:#181818;stroke-width:0.5;" width="15" x="833" y="224"/><rect fill="#F1F1F1" height="2" style="stroke:#181818;stroke-width:0.5;" width="4" x="831" y="226"/><rect fill="#F1F1F1" height="2" style="stroke:#181818;stroke-width:0.5;" width="4" x="831" y="230"/><text fill="#000000" font-family="sans-serif" font-size="14" lengthAdjust="spacing" textLength="100" x="728" y="252.5352">grand child BA</text></g><!--entity grand grand child BAA--><g id="elem_grand grand child BAA"><rect fill="#F1F1F1" height="46.4883" rx="2.5" ry="2.5" style="stroke:#181818;stroke-width:0.5;" width="195" x="685.5" y="325"/><rect fill="#F1F1F1" height="10" style="stroke:#181818;stroke-width:0.5;" width="15" x="860.5" y="330"/><rect fill="#F1F1F1" height="2" style="stroke:#181818;stroke-width:0.5;" width="4" x="858.5" y="332"/><rect fill="#F1F1F1" height="2" style="stroke:#181818;stroke-width:0.5;" width="4" x="858.5" y="336"/><text fill="#000000" font-family="sans-serif" font-size="14" lengthAdjust="spacing" textLength="155" x="700.5" y="358.5352">grand grand child BAA</text></g><!--link root to child A--><g id="link_root_child A"><path d="M632.03,46.35 C591.78,64.01 525.36,93.16 479.73,113.18 " fill="none" id="root-to-child A" style="stroke:#181818;stroke-width:1.0;"/><polygon fill="#181818" points="475.38,115.09,485.2286,115.1585,479.9631,113.0912,482.0305,107.8256,475.38,115.09" style="stroke:#181818;stroke-width:1.0;"/></g><!--link root to child B--><g id="link_root_child B"><path d="M667,53.31 C667,68.8 667,89.58 667,106.3 " fill="none" id="root-to-child B" style="stroke:#181818;stroke-width:1.0;"/><polygon fill="#181818" points="667,111.21,671,102.21,667,106.21,663,102.21,667,111.21" style="stroke:#181818;stroke-width:1.0;"/></g><!--link root to child C--><g id="link_root_child C"><path d="M692.96,53.31 C711.78,69.49 737.31,91.43 757.17,108.5 " fill="none" id="root-to-child C" style="stroke:#181818;stroke-width:1.0;"/><polygon fill="#181818" points="760.94,111.74,756.7291,102.8367,757.1508,108.4778,751.5096,108.8995,760.94,111.74" style="stroke:#181818;stroke-width:1.0;"/></g><!--link child A to grand child AA--><g id="link_child A_grand child AA"><path d="M386.13,149.96 C328.41,167.02 226.01,197.27 155.19,218.2 " fill="none" id="child A-to-grand child AA" style="stroke:#181818;stroke-width:1.0;"/><polygon fill="#181818" points="150.74,219.51,160.5036,220.8032,155.5361,218.0969,158.2425,213.1294,150.74,219.51" style="stroke:#181818;stroke-width:1.0;"/></g><!--link child A to grand child AB--><g id="link_child A_grand child AB"><path d="M392.24,159.31 C364.38,175.77 326.42,198.21 297.32,215.4 " fill="none" id="child A-to-grand child AB" style="stroke:#181818;stroke-width:1.0;"/><polygon fill="#181818" points="293.3,217.78,303.08,216.6178,297.5975,215.2243,298.991,209.7418,293.3,217.78" style="stroke:#181818;stroke-width:1.0;"/></g><!--link child A to grand child AC--><g id="link_child A_grand child AC"><path d="M430,159.31 C430,174.8 430,195.58 430,212.3 " fill="none" id="child A-to-grand child AC" style="stroke:#181818;stroke-width:1.0;"/><polygon fill="#181818" points="430,217.21,434,208.21,430,212.21,426,208.21,430,217.21" style="stroke:#181818;stroke-width:1.0;"/></g><!--link child A to grand child AD--><g id="link_child A_grand child AD"><path d="M467.97,159.31 C495.99,175.77 534.17,198.21 563.43,215.4 " fill="none" id="child A-to-grand child AD" style="stroke:#181818;stroke-width:1.0;"/><polygon fill="#181818" points="567.48,217.78,561.7576,209.7641,563.1725,215.2412,557.6955,216.6561,567.48,217.78" style="stroke:#181818;stroke-width:1.0;"/></g><!--link child B to grand child BA--><g id="link_child B_grand child BA"><path d="M691.88,159.31 C709.93,175.49 734.4,197.43 753.44,214.5 " fill="none" id="child B-to-grand child BA" style="stroke:#181818;stroke-width:1.0;"/><polygon fill="#181818" points="757.03,217.72,752.9971,208.7347,753.3064,214.3831,747.658,214.6924,757.03,217.72" style="stroke:#181818;stroke-width:1.0;"/></g><!--link grand child BA to grand grand child BAA--><g id="link_grand child BA_grand grand child BAA"><path d="M783,265.31 C783,280.8 783,301.58 783,318.3 " fill="none" id="grand child BA-to-grand grand child BAA" style="stroke:#181818;stroke-width:1.0;"/><polygon fill="#181818" points="783,323.21,787,314.21,783,318.21,779,314.21,783,323.21" style="stroke:#181818;stroke-width:1.0;"/></g><!--SRC=[YoxApo-9vUAA1jCAkhfs2j796PavAGgEiLW4dR09EeFqmpH19DAB4lDI5A1Y89FmI3lXbtR6B-s2iDm9YxmJo78q0MHLg590nG00]--></g></svg>