<?xml version="1.0" encoding="UTF-8" standalone="no"?>
<!DOCTYPE svg PUBLIC "-//W3C//DTD SVG 1.1//EN"
 "http://www.w3.org/Graphics/SVG/1.1/DTD/svg11.dtd">
<!-- Generated by graphviz version 12.2.1 (20241206.2353)
 -->
<!-- Title: G Pages: 1 -->
<svg width="275pt" height="187pt"
 viewBox="0.00 0.00 275.13 186.64" xmlns="http://www.w3.org/2000/svg" xmlns:xlink="http://www.w3.org/1999/xlink">
<g id="graph0" class="graph" transform="scale(1 1) rotate(0) translate(4 182.64)">
<title>G</title>
<polygon fill="white" stroke="none" points="-4,4 -4,-182.64 271.13,-182.64 271.13,4 -4,4"/>
<!-- parse -->
<g id="node1" class="node">
<title>parse</title>
<polygon fill="none" stroke="black" points="64,-166.48 22,-166.48 22,-142.48 64,-142.48 76,-154.48 64,-166.48"/>
<text text-anchor="middle" x="49" y="-149.43" font-family="Times,serif" font-size="14.00">parse</text>
</g>
<!-- compile -->
<g id="node2" class="node">
<title>compile</title>
<polygon fill="none" stroke="black" points="111.15,-109.15 62.9,-109.15 62.9,-85.15 111.15,-85.15 123.15,-97.15 111.15,-109.15"/>
<text text-anchor="middle" x="93.02" y="-92.1" font-family="Times,serif" font-size="14.00">compile</text>
</g>
<!-- parse&#45;&gt;compile -->
<g id="edge1" class="edge">
<title>parse&#45;&gt;compile</title>
<path fill="none" stroke="black" d="M63.17,-136.02C66,-132.34 69.02,-128.4 72.03,-124.49"/>
<polygon fill="black" stroke="black" points="74.64,-126.84 77.95,-116.77 69.09,-122.57 74.64,-126.84"/>
</g>
<!-- export -->
<g id="node3" class="node">
<title>export</title>
<polygon fill="none" stroke="black" points="132.13,-41 90.13,-41 90.13,-17 132.13,-17 144.13,-29 132.13,-41"/>
<text text-anchor="middle" x="117.13" y="-23.95" font-family="Times,serif" font-size="14.00">export</text>
</g>
<!-- compile&#45;&gt;export -->
<g id="edge2" class="edge">
<title>compile&#45;&gt;export</title>
<path fill="none" stroke="black" d="M99.48,-78.89C101.75,-72.47 104.36,-65.09 106.86,-58.01"/>
<polygon fill="black" stroke="black" points="110.11,-59.34 110.14,-48.74 103.51,-57 110.11,-59.34"/>
</g>
<!-- doc -->
<g id="node4" class="node">
<title>doc</title>
<polygon fill="none" stroke="black" points="169,-178.64 121,-178.64 121,-142.64 175,-142.64 175,-172.64 169,-178.64"/>
<polyline fill="none" stroke="black" points="169,-178.64 169,-172.64"/>
<polyline fill="none" stroke="black" points="175,-172.64 169,-172.64"/>
<text text-anchor="middle" x="148" y="-155.59" font-family="Times,serif" font-size="14.00">doc</text>
</g>
<!-- egg -->
<g id="node5" class="node">
<title>egg</title>
<polygon fill="none" stroke="black" points="221.87,-132.05 223.63,-132.15 225.37,-132.3 227.09,-132.49 228.78,-132.74 230.42,-133.03 232.02,-133.36 233.57,-133.75 235.06,-134.18 236.49,-134.65 237.85,-135.16 239.14,-135.71 240.35,-136.31 241.47,-136.94 242.52,-137.61 243.47,-138.31 244.34,-139.04 245.12,-139.8 245.8,-140.59 246.39,-141.41 246.88,-142.25 247.28,-143.11 247.58,-143.99 247.8,-144.89 247.92,-145.8 247.95,-146.72 247.9,-147.65 247.76,-148.59 247.54,-149.53 247.24,-150.47 246.86,-151.41 246.42,-152.35 245.9,-153.28 245.32,-154.2 244.68,-155.11 243.98,-156.01 243.23,-156.89 242.43,-157.75 241.58,-158.59 240.69,-159.41 239.77,-160.2 238.81,-160.96 237.82,-161.69 236.8,-162.39 235.75,-163.06 234.69,-163.69 233.6,-164.29 232.5,-164.84 231.39,-165.35 230.26,-165.82 229.12,-166.25 227.97,-166.64 226.82,-166.97 225.66,-167.26 224.49,-167.51 223.32,-167.7 222.15,-167.85 220.97,-167.95 219.8,-168 218.62,-168 217.45,-167.95 216.27,-167.85 215.1,-167.7 213.93,-167.51 212.76,-167.26 211.6,-166.97 210.45,-166.64 209.3,-166.25 208.16,-165.82 207.03,-165.35 205.92,-164.84 204.82,-164.29 203.73,-163.69 202.67,-163.06 201.62,-162.39 200.6,-161.69 199.61,-160.96 198.65,-160.2 197.73,-159.41 196.84,-158.59 195.99,-157.75 195.19,-156.89 194.44,-156.01 193.74,-155.11 193.1,-154.2 192.52,-153.28 192,-152.35 191.56,-151.41 191.18,-150.47 190.88,-149.53 190.66,-148.59 190.52,-147.65 190.47,-146.72 190.5,-145.8 190.62,-144.89 190.83,-143.99 191.14,-143.11 191.54,-142.25 192.03,-141.41 192.62,-140.59 193.3,-139.8 194.08,-139.04 194.95,-138.31 195.9,-137.61 196.94,-136.94 198.07,-136.31 199.28,-135.71 200.57,-135.16 201.93,-134.65 203.36,-134.18 204.85,-133.75 206.4,-133.36 208,-133.03 209.64,-132.74 211.33,-132.49 213.05,-132.3 214.79,-132.15 216.55,-132.05 218.32,-132 220.1,-132 221.87,-132.05"/>
<text text-anchor="middle" x="219.21" y="-144.95" font-family="Times,serif" font-size="14.00">egg</text>
</g>
<!-- doc&#45;&gt;egg -->
<g id="edge3" class="edge">
<title>doc&#45;&gt;egg</title>
<path fill="none" stroke="black" d="M175.33,-156.56C177.27,-156.27 179.25,-155.97 181.23,-155.67"/>
<polygon fill="black" stroke="black" points="181.67,-159.15 191.04,-154.21 180.64,-152.22 181.67,-159.15"/>
</g>
<!-- house -->
<g id="node6" class="node">
<title>house</title>
<polygon fill="none" stroke="black" points="267.13,-23.56 227.07,-36 187,-23.56 187.04,-3.44 267.1,-3.44 267.13,-23.56"/>
<text text-anchor="middle" x="227.07" y="-12.95" font-family="Times,serif" font-size="14.00">house</text>
</g>
<!-- db -->
<g id="node7" class="node">
<title>db</title>
<path fill="none" stroke="black" d="M54,-43.73C54,-45.53 41.9,-47 27,-47 12.1,-47 0,-45.53 0,-43.73 0,-43.73 0,-14.27 0,-14.27 0,-12.47 12.1,-11 27,-11 41.9,-11 54,-12.47 54,-14.27 54,-14.27 54,-43.73 54,-43.73"/>
<path fill="none" stroke="black" d="M54,-43.73C54,-41.92 41.9,-40.45 27,-40.45 12.1,-40.45 0,-41.92 0,-43.73"/>
<text text-anchor="middle" x="27" y="-23.95" font-family="Times,serif" font-size="14.00">db</text>
</g>
</g>
</svg>
