<?xml version="1.0" encoding="UTF-8" standalone="no"?>
<!DOCTYPE svg PUBLIC "-//W3C//DTD SVG 1.1//EN"
 "http://www.w3.org/Graphics/SVG/1.1/DTD/svg11.dtd">
<!-- Generated by graphviz version 7.0.4 (20221203.1631)
 -->
<!-- Title: G Pages: 1 -->
<svg width="256pt" height="176pt"
 viewBox="0.00 0.00 255.95 175.64" xmlns="http://www.w3.org/2000/svg" xmlns:xlink="http://www.w3.org/1999/xlink">
<g id="graph0" class="graph" transform="scale(1 1) rotate(0) translate(4 171.64)">
<title>G</title>
<polygon fill="white" stroke="none" points="-4,4 -4,-171.64 251.95,-171.64 251.95,4 -4,4"/>
<!-- parse -->
<g id="node1" class="node">
<title>parse</title>
<polygon fill="none" stroke="black" points="64,-155.48 22,-155.48 22,-131.48 64,-131.48 76,-143.48 64,-155.48"/>
<text text-anchor="middle" x="49" y="-139.78" font-family="Times,serif" font-size="14.00">parse</text>
</g>
<!-- compile -->
<g id="node2" class="node">
<title>compile</title>
<polygon fill="none" stroke="black" points="111.52,-98.15 62.52,-98.15 62.52,-74.15 111.52,-74.15 123.52,-86.15 111.52,-98.15"/>
<text text-anchor="middle" x="93.02" y="-82.45" font-family="Times,serif" font-size="14.00">compile</text>
</g>
<!-- parse&#45;&gt;compile -->
<g id="edge1" class="edge">
<title>parse&#45;&gt;compile</title>
<path fill="none" stroke="black" d="M63.17,-125.02C66,-121.34 69.02,-117.4 72.03,-113.49"/>
<polygon fill="black" stroke="black" points="74.64,-115.84 77.95,-105.77 69.09,-111.57 74.64,-115.84"/>
</g>
<!-- export -->
<g id="node3" class="node">
<title>export</title>
<polygon fill="none" stroke="black" points="132.13,-30 90.13,-30 90.13,-6 132.13,-6 144.13,-18 132.13,-30"/>
<text text-anchor="middle" x="117.13" y="-14.3" font-family="Times,serif" font-size="14.00">export</text>
</g>
<!-- compile&#45;&gt;export -->
<g id="edge2" class="edge">
<title>compile&#45;&gt;export</title>
<path fill="none" stroke="black" d="M99.48,-67.89C101.75,-61.47 104.36,-54.09 106.86,-47.01"/>
<polygon fill="black" stroke="black" points="110.11,-48.34 110.14,-37.74 103.51,-46 110.11,-48.34"/>
</g>
<!-- doc -->
<g id="node4" class="node">
<title>doc</title>
<polygon fill="none" stroke="black" points="169,-167.64 121,-167.64 121,-131.64 175,-131.64 175,-161.64 169,-167.64"/>
<polyline fill="none" stroke="black" points="169,-167.64 169,-161.64"/>
<polyline fill="none" stroke="black" points="175,-161.64 169,-161.64"/>
<text text-anchor="middle" x="148" y="-145.94" font-family="Times,serif" font-size="14.00">doc</text>
</g>
<!-- egg -->
<g id="node5" class="node">
<title>egg</title>
<polygon fill="none" stroke="black" points="221.89,-121.05 223.67,-121.15 225.43,-121.3 227.16,-121.49 228.86,-121.74 230.52,-122.03 232.13,-122.36 233.69,-122.75 235.2,-123.18 236.64,-123.65 238.01,-124.16 239.31,-124.71 240.53,-125.31 241.66,-125.94 242.72,-126.61 243.68,-127.31 244.56,-128.04 245.34,-128.8 246.02,-129.59 246.62,-130.41 247.12,-131.25 247.52,-132.11 247.83,-132.99 248.04,-133.89 248.17,-134.8 248.2,-135.72 248.14,-136.65 248,-137.59 247.78,-138.53 247.48,-139.47 247.1,-140.41 246.65,-141.35 246.13,-142.28 245.54,-143.2 244.89,-144.11 244.19,-145.01 243.43,-145.89 242.62,-146.75 241.77,-147.59 240.88,-148.41 239.94,-149.2 238.97,-149.96 237.97,-150.69 236.95,-151.39 235.89,-152.06 234.82,-152.69 233.73,-153.29 232.62,-153.84 231.49,-154.35 230.35,-154.82 229.2,-155.25 228.05,-155.64 226.88,-155.97 225.71,-156.26 224.53,-156.51 223.36,-156.7 222.17,-156.85 220.99,-156.95 219.8,-157 218.62,-157 217.43,-156.95 216.25,-156.85 215.06,-156.7 213.88,-156.51 212.71,-156.26 211.54,-155.97 210.37,-155.64 209.22,-155.25 208.07,-154.82 206.93,-154.35 205.8,-153.84 204.69,-153.29 203.6,-152.69 202.53,-152.06 201.47,-151.39 200.45,-150.69 199.45,-149.96 198.48,-149.2 197.54,-148.41 196.65,-147.59 195.79,-146.75 194.99,-145.89 194.23,-145.01 193.52,-144.11 192.88,-143.2 192.29,-142.28 191.77,-141.35 191.32,-140.41 190.94,-139.47 190.64,-138.53 190.42,-137.59 190.28,-136.65 190.22,-135.72 190.25,-134.8 190.38,-133.89 190.59,-132.99 190.9,-132.11 191.3,-131.25 191.8,-130.41 192.4,-129.59 193.08,-128.8 193.86,-128.04 194.74,-127.31 195.7,-126.61 196.75,-125.94 197.89,-125.31 199.11,-124.71 200.41,-124.16 201.78,-123.65 203.22,-123.18 204.73,-122.75 206.29,-122.36 207.9,-122.03 209.56,-121.74 211.26,-121.49 212.99,-121.3 214.75,-121.15 216.53,-121.05 218.31,-121 220.11,-121 221.89,-121.05"/>
<text text-anchor="middle" x="219.21" y="-135.3" font-family="Times,serif" font-size="14.00">egg</text>
</g>
<!-- doc&#45;&gt;egg -->
<g id="edge3" class="edge">
<title>doc&#45;&gt;egg</title>
<path fill="none" stroke="black" d="M175.33,-145.56C177.27,-145.27 179.25,-144.97 181.23,-144.67"/>
<polygon fill="black" stroke="black" points="181.67,-148.15 191.04,-143.21 180.64,-141.22 181.67,-148.15"/>
</g>
<!-- house -->
<g id="node6" class="node">
<title>house</title>
<polygon fill="none" stroke="black" points="242.19,-34.56 203.56,-47 164.94,-34.56 164.97,-14.44 242.15,-14.44 242.19,-34.56"/>
<text text-anchor="middle" x="203.56" y="-25.3" font-family="Times,serif" font-size="14.00">house</text>
</g>
<!-- db -->
<g id="node7" class="node">
<title>db</title>
<path fill="none" stroke="black" d="M54,-32.73C54,-34.53 41.9,-36 27,-36 12.1,-36 0,-34.53 0,-32.73 0,-32.73 0,-3.27 0,-3.27 0,-1.47 12.1,0 27,0 41.9,0 54,-1.47 54,-3.27 54,-3.27 54,-32.73 54,-32.73"/>
<path fill="none" stroke="black" d="M54,-32.73C54,-30.92 41.9,-29.45 27,-29.45 12.1,-29.45 0,-30.92 0,-32.73"/>
<text text-anchor="middle" x="27" y="-14.3" font-family="Times,serif" font-size="14.00">db</text>
</g>
</g>
</svg>
