<?xml version="1.0" encoding="UTF-8" standalone="no"?>
<!DOCTYPE svg PUBLIC "-//W3C//DTD SVG 1.1//EN"
 "http://www.w3.org/Graphics/SVG/1.1/DTD/svg11.dtd">
<!-- Generated by graphviz version 7.0.6 (20230106.0513)
 -->
<!-- Title: G Pages: 1 -->
<svg width="311pt" height="188pt"
 viewBox="0.00 0.00 310.50 188.00" xmlns="http://www.w3.org/2000/svg" xmlns:xlink="http://www.w3.org/1999/xlink">
<g id="graph0" class="graph" transform="scale(1 1) rotate(0) translate(4 184)">
<title>G</title>
<polygon fill="white" stroke="none" points="-4,4 -4,-184 306.5,-184 306.5,4 -4,4"/>
<!-- parse -->
<g id="node1" class="node">
<title>parse</title>
<polygon fill="none" stroke="black" points="45.5,-174 3.5,-174 3.5,-150 45.5,-150 57.5,-162 45.5,-174"/>
<text text-anchor="middle" x="30.5" y="-158.3" font-family="Times,serif" font-size="14.00">parse</text>
</g>
<!-- compile -->
<g id="node2" class="node">
<title>compile</title>
<polygon fill="none" stroke="black" points="49,-102 0,-102 0,-78 49,-78 61,-90 49,-102"/>
<text text-anchor="middle" x="30.5" y="-86.3" font-family="Times,serif" font-size="14.00">compile</text>
</g>
<!-- parse&#45;&gt;compile -->
<g id="edge1" class="edge">
<title>parse&#45;&gt;compile</title>
<path fill="none" stroke="black" d="M30.5,-143.7C30.5,-136.41 30.5,-127.73 30.5,-119.54"/>
<polygon fill="black" stroke="black" points="34,-119.62 30.5,-109.62 27,-119.62 34,-119.62"/>
</g>
<!-- export -->
<g id="node3" class="node">
<title>export</title>
<polygon fill="none" stroke="black" points="45.5,-30 3.5,-30 3.5,-6 45.5,-6 57.5,-18 45.5,-30"/>
<text text-anchor="middle" x="30.5" y="-14.3" font-family="Times,serif" font-size="14.00">export</text>
</g>
<!-- compile&#45;&gt;export -->
<g id="edge2" class="edge">
<title>compile&#45;&gt;export</title>
<path fill="none" stroke="black" d="M30.5,-71.7C30.5,-64.41 30.5,-55.73 30.5,-47.54"/>
<polygon fill="black" stroke="black" points="34,-47.62 30.5,-37.62 27,-47.62 34,-47.62"/>
</g>
<!-- doc -->
<g id="node4" class="node">
<title>doc</title>
<polygon fill="none" stroke="black" points="128.5,-180 80.5,-180 80.5,-144 134.5,-144 134.5,-174 128.5,-180"/>
<polyline fill="none" stroke="black" points="128.5,-180 128.5,-174"/>
<polyline fill="none" stroke="black" points="134.5,-174 128.5,-174"/>
<text text-anchor="middle" x="107.5" y="-158.3" font-family="Times,serif" font-size="14.00">doc</text>
</g>
<!-- egg -->
<g id="node5" class="node">
<title>egg</title>
<polygon fill="none" stroke="black" points="110.18,-72.05 111.96,-72.15 113.72,-72.3 115.45,-72.49 117.15,-72.74 118.81,-73.03 120.42,-73.36 121.98,-73.75 123.49,-74.18 124.93,-74.65 126.3,-75.16 127.6,-75.71 128.82,-76.31 129.95,-76.94 131.01,-77.61 131.97,-78.31 132.85,-79.04 133.63,-79.8 134.31,-80.59 134.91,-81.41 135.41,-82.25 135.81,-83.11 136.12,-83.99 136.33,-84.89 136.46,-85.8 136.49,-86.72 136.43,-87.65 136.29,-88.59 136.07,-89.53 135.77,-90.47 135.39,-91.41 134.94,-92.35 134.42,-93.28 133.83,-94.2 133.19,-95.11 132.48,-96.01 131.72,-96.89 130.91,-97.75 130.06,-98.59 129.17,-99.41 128.23,-100.2 127.26,-100.96 126.26,-101.69 125.24,-102.39 124.18,-103.06 123.11,-103.69 122.02,-104.29 120.91,-104.84 119.78,-105.35 118.64,-105.82 117.49,-106.25 116.34,-106.64 115.17,-106.97 114,-107.26 112.83,-107.51 111.65,-107.7 110.46,-107.85 109.28,-107.95 108.09,-108 106.91,-108 105.72,-107.95 104.54,-107.85 103.35,-107.7 102.17,-107.51 101,-107.26 99.83,-106.97 98.66,-106.64 97.51,-106.25 96.36,-105.82 95.22,-105.35 94.09,-104.84 92.98,-104.29 91.89,-103.69 90.82,-103.06 89.76,-102.39 88.74,-101.69 87.74,-100.96 86.77,-100.2 85.83,-99.41 84.94,-98.59 84.09,-97.75 83.28,-96.89 82.52,-96.01 81.81,-95.11 81.17,-94.2 80.58,-93.28 80.06,-92.35 79.61,-91.41 79.23,-90.47 78.93,-89.53 78.71,-88.59 78.57,-87.65 78.51,-86.72 78.54,-85.8 78.67,-84.89 78.88,-83.99 79.19,-83.11 79.59,-82.25 80.09,-81.41 80.69,-80.59 81.37,-79.8 82.15,-79.04 83.03,-78.31 83.99,-77.61 85.05,-76.94 86.18,-76.31 87.4,-75.71 88.7,-75.16 90.07,-74.65 91.51,-74.18 93.02,-73.75 94.58,-73.36 96.19,-73.03 97.85,-72.74 99.55,-72.49 101.28,-72.3 103.04,-72.15 104.82,-72.05 106.6,-72 108.4,-72 110.18,-72.05"/>
<text text-anchor="middle" x="107.5" y="-86.3" font-family="Times,serif" font-size="14.00">egg</text>
</g>
<!-- doc&#45;&gt;egg -->
<g id="edge3" class="edge">
<title>doc&#45;&gt;egg</title>
<path fill="none" stroke="black" d="M107.5,-143.7C107.5,-136.41 107.5,-127.73 107.5,-119.54"/>
<polygon fill="black" stroke="black" points="111,-119.62 107.5,-109.62 104,-119.62 111,-119.62"/>
</g>
<!-- house -->
<g id="node6" class="node">
<title>house</title>
<polygon fill="none" stroke="black" points="230.12,-167.56 191.5,-180 152.88,-167.56 152.91,-147.44 230.09,-147.44 230.12,-167.56"/>
<text text-anchor="middle" x="191.5" y="-158.3" font-family="Times,serif" font-size="14.00">house</text>
</g>
<!-- db -->
<g id="node7" class="node">
<title>db</title>
<path fill="none" stroke="black" d="M302.5,-176.73C302.5,-178.53 290.4,-180 275.5,-180 260.6,-180 248.5,-178.53 248.5,-176.73 248.5,-176.73 248.5,-147.27 248.5,-147.27 248.5,-145.47 260.6,-144 275.5,-144 290.4,-144 302.5,-145.47 302.5,-147.27 302.5,-147.27 302.5,-176.73 302.5,-176.73"/>
<path fill="none" stroke="black" d="M302.5,-176.73C302.5,-174.92 290.4,-173.45 275.5,-173.45 260.6,-173.45 248.5,-174.92 248.5,-176.73"/>
<text text-anchor="middle" x="275.5" y="-158.3" font-family="Times,serif" font-size="14.00">db</text>
</g>
</g>
</svg>
