<?xml version="1.0" encoding="UTF-8" standalone="no"?>
<!DOCTYPE svg PUBLIC "-//W3C//DTD SVG 1.1//EN"
 "http://www.w3.org/Graphics/SVG/1.1/DTD/svg11.dtd">
<!-- Generated by graphviz version 12.2.1 (20241206.2353)
 -->
<!-- Title: G Pages: 1 -->
<svg width="312pt" height="188pt"
 viewBox="0.00 0.00 312.12 188.00" xmlns="http://www.w3.org/2000/svg" xmlns:xlink="http://www.w3.org/1999/xlink">
<g id="graph0" class="graph" transform="scale(1 1) rotate(0) translate(4 184)">
<title>G</title>
<polygon fill="white" stroke="none" points="-4,4 -4,-184 308.12,-184 308.12,4 -4,4"/>
<!-- parse -->
<g id="node1" class="node">
<title>parse</title>
<polygon fill="none" stroke="black" points="45.12,-174 3.12,-174 3.12,-150 45.12,-150 57.12,-162 45.12,-174"/>
<text text-anchor="middle" x="30.12" y="-156.95" font-family="Times,serif" font-size="14.00">parse</text>
</g>
<!-- compile -->
<g id="node2" class="node">
<title>compile</title>
<polygon fill="none" stroke="black" points="48.25,-102 0,-102 0,-78 48.25,-78 60.25,-90 48.25,-102"/>
<text text-anchor="middle" x="30.12" y="-84.95" font-family="Times,serif" font-size="14.00">compile</text>
</g>
<!-- parse&#45;&gt;compile -->
<g id="edge1" class="edge">
<title>parse&#45;&gt;compile</title>
<path fill="none" stroke="black" d="M30.12,-143.7C30.12,-136.41 30.12,-127.73 30.12,-119.54"/>
<polygon fill="black" stroke="black" points="33.63,-119.62 30.13,-109.62 26.63,-119.62 33.63,-119.62"/>
</g>
<!-- export -->
<g id="node3" class="node">
<title>export</title>
<polygon fill="none" stroke="black" points="45.12,-30 3.12,-30 3.12,-6 45.12,-6 57.12,-18 45.12,-30"/>
<text text-anchor="middle" x="30.12" y="-12.95" font-family="Times,serif" font-size="14.00">export</text>
</g>
<!-- compile&#45;&gt;export -->
<g id="edge2" class="edge">
<title>compile&#45;&gt;export</title>
<path fill="none" stroke="black" d="M30.12,-71.7C30.12,-64.41 30.12,-55.73 30.12,-47.54"/>
<polygon fill="black" stroke="black" points="33.63,-47.62 30.13,-37.62 26.63,-47.62 33.63,-47.62"/>
</g>
<!-- doc -->
<g id="node4" class="node">
<title>doc</title>
<polygon fill="none" stroke="black" points="128.12,-180 80.12,-180 80.12,-144 134.12,-144 134.12,-174 128.12,-180"/>
<polyline fill="none" stroke="black" points="128.12,-180 128.12,-174"/>
<polyline fill="none" stroke="black" points="134.12,-174 128.12,-174"/>
<text text-anchor="middle" x="107.12" y="-156.95" font-family="Times,serif" font-size="14.00">doc</text>
</g>
<!-- egg -->
<g id="node5" class="node">
<title>egg</title>
<polygon fill="none" stroke="black" points="109.78,-72.05 111.55,-72.15 113.29,-72.3 115.01,-72.49 116.69,-72.74 118.34,-73.03 119.94,-73.36 121.49,-73.75 122.98,-74.18 124.41,-74.65 125.77,-75.16 127.05,-75.71 128.26,-76.31 129.39,-76.94 130.43,-77.61 131.39,-78.31 132.26,-79.04 133.03,-79.8 133.71,-80.59 134.3,-81.41 134.79,-82.25 135.19,-83.11 135.5,-83.99 135.71,-84.89 135.84,-85.8 135.87,-86.72 135.81,-87.65 135.68,-88.59 135.45,-89.53 135.15,-90.47 134.78,-91.41 134.33,-92.35 133.82,-93.28 133.23,-94.2 132.59,-95.11 131.89,-96.01 131.14,-96.89 130.34,-97.75 129.5,-98.59 128.61,-99.41 127.68,-100.2 126.72,-100.96 125.73,-101.69 124.71,-102.39 123.67,-103.06 122.6,-103.69 121.52,-104.29 120.42,-104.84 119.3,-105.35 118.17,-105.82 117.03,-106.25 115.89,-106.64 114.73,-106.97 113.57,-107.26 112.4,-107.51 111.24,-107.7 110.06,-107.85 108.89,-107.95 107.71,-108 106.54,-108 105.36,-107.95 104.19,-107.85 103.01,-107.7 101.85,-107.51 100.68,-107.26 99.52,-106.97 98.36,-106.64 97.22,-106.25 96.08,-105.82 94.95,-105.35 93.83,-104.84 92.73,-104.29 91.65,-103.69 90.58,-103.06 89.54,-102.39 88.52,-101.69 87.53,-100.96 86.57,-100.2 85.64,-99.41 84.75,-98.59 83.91,-97.75 83.11,-96.89 82.36,-96.01 81.66,-95.11 81.02,-94.2 80.43,-93.28 79.92,-92.35 79.47,-91.41 79.1,-90.47 78.8,-89.53 78.57,-88.59 78.44,-87.65 78.38,-86.72 78.41,-85.8 78.54,-84.89 78.75,-83.99 79.06,-83.11 79.46,-82.25 79.95,-81.41 80.54,-80.59 81.22,-79.8 81.99,-79.04 82.86,-78.31 83.82,-77.61 84.86,-76.94 85.99,-76.31 87.2,-75.71 88.48,-75.16 89.84,-74.65 91.27,-74.18 92.76,-73.75 94.31,-73.36 95.91,-73.03 97.56,-72.74 99.24,-72.49 100.96,-72.3 102.7,-72.15 104.47,-72.05 106.24,-72 108.01,-72 109.78,-72.05"/>
<text text-anchor="middle" x="107.12" y="-84.95" font-family="Times,serif" font-size="14.00">egg</text>
</g>
<!-- doc&#45;&gt;egg -->
<g id="edge3" class="edge">
<title>doc&#45;&gt;egg</title>
<path fill="none" stroke="black" d="M107.12,-143.7C107.12,-136.41 107.12,-127.73 107.12,-119.54"/>
<polygon fill="black" stroke="black" points="110.63,-119.62 107.13,-109.62 103.63,-119.62 110.63,-119.62"/>
</g>
<!-- house -->
<g id="node6" class="node">
<title>house</title>
<polygon fill="none" stroke="black" points="232.19,-167.56 192.12,-180 152.06,-167.56 152.1,-147.44 232.15,-147.44 232.19,-167.56"/>
<text text-anchor="middle" x="192.12" y="-156.95" font-family="Times,serif" font-size="14.00">house</text>
</g>
<!-- db -->
<g id="node7" class="node">
<title>db</title>
<path fill="none" stroke="black" d="M304.12,-176.73C304.12,-178.53 292.02,-180 277.12,-180 262.23,-180 250.12,-178.53 250.12,-176.73 250.12,-176.73 250.12,-147.27 250.12,-147.27 250.12,-145.47 262.23,-144 277.12,-144 292.02,-144 304.12,-145.47 304.12,-147.27 304.12,-147.27 304.12,-176.73 304.12,-176.73"/>
<path fill="none" stroke="black" d="M304.12,-176.73C304.12,-174.92 292.02,-173.45 277.12,-173.45 262.23,-173.45 250.12,-174.92 250.12,-176.73"/>
<text text-anchor="middle" x="277.12" y="-156.95" font-family="Times,serif" font-size="14.00">db</text>
</g>
</g>
</svg>
