<svg xmlns="http://www.w3.org/2000/svg" xmlns:xlink="http://www.w3.org/1999/xlink" contentStyleType="text/css" data-diagram-type="DESCRIPTION" height="69px" preserveAspectRatio="none" style="width:509px;height:69px;background:#FFFFFF;" version="1.1" viewBox="0 0 509 69" width="509px" zoomAndPan="magnify"><defs/><g><!--entity parse--><g id="elem_parse"><ellipse cx="24.604" cy="29.472" fill="#F1F1F1" rx="8" ry="8" style="stroke:#181818;stroke-width:0.5;"/><text fill="#000000" font-family="sans-serif" font-size="14" lengthAdjust="spacing" textLength="37.208" x="6" y="60.0072">parse</text></g><!--entity compile--><g id="elem_compile"><ellipse cx="77.604" cy="29.472" fill="#F1F1F1" rx="8" ry="8" style="stroke:#181818;stroke-width:0.5;"/><text fill="#000000" font-family="sans-serif" font-size="14" lengthAdjust="spacing" textLength="53.5459" x="50.8311" y="60.0072">compile</text></g><!--entity export--><g id="elem_export"><ellipse cx="130.604" cy="29.472" fill="#F1F1F1" rx="8" ry="8" style="stroke:#181818;stroke-width:0.5;"/><text fill="#000000" font-family="sans-serif" font-size="14" lengthAdjust="spacing" textLength="44.7617" x="108.2231" y="60.0072">export</text></g><!--entity db--><g id="elem_db"><path d="M355.794,16.722 C355.794,6.722 374.6055,6.722 374.6055,6.722 C374.6055,6.722 393.4171,6.722 393.4171,16.722 L393.4171,42.2103 C393.4171,52.2103 374.6055,52.2103 374.6055,52.2103 C374.6055,52.2103 355.794,52.2103 355.794,42.2103 L355.794,16.722 " fill="#F1F1F1" style="stroke:#181818;stroke-width:0.5;"/><path d="M355.794,16.722 C355.794,26.722 374.6055,26.722 374.6055,26.722 C374.6055,26.722 393.4171,26.722 393.4171,16.722 " fill="transparent" style="stroke:#181818;stroke-width:0.5;"/><text fill="#000000" font-family="sans-serif" font-size="14" lengthAdjust="spacing" textLength="17.623" x="365.794" y="44.2572">db</text></g><!--entity cloud--><g id="elem_cloud"><path d="M261.9579,14.5885 C265.5724,7.1575 271.2488,7.2811 275.7708,13.6824 C279.0334,6.9925 284.5972,6 288.7242,12.8559 C292.6271,6.6595 297.6268,8.3241 300.727,13.6893 C304.5865,7.1859 311.185,8.6882 314.1293,14.6716 C323.0907,17.9027 325.477,24.6311 317.9261,31.5718 C322.5539,38.2096 322.4474,42.6947 313.5864,44.9604 C312.2259,51.0835 306.9823,53.3732 302.4537,48.0387 C298.4218,55.5208 293.6662,55.9847 287.7726,50.0804 C283.1635,54.98 277.9749,53.2399 275.5458,47.5607 C271.099,53.2121 266.0041,53.1696 262.8914,46.2208 C253.6187,45.3464 250.6181,39.0739 255.8965,31.3534 C249.7757,22.7891 251.7752,17.2583 261.9579,14.5885 " fill="#F1F1F1" style="stroke:#181818;stroke-width:0.5;"/><text fill="#000000" font-family="sans-serif" font-size="14" lengthAdjust="spacing" textLength="37.3174" x="268.944" y="34.7572">cloud</text></g><!--entity doc--><g id="elem_doc"><path d="M174.314,13.722 L174.314,45.2103 A2.5,2.5 0 0 0 176.814,47.7103 L216.396,47.7103 A2.5,2.5 0 0 0 218.896,45.2103 L218.896,21.222 L208.896,11.222 L176.814,11.222 A2.5,2.5 0 0 0 174.314,13.722 " fill="#F1F1F1" style="stroke:#181818;stroke-width:0.5;"/><path d="M208.896,11.222 L208.896,18.722 A2.5,2.5 0 0 0 211.396,21.222 L218.896,21.222 " fill="#F1F1F1" style="stroke:#181818;stroke-width:0.5;"/><text fill="#000000" font-family="sans-serif" font-size="14" lengthAdjust="spacing" textLength="24.582" x="184.314" y="34.7572">doc</text></g><!--entity pipeline--><g id="elem_pipeline"><path d="M433.574,16.222 L497.6258,16.222 C502.6258,16.222 502.6258,29.4662 502.6258,29.4662 C502.6258,29.4662 502.6258,42.7103 497.6258,42.7103 L433.574,42.7103 C428.574,42.7103 428.574,29.4662 428.574,29.4662 C428.574,29.4662 428.574,16.222 433.574,16.222 " fill="#F1F1F1" style="stroke:#181818;stroke-width:0.5;"/><path d="M497.6258,16.222 C492.6258,16.222 492.6258,29.4662 492.6258,29.4662 C492.6258,42.7103 497.6258,42.7103 497.6258,42.7103 " fill="transparent" style="stroke:#181818;stroke-width:0.5;"/><text fill="#000000" font-family="sans-serif" font-size="14" lengthAdjust="spacing" textLength="54.0518" x="433.574" y="34.7572">pipeline</text></g><!--link parse to compile--><g id="link_parse_compile"><path d="M33.714,29.472 C45.254,29.472 50.804,29.472 62.344,29.472 " fill="transparent" id="parse-to-compile" style="stroke:#181818;stroke-width:1;"/><polygon fill="#181818" points="68.344,29.472,59.344,25.472,63.344,29.472,59.344,33.472,68.344,29.472" style="stroke:#181818;stroke-width:1;"/></g><!--link compile to export--><g id="link_compile_export"><path d="M86.714,29.472 C98.254,29.472 103.804,29.472 115.344,29.472 " fill="transparent" id="compile-to-export" style="stroke:#181818;stroke-width:1;"/><polygon fill="#181818" points="121.344,29.472,112.344,25.472,116.344,29.472,112.344,33.472,121.344,29.472" style="stroke:#181818;stroke-width:1;"/></g><!--link doc to cloud--><g id="link_doc_cloud"><path d="M219.354,29.472 C230.724,29.472 236.104,29.472 247.484,29.472 " fill="transparent" id="doc-to-cloud" style="stroke:#181818;stroke-width:1;"/><polygon fill="#181818" points="253.484,29.472,244.484,25.472,248.484,29.472,244.484,33.472,253.484,29.472" style="stroke:#181818;stroke-width:1;"/></g><!--SRC=[BOn12e0m30JlUKK-u1VyIvgiKAWcrXPylctniWF3i27r0Myxgv-H2-ZdL7Z3QoCoQP9aP9P8YtVZjNJCpbn7uRe-bhuxEZXoeEGBz040]--></g></svg>