<?xml version="1.0" encoding="UTF-8" standalone="no"?><svg xmlns="http://www.w3.org/2000/svg" xmlns:xlink="http://www.w3.org/1999/xlink" contentStyleType="text/css" height="70px" preserveAspectRatio="none" style="width:514px;height:70px;background:#FFFFFF;" version="1.1" viewBox="0 0 514 70" width="514px" zoomAndPan="magnify"><defs/><g><!--MD5=[b5fac62bad236af1d0f335c80a3c5f67]
entity parse--><g id="elem_parse"><ellipse cx="25" cy="30.6948" fill="#F1F1F1" rx="8" ry="8" style="stroke:#181818;stroke-width:0.5;"/><text fill="#000000" font-family="sans-serif" font-size="14" lengthAdjust="spacing" textLength="38" x="6" y="61.2299">parse</text></g><!--MD5=[7064c95e8cd0c0447371877f11186c08]
entity compile--><g id="elem_compile"><ellipse cx="78" cy="30.6948" fill="#F1F1F1" rx="8" ry="8" style="stroke:#181818;stroke-width:0.5;"/><text fill="#000000" font-family="sans-serif" font-size="14" lengthAdjust="spacing" textLength="54" x="51" y="61.2299">compile</text></g><!--MD5=[80dabf241d271177efc0216b16049b74]
entity export--><g id="elem_export"><ellipse cx="131" cy="30.6948" fill="#F1F1F1" rx="8" ry="8" style="stroke:#181818;stroke-width:0.5;"/><text fill="#000000" font-family="sans-serif" font-size="14" lengthAdjust="spacing" textLength="46" x="108" y="61.2299">export</text></g><!--MD5=[7468467f3b6b392f1d176d828c753b77]
entity db--><g id="elem_db"><path d="M359,18.1948 C359,8.1948 378,8.1948 378,8.1948 C378,8.1948 397,8.1948 397,18.1948 L397,43.6831 C397,53.6831 378,53.6831 378,53.6831 C378,53.6831 359,53.6831 359,43.6831 L359,18.1948 " fill="#F1F1F1" style="stroke:#181818;stroke-width:0.5;"/><path d="M359,18.1948 C359,28.1948 378,28.1948 378,28.1948 C378,28.1948 397,28.1948 397,18.1948 " fill="none" style="stroke:#181818;stroke-width:0.5;"/><text fill="#000000" font-family="sans-serif" font-size="14" lengthAdjust="spacing" textLength="18" x="369" y="45.7299">db</text></g><!--MD5=[3a4d72efb1b53e1acbdd1189cccbc328]
entity cloud--><g id="elem_cloud"><path d="M265.0949,16.6973 C267.4559,10.5982 273.1645,9.3993 277.2344,14.9106 C280.8758,7.0158 285.116,6 291.0803,12.7081 C295.3929,7.6874 301.1148,8.2718 303.5918,14.712 C308.1555,9.362 313.4581,11.0864 316.0613,16.9015 C323.8207,19.1223 326.9974,26.143 319.8015,32.0551 C325.8083,37.395 325.6303,43.8671 317.605,47.1675 C315.0481,55.3156 309.9278,56.0793 303.7131,51.0128 C301.9015,58.0664 296.7965,58.1601 292.1711,53.8776 C287.0942,59.0085 280.1217,58.8733 277.8737,50.8116 C273.0728,56.8854 267.4492,53.6831 265.4313,47.8929 C256.884,45.3373 256.2586,39.152 261.5049,32.9677 C254.8194,27.0578 257.4074,19.4358 265.0949,16.6973 " fill="#F1F1F1" style="stroke:#181818;stroke-width:0.5;"/><text fill="#000000" font-family="sans-serif" font-size="14" lengthAdjust="spacing" textLength="38" x="271" y="36.2299">cloud</text></g><!--MD5=[352ef287b9f0ec53b7305306ae20b7fa]
entity doc--><g id="elem_doc"><path d="M175.5,15.1948 L175.5,46.6831 A2.5,2.5 0 0 0 178,49.1831 L218,49.1831 A2.5,2.5 0 0 0 220.5,46.6831 L220.5,22.6948 L210.5,12.6948 L178,12.6948 A2.5,2.5 0 0 0 175.5,15.1948 " fill="#F1F1F1" style="stroke:#181818;stroke-width:0.5;"/><path d="M210.5,12.6948 L210.5,20.1948 A2.5,2.5 0 0 0 213,22.6948 L220.5,22.6948 " fill="#F1F1F1" style="stroke:#181818;stroke-width:0.5;"/><text fill="#000000" font-family="sans-serif" font-size="14" lengthAdjust="spacing" textLength="25" x="185.5" y="36.2299">doc</text></g><!--MD5=[60a7d49912a5e26523681947c411f52d]
entity pipeline--><g id="elem_pipeline"><path d="M437.5,17.6948 L502.5,17.6948 C507.5,17.6948 507.5,30.9389 507.5,30.9389 C507.5,30.9389 507.5,44.1831 502.5,44.1831 L437.5,44.1831 C432.5,44.1831 432.5,30.9389 432.5,30.9389 C432.5,30.9389 432.5,17.6948 437.5,17.6948 " fill="#F1F1F1" style="stroke:#181818;stroke-width:0.5;"/><path d="M502.5,17.6948 C497.5,17.6948 497.5,30.9389 497.5,30.9389 C497.5,44.1831 502.5,44.1831 502.5,44.1831 " fill="none" style="stroke:#181818;stroke-width:0.5;"/><text fill="#000000" font-family="sans-serif" font-size="14" lengthAdjust="spacing" textLength="55" x="437.5" y="36.2299">pipeline</text></g><!--MD5=[005c1943c98eda99c200804778c4083a]
link parse to compile--><g id="link_parse_compile"><path d="M34.11,30.6948 C43.94,30.6948 53.77,30.6948 63.6,30.6948 " fill="none" id="parse-to-compile" style="stroke:#181818;stroke-width:1.0;"/><polygon fill="#181818" points="68.74,30.6948,59.74,26.6948,63.74,30.6948,59.74,34.6948,68.74,30.6948" style="stroke:#181818;stroke-width:1.0;"/></g><!--MD5=[ee6193c4fdd8cbaaaab02890b78dfc18]
link compile to export--><g id="link_compile_export"><path d="M87.11,30.6948 C96.94,30.6948 106.77,30.6948 116.6,30.6948 " fill="none" id="compile-to-export" style="stroke:#181818;stroke-width:1.0;"/><polygon fill="#181818" points="121.74,30.6948,112.74,26.6948,116.74,30.6948,112.74,34.6948,121.74,30.6948" style="stroke:#181818;stroke-width:1.0;"/></g><!--MD5=[5e755f504e0aa92e3f396600fe251f45]
link doc to cloud--><g id="link_doc_cloud"><path d="M220.64,30.6948 C230.64,30.6948 240.64,30.6948 250.63,30.6948 " fill="none" id="doc-to-cloud" style="stroke:#181818;stroke-width:1.0;"/><polygon fill="#181818" points="255.86,30.6948,246.86,26.6948,250.86,30.6948,246.86,34.6948,255.86,30.6948" style="stroke:#181818;stroke-width:1.0;"/></g><!--MD5=[e8987b37a8112a9bfeb8770f9f0eb882]
@startuml

parse -> compile
compile -> export

database db
cloud cloud
file doc

doc -> cloud
queue pipeline

@enduml

PlantUML version 1.2022.8(Sun Sep 25 02:00:33 PDT 2022)
(GPL source distribution)
Java Runtime: OpenJDK Runtime Environment
JVM: OpenJDK 64-Bit Server VM
Default Encoding: UTF-8
Language: en
Country: US
--></g></svg>