<svg xmlns="http://www.w3.org/2000/svg" xmlns:xlink="http://www.w3.org/1999/xlink" contentStyleType="text/css" data-diagram-type="SEQUENCE" height="209px" preserveAspectRatio="none" style="width:287px;height:209px;background:#FFFFFF;" version="1.1" viewBox="0 0 287 209" width="287px" zoomAndPan="magnify"><defs/><g><g><title>Alice</title><rect fill="transparent" height="137.2422" width="8" x="24.3618" y="36.4883"/><line style="stroke:#181818;stroke-width:0.5;stroke-dasharray:5.0,5.0;" x1="28" x2="28" y1="36.4883" y2="173.7305"/></g><g><title>Bob</title><rect fill="transparent" height="137.2422" width="8" x="257.917" y="36.4883"/><line style="stroke:#181818;stroke-width:0.5;stroke-dasharray:5.0,5.0;" x1="261.1851" x2="261.1851" y1="36.4883" y2="173.7305"/></g><rect fill="#E2E2F0" height="30.4883" rx="2.5" ry="2.5" style="stroke:#181818;stroke-width:0.5;" width="46.7236" x="5" y="5"/><text fill="#000000" font-family="sans-serif" font-size="14" lengthAdjust="spacing" textLength="32.7236" x="12" y="25.5352">Alice</text><rect fill="#E2E2F0" height="30.4883" rx="2.5" ry="2.5" style="stroke:#181818;stroke-width:0.5;" width="46.7236" x="5" y="172.7305"/><text fill="#000000" font-family="sans-serif" font-size="14" lengthAdjust="spacing" textLength="32.7236" x="12" y="193.2656">Alice</text><rect fill="#E2E2F0" height="30.4883" rx="2.5" ry="2.5" style="stroke:#181818;stroke-width:0.5;" width="39.4639" x="242.1851" y="5"/><text fill="#000000" font-family="sans-serif" font-size="14" lengthAdjust="spacing" textLength="25.4639" x="249.1851" y="25.5352">Bob</text><rect fill="#E2E2F0" height="30.4883" rx="2.5" ry="2.5" style="stroke:#181818;stroke-width:0.5;" width="39.4639" x="242.1851" y="172.7305"/><text fill="#000000" font-family="sans-serif" font-size="14" lengthAdjust="spacing" textLength="25.4639" x="249.1851" y="193.2656">Bob</text><polygon fill="#181818" points="249.917,63.7988,259.917,67.7988,249.917,71.7988,253.917,67.7988" style="stroke:#181818;stroke-width:1;"/><line style="stroke:#181818;stroke-width:1;" x1="28.3618" x2="255.917" y1="67.7988" y2="67.7988"/><text fill="#000000" font-family="sans-serif" font-size="13" lengthAdjust="spacing" textLength="146.9673" x="35.3618" y="63.0566">Authentication Request</text><polygon fill="#181818" points="39.3618,93.1094,29.3618,97.1094,39.3618,101.1094,35.3618,97.1094" style="stroke:#181818;stroke-width:1;"/><line style="stroke:#181818;stroke-width:1;stroke-dasharray:2.0,2.0;" x1="33.3618" x2="260.917" y1="97.1094" y2="97.1094"/><text fill="#000000" font-family="sans-serif" font-size="13" lengthAdjust="spacing" textLength="156.7173" x="45.3618" y="92.3672">Authentication Response</text><polygon fill="#181818" points="249.917,122.4199,259.917,126.4199,249.917,130.4199,253.917,126.4199" style="stroke:#181818;stroke-width:1;"/><line style="stroke:#181818;stroke-width:1;" x1="28.3618" x2="255.917" y1="126.4199" y2="126.4199"/><text fill="#000000" font-family="sans-serif" font-size="13" lengthAdjust="spacing" textLength="199.8052" x="35.3618" y="121.6777">Another authentication Request</text><polygon fill="#181818" points="39.3618,151.7305,29.3618,155.7305,39.3618,159.7305,35.3618,155.7305" style="stroke:#181818;stroke-width:1;"/><line style="stroke:#181818;stroke-width:1;stroke-dasharray:2.0,2.0;" x1="33.3618" x2="260.917" y1="155.7305" y2="155.7305"/><text fill="#000000" font-family="sans-serif" font-size="13" lengthAdjust="spacing" textLength="209.5552" x="45.3618" y="150.9883">Another authentication Response</text><!--SRC=[Syp9J4vLqBLJSCfFib9mB2t9ICqhoKnEBCdCprC8IYqiJIqkuGBAAUW2rJY256DHLLoGdrUSoiNbY6fONZvGNP528dP38OfjT7K9g8OO3W00]--></g></svg>