<?xml version="1.0" encoding="UTF-8" standalone="no"?>
<!DOCTYPE svg PUBLIC "-//W3C//DTD SVG 1.1//EN"
 "http://www.w3.org/Graphics/SVG/1.1/DTD/svg11.dtd">
<!-- Generated by graphviz version 12.2.1 (20241206.2353)
 -->
<!-- Title: state_diagram Pages: 1 -->
<svg width="107pt" height="267pt"
 viewBox="0.00 0.00 107.42 267.20" xmlns="http://www.w3.org/2000/svg" xmlns:xlink="http://www.w3.org/1999/xlink">
<g id="graph0" class="graph" transform="scale(1 1) rotate(0) translate(4 263.2)">
<title>state_diagram</title>
<polygon fill="white" stroke="none" points="-4,4 -4,-263.2 103.42,-263.2 103.42,4 -4,4"/>
<!-- Start -->
<g id="node1" class="node">
<title>Start</title>
<ellipse fill="black" stroke="black" cx="58.82" cy="-257.4" rx="1.8" ry="1.8"/>
</g>
<!-- Still -->
<g id="node3" class="node">
<title>Still</title>
<ellipse fill="none" stroke="black" cx="58.82" cy="-201.6" rx="27" ry="18"/>
<text text-anchor="middle" x="58.82" y="-196.55" font-family="Times,serif" font-size="14.00">Still</text>
</g>
<!-- Start&#45;&gt;Still -->
<g id="edge1" class="edge">
<title>Start&#45;&gt;Still</title>
<path fill="none" stroke="black" d="M58.82,-255.47C58.82,-252.37 58.82,-242.04 58.82,-231.32"/>
<polygon fill="black" stroke="black" points="62.32,-231.37 58.82,-221.37 55.32,-231.37 62.32,-231.37"/>
</g>
<!-- End -->
<g id="node2" class="node">
<title>End</title>
<ellipse fill="black" stroke="black" cx="19.82" cy="-1.8" rx="1.8" ry="1.8"/>
</g>
<!-- Still&#45;&gt;End -->
<g id="edge2" class="edge">
<title>Still&#45;&gt;End</title>
<path fill="none" stroke="black" d="M41.1,-187.75C29.49,-178.16 15.31,-163.94 8.82,-147.6 -9.62,-101.2 7.05,-39.94 15.54,-14.58"/>
<polygon fill="black" stroke="black" points="18.74,-16.04 18.82,-5.44 12.15,-13.67 18.74,-16.04"/>
</g>
<!-- Moving -->
<g id="node4" class="node">
<title>Moving</title>
<ellipse fill="none" stroke="black" cx="58.82" cy="-129.6" rx="40.6" ry="18"/>
<text text-anchor="middle" x="58.82" y="-124.55" font-family="Times,serif" font-size="14.00">Moving</text>
</g>
<!-- Still&#45;&gt;Moving -->
<g id="edge3" class="edge">
<title>Still&#45;&gt;Moving</title>
<path fill="none" stroke="black" d="M52.94,-183.65C52.16,-176.28 51.9,-167.44 52.17,-159.11"/>
<polygon fill="black" stroke="black" points="55.65,-159.59 52.8,-149.39 48.66,-159.14 55.65,-159.59"/>
</g>
<!-- Moving&#45;&gt;Still -->
<g id="edge4" class="edge">
<title>Moving&#45;&gt;Still</title>
<path fill="none" stroke="black" d="M64.73,-147.88C65.49,-155.2 65.73,-163.94 65.46,-172.17"/>
<polygon fill="black" stroke="black" points="61.97,-171.93 64.79,-182.14 68.95,-172.4 61.97,-171.93"/>
</g>
<!-- Crash -->
<g id="node5" class="node">
<title>Crash</title>
<ellipse fill="none" stroke="black" cx="53.82" cy="-57.6" rx="32.41" ry="18"/>
<text text-anchor="middle" x="53.82" y="-52.55" font-family="Times,serif" font-size="14.00">Crash</text>
</g>
<!-- Moving&#45;&gt;Crash -->
<g id="edge5" class="edge">
<title>Moving&#45;&gt;Crash</title>
<path fill="none" stroke="black" d="M57.58,-111.3C57.06,-104.01 56.44,-95.33 55.85,-87.14"/>
<polygon fill="black" stroke="black" points="59.35,-86.94 55.15,-77.21 52.37,-87.44 59.35,-86.94"/>
</g>
<!-- Crash&#45;&gt;End -->
<g id="edge6" class="edge">
<title>Crash&#45;&gt;End</title>
<path fill="none" stroke="black" d="M43.43,-40.17C37.89,-31.41 31.25,-20.89 26.42,-13.25"/>
<polygon fill="black" stroke="black" points="29.53,-11.62 21.23,-5.04 23.61,-15.36 29.53,-11.62"/>
</g>
</g>
</svg>
