<?xml version="1.0" encoding="UTF-8" standalone="no"?>
<!DOCTYPE svg PUBLIC "-//W3C//DTD SVG 1.1//EN"
 "http://www.w3.org/Graphics/SVG/1.1/DTD/svg11.dtd">
<!-- Generated by graphviz version 12.2.1 (20241206.2353)
 -->
<!-- Title: state_diagram Pages: 1 -->
<svg width="187pt" height="154pt"
 viewBox="0.00 0.00 186.75 154.41" xmlns="http://www.w3.org/2000/svg" xmlns:xlink="http://www.w3.org/1999/xlink">
<g id="graph0" class="graph" transform="scale(1 1) rotate(0) translate(4 150.41)">
<title>state_diagram</title>
<polygon fill="white" stroke="none" points="-4,4 -4,-150.41 182.75,-150.41 182.75,4 -4,4"/>
<!-- Start -->
<g id="node1" class="node">
<title>Start</title>
<ellipse fill="black" stroke="black" cx="1.8" cy="-1.8" rx="1.8" ry="1.8"/>
</g>
<!-- Still -->
<g id="node3" class="node">
<title>Still</title>
<ellipse fill="none" stroke="black" cx="59.48" cy="-49.86" rx="27" ry="18"/>
<text text-anchor="middle" x="59.48" y="-44.81" font-family="Times,serif" font-size="14.00">Still</text>
</g>
<!-- Start&#45;&gt;Still -->
<g id="edge1" class="edge">
<title>Start&#45;&gt;Still</title>
<path fill="none" stroke="black" d="M3.23,-2.99C7.57,-6.61 21.1,-17.88 33.81,-28.47"/>
<polygon fill="black" stroke="black" points="31.26,-30.9 41.19,-34.62 35.75,-25.53 31.26,-30.9"/>
</g>
<!-- End -->
<g id="node2" class="node">
<title>End</title>
<ellipse fill="black" stroke="black" cx="138.31" cy="-47.92" rx="1.8" ry="1.8"/>
</g>
<!-- Still&#45;&gt;End -->
<g id="edge2" class="edge">
<title>Still&#45;&gt;End</title>
<path fill="none" stroke="black" d="M86.61,-49.19C99.54,-48.87 114.42,-48.51 124.89,-48.25"/>
<polygon fill="black" stroke="black" points="124.9,-51.75 134.81,-48.01 124.73,-44.75 124.9,-51.75"/>
</g>
<!-- Moving -->
<g id="node4" class="node">
<title>Moving</title>
<ellipse fill="none" stroke="black" cx="67.66" cy="-128.41" rx="40.6" ry="18"/>
<text text-anchor="middle" x="67.66" y="-123.36" font-family="Times,serif" font-size="14.00">Moving</text>
</g>
<!-- Still&#45;&gt;Moving -->
<g id="edge3" class="edge">
<title>Still&#45;&gt;Moving</title>
<path fill="none" stroke="black" d="M55.61,-67.88C55.6,-77.11 56.51,-88.58 57.99,-99.05"/>
<polygon fill="black" stroke="black" points="54.51,-99.5 59.64,-108.77 61.42,-98.33 54.51,-99.5"/>
</g>
<!-- Moving&#45;&gt;Still -->
<g id="edge4" class="edge">
<title>Moving&#45;&gt;Still</title>
<path fill="none" stroke="black" d="M71.54,-110.39C71.55,-101.02 70.61,-89.36 69.09,-78.77"/>
<polygon fill="black" stroke="black" points="72.55,-78.21 67.4,-68.95 65.65,-79.4 72.55,-78.21"/>
</g>
<!-- Crash -->
<g id="node5" class="node">
<title>Crash</title>
<ellipse fill="none" stroke="black" cx="146.34" cy="-126.29" rx="32.41" ry="18"/>
<text text-anchor="middle" x="146.34" y="-121.24" font-family="Times,serif" font-size="14.00">Crash</text>
</g>
<!-- Moving&#45;&gt;Crash -->
<g id="edge5" class="edge">
<title>Moving&#45;&gt;Crash</title>
<path fill="none" stroke="black" d="M108.39,-127.31C108.5,-127.31 108.61,-127.31 108.72,-127.3"/>
<polygon fill="black" stroke="black" points="102.34,-130.98 112.24,-127.21 102.15,-123.98 102.34,-130.98"/>
</g>
<!-- Crash&#45;&gt;End -->
<g id="edge6" class="edge">
<title>Crash&#45;&gt;End</title>
<path fill="none" stroke="black" d="M144.48,-108.11C143.01,-93.81 141,-74.21 139.68,-61.32"/>
<polygon fill="black" stroke="black" points="143.18,-61.07 138.67,-51.48 136.21,-61.79 143.18,-61.07"/>
</g>
</g>
</svg>
