<svg xmlns="http://www.w3.org/2000/svg" xmlns:xlink="http://www.w3.org/1999/xlink" contentStyleType="text/css" height="444px" preserveAspectRatio="none" style="width:123px;height:444px;background:#FFFFFF;" version="1.1" viewBox="0 0 123 444" width="123px" zoomAndPan="magnify"><defs/><g><ellipse cx="81.39" cy="16" fill="#222222" rx="10" ry="10" style="stroke:#222222;stroke-width:1.0;"/><g id="Still"><rect fill="#F1F1F1" height="50" rx="12.5" ry="12.5" style="stroke:#181818;stroke-width:0.5;" width="50" x="56.39" y="86"/><line style="stroke:#181818;stroke-width:0.5;" x1="56.39" x2="106.39" y1="112.4883" y2="112.4883"/><text fill="#000000" font-family="sans-serif" font-size="14" lengthAdjust="spacing" textLength="24.917" x="68.9315" y="104.5352">Still</text></g><ellipse cx="34.39" cy="427" fill="none" rx="11" ry="11" style="stroke:#222222;stroke-width:1.0;"/><ellipse cx="34.39" cy="427" fill="#222222" rx="6" ry="6" style="stroke:#222222;stroke-width:1.0;"/><g id="Moving"><rect fill="#F1F1F1" height="50" rx="12.5" ry="12.5" style="stroke:#181818;stroke-width:0.5;" width="69.3691" x="46.71" y="196"/><line style="stroke:#181818;stroke-width:0.5;" x1="46.71" x2="116.0791" y1="222.4883" y2="222.4883"/><text fill="#000000" font-family="sans-serif" font-size="14" lengthAdjust="spacing" textLength="49.3691" x="56.71" y="214.5352">Moving</text></g><g id="Crash"><rect fill="#F1F1F1" height="50" rx="12.5" ry="12.5" style="stroke:#181818;stroke-width:0.5;" width="58.9717" x="48.9" y="306"/><line style="stroke:#181818;stroke-width:0.5;" x1="48.9" x2="107.8717" y1="332.4883" y2="332.4883"/><text fill="#000000" font-family="sans-serif" font-size="14" lengthAdjust="spacing" textLength="38.9717" x="58.9" y="324.5352">Crash</text></g><!--link *start* to Still--><g id="link_*start*_Still"><path d="M81.39,26.26 C81.39,39.95 81.39,60.07 81.39,79.52 " fill="none" id="*start*-to-Still" style="stroke:#181818;stroke-width:1.0;"/><polygon fill="#181818" points="81.39,85.52,85.39,76.52,81.39,80.52,77.39,76.52,81.39,85.52" style="stroke:#181818;stroke-width:1.0;"/></g><!--link Still to *end*--><g id="link_Still_*end*"><path d="M61.24,136.35 C49.42,152.24 35.63,174.06 29.39,196 C6,278.21 23.9551,377.8327 30.8851,410.2327 " fill="none" id="Still-to-*end*" style="stroke:#181818;stroke-width:1.0;"/><polygon fill="#181818" points="32.14,416.1,34.1691,406.4624,31.0942,411.2106,26.3461,408.1357,32.14,416.1" style="stroke:#181818;stroke-width:1.0;"/></g><!--link Still to Moving--><g id="link_Still_Moving"><path d="M70.23,136.24 C67.61,154.02 66.7311,172.1447 69.3611,189.9047 " fill="none" id="Still-to-Moving" style="stroke:#181818;stroke-width:1.0;"/><polygon fill="#181818" points="70.24,195.84,72.8785,186.3511,69.5076,190.8939,64.9648,187.523,70.24,195.84" style="stroke:#181818;stroke-width:1.0;"/></g><!--link Moving to Still--><g id="link_Moving_Still"><path d="M92.54,195.84 C95.17,178.08 96.0447,159.9559 93.4247,142.1759 " fill="none" id="Moving-to-Still" style="stroke:#181818;stroke-width:1.0;"/><polygon fill="#181818" points="92.55,136.24,89.9048,145.727,93.2789,141.1866,97.8193,144.5607,92.55,136.24" style="stroke:#181818;stroke-width:1.0;"/></g><!--link Moving to Crash--><g id="link_Moving_Crash"><path d="M80.72,246.24 C80.22,264.02 79.7289,282.0824 79.2289,299.8424 " fill="none" id="Moving-to-Crash" style="stroke:#181818;stroke-width:1.0;"/><polygon fill="#181818" points="79.06,305.84,83.3117,296.9561,79.2007,300.842,75.3149,296.731,79.06,305.84" style="stroke:#181818;stroke-width:1.0;"/></g><!--link Crash to *end*--><g id="link_Crash_*end*"><path d="M67.06,356.21 C57.79,376.01 47.7333,397.4957 41.2233,411.4057 " fill="none" id="Crash-to-*end*" style="stroke:#181818;stroke-width:1.0;"/><polygon fill="#181818" points="38.68,416.84,46.1178,410.3841,40.7994,412.3114,38.8721,406.993,38.68,416.84" style="stroke:#181818;stroke-width:1.0;"/></g><!--SRC=[YzQALT3LjLC8BidCoU42as1-j5Oi5nBNDxyiCo-T2q8XQK0IS2vABCxW0fCm4m00]--></g></svg>