<?xml version="1.0" encoding="UTF-8" standalone="no"?>
<!DOCTYPE svg PUBLIC "-//W3C//DTD SVG 1.1//EN"
 "http://www.w3.org/Graphics/SVG/1.1/DTD/svg11.dtd">
<!-- Generated by graphviz version 7.0.6 (20230106.0513)
 -->
<!-- Title: G Pages: 1 -->
<svg width="321pt" height="240pt"
 viewBox="0.00 0.00 321.08 239.70" xmlns="http://www.w3.org/2000/svg" xmlns:xlink="http://www.w3.org/1999/xlink">
<g id="graph0" class="graph" transform="scale(1 1) rotate(0) translate(4 235.7)">
<title>G</title>
<polygon fill="white" stroke="none" points="-4,4 -4,-235.7 317.08,-235.7 317.08,4 -4,4"/>
<g id="clust1" class="cluster">
<title>cluster_0</title>
<polygon fill="none" stroke="black" points="83.79,0 83.79,-103.52 270.7,-103.52 270.7,0 83.79,0"/>
<text text-anchor="middle" x="177.25" y="-88.32" font-family="Times,serif" font-size="14.00">aws</text>
</g>
<g id="clust2" class="cluster">
<title>cluster_1</title>
<polygon fill="none" stroke="black" points="0,-55.49 0,-91.49 96.19,-91.49 96.19,-55.49 0,-55.49"/>
<text text-anchor="middle" x="48.1" y="-76.29" font-family="Times,serif" font-size="14.00">gcloud</text>
</g>
<!-- aws_db -->
<g id="node1" class="node">
<title>aws_db</title>
<ellipse fill="none" stroke="black" cx="121.49" cy="-79.99" rx="37.89" ry="18"/>
<text text-anchor="middle" x="121.49" y="-76.29" font-family="Times,serif" font-size="14.00">aws_db</text>
</g>
<!-- gcloud_db -->
<g id="node4" class="node">
<title>gcloud_db</title>
<ellipse fill="none" stroke="black" cx="48.1" cy="-73.49" rx="48.19" ry="18"/>
<text text-anchor="middle" x="48.1" y="-69.79" font-family="Times,serif" font-size="14.00">gcloud_db</text>
</g>
<!-- aws_db&#45;&gt;gcloud_db -->
<g id="edge3" class="edge">
<title>aws_db&#45;&gt;gcloud_db</title>
<path fill="none" stroke="black" d="M83.93,-76.67C83.86,-76.66 83.79,-76.65 83.72,-76.65"/>
<polygon fill="black" stroke="black" points="95.29,-74.16 85.02,-76.76 94.67,-81.14 95.29,-74.16"/>
<text text-anchor="middle" x="93.83" y="-65.46" font-family="Times,serif" font-size="14.00">backup</text>
</g>
<!-- cache -->
<g id="node2" class="node">
<title>cache</title>
<ellipse fill="none" stroke="black" cx="240.15" cy="-18" rx="30.59" ry="18"/>
<text text-anchor="middle" x="240.15" y="-14.3" font-family="Times,serif" font-size="14.00">cache</text>
</g>
<!-- ec2 -->
<g id="node3" class="node">
<title>ec2</title>
<ellipse fill="none" stroke="black" cx="199.14" cy="-85.52" rx="27" ry="18"/>
<text text-anchor="middle" x="199.14" y="-81.82" font-family="Times,serif" font-size="14.00">ec2</text>
</g>
<!-- ec2&#45;&gt;aws_db -->
<g id="edge1" class="edge">
<title>ec2&#45;&gt;aws_db</title>
<path fill="none" stroke="black" d="M160.89,-82.8C160.75,-82.79 160.62,-82.78 160.48,-82.77"/>
<polygon fill="black" stroke="black" points="160.25,-86.26 170.47,-83.48 160.74,-79.28 160.25,-86.26"/>
<polygon fill="black" stroke="black" points="171.01,-80.01 160.79,-82.79 170.51,-86.99 171.01,-80.01"/>
<text text-anchor="middle" x="208.18" y="-71.58" font-family="Times,serif" font-size="14.00">get persisted data</text>
</g>
<!-- ec2&#45;&gt;cache -->
<g id="edge2" class="edge">
<title>ec2&#45;&gt;cache</title>
<path fill="none" stroke="black" d="M215.33,-58.86C218.12,-54.27 221.02,-49.5 223.81,-44.9"/>
<polygon fill="black" stroke="black" points="212.47,-56.82 210.27,-67.19 218.45,-60.46 212.47,-56.82"/>
<polygon fill="black" stroke="black" points="226.68,-46.92 228.88,-36.56 220.69,-43.29 226.68,-46.92"/>
<text text-anchor="middle" x="171.57" y="-40.68" font-family="Times,serif" font-size="14.00">get temporal data</text>
</g>
<!-- dev -->
<g id="node5" class="node">
<title>dev</title>
<ellipse fill="none" stroke="black" cx="239.71" cy="-151.95" rx="27" ry="18"/>
<text text-anchor="middle" x="239.71" y="-148.25" font-family="Times,serif" font-size="14.00">dev</text>
</g>
<!-- dev&#45;&gt;ec2 -->
<g id="edge4" class="edge">
<title>dev&#45;&gt;ec2</title>
<path fill="none" stroke="black" d="M229.26,-134.84C225.02,-127.89 220.01,-119.7 215.32,-112.01"/>
<polygon fill="black" stroke="black" points="218.4,-110.34 210.2,-103.63 212.42,-113.99 218.4,-110.34"/>
<text text-anchor="middle" x="213.29" y="-112.23" font-family="Times,serif" font-size="14.00">ssh</text>
</g>
<!-- github -->
<g id="node6" class="node">
<title>github</title>
<ellipse fill="none" stroke="black" cx="279.93" cy="-213.7" rx="33.29" ry="18"/>
<text text-anchor="middle" x="279.93" y="-210" font-family="Times,serif" font-size="14.00">github</text>
</g>
<!-- dev&#45;&gt;github -->
<g id="edge5" class="edge">
<title>dev&#45;&gt;github</title>
<path fill="none" stroke="black" d="M250.7,-168.83C254.36,-174.45 258.54,-180.86 262.57,-187.04"/>
<polygon fill="black" stroke="black" points="259.46,-188.68 267.85,-195.15 265.32,-184.86 259.46,-188.68"/>
<text text-anchor="middle" x="215.63" y="-181.73" font-family="Times,serif" font-size="14.00">version control</text>
</g>
</g>
</svg>
