<?xml version="1.0" encoding="UTF-8" standalone="no"?>
<!DOCTYPE svg PUBLIC "-//W3C//DTD SVG 1.1//EN"
 "http://www.w3.org/Graphics/SVG/1.1/DTD/svg11.dtd">
<!-- Generated by graphviz version 6.0.2 (20221011.1828)
 -->
<!-- Title: G Pages: 1 -->
<svg width="358pt" height="363pt"
 viewBox="0.00 0.00 358.00 363.00" xmlns="http://www.w3.org/2000/svg" xmlns:xlink="http://www.w3.org/1999/xlink">
<g id="graph0" class="graph" transform="scale(1 1) rotate(0) translate(4 359)">
<title>G</title>
<polygon fill="white" stroke="none" points="-4,4 -4,-359 354,-359 354,4 -4,4"/>
<g id="clust1" class="cluster">
<title>cluster_0</title>
<polygon fill="none" stroke="black" points="18,-116 18,-278 266,-278 266,-116 18,-116"/>
<text text-anchor="middle" x="142" y="-262.8" font-family="Times,serif" font-size="14.00">aws</text>
</g>
<g id="clust2" class="cluster">
<title>cluster_1</title>
<polygon fill="none" stroke="black" points="8,-8 8,-83 120,-83 120,-8 8,-8"/>
<text text-anchor="middle" x="64" y="-67.8" font-family="Times,serif" font-size="14.00">gcloud</text>
</g>
<!-- aws_db -->
<g id="node1" class="node">
<title>aws_db</title>
<ellipse fill="none" stroke="black" cx="64" cy="-142" rx="37.89" ry="18"/>
<text text-anchor="middle" x="64" y="-138.3" font-family="Times,serif" font-size="14.00">aws_db</text>
</g>
<!-- gcloud_db -->
<g id="node4" class="node">
<title>gcloud_db</title>
<ellipse fill="none" stroke="black" cx="64" cy="-34" rx="48.19" ry="18"/>
<text text-anchor="middle" x="64" y="-30.3" font-family="Times,serif" font-size="14.00">gcloud_db</text>
</g>
<!-- aws_db&#45;&gt;gcloud_db -->
<g id="edge3" class="edge">
<title>aws_db&#45;&gt;gcloud_db</title>
<path fill="none" stroke="black" d="M64,-123.97C64,-107.38 64,-81.88 64,-62.43"/>
<polygon fill="black" stroke="black" points="67.5,-62.34 64,-52.34 60.5,-62.34 67.5,-62.34"/>
<text text-anchor="middle" x="84" y="-94.8" font-family="Times,serif" font-size="14.00">backup</text>
</g>
<!-- cache -->
<g id="node2" class="node">
<title>cache</title>
<ellipse fill="none" stroke="black" cx="162" cy="-142" rx="30.59" ry="18"/>
<text text-anchor="middle" x="162" y="-138.3" font-family="Times,serif" font-size="14.00">cache</text>
</g>
<!-- ec2 -->
<g id="node3" class="node">
<title>ec2</title>
<ellipse fill="none" stroke="black" cx="162" cy="-229" rx="27" ry="18"/>
<text text-anchor="middle" x="162" y="-225.3" font-family="Times,serif" font-size="14.00">ec2</text>
</g>
<!-- ec2&#45;&gt;aws_db -->
<g id="edge1" class="edge">
<title>ec2&#45;&gt;aws_db</title>
<path fill="none" stroke="black" d="M125.07,-225.23C103.15,-221.46 76.99,-212.79 63,-193 58.4,-186.49 57.23,-178.23 57.61,-170.3"/>
<polygon fill="black" stroke="black" points="124.7,-228.71 135.09,-226.68 125.7,-221.78 124.7,-228.71"/>
<polygon fill="black" stroke="black" points="61.1,-170.6 58.87,-160.24 54.16,-169.73 61.1,-170.6"/>
<text text-anchor="middle" x="110.5" y="-181.8" font-family="Times,serif" font-size="14.00">get persisted data</text>
</g>
<!-- ec2&#45;&gt;cache -->
<g id="edge2" class="edge">
<title>ec2&#45;&gt;cache</title>
<path fill="none" stroke="black" d="M162,-200.73C162,-191.06 162,-180.17 162,-170.48"/>
<polygon fill="black" stroke="black" points="158.5,-200.8 162,-210.8 165.5,-200.8 158.5,-200.8"/>
<polygon fill="black" stroke="black" points="165.5,-170.18 162,-160.18 158.5,-170.18 165.5,-170.18"/>
<text text-anchor="middle" x="210" y="-181.8" font-family="Times,serif" font-size="14.00">get temporal data</text>
</g>
<!-- dev -->
<g id="node5" class="node">
<title>dev</title>
<ellipse fill="none" stroke="black" cx="234" cy="-337" rx="27" ry="18"/>
<text text-anchor="middle" x="234" y="-333.3" font-family="Times,serif" font-size="14.00">dev</text>
</g>
<!-- dev&#45;&gt;ec2 -->
<g id="edge4" class="edge">
<title>dev&#45;&gt;ec2</title>
<path fill="none" stroke="black" d="M223.38,-320.36C211.52,-302.9 192.19,-274.44 178.39,-254.13"/>
<polygon fill="black" stroke="black" points="181.18,-252.01 172.67,-245.7 175.39,-255.94 181.18,-252.01"/>
<text text-anchor="middle" x="217" y="-289.8" font-family="Times,serif" font-size="14.00">ssh</text>
</g>
<!-- github -->
<g id="node6" class="node">
<title>github</title>
<ellipse fill="none" stroke="black" cx="307" cy="-229" rx="33.29" ry="18"/>
<text text-anchor="middle" x="307" y="-225.3" font-family="Times,serif" font-size="14.00">github</text>
</g>
<!-- dev&#45;&gt;github -->
<g id="edge5" class="edge">
<title>dev&#45;&gt;github</title>
<path fill="none" stroke="black" d="M244.77,-320.36C256.73,-303 276.17,-274.77 290.14,-254.48"/>
<polygon fill="black" stroke="black" points="293.16,-256.27 295.95,-246.05 287.39,-252.3 293.16,-256.27"/>
<text text-anchor="middle" x="309" y="-289.8" font-family="Times,serif" font-size="14.00">version control</text>
</g>
</g>
</svg>
