<?xml version="1.0" encoding="UTF-8" standalone="no"?>
<!DOCTYPE svg PUBLIC "-//W3C//DTD SVG 1.1//EN"
 "http://www.w3.org/Graphics/SVG/1.1/DTD/svg11.dtd">
<!-- Generated by graphviz version 6.0.2 (20221011.1828)
 -->
<!-- Title: G Pages: 1 -->
<svg width="321pt" height="240pt"
 viewBox="0.00 0.00 321.08 239.70" xmlns="http://www.w3.org/2000/svg" xmlns:xlink="http://www.w3.org/1999/xlink">
<g id="graph0" class="graph" transform="scale(1 1) rotate(0) translate(4 235.7)">
<title>G</title>
<polygon fill="white" stroke="none" points="-4,4 -4,-235.7 317.08,-235.7 317.08,4 -4,4"/>
<g id="clust1" class="cluster">
<title>cluster_0</title>
<polygon fill="none" stroke="black" points="83.79,0 83.79,-103.52 270.7,-103.52 270.7,0 83.79,0"/>
<text text-anchor="middle" x="177.25" y="-88.32" font-family="Times,serif" font-size="14.00">aws</text>
</g>
<g id="clust2" class="cluster">
<title>cluster_1</title>
<polygon fill="none" stroke="black" points="0,-55.49 0,-91.49 96.19,-91.49 96.19,-55.49 0,-55.49"/>
<text text-anchor="middle" x="48.1" y="-76.29" font-family="Times,serif" font-size="14.00">gcloud</text>
</g>
<!-- aws_db -->
<g id="node1" class="node">
<title>aws_db</title>
<ellipse fill="none" stroke="black" cx="121.49" cy="-79.99" rx="37.89" ry="18"/>
<text text-anchor="middle" x="121.49" y="-76.29" font-family="Times,serif" font-size="14.00">aws_db</text>
</g>
<!-- gcloud_db -->
<g id="node4" class="node">
<title>gcloud_db</title>
<ellipse fill="none" stroke="black" cx="48.1" cy="-73.49" rx="48.19" ry="18"/>
<text text-anchor="middle" x="48.1" y="-69.79" font-family="Times,serif" font-size="14.00">gcloud_db</text>
</g>
<!-- aws_db&#45;&gt;gcloud_db -->
<g id="edge3" class="edge">
<title>aws_db&#45;&gt;gcloud_db</title>
<path fill="none" stroke="black" d="M84.36,-76.7C84.29,-76.7 84.22,-76.69 84.15,-76.69"/>
<polygon fill="black" stroke="black" points="94.21,-74.07 83.94,-76.67 93.59,-81.04 94.21,-74.07"/>
<text text-anchor="middle" x="94.26" y="-65.5" font-family="Times,serif" font-size="14.00">backup</text>
</g>
<!-- cache -->
<g id="node2" class="node">
<title>cache</title>
<ellipse fill="none" stroke="black" cx="240.15" cy="-18" rx="30.59" ry="18"/>
<text text-anchor="middle" x="240.15" y="-14.3" font-family="Times,serif" font-size="14.00">cache</text>
</g>
<!-- ec2 -->
<g id="node3" class="node">
<title>ec2</title>
<ellipse fill="none" stroke="black" cx="199.14" cy="-85.52" rx="27" ry="18"/>
<text text-anchor="middle" x="199.14" y="-81.82" font-family="Times,serif" font-size="14.00">ec2</text>
</g>
<!-- ec2&#45;&gt;aws_db -->
<g id="edge1" class="edge">
<title>ec2&#45;&gt;aws_db</title>
<path fill="none" stroke="black" d="M161.88,-82.87C161.76,-82.86 161.64,-82.85 161.52,-82.84"/>
<polygon fill="black" stroke="black" points="161.75,-86.37 171.98,-83.58 162.25,-79.38 161.75,-86.37"/>
<polygon fill="black" stroke="black" points="169.23,-79.88 159,-82.66 168.73,-86.86 169.23,-79.88"/>
<text text-anchor="middle" x="209.2" y="-71.65" font-family="Times,serif" font-size="14.00">get persisted data</text>
</g>
<!-- ec2&#45;&gt;cache -->
<g id="edge2" class="edge">
<title>ec2&#45;&gt;cache</title>
<path fill="none" stroke="black" d="M214.57,-60.11C217.84,-54.73 221.29,-49.05 224.57,-43.66"/>
<polygon fill="black" stroke="black" points="211.48,-58.46 209.27,-68.83 217.46,-62.1 211.48,-58.46"/>
<polygon fill="black" stroke="black" points="227.64,-45.33 229.85,-34.97 221.66,-41.7 227.64,-45.33"/>
<text text-anchor="middle" x="171.57" y="-40.68" font-family="Times,serif" font-size="14.00">get temporal data</text>
</g>
<!-- dev -->
<g id="node5" class="node">
<title>dev</title>
<ellipse fill="none" stroke="black" cx="239.71" cy="-151.95" rx="27" ry="18"/>
<text text-anchor="middle" x="239.71" y="-148.25" font-family="Times,serif" font-size="14.00">dev</text>
</g>
<!-- dev&#45;&gt;ec2 -->
<g id="edge4" class="edge">
<title>dev&#45;&gt;ec2</title>
<path fill="none" stroke="black" d="M229.47,-135.19C225.04,-127.93 219.75,-119.26 214.83,-111.22"/>
<polygon fill="black" stroke="black" points="217.71,-109.22 209.51,-102.51 211.74,-112.87 217.71,-109.22"/>
<text text-anchor="middle" x="213.15" y="-112" font-family="Times,serif" font-size="14.00">ssh</text>
</g>
<!-- github -->
<g id="node6" class="node">
<title>github</title>
<ellipse fill="none" stroke="black" cx="279.93" cy="-213.7" rx="33.29" ry="18"/>
<text text-anchor="middle" x="279.93" y="-210" font-family="Times,serif" font-size="14.00">github</text>
</g>
<!-- dev&#45;&gt;github -->
<g id="edge5" class="edge">
<title>dev&#45;&gt;github</title>
<path fill="none" stroke="black" d="M250.49,-168.5C254.39,-174.49 258.9,-181.41 263.19,-188"/>
<polygon fill="black" stroke="black" points="260.45,-190.21 268.84,-196.67 266.32,-186.39 260.45,-190.21"/>
<text text-anchor="middle" x="215.84" y="-182.05" font-family="Times,serif" font-size="14.00">version control</text>
</g>
</g>
</svg>
