<?xml version="1.0" encoding="UTF-8" standalone="no"?>
<!DOCTYPE svg PUBLIC "-//W3C//DTD SVG 1.1//EN"
 "http://www.w3.org/Graphics/SVG/1.1/DTD/svg11.dtd">
<!-- Generated by graphviz version 12.2.1 (20241206.2353)
 -->
<!-- Title: G Pages: 1 -->
<svg width="324pt" height="240pt"
 viewBox="0.00 0.00 324.25 239.60" xmlns="http://www.w3.org/2000/svg" xmlns:xlink="http://www.w3.org/1999/xlink">
<g id="graph0" class="graph" transform="scale(1 1) rotate(0) translate(4 235.6)">
<title>G</title>
<polygon fill="white" stroke="none" points="-4,4 -4,-235.6 320.25,-235.6 320.25,4 -4,4"/>
<g id="clust1" class="cluster">
<title>cluster_0</title>
<polygon fill="none" stroke="black" points="84.12,0 84.12,-103.53 273.74,-103.53 273.74,0 84.12,0"/>
<text text-anchor="middle" x="178.93" y="-86.23" font-family="Times,serif" font-size="14.00">aws</text>
</g>
<g id="clust2" class="cluster">
<title>cluster_1</title>
<polygon fill="none" stroke="black" points="0,-55.3 0,-91.3 99.63,-91.3 99.63,-55.3 0,-55.3"/>
<text text-anchor="middle" x="49.82" y="-74" font-family="Times,serif" font-size="14.00">gcloud</text>
</g>
<!-- aws_db -->
<g id="node1" class="node">
<title>aws_db</title>
<ellipse fill="none" stroke="black" cx="123.18" cy="-80.06" rx="39.07" ry="18"/>
<text text-anchor="middle" x="123.18" y="-75.01" font-family="Times,serif" font-size="14.00">aws_db</text>
</g>
<!-- gcloud_db -->
<g id="node4" class="node">
<title>gcloud_db</title>
<ellipse fill="none" stroke="black" cx="49.82" cy="-73.3" rx="49.82" ry="18"/>
<text text-anchor="middle" x="49.82" y="-68.25" font-family="Times,serif" font-size="14.00">gcloud_db</text>
</g>
<!-- aws_db&#45;&gt;gcloud_db -->
<g id="edge3" class="edge">
<title>aws_db&#45;&gt;gcloud_db</title>
<path fill="none" stroke="black" d="M84.78,-76.52C84.71,-76.52 84.64,-76.51 84.57,-76.5"/>
<polygon fill="black" stroke="black" points="96.15,-74.06 85.87,-76.63 95.51,-81.03 96.15,-74.06"/>
<text text-anchor="middle" x="94.43" y="-63.21" font-family="Times,serif" font-size="14.00">backup</text>
</g>
<!-- cache -->
<g id="node2" class="node">
<title>cache</title>
<ellipse fill="none" stroke="black" cx="241.84" cy="-18" rx="31.9" ry="18"/>
<text text-anchor="middle" x="241.84" y="-12.95" font-family="Times,serif" font-size="14.00">cache</text>
</g>
<!-- ec2 -->
<g id="node3" class="node">
<title>ec2</title>
<ellipse fill="none" stroke="black" cx="200.83" cy="-85.53" rx="27" ry="18"/>
<text text-anchor="middle" x="200.83" y="-80.48" font-family="Times,serif" font-size="14.00">ec2</text>
</g>
<!-- ec2&#45;&gt;aws_db -->
<g id="edge1" class="edge">
<title>ec2&#45;&gt;aws_db</title>
<path fill="none" stroke="black" d="M162.44,-82.82C162.38,-82.82 162.31,-82.81 162.25,-82.81"/>
<polygon fill="black" stroke="black" points="161.94,-86.3 172.17,-83.51 162.44,-79.31 161.94,-86.3"/>
<polygon fill="black" stroke="black" points="173.8,-80.12 163.58,-82.9 173.31,-87.1 173.8,-80.12"/>
<text text-anchor="middle" x="209.59" y="-69.52" font-family="Times,serif" font-size="14.00">get persisted data</text>
</g>
<!-- ec2&#45;&gt;cache -->
<g id="edge2" class="edge">
<title>ec2&#45;&gt;cache</title>
<path fill="none" stroke="black" d="M217.02,-58.87C219.81,-54.28 222.71,-49.5 225.5,-44.91"/>
<polygon fill="black" stroke="black" points="214.16,-56.83 211.97,-67.19 220.15,-60.46 214.16,-56.83"/>
<polygon fill="black" stroke="black" points="228.37,-46.93 230.56,-36.56 222.38,-43.29 228.37,-46.93"/>
<text text-anchor="middle" x="173.63" y="-38.59" font-family="Times,serif" font-size="14.00">get temporal data</text>
</g>
<!-- dev -->
<g id="node5" class="node">
<title>dev</title>
<ellipse fill="none" stroke="black" cx="241.41" cy="-151.97" rx="27" ry="18"/>
<text text-anchor="middle" x="241.41" y="-146.92" font-family="Times,serif" font-size="14.00">dev</text>
</g>
<!-- dev&#45;&gt;ec2 -->
<g id="edge4" class="edge">
<title>dev&#45;&gt;ec2</title>
<path fill="none" stroke="black" d="M230.96,-134.86C226.71,-127.9 221.71,-119.71 217.01,-112.02"/>
<polygon fill="black" stroke="black" points="220.09,-110.35 211.89,-103.64 214.12,-114 220.09,-110.35"/>
<text text-anchor="middle" x="215.36" y="-110.14" font-family="Times,serif" font-size="14.00">ssh</text>
</g>
<!-- github -->
<g id="node6" class="node">
<title>github</title>
<ellipse fill="none" stroke="black" cx="281.79" cy="-213.6" rx="34.46" ry="18"/>
<text text-anchor="middle" x="281.79" y="-208.55" font-family="Times,serif" font-size="14.00">github</text>
</g>
<!-- dev&#45;&gt;github -->
<g id="edge5" class="edge">
<title>dev&#45;&gt;github</title>
<path fill="none" stroke="black" d="M252.44,-168.81C256.12,-174.42 260.31,-180.82 264.35,-186.99"/>
<polygon fill="black" stroke="black" points="261.25,-188.64 269.66,-195.08 267.1,-184.8 261.25,-188.64"/>
<text text-anchor="middle" x="217.52" y="-181.1" font-family="Times,serif" font-size="14.00">version control</text>
</g>
</g>
</svg>
