<?xml version="1.0" encoding="UTF-8" standalone="no"?>
<!DOCTYPE svg PUBLIC "-//W3C//DTD SVG 1.1//EN"
 "http://www.w3.org/Graphics/SVG/1.1/DTD/svg11.dtd">
<!-- Generated by graphviz version 12.2.1 (20241206.2353)
 -->
<!-- Title: G Pages: 1 -->
<svg width="360pt" height="371pt"
 viewBox="0.00 0.00 359.59 370.50" xmlns="http://www.w3.org/2000/svg" xmlns:xlink="http://www.w3.org/1999/xlink">
<g id="graph0" class="graph" transform="scale(1 1) rotate(0) translate(4 366.5)">
<title>G</title>
<polygon fill="white" stroke="none" points="-4,4 -4,-366.5 355.59,-366.5 355.59,4 -4,4"/>
<g id="clust1" class="cluster">
<title>cluster_0</title>
<polygon fill="none" stroke="black" points="19,-119 19,-284 266,-284 266,-119 19,-119"/>
<text text-anchor="middle" x="142.5" y="-266.7" font-family="Times,serif" font-size="14.00">aws</text>
</g>
<g id="clust2" class="cluster">
<title>cluster_1</title>
<polygon fill="none" stroke="black" points="8,-8 8,-84.5 124,-84.5 124,-8 8,-8"/>
<text text-anchor="middle" x="66" y="-67.2" font-family="Times,serif" font-size="14.00">gcloud</text>
</g>
<!-- aws_db -->
<g id="node1" class="node">
<title>aws_db</title>
<ellipse fill="none" stroke="black" cx="66" cy="-145" rx="39.07" ry="18"/>
<text text-anchor="middle" x="66" y="-139.95" font-family="Times,serif" font-size="14.00">aws_db</text>
</g>
<!-- gcloud_db -->
<g id="node4" class="node">
<title>gcloud_db</title>
<ellipse fill="none" stroke="black" cx="66" cy="-34" rx="49.82" ry="18"/>
<text text-anchor="middle" x="66" y="-28.95" font-family="Times,serif" font-size="14.00">gcloud_db</text>
</g>
<!-- aws_db&#45;&gt;gcloud_db -->
<g id="edge3" class="edge">
<title>aws_db&#45;&gt;gcloud_db</title>
<path fill="none" stroke="black" d="M66,-126.97C66,-110.03 66,-83.73 66,-63.59"/>
<polygon fill="black" stroke="black" points="69.5,-63.78 66,-53.78 62.5,-63.78 69.5,-63.78"/>
<text text-anchor="middle" x="85.5" y="-95.7" font-family="Times,serif" font-size="14.00">backup</text>
</g>
<!-- cache -->
<g id="node2" class="node">
<title>cache</title>
<ellipse fill="none" stroke="black" cx="163" cy="-145" rx="31.9" ry="18"/>
<text text-anchor="middle" x="163" y="-139.95" font-family="Times,serif" font-size="14.00">cache</text>
</g>
<!-- ec2 -->
<g id="node3" class="node">
<title>ec2</title>
<ellipse fill="none" stroke="black" cx="163" cy="-233.5" rx="27" ry="18"/>
<text text-anchor="middle" x="163" y="-228.45" font-family="Times,serif" font-size="14.00">ec2</text>
</g>
<!-- ec2&#45;&gt;aws_db -->
<g id="edge1" class="edge">
<title>ec2&#45;&gt;aws_db</title>
<path fill="none" stroke="black" d="M124.64,-229.39C103.17,-225.46 78.07,-216.73 64.5,-197.5 59.86,-190.92 58.66,-182.6 59.07,-174.58"/>
<polygon fill="black" stroke="black" points="123.86,-232.81 134.28,-230.85 124.91,-225.89 123.86,-232.81"/>
<polygon fill="black" stroke="black" points="62.52,-175.15 60.39,-164.77 55.59,-174.21 62.52,-175.15"/>
<text text-anchor="middle" x="111.75" y="-184.2" font-family="Times,serif" font-size="14.00">get persisted data</text>
</g>
<!-- ec2&#45;&gt;cache -->
<g id="edge2" class="edge">
<title>ec2&#45;&gt;cache</title>
<path fill="none" stroke="black" d="M163,-204.28C163,-194.79 163,-184.2 163,-174.68"/>
<polygon fill="black" stroke="black" points="159.5,-203.9 163,-213.9 166.5,-203.9 159.5,-203.9"/>
<polygon fill="black" stroke="black" points="166.5,-174.86 163,-164.86 159.5,-174.86 166.5,-174.86"/>
<text text-anchor="middle" x="210.62" y="-184.2" font-family="Times,serif" font-size="14.00">get temporal data</text>
</g>
<!-- dev -->
<g id="node5" class="node">
<title>dev</title>
<ellipse fill="none" stroke="black" cx="236" cy="-344.5" rx="27" ry="18"/>
<text text-anchor="middle" x="236" y="-339.45" font-family="Times,serif" font-size="14.00">dev</text>
</g>
<!-- dev&#45;&gt;ec2 -->
<g id="edge4" class="edge">
<title>dev&#45;&gt;ec2</title>
<path fill="none" stroke="black" d="M225.54,-327.88C213.63,-310.1 194,-280.78 179.9,-259.74"/>
<polygon fill="black" stroke="black" points="182.99,-258.06 174.52,-251.7 177.18,-261.96 182.99,-258.06"/>
<text text-anchor="middle" x="221.01" y="-295.2" font-family="Times,serif" font-size="14.00">ssh</text>
</g>
<!-- github -->
<g id="node6" class="node">
<title>github</title>
<ellipse fill="none" stroke="black" cx="308" cy="-233.5" rx="34.46" ry="18"/>
<text text-anchor="middle" x="308" y="-228.45" font-family="Times,serif" font-size="14.00">github</text>
</g>
<!-- dev&#45;&gt;github -->
<g id="edge5" class="edge">
<title>dev&#45;&gt;github</title>
<path fill="none" stroke="black" d="M246.32,-327.88C257.94,-310.28 277.03,-281.38 290.9,-260.39"/>
<polygon fill="black" stroke="black" points="293.81,-262.34 296.4,-252.06 287.97,-258.48 293.81,-262.34"/>
<text text-anchor="middle" x="310.72" y="-295.2" font-family="Times,serif" font-size="14.00">version control</text>
</g>
</g>
</svg>
