<?xml version="1.0" encoding="UTF-8" standalone="no"?>
<!DOCTYPE svg PUBLIC "-//W3C//DTD SVG 1.1//EN"
 "http://www.w3.org/Graphics/SVG/1.1/DTD/svg11.dtd">
<!-- Generated by graphviz version 12.2.1 (20241206.2353)
 -->
<!-- Pages: 1 -->
<svg width="394pt" height="207pt"
 viewBox="0.00 0.00 393.98 207.00" xmlns="http://www.w3.org/2000/svg" xmlns:xlink="http://www.w3.org/1999/xlink">
<g id="graph0" class="graph" transform="scale(1 1) rotate(0) translate(36 171)">
<polygon fill="white" stroke="none" points="-36,36 -36,-171 357.98,-171 357.98,36 -36,36"/>
<!-- Car -->
<g id="node1" class="node">
<title>Car</title>
<polygon fill="none" stroke="black" points="0,-112.5 0,-135 149.25,-135 149.25,-112.5 0,-112.5"/>
<text text-anchor="start" x="64.12" y="-119.7" font-family="Times,serif" font-style="italic" font-size="14.00">Car</text>
<polygon fill="none" stroke="black" points="149.25,-112.5 149.25,-135 223.5,-135 223.5,-112.5 149.25,-112.5"/>
<polygon fill="none" stroke="black" points="223.5,-112.5 223.5,-135 243,-135 243,-112.5 223.5,-112.5"/>
<polygon fill="none" stroke="black" points="0,-90 0,-112.5 149.25,-112.5 149.25,-90 0,-90"/>
<text text-anchor="start" x="67.5" y="-96.2" font-family="Times,serif" font-size="14.00">int</text>
<polygon fill="none" stroke="black" points="149.25,-90 149.25,-112.5 223.5,-112.5 223.5,-90 149.25,-90"/>
<text text-anchor="start" x="181.12" y="-96.2" font-family="Times,serif" font-size="14.00">id</text>
<polygon fill="none" stroke="black" points="223.5,-90 223.5,-112.5 243,-112.5 243,-90 223.5,-90"/>
<text text-anchor="start" x="226.5" y="-96.2" font-family="Times,serif" font-size="14.00">pk</text>
<polygon fill="none" stroke="black" points="0,-67.5 0,-90 149.25,-90 149.25,-67.5 0,-67.5"/>
<text text-anchor="start" x="3" y="-73.7" font-family="Times,serif" font-size="14.00">timestamp with time zone</text>
<polygon fill="none" stroke="black" points="149.25,-67.5 149.25,-90 223.5,-90 223.5,-67.5 149.25,-67.5"/>
<text text-anchor="start" x="152.25" y="-73.7" font-family="Times,serif" font-size="14.00">last_updated</text>
<polygon fill="none" stroke="black" points="223.5,-67.5 223.5,-90 243,-90 243,-67.5 223.5,-67.5"/>
<polygon fill="none" stroke="black" points="0,-45 0,-67.5 149.25,-67.5 149.25,-45 0,-45"/>
<text text-anchor="start" x="59.25" y="-51.2" font-family="Times,serif" font-size="14.00">string</text>
<polygon fill="none" stroke="black" points="149.25,-45 149.25,-67.5 223.5,-67.5 223.5,-45 149.25,-45"/>
<text text-anchor="start" x="171.38" y="-51.2" font-family="Times,serif" font-size="14.00">make</text>
<polygon fill="none" stroke="black" points="223.5,-45 223.5,-67.5 243,-67.5 243,-45 223.5,-45"/>
<polygon fill="none" stroke="black" points="0,-22.5 0,-45 149.25,-45 149.25,-22.5 0,-22.5"/>
<text text-anchor="start" x="59.25" y="-28.7" font-family="Times,serif" font-size="14.00">string</text>
<polygon fill="none" stroke="black" points="149.25,-22.5 149.25,-45 223.5,-45 223.5,-22.5 149.25,-22.5"/>
<text text-anchor="start" x="169.12" y="-28.7" font-family="Times,serif" font-size="14.00">model</text>
<polygon fill="none" stroke="black" points="223.5,-22.5 223.5,-45 243,-45 243,-22.5 223.5,-22.5"/>
<polygon fill="none" stroke="black" points="0,0 0,-22.5 149.25,-22.5 149.25,0 0,0"/>
<text text-anchor="start" x="67.5" y="-6.2" font-family="Times,serif" font-size="14.00">int</text>
<polygon fill="none" stroke="black" points="149.25,0 149.25,-22.5 223.5,-22.5 223.5,0 149.25,0"/>
<text text-anchor="start" x="174.75" y="-6.2" font-family="Times,serif" font-size="14.00">year</text>
<polygon fill="none" stroke="black" points="223.5,0 223.5,-22.5 243,-22.5 243,0 223.5,0"/>
</g>
<!-- Factory -->
<g id="node2" class="node">
<title>Factory</title>
<polygon fill="none" stroke="black" points="206.48,-81.65 206.48,-104.15 255.23,-104.15 255.23,-81.65 206.48,-81.65"/>
<text text-anchor="start" x="209.48" y="-88.85" font-family="Times,serif" font-style="italic" font-size="14.00">Factory</text>
<polygon fill="none" stroke="black" points="255.23,-81.65 255.23,-104.15 302.48,-104.15 302.48,-81.65 255.23,-81.65"/>
<polygon fill="none" stroke="black" points="302.48,-81.65 302.48,-104.15 321.98,-104.15 321.98,-81.65 302.48,-81.65"/>
<polygon fill="none" stroke="black" points="206.48,-59.15 206.48,-81.65 255.23,-81.65 255.23,-59.15 206.48,-59.15"/>
<text text-anchor="start" x="223.73" y="-65.35" font-family="Times,serif" font-size="14.00">int</text>
<polygon fill="none" stroke="black" points="255.23,-59.15 255.23,-81.65 302.48,-81.65 302.48,-59.15 255.23,-59.15"/>
<text text-anchor="start" x="273.61" y="-65.35" font-family="Times,serif" font-size="14.00">id</text>
<polygon fill="none" stroke="black" points="302.48,-59.15 302.48,-81.65 321.98,-81.65 321.98,-59.15 302.48,-59.15"/>
<text text-anchor="start" x="305.48" y="-65.35" font-family="Times,serif" font-size="14.00">pk</text>
<polygon fill="none" stroke="black" points="206.48,-36.65 206.48,-59.15 255.23,-59.15 255.23,-36.65 206.48,-36.65"/>
<text text-anchor="start" x="215.48" y="-42.85" font-family="Times,serif" font-size="14.00">string</text>
<polygon fill="none" stroke="black" points="255.23,-36.65 255.23,-59.15 302.48,-59.15 302.48,-36.65 255.23,-36.65"/>
<text text-anchor="start" x="258.23" y="-42.85" font-family="Times,serif" font-size="14.00">country</text>
<polygon fill="none" stroke="black" points="302.48,-36.65 302.48,-59.15 321.98,-59.15 321.98,-36.65 302.48,-36.65"/>
</g>
<!-- FactoryCarSupport -->
<g id="node3" class="node">
<title>FactoryCarSupport</title>
<polygon fill="none" stroke="black" points="101.22,-80.29 101.22,-102.79 221.22,-102.79 221.22,-80.29 101.22,-80.29"/>
<text text-anchor="start" x="104.22" y="-87.49" font-family="Times,serif" font-style="italic" font-size="14.00">Factory Car Support</text>
<polygon fill="none" stroke="black" points="221.22,-80.29 221.22,-102.79 265.47,-102.79 265.47,-80.29 221.22,-80.29"/>
<polygon fill="none" stroke="black" points="265.47,-80.29 265.47,-102.79 284.97,-102.79 284.97,-80.29 265.47,-80.29"/>
<polygon fill="none" stroke="black" points="101.22,-57.79 101.22,-80.29 221.22,-80.29 221.22,-57.79 101.22,-57.79"/>
<text text-anchor="start" x="154.1" y="-63.99" font-family="Times,serif" font-size="14.00">int</text>
<polygon fill="none" stroke="black" points="221.22,-57.79 221.22,-80.29 265.47,-80.29 265.47,-57.79 221.22,-57.79"/>
<text text-anchor="start" x="238.1" y="-63.99" font-family="Times,serif" font-size="14.00">id</text>
<polygon fill="none" stroke="black" points="265.47,-57.79 265.47,-80.29 284.97,-80.29 284.97,-57.79 265.47,-57.79"/>
<text text-anchor="start" x="268.47" y="-63.99" font-family="Times,serif" font-size="14.00">pk</text>
<polygon fill="none" stroke="black" points="101.22,-35.29 101.22,-57.79 221.22,-57.79 221.22,-35.29 101.22,-35.29"/>
<text text-anchor="start" x="154.1" y="-41.49" font-family="Times,serif" font-size="14.00">int</text>
<polygon fill="none" stroke="black" points="221.22,-35.29 221.22,-57.79 265.47,-57.79 265.47,-35.29 221.22,-35.29"/>
<text text-anchor="start" x="224.22" y="-41.49" font-family="Times,serif" font-size="14.00">factory</text>
<polygon fill="none" stroke="black" points="265.47,-35.29 265.47,-57.79 284.97,-57.79 284.97,-35.29 265.47,-35.29"/>
<text text-anchor="start" x="269.6" y="-41.49" font-family="Times,serif" font-size="14.00">fk</text>
<polygon fill="none" stroke="black" points="101.22,-12.79 101.22,-35.29 221.22,-35.29 221.22,-12.79 101.22,-12.79"/>
<text text-anchor="start" x="154.1" y="-18.99" font-family="Times,serif" font-size="14.00">int</text>
<polygon fill="none" stroke="black" points="221.22,-12.79 221.22,-35.29 265.47,-35.29 265.47,-12.79 221.22,-12.79"/>
<text text-anchor="start" x="235.1" y="-18.99" font-family="Times,serif" font-size="14.00">car</text>
<polygon fill="none" stroke="black" points="265.47,-12.79 265.47,-35.29 284.97,-35.29 284.97,-12.79 265.47,-12.79"/>
<text text-anchor="start" x="269.6" y="-18.99" font-family="Times,serif" font-size="14.00">fk</text>
</g>
<!-- FactoryCarSupport&#45;&gt;Car -->
<g id="edge2" class="edge">
<title>FactoryCarSupport:3&#45;&gt;Car:1</title>
<path fill="none" stroke="black" d="M101.22,-24.04C101.22,-24.04 201.22,-78.5 233.25,-95.94"/>
<polygon fill="black" stroke="black" points="231.21,-98.82 241.67,-100.53 234.56,-92.67 231.21,-98.82"/>
</g>
<!-- FactoryCarSupport&#45;&gt;Factory -->
<g id="edge1" class="edge">
<title>FactoryCarSupport:2&#45;&gt;Factory:1</title>
<path fill="none" stroke="black" d="M101.22,-46.54C101.22,-46.54 168.72,-61.84 195.61,-67.94"/>
<polygon fill="black" stroke="black" points="194.48,-71.27 205.01,-70.07 196.03,-64.44 194.48,-71.27"/>
</g>
</g>
</svg>
