<?xml version="1.0" encoding="UTF-8" standalone="no"?>
<!DOCTYPE svg PUBLIC "-//W3C//DTD SVG 1.1//EN"
 "http://www.w3.org/Graphics/SVG/1.1/DTD/svg11.dtd">
<!-- Generated by graphviz version 12.1.0 (20240811.2233)
 -->
<!-- Pages: 1 -->
<svg width="393pt" height="204pt"
 viewBox="0.00 0.00 392.73 204.00" xmlns="http://www.w3.org/2000/svg" xmlns:xlink="http://www.w3.org/1999/xlink">
<g id="graph0" class="graph" transform="scale(1 1) rotate(0) translate(36 168)">
<polygon fill="white" stroke="none" points="-36,36 -36,-168 356.73,-168 356.73,36 -36,36"/>
<!-- Car -->
<g id="node1" class="node">
<title>Car</title>
<polygon fill="none" stroke="black" points="0,-110 0,-132 149,-132 149,-110 0,-110"/>
<text text-anchor="start" x="64" y="-116.7" font-family="Times,serif" font-style="italic" font-size="14.00">Car</text>
<polygon fill="none" stroke="black" points="149,-110 149,-132 223,-132 223,-110 149,-110"/>
<polygon fill="none" stroke="black" points="223,-110 223,-132 242,-132 242,-110 223,-110"/>
<polygon fill="none" stroke="black" points="0,-88 0,-110 149,-110 149,-88 0,-88"/>
<text text-anchor="start" x="67.38" y="-93.7" font-family="Times,serif" font-size="14.00">int</text>
<polygon fill="none" stroke="black" points="149,-88 149,-110 223,-110 223,-88 149,-88"/>
<text text-anchor="start" x="180.75" y="-93.7" font-family="Times,serif" font-size="14.00">id</text>
<polygon fill="none" stroke="black" points="223,-88 223,-110 242,-110 242,-88 223,-88"/>
<text text-anchor="start" x="225.75" y="-93.7" font-family="Times,serif" font-size="14.00">pk</text>
<polygon fill="none" stroke="black" points="0,-66 0,-88 149,-88 149,-66 0,-66"/>
<text text-anchor="start" x="2.88" y="-71.7" font-family="Times,serif" font-size="14.00">timestamp with time zone</text>
<polygon fill="none" stroke="black" points="149,-66 149,-88 223,-88 223,-66 149,-66"/>
<text text-anchor="start" x="151.88" y="-71.7" font-family="Times,serif" font-size="14.00">last_updated</text>
<polygon fill="none" stroke="black" points="223,-66 223,-88 242,-88 242,-66 223,-66"/>
<polygon fill="none" stroke="black" points="0,-44 0,-66 149,-66 149,-44 0,-44"/>
<text text-anchor="start" x="59.12" y="-49.7" font-family="Times,serif" font-size="14.00">string</text>
<polygon fill="none" stroke="black" points="149,-44 149,-66 223,-66 223,-44 149,-44"/>
<text text-anchor="start" x="171" y="-49.7" font-family="Times,serif" font-size="14.00">make</text>
<polygon fill="none" stroke="black" points="223,-44 223,-66 242,-66 242,-44 223,-44"/>
<polygon fill="none" stroke="black" points="0,-22 0,-44 149,-44 149,-22 0,-22"/>
<text text-anchor="start" x="59.12" y="-27.7" font-family="Times,serif" font-size="14.00">string</text>
<polygon fill="none" stroke="black" points="149,-22 149,-44 223,-44 223,-22 149,-22"/>
<text text-anchor="start" x="168.75" y="-27.7" font-family="Times,serif" font-size="14.00">model</text>
<polygon fill="none" stroke="black" points="223,-22 223,-44 242,-44 242,-22 223,-22"/>
<polygon fill="none" stroke="black" points="0,0 0,-22 149,-22 149,0 0,0"/>
<text text-anchor="start" x="67.38" y="-5.7" font-family="Times,serif" font-size="14.00">int</text>
<polygon fill="none" stroke="black" points="149,0 149,-22 223,-22 223,0 149,0"/>
<text text-anchor="start" x="174.38" y="-5.7" font-family="Times,serif" font-size="14.00">year</text>
<polygon fill="none" stroke="black" points="223,0 223,-22 242,-22 242,0 223,0"/>
</g>
<!-- Factory -->
<g id="node2" class="node">
<title>Factory</title>
<polygon fill="none" stroke="black" points="206.73,-79.9 206.73,-101.9 254.73,-101.9 254.73,-79.9 206.73,-79.9"/>
<text text-anchor="start" x="209.36" y="-86.6" font-family="Times,serif" font-style="italic" font-size="14.00">Factory</text>
<polygon fill="none" stroke="black" points="254.73,-79.9 254.73,-101.9 301.73,-101.9 301.73,-79.9 254.73,-79.9"/>
<polygon fill="none" stroke="black" points="301.73,-79.9 301.73,-101.9 320.73,-101.9 320.73,-79.9 301.73,-79.9"/>
<polygon fill="none" stroke="black" points="206.73,-57.9 206.73,-79.9 254.73,-79.9 254.73,-57.9 206.73,-57.9"/>
<text text-anchor="start" x="223.61" y="-63.6" font-family="Times,serif" font-size="14.00">int</text>
<polygon fill="none" stroke="black" points="254.73,-57.9 254.73,-79.9 301.73,-79.9 301.73,-57.9 254.73,-57.9"/>
<text text-anchor="start" x="272.98" y="-63.6" font-family="Times,serif" font-size="14.00">id</text>
<polygon fill="none" stroke="black" points="301.73,-57.9 301.73,-79.9 320.73,-79.9 320.73,-57.9 301.73,-57.9"/>
<text text-anchor="start" x="304.48" y="-63.6" font-family="Times,serif" font-size="14.00">pk</text>
<polygon fill="none" stroke="black" points="206.73,-35.9 206.73,-57.9 254.73,-57.9 254.73,-35.9 206.73,-35.9"/>
<text text-anchor="start" x="215.36" y="-41.6" font-family="Times,serif" font-size="14.00">string</text>
<polygon fill="none" stroke="black" points="254.73,-35.9 254.73,-57.9 301.73,-57.9 301.73,-35.9 254.73,-35.9"/>
<text text-anchor="start" x="257.61" y="-41.6" font-family="Times,serif" font-size="14.00">country</text>
<polygon fill="none" stroke="black" points="301.73,-35.9 301.73,-57.9 320.73,-57.9 320.73,-35.9 301.73,-35.9"/>
</g>
<!-- FactoryCarSupport -->
<g id="node3" class="node">
<title>FactoryCarSupport</title>
<polygon fill="none" stroke="black" points="101.1,-78.29 101.1,-100.29 221.1,-100.29 221.1,-78.29 101.1,-78.29"/>
<text text-anchor="start" x="104.1" y="-84.99" font-family="Times,serif" font-style="italic" font-size="14.00">Factory Car Support</text>
<polygon fill="none" stroke="black" points="221.1,-78.29 221.1,-100.29 265.1,-100.29 265.1,-78.29 221.1,-78.29"/>
<polygon fill="none" stroke="black" points="265.1,-78.29 265.1,-100.29 284.1,-100.29 284.1,-78.29 265.1,-78.29"/>
<polygon fill="none" stroke="black" points="101.1,-56.29 101.1,-78.29 221.1,-78.29 221.1,-56.29 101.1,-56.29"/>
<text text-anchor="start" x="153.97" y="-61.99" font-family="Times,serif" font-size="14.00">int</text>
<polygon fill="none" stroke="black" points="221.1,-56.29 221.1,-78.29 265.1,-78.29 265.1,-56.29 221.1,-56.29"/>
<text text-anchor="start" x="237.85" y="-61.99" font-family="Times,serif" font-size="14.00">id</text>
<polygon fill="none" stroke="black" points="265.1,-56.29 265.1,-78.29 284.1,-78.29 284.1,-56.29 265.1,-56.29"/>
<text text-anchor="start" x="267.85" y="-61.99" font-family="Times,serif" font-size="14.00">pk</text>
<polygon fill="none" stroke="black" points="101.1,-34.29 101.1,-56.29 221.1,-56.29 221.1,-34.29 101.1,-34.29"/>
<text text-anchor="start" x="153.97" y="-39.99" font-family="Times,serif" font-size="14.00">int</text>
<polygon fill="none" stroke="black" points="221.1,-34.29 221.1,-56.29 265.1,-56.29 265.1,-34.29 221.1,-34.29"/>
<text text-anchor="start" x="223.97" y="-39.99" font-family="Times,serif" font-size="14.00">factory</text>
<polygon fill="none" stroke="black" points="265.1,-34.29 265.1,-56.29 284.1,-56.29 284.1,-34.29 265.1,-34.29"/>
<text text-anchor="start" x="268.97" y="-39.99" font-family="Times,serif" font-size="14.00">fk</text>
<polygon fill="none" stroke="black" points="101.1,-12.29 101.1,-34.29 221.1,-34.29 221.1,-12.29 101.1,-12.29"/>
<text text-anchor="start" x="153.97" y="-17.99" font-family="Times,serif" font-size="14.00">int</text>
<polygon fill="none" stroke="black" points="221.1,-12.29 221.1,-34.29 265.1,-34.29 265.1,-12.29 221.1,-12.29"/>
<text text-anchor="start" x="234.85" y="-17.99" font-family="Times,serif" font-size="14.00">car</text>
<polygon fill="none" stroke="black" points="265.1,-12.29 265.1,-34.29 284.1,-34.29 284.1,-12.29 265.1,-12.29"/>
<text text-anchor="start" x="268.97" y="-17.99" font-family="Times,serif" font-size="14.00">fk</text>
</g>
<!-- FactoryCarSupport&#45;&gt;Car -->
<g id="edge2" class="edge">
<title>FactoryCarSupport:3&#45;&gt;Car:1</title>
<path fill="none" stroke="black" d="M101.1,-23.29C101.1,-23.29 199.56,-76.19 231.87,-93.55"/>
<polygon fill="black" stroke="black" points="230.2,-96.63 240.67,-98.28 233.51,-90.47 230.2,-96.63"/>
</g>
<!-- FactoryCarSupport&#45;&gt;Factory -->
<g id="edge1" class="edge">
<title>FactoryCarSupport:2&#45;&gt;Factory:1</title>
<path fill="none" stroke="black" d="M101.1,-45.29C101.1,-45.29 168.84,-60.43 195.83,-66.46"/>
<polygon fill="black" stroke="black" points="194.73,-69.81 205.26,-68.57 196.26,-62.97 194.73,-69.81"/>
</g>
</g>
</svg>
