<?xml version="1.0" encoding="UTF-8" standalone="no"?>
<!DOCTYPE svg PUBLIC "-//W3C//DTD SVG 1.1//EN"
 "http://www.w3.org/Graphics/SVG/1.1/DTD/svg11.dtd">
<!-- Generated by graphviz version 12.2.1 (20241206.2353)
 -->
<!-- Pages: 1 -->
<svg width="664pt" height="310pt"
 viewBox="0.00 0.00 664.10 310.25" xmlns="http://www.w3.org/2000/svg" xmlns:xlink="http://www.w3.org/1999/xlink">
<g id="graph0" class="graph" transform="scale(1 1) rotate(0) translate(36 274.25)">
<polygon fill="white" stroke="none" points="-36,36 -36,-274.25 628.1,-274.25 628.1,36 -36,36"/>
<!-- Car -->
<g id="node1" class="node">
<title>Car</title>
<polygon fill="none" stroke="black" points="338.31,-112.5 338.31,-135 487.56,-135 487.56,-112.5 338.31,-112.5"/>
<text text-anchor="start" x="402.43" y="-119.7" font-family="Times,serif" font-style="italic" font-size="14.00">Car</text>
<polygon fill="none" stroke="black" points="487.56,-112.5 487.56,-135 561.81,-135 561.81,-112.5 487.56,-112.5"/>
<polygon fill="none" stroke="black" points="561.81,-112.5 561.81,-135 581.31,-135 581.31,-112.5 561.81,-112.5"/>
<polygon fill="none" stroke="black" points="338.31,-90 338.31,-112.5 487.56,-112.5 487.56,-90 338.31,-90"/>
<text text-anchor="start" x="405.81" y="-96.2" font-family="Times,serif" font-size="14.00">int</text>
<polygon fill="none" stroke="black" points="487.56,-90 487.56,-112.5 561.81,-112.5 561.81,-90 487.56,-90"/>
<text text-anchor="start" x="519.43" y="-96.2" font-family="Times,serif" font-size="14.00">id</text>
<polygon fill="none" stroke="black" points="561.81,-90 561.81,-112.5 581.31,-112.5 581.31,-90 561.81,-90"/>
<text text-anchor="start" x="564.81" y="-96.2" font-family="Times,serif" font-size="14.00">pk</text>
<polygon fill="none" stroke="black" points="338.31,-67.5 338.31,-90 487.56,-90 487.56,-67.5 338.31,-67.5"/>
<text text-anchor="start" x="341.31" y="-73.7" font-family="Times,serif" font-size="14.00">timestamp with time zone</text>
<polygon fill="none" stroke="black" points="487.56,-67.5 487.56,-90 561.81,-90 561.81,-67.5 487.56,-67.5"/>
<text text-anchor="start" x="490.56" y="-73.7" font-family="Times,serif" font-size="14.00">last_updated</text>
<polygon fill="none" stroke="black" points="561.81,-67.5 561.81,-90 581.31,-90 581.31,-67.5 561.81,-67.5"/>
<polygon fill="none" stroke="black" points="338.31,-45 338.31,-67.5 487.56,-67.5 487.56,-45 338.31,-45"/>
<text text-anchor="start" x="397.56" y="-51.2" font-family="Times,serif" font-size="14.00">string</text>
<polygon fill="none" stroke="black" points="487.56,-45 487.56,-67.5 561.81,-67.5 561.81,-45 487.56,-45"/>
<text text-anchor="start" x="509.68" y="-51.2" font-family="Times,serif" font-size="14.00">make</text>
<polygon fill="none" stroke="black" points="561.81,-45 561.81,-67.5 581.31,-67.5 581.31,-45 561.81,-45"/>
<polygon fill="none" stroke="black" points="338.31,-22.5 338.31,-45 487.56,-45 487.56,-22.5 338.31,-22.5"/>
<text text-anchor="start" x="397.56" y="-28.7" font-family="Times,serif" font-size="14.00">string</text>
<polygon fill="none" stroke="black" points="487.56,-22.5 487.56,-45 561.81,-45 561.81,-22.5 487.56,-22.5"/>
<text text-anchor="start" x="507.43" y="-28.7" font-family="Times,serif" font-size="14.00">model</text>
<polygon fill="none" stroke="black" points="561.81,-22.5 561.81,-45 581.31,-45 581.31,-22.5 561.81,-22.5"/>
<polygon fill="none" stroke="black" points="338.31,0 338.31,-22.5 487.56,-22.5 487.56,0 338.31,0"/>
<text text-anchor="start" x="405.81" y="-6.2" font-family="Times,serif" font-size="14.00">int</text>
<polygon fill="none" stroke="black" points="487.56,0 487.56,-22.5 561.81,-22.5 561.81,0 487.56,0"/>
<text text-anchor="start" x="513.06" y="-6.2" font-family="Times,serif" font-size="14.00">year</text>
<polygon fill="none" stroke="black" points="561.81,0 561.81,-22.5 581.31,-22.5 581.31,0 561.81,0"/>
</g>
<!-- Factory -->
<g id="node2" class="node">
<title>Factory</title>
<polygon fill="none" stroke="black" points="402.06,-215.75 402.06,-238.25 450.81,-238.25 450.81,-215.75 402.06,-215.75"/>
<text text-anchor="start" x="405.06" y="-222.95" font-family="Times,serif" font-style="italic" font-size="14.00">Factory</text>
<polygon fill="none" stroke="black" points="450.81,-215.75 450.81,-238.25 498.06,-238.25 498.06,-215.75 450.81,-215.75"/>
<polygon fill="none" stroke="black" points="498.06,-215.75 498.06,-238.25 517.56,-238.25 517.56,-215.75 498.06,-215.75"/>
<polygon fill="none" stroke="black" points="402.06,-193.25 402.06,-215.75 450.81,-215.75 450.81,-193.25 402.06,-193.25"/>
<text text-anchor="start" x="419.31" y="-199.45" font-family="Times,serif" font-size="14.00">int</text>
<polygon fill="none" stroke="black" points="450.81,-193.25 450.81,-215.75 498.06,-215.75 498.06,-193.25 450.81,-193.25"/>
<text text-anchor="start" x="469.18" y="-199.45" font-family="Times,serif" font-size="14.00">id</text>
<polygon fill="none" stroke="black" points="498.06,-193.25 498.06,-215.75 517.56,-215.75 517.56,-193.25 498.06,-193.25"/>
<text text-anchor="start" x="501.06" y="-199.45" font-family="Times,serif" font-size="14.00">pk</text>
<polygon fill="none" stroke="black" points="402.06,-170.75 402.06,-193.25 450.81,-193.25 450.81,-170.75 402.06,-170.75"/>
<text text-anchor="start" x="411.06" y="-176.95" font-family="Times,serif" font-size="14.00">string</text>
<polygon fill="none" stroke="black" points="450.81,-170.75 450.81,-193.25 498.06,-193.25 498.06,-170.75 450.81,-170.75"/>
<text text-anchor="start" x="453.81" y="-176.95" font-family="Times,serif" font-size="14.00">country</text>
<polygon fill="none" stroke="black" points="498.06,-170.75 498.06,-193.25 517.56,-193.25 517.56,-170.75 498.06,-170.75"/>
</g>
<!-- FactoryCarSupport -->
<g id="node3" class="node">
<title>FactoryCarSupport</title>
<polygon fill="none" stroke="black" points="10.56,-197 10.56,-219.5 130.56,-219.5 130.56,-197 10.56,-197"/>
<text text-anchor="start" x="13.56" y="-204.2" font-family="Times,serif" font-style="italic" font-size="14.00">Factory Car Support</text>
<polygon fill="none" stroke="black" points="130.56,-197 130.56,-219.5 174.81,-219.5 174.81,-197 130.56,-197"/>
<polygon fill="none" stroke="black" points="174.81,-197 174.81,-219.5 194.31,-219.5 194.31,-197 174.81,-197"/>
<polygon fill="none" stroke="black" points="10.56,-174.5 10.56,-197 130.56,-197 130.56,-174.5 10.56,-174.5"/>
<text text-anchor="start" x="63.43" y="-180.7" font-family="Times,serif" font-size="14.00">int</text>
<polygon fill="none" stroke="black" points="130.56,-174.5 130.56,-197 174.81,-197 174.81,-174.5 130.56,-174.5"/>
<text text-anchor="start" x="147.43" y="-180.7" font-family="Times,serif" font-size="14.00">id</text>
<polygon fill="none" stroke="black" points="174.81,-174.5 174.81,-197 194.31,-197 194.31,-174.5 174.81,-174.5"/>
<text text-anchor="start" x="177.81" y="-180.7" font-family="Times,serif" font-size="14.00">pk</text>
<polygon fill="none" stroke="black" points="10.56,-152 10.56,-174.5 130.56,-174.5 130.56,-152 10.56,-152"/>
<text text-anchor="start" x="63.43" y="-158.2" font-family="Times,serif" font-size="14.00">int</text>
<polygon fill="none" stroke="black" points="130.56,-152 130.56,-174.5 174.81,-174.5 174.81,-152 130.56,-152"/>
<text text-anchor="start" x="133.56" y="-158.2" font-family="Times,serif" font-size="14.00">factory</text>
<polygon fill="none" stroke="black" points="174.81,-152 174.81,-174.5 194.31,-174.5 194.31,-152 174.81,-152"/>
<text text-anchor="start" x="178.93" y="-158.2" font-family="Times,serif" font-size="14.00">fk</text>
<polygon fill="none" stroke="black" points="10.56,-129.5 10.56,-152 130.56,-152 130.56,-129.5 10.56,-129.5"/>
<text text-anchor="start" x="63.43" y="-135.7" font-family="Times,serif" font-size="14.00">int</text>
<polygon fill="none" stroke="black" points="130.56,-129.5 130.56,-152 174.81,-152 174.81,-129.5 130.56,-129.5"/>
<text text-anchor="start" x="144.43" y="-135.7" font-family="Times,serif" font-size="14.00">car</text>
<polygon fill="none" stroke="black" points="174.81,-129.5 174.81,-152 194.31,-152 194.31,-129.5 174.81,-129.5"/>
<text text-anchor="start" x="178.93" y="-135.7" font-family="Times,serif" font-size="14.00">fk</text>
</g>
<!-- FactoryCarSupport&#45;&gt;Car -->
<g id="edge2" class="edge">
<title>FactoryCarSupport:3&#45;&gt;Car:1</title>
<path fill="none" stroke="black" d="M70.56,-128.5C70.56,-73.5 139.32,-128.23 194.31,-129.5 237.3,-130.49 550.45,-164.95 581.31,-135 588.29,-128.22 592.94,-116.04 591.26,-108.32"/>
<polygon fill="black" stroke="black" points="593.51,-105.63 583.49,-102.19 589.18,-111.13 593.51,-105.63"/>
</g>
<!-- FactoryCarSupport&#45;&gt;Factory -->
<g id="edge1" class="edge">
<title>FactoryCarSupport:2&#45;&gt;Factory:1</title>
<path fill="none" stroke="black" d="M9.56,-163.25C-5.45,-163.25 -0.21,-139.95 10.56,-129.5 69.15,-72.61 113.87,-115.36 194.31,-129.5 286.72,-145.74 302.15,-199.92 389.71,-204.23"/>
<polygon fill="black" stroke="black" points="389.46,-207.72 399.54,-204.46 389.63,-200.72 389.46,-207.72"/>
</g>
</g>
</svg>
