<?xml version="1.0" encoding="UTF-8" standalone="no"?>
<!DOCTYPE svg PUBLIC "-//W3C//DTD SVG 1.1//EN"
 "http://www.w3.org/Graphics/SVG/1.1/DTD/svg11.dtd">
<!-- Generated by graphviz version 7.0.4 (20221203.1631)
 -->
<!-- Pages: 1 -->
<svg width="396pt" height="198pt"
 viewBox="0.00 0.00 395.73 198.00" xmlns="http://www.w3.org/2000/svg" xmlns:xlink="http://www.w3.org/1999/xlink">
<g id="graph0" class="graph" transform="scale(1 1) rotate(0) translate(36 162)">
<polygon fill="white" stroke="none" points="-36,36 -36,-162 359.73,-162 359.73,36 -36,36"/>
<!-- Car -->
<g id="node1" class="node">
<title>Car</title>
<polygon fill="none" stroke="black" points="0.5,-105 0.5,-126 150.5,-126 150.5,-105 0.5,-105"/>
<text text-anchor="start" x="64.5" y="-112.8" font-family="Times,serif" font-style="italic" font-size="14.00">Car</text>
<polygon fill="none" stroke="black" points="150.5,-105 150.5,-126 225.5,-126 225.5,-105 150.5,-105"/>
<polygon fill="none" stroke="black" points="225.5,-105 225.5,-126 245.5,-126 245.5,-105 225.5,-105"/>
<polygon fill="none" stroke="black" points="0.5,-84 0.5,-105 150.5,-105 150.5,-84 0.5,-84"/>
<text text-anchor="start" x="68" y="-90.8" font-family="Times,serif" font-size="14.00">int</text>
<polygon fill="none" stroke="black" points="150.5,-84 150.5,-105 225.5,-105 225.5,-84 150.5,-84"/>
<text text-anchor="start" x="182.5" y="-90.8" font-family="Times,serif" font-size="14.00">id</text>
<polygon fill="none" stroke="black" points="225.5,-84 225.5,-105 245.5,-105 245.5,-84 225.5,-84"/>
<text text-anchor="start" x="228.5" y="-90.8" font-family="Times,serif" font-size="14.00">pk</text>
<polygon fill="none" stroke="black" points="0.5,-63 0.5,-84 150.5,-84 150.5,-63 0.5,-63"/>
<text text-anchor="start" x="3.5" y="-69.8" font-family="Times,serif" font-size="14.00">timestamp with time zone</text>
<polygon fill="none" stroke="black" points="150.5,-63 150.5,-84 225.5,-84 225.5,-63 150.5,-63"/>
<text text-anchor="start" x="153.5" y="-69.8" font-family="Times,serif" font-size="14.00">last_updated</text>
<polygon fill="none" stroke="black" points="225.5,-63 225.5,-84 245.5,-84 245.5,-63 225.5,-63"/>
<polygon fill="none" stroke="black" points="0.5,-42 0.5,-63 150.5,-63 150.5,-42 0.5,-42"/>
<text text-anchor="start" x="60" y="-48.8" font-family="Times,serif" font-size="14.00">string</text>
<polygon fill="none" stroke="black" points="150.5,-42 150.5,-63 225.5,-63 225.5,-42 150.5,-42"/>
<text text-anchor="start" x="172.5" y="-48.8" font-family="Times,serif" font-size="14.00">make</text>
<polygon fill="none" stroke="black" points="225.5,-42 225.5,-63 245.5,-63 245.5,-42 225.5,-42"/>
<polygon fill="none" stroke="black" points="0.5,-21 0.5,-42 150.5,-42 150.5,-21 0.5,-21"/>
<text text-anchor="start" x="60" y="-27.8" font-family="Times,serif" font-size="14.00">string</text>
<polygon fill="none" stroke="black" points="150.5,-21 150.5,-42 225.5,-42 225.5,-21 150.5,-21"/>
<text text-anchor="start" x="170.5" y="-27.8" font-family="Times,serif" font-size="14.00">model</text>
<polygon fill="none" stroke="black" points="225.5,-21 225.5,-42 245.5,-42 245.5,-21 225.5,-21"/>
<polygon fill="none" stroke="black" points="0.5,0 0.5,-21 150.5,-21 150.5,0 0.5,0"/>
<text text-anchor="start" x="68" y="-6.8" font-family="Times,serif" font-size="14.00">int</text>
<polygon fill="none" stroke="black" points="150.5,0 150.5,-21 225.5,-21 225.5,0 150.5,0"/>
<text text-anchor="start" x="176" y="-6.8" font-family="Times,serif" font-size="14.00">year</text>
<polygon fill="none" stroke="black" points="225.5,0 225.5,-21 245.5,-21 245.5,0 225.5,0"/>
</g>
<!-- Factory -->
<g id="node2" class="node">
<title>Factory</title>
<polygon fill="none" stroke="black" points="207.23,-75.9 207.23,-96.9 256.23,-96.9 256.23,-75.9 207.23,-75.9"/>
<text text-anchor="start" x="210.23" y="-83.7" font-family="Times,serif" font-style="italic" font-size="14.00">Factory</text>
<polygon fill="none" stroke="black" points="256.23,-75.9 256.23,-96.9 304.23,-96.9 304.23,-75.9 256.23,-75.9"/>
<polygon fill="none" stroke="black" points="304.23,-75.9 304.23,-96.9 324.23,-96.9 324.23,-75.9 304.23,-75.9"/>
<polygon fill="none" stroke="black" points="207.23,-54.9 207.23,-75.9 256.23,-75.9 256.23,-54.9 207.23,-54.9"/>
<text text-anchor="start" x="224.23" y="-61.7" font-family="Times,serif" font-size="14.00">int</text>
<polygon fill="none" stroke="black" points="256.23,-54.9 256.23,-75.9 304.23,-75.9 304.23,-54.9 256.23,-54.9"/>
<text text-anchor="start" x="274.73" y="-61.7" font-family="Times,serif" font-size="14.00">id</text>
<polygon fill="none" stroke="black" points="304.23,-54.9 304.23,-75.9 324.23,-75.9 324.23,-54.9 304.23,-54.9"/>
<text text-anchor="start" x="307.23" y="-61.7" font-family="Times,serif" font-size="14.00">pk</text>
<polygon fill="none" stroke="black" points="207.23,-33.9 207.23,-54.9 256.23,-54.9 256.23,-33.9 207.23,-33.9"/>
<text text-anchor="start" x="216.23" y="-40.7" font-family="Times,serif" font-size="14.00">string</text>
<polygon fill="none" stroke="black" points="256.23,-33.9 256.23,-54.9 304.23,-54.9 304.23,-33.9 256.23,-33.9"/>
<text text-anchor="start" x="259.23" y="-40.7" font-family="Times,serif" font-size="14.00">country</text>
<polygon fill="none" stroke="black" points="304.23,-33.9 304.23,-54.9 324.23,-54.9 324.23,-33.9 304.23,-33.9"/>
</g>
<!-- FactoryCarSupport -->
<g id="node3" class="node">
<title>FactoryCarSupport</title>
<polygon fill="none" stroke="black" points="101.1,-74.29 101.1,-95.29 222.1,-95.29 222.1,-74.29 101.1,-74.29"/>
<text text-anchor="start" x="104.1" y="-82.09" font-family="Times,serif" font-style="italic" font-size="14.00">Factory Car Support</text>
<polygon fill="none" stroke="black" points="222.1,-74.29 222.1,-95.29 267.1,-95.29 267.1,-74.29 222.1,-74.29"/>
<polygon fill="none" stroke="black" points="267.1,-74.29 267.1,-95.29 287.1,-95.29 287.1,-74.29 267.1,-74.29"/>
<polygon fill="none" stroke="black" points="101.1,-53.29 101.1,-74.29 222.1,-74.29 222.1,-53.29 101.1,-53.29"/>
<text text-anchor="start" x="154.1" y="-60.09" font-family="Times,serif" font-size="14.00">int</text>
<polygon fill="none" stroke="black" points="222.1,-53.29 222.1,-74.29 267.1,-74.29 267.1,-53.29 222.1,-53.29"/>
<text text-anchor="start" x="239.1" y="-60.09" font-family="Times,serif" font-size="14.00">id</text>
<polygon fill="none" stroke="black" points="267.1,-53.29 267.1,-74.29 287.1,-74.29 287.1,-53.29 267.1,-53.29"/>
<text text-anchor="start" x="270.1" y="-60.09" font-family="Times,serif" font-size="14.00">pk</text>
<polygon fill="none" stroke="black" points="101.1,-32.29 101.1,-53.29 222.1,-53.29 222.1,-32.29 101.1,-32.29"/>
<text text-anchor="start" x="154.1" y="-39.09" font-family="Times,serif" font-size="14.00">int</text>
<polygon fill="none" stroke="black" points="222.1,-32.29 222.1,-53.29 267.1,-53.29 267.1,-32.29 222.1,-32.29"/>
<text text-anchor="start" x="225.1" y="-39.09" font-family="Times,serif" font-size="14.00">factory</text>
<polygon fill="none" stroke="black" points="267.1,-32.29 267.1,-53.29 287.1,-53.29 287.1,-32.29 267.1,-32.29"/>
<text text-anchor="start" x="271.1" y="-39.09" font-family="Times,serif" font-size="14.00">fk</text>
<polygon fill="none" stroke="black" points="101.1,-11.29 101.1,-32.29 222.1,-32.29 222.1,-11.29 101.1,-11.29"/>
<text text-anchor="start" x="154.1" y="-18.09" font-family="Times,serif" font-size="14.00">int</text>
<polygon fill="none" stroke="black" points="222.1,-11.29 222.1,-32.29 267.1,-32.29 267.1,-11.29 222.1,-11.29"/>
<text text-anchor="start" x="236.1" y="-18.09" font-family="Times,serif" font-size="14.00">car</text>
<polygon fill="none" stroke="black" points="267.1,-11.29 267.1,-32.29 287.1,-32.29 287.1,-11.29 267.1,-11.29"/>
<text text-anchor="start" x="271.1" y="-18.09" font-family="Times,serif" font-size="14.00">fk</text>
</g>
<!-- FactoryCarSupport&#45;&gt;Car -->
<g id="edge2" class="edge">
<title>FactoryCarSupport:3&#45;&gt;Car:1</title>
<path fill="none" stroke="black" d="M101.1,-21.29C101.1,-21.29 202.95,-73.28 235.57,-89.93"/>
<polygon fill="black" stroke="black" points="233.65,-92.88 244.15,-94.31 236.84,-86.65 233.65,-92.88"/>
</g>
<!-- FactoryCarSupport&#45;&gt;Factory -->
<g id="edge1" class="edge">
<title>FactoryCarSupport:2&#45;&gt;Factory:1</title>
<path fill="none" stroke="black" d="M101.1,-42.29C101.1,-42.29 169.16,-56.79 196.27,-62.57"/>
<polygon fill="black" stroke="black" points="195.24,-65.93 205.75,-64.59 196.7,-59.08 195.24,-65.93"/>
</g>
</g>
</svg>
