<?xml version="1.0" encoding="UTF-8" standalone="no"?>
<!DOCTYPE svg PUBLIC "-//W3C//DTD SVG 1.1//EN"
 "http://www.w3.org/Graphics/SVG/1.1/DTD/svg11.dtd">
<!-- Generated by graphviz version 7.1.0 (20230121.1956)
 -->
<!-- Pages: 1 -->
<svg width="667pt" height="298pt"
 viewBox="0.00 0.00 667.06 297.50" xmlns="http://www.w3.org/2000/svg" xmlns:xlink="http://www.w3.org/1999/xlink">
<g id="graph0" class="graph" transform="scale(1 1) rotate(0) translate(36 261.5)">
<polygon fill="white" stroke="none" points="-36,36 -36,-261.5 631.06,-261.5 631.06,36 -36,36"/>
<!-- Car -->
<g id="node1" class="node">
<title>Car</title>
<polygon fill="none" stroke="black" points="340.25,-105 340.25,-126 490.25,-126 490.25,-105 340.25,-105"/>
<text text-anchor="start" x="404.25" y="-112.8" font-family="Times,serif" font-style="italic" font-size="14.00">Car</text>
<polygon fill="none" stroke="black" points="490.25,-105 490.25,-126 565.25,-126 565.25,-105 490.25,-105"/>
<polygon fill="none" stroke="black" points="565.25,-105 565.25,-126 585.25,-126 585.25,-105 565.25,-105"/>
<polygon fill="none" stroke="black" points="340.25,-84 340.25,-105 490.25,-105 490.25,-84 340.25,-84"/>
<text text-anchor="start" x="407.75" y="-90.8" font-family="Times,serif" font-size="14.00">int</text>
<polygon fill="none" stroke="black" points="490.25,-84 490.25,-105 565.25,-105 565.25,-84 490.25,-84"/>
<text text-anchor="start" x="522.25" y="-90.8" font-family="Times,serif" font-size="14.00">id</text>
<polygon fill="none" stroke="black" points="565.25,-84 565.25,-105 585.25,-105 585.25,-84 565.25,-84"/>
<text text-anchor="start" x="568.25" y="-90.8" font-family="Times,serif" font-size="14.00">pk</text>
<polygon fill="none" stroke="black" points="340.25,-63 340.25,-84 490.25,-84 490.25,-63 340.25,-63"/>
<text text-anchor="start" x="343.25" y="-69.8" font-family="Times,serif" font-size="14.00">timestamp with time zone</text>
<polygon fill="none" stroke="black" points="490.25,-63 490.25,-84 565.25,-84 565.25,-63 490.25,-63"/>
<text text-anchor="start" x="493.25" y="-69.8" font-family="Times,serif" font-size="14.00">last_updated</text>
<polygon fill="none" stroke="black" points="565.25,-63 565.25,-84 585.25,-84 585.25,-63 565.25,-63"/>
<polygon fill="none" stroke="black" points="340.25,-42 340.25,-63 490.25,-63 490.25,-42 340.25,-42"/>
<text text-anchor="start" x="399.75" y="-48.8" font-family="Times,serif" font-size="14.00">string</text>
<polygon fill="none" stroke="black" points="490.25,-42 490.25,-63 565.25,-63 565.25,-42 490.25,-42"/>
<text text-anchor="start" x="512.25" y="-48.8" font-family="Times,serif" font-size="14.00">make</text>
<polygon fill="none" stroke="black" points="565.25,-42 565.25,-63 585.25,-63 585.25,-42 565.25,-42"/>
<polygon fill="none" stroke="black" points="340.25,-21 340.25,-42 490.25,-42 490.25,-21 340.25,-21"/>
<text text-anchor="start" x="399.75" y="-27.8" font-family="Times,serif" font-size="14.00">string</text>
<polygon fill="none" stroke="black" points="490.25,-21 490.25,-42 565.25,-42 565.25,-21 490.25,-21"/>
<text text-anchor="start" x="510.25" y="-27.8" font-family="Times,serif" font-size="14.00">model</text>
<polygon fill="none" stroke="black" points="565.25,-21 565.25,-42 585.25,-42 585.25,-21 565.25,-21"/>
<polygon fill="none" stroke="black" points="340.25,0 340.25,-21 490.25,-21 490.25,0 340.25,0"/>
<text text-anchor="start" x="407.75" y="-6.8" font-family="Times,serif" font-size="14.00">int</text>
<polygon fill="none" stroke="black" points="490.25,0 490.25,-21 565.25,-21 565.25,0 490.25,0"/>
<text text-anchor="start" x="515.75" y="-6.8" font-family="Times,serif" font-size="14.00">year</text>
<polygon fill="none" stroke="black" points="565.25,0 565.25,-21 585.25,-21 585.25,0 565.25,0"/>
</g>
<!-- Factory -->
<g id="node2" class="node">
<title>Factory</title>
<polygon fill="none" stroke="black" points="404.25,-204 404.25,-225 453.25,-225 453.25,-204 404.25,-204"/>
<text text-anchor="start" x="407.25" y="-211.8" font-family="Times,serif" font-style="italic" font-size="14.00">Factory</text>
<polygon fill="none" stroke="black" points="453.25,-204 453.25,-225 501.25,-225 501.25,-204 453.25,-204"/>
<polygon fill="none" stroke="black" points="501.25,-204 501.25,-225 521.25,-225 521.25,-204 501.25,-204"/>
<polygon fill="none" stroke="black" points="404.25,-183 404.25,-204 453.25,-204 453.25,-183 404.25,-183"/>
<text text-anchor="start" x="421.25" y="-189.8" font-family="Times,serif" font-size="14.00">int</text>
<polygon fill="none" stroke="black" points="453.25,-183 453.25,-204 501.25,-204 501.25,-183 453.25,-183"/>
<text text-anchor="start" x="471.75" y="-189.8" font-family="Times,serif" font-size="14.00">id</text>
<polygon fill="none" stroke="black" points="501.25,-183 501.25,-204 521.25,-204 521.25,-183 501.25,-183"/>
<text text-anchor="start" x="504.25" y="-189.8" font-family="Times,serif" font-size="14.00">pk</text>
<polygon fill="none" stroke="black" points="404.25,-162 404.25,-183 453.25,-183 453.25,-162 404.25,-162"/>
<text text-anchor="start" x="413.25" y="-168.8" font-family="Times,serif" font-size="14.00">string</text>
<polygon fill="none" stroke="black" points="453.25,-162 453.25,-183 501.25,-183 501.25,-162 453.25,-162"/>
<text text-anchor="start" x="456.25" y="-168.8" font-family="Times,serif" font-size="14.00">country</text>
<polygon fill="none" stroke="black" points="501.25,-162 501.25,-183 521.25,-183 521.25,-162 501.25,-162"/>
</g>
<!-- FactoryCarSupport -->
<g id="node3" class="node">
<title>FactoryCarSupport</title>
<polygon fill="none" stroke="black" points="9.75,-186 9.75,-207 130.75,-207 130.75,-186 9.75,-186"/>
<text text-anchor="start" x="12.75" y="-193.8" font-family="Times,serif" font-style="italic" font-size="14.00">Factory Car Support</text>
<polygon fill="none" stroke="black" points="130.75,-186 130.75,-207 175.75,-207 175.75,-186 130.75,-186"/>
<polygon fill="none" stroke="black" points="175.75,-186 175.75,-207 195.75,-207 195.75,-186 175.75,-186"/>
<polygon fill="none" stroke="black" points="9.75,-165 9.75,-186 130.75,-186 130.75,-165 9.75,-165"/>
<text text-anchor="start" x="62.75" y="-171.8" font-family="Times,serif" font-size="14.00">int</text>
<polygon fill="none" stroke="black" points="130.75,-165 130.75,-186 175.75,-186 175.75,-165 130.75,-165"/>
<text text-anchor="start" x="147.75" y="-171.8" font-family="Times,serif" font-size="14.00">id</text>
<polygon fill="none" stroke="black" points="175.75,-165 175.75,-186 195.75,-186 195.75,-165 175.75,-165"/>
<text text-anchor="start" x="178.75" y="-171.8" font-family="Times,serif" font-size="14.00">pk</text>
<polygon fill="none" stroke="black" points="9.75,-144 9.75,-165 130.75,-165 130.75,-144 9.75,-144"/>
<text text-anchor="start" x="62.75" y="-150.8" font-family="Times,serif" font-size="14.00">int</text>
<polygon fill="none" stroke="black" points="130.75,-144 130.75,-165 175.75,-165 175.75,-144 130.75,-144"/>
<text text-anchor="start" x="133.75" y="-150.8" font-family="Times,serif" font-size="14.00">factory</text>
<polygon fill="none" stroke="black" points="175.75,-144 175.75,-165 195.75,-165 195.75,-144 175.75,-144"/>
<text text-anchor="start" x="179.75" y="-150.8" font-family="Times,serif" font-size="14.00">fk</text>
<polygon fill="none" stroke="black" points="9.75,-123 9.75,-144 130.75,-144 130.75,-123 9.75,-123"/>
<text text-anchor="start" x="62.75" y="-129.8" font-family="Times,serif" font-size="14.00">int</text>
<polygon fill="none" stroke="black" points="130.75,-123 130.75,-144 175.75,-144 175.75,-123 130.75,-123"/>
<text text-anchor="start" x="144.75" y="-129.8" font-family="Times,serif" font-size="14.00">car</text>
<polygon fill="none" stroke="black" points="175.75,-123 175.75,-144 195.75,-144 195.75,-123 175.75,-123"/>
<text text-anchor="start" x="179.75" y="-129.8" font-family="Times,serif" font-size="14.00">fk</text>
</g>
<!-- FactoryCarSupport&#45;&gt;Car -->
<g id="edge2" class="edge">
<title>FactoryCarSupport:3&#45;&gt;Car:1</title>
<path fill="none" stroke="black" d="M69.75,-122C69.75,-66 139.75,-122.19 195.75,-123 239.03,-123.62 554.16,-156.11 585.25,-126 591.29,-120.16 595.46,-109.92 594.67,-102.82"/>
<polygon fill="black" stroke="black" points="597.07,-100.27 587.36,-96.03 592.31,-105.4 597.07,-100.27"/>
</g>
<!-- FactoryCarSupport&#45;&gt;Factory -->
<g id="edge1" class="edge">
<title>FactoryCarSupport:2&#45;&gt;Factory:1</title>
<path fill="none" stroke="black" d="M8.75,-154C-5.03,-154 -0.15,-132.59 9.75,-123 69.14,-65.5 114.18,-109.61 195.75,-123 287.95,-138.13 304.66,-188.72 391.95,-192.75"/>
<polygon fill="black" stroke="black" points="391.66,-196.24 401.74,-192.97 391.82,-189.24 391.66,-196.24"/>
</g>
</g>
</svg>
