<?xml version="1.0" encoding="UTF-8" standalone="no"?>
<!DOCTYPE svg PUBLIC "-//W3C//DTD SVG 1.1//EN"
 "http://www.w3.org/Graphics/SVG/1.1/DTD/svg11.dtd">
<!-- Generated by graphviz version 12.1.0 (20240811.2233)
 -->
<!-- Pages: 1 -->
<svg width="662pt" height="306pt"
 viewBox="0.00 0.00 661.88 306.00" xmlns="http://www.w3.org/2000/svg" xmlns:xlink="http://www.w3.org/1999/xlink">
<g id="graph0" class="graph" transform="scale(1 1) rotate(0) translate(36 270)">
<polygon fill="white" stroke="none" points="-36,36 -36,-270 625.88,-270 625.88,36 -36,36"/>
<!-- Car -->
<g id="node1" class="node">
<title>Car</title>
<polygon fill="none" stroke="black" points="337.34,-110 337.34,-132 486.34,-132 486.34,-110 337.34,-110"/>
<text text-anchor="start" x="401.34" y="-116.7" font-family="Times,serif" font-style="italic" font-size="14.00">Car</text>
<polygon fill="none" stroke="black" points="486.34,-110 486.34,-132 560.34,-132 560.34,-110 486.34,-110"/>
<polygon fill="none" stroke="black" points="560.34,-110 560.34,-132 579.34,-132 579.34,-110 560.34,-110"/>
<polygon fill="none" stroke="black" points="337.34,-88 337.34,-110 486.34,-110 486.34,-88 337.34,-88"/>
<text text-anchor="start" x="404.71" y="-93.7" font-family="Times,serif" font-size="14.00">int</text>
<polygon fill="none" stroke="black" points="486.34,-88 486.34,-110 560.34,-110 560.34,-88 486.34,-88"/>
<text text-anchor="start" x="518.09" y="-93.7" font-family="Times,serif" font-size="14.00">id</text>
<polygon fill="none" stroke="black" points="560.34,-88 560.34,-110 579.34,-110 579.34,-88 560.34,-88"/>
<text text-anchor="start" x="563.09" y="-93.7" font-family="Times,serif" font-size="14.00">pk</text>
<polygon fill="none" stroke="black" points="337.34,-66 337.34,-88 486.34,-88 486.34,-66 337.34,-66"/>
<text text-anchor="start" x="340.21" y="-71.7" font-family="Times,serif" font-size="14.00">timestamp with time zone</text>
<polygon fill="none" stroke="black" points="486.34,-66 486.34,-88 560.34,-88 560.34,-66 486.34,-66"/>
<text text-anchor="start" x="489.21" y="-71.7" font-family="Times,serif" font-size="14.00">last_updated</text>
<polygon fill="none" stroke="black" points="560.34,-66 560.34,-88 579.34,-88 579.34,-66 560.34,-66"/>
<polygon fill="none" stroke="black" points="337.34,-44 337.34,-66 486.34,-66 486.34,-44 337.34,-44"/>
<text text-anchor="start" x="396.46" y="-49.7" font-family="Times,serif" font-size="14.00">string</text>
<polygon fill="none" stroke="black" points="486.34,-44 486.34,-66 560.34,-66 560.34,-44 486.34,-44"/>
<text text-anchor="start" x="508.34" y="-49.7" font-family="Times,serif" font-size="14.00">make</text>
<polygon fill="none" stroke="black" points="560.34,-44 560.34,-66 579.34,-66 579.34,-44 560.34,-44"/>
<polygon fill="none" stroke="black" points="337.34,-22 337.34,-44 486.34,-44 486.34,-22 337.34,-22"/>
<text text-anchor="start" x="396.46" y="-27.7" font-family="Times,serif" font-size="14.00">string</text>
<polygon fill="none" stroke="black" points="486.34,-22 486.34,-44 560.34,-44 560.34,-22 486.34,-22"/>
<text text-anchor="start" x="506.09" y="-27.7" font-family="Times,serif" font-size="14.00">model</text>
<polygon fill="none" stroke="black" points="560.34,-22 560.34,-44 579.34,-44 579.34,-22 560.34,-22"/>
<polygon fill="none" stroke="black" points="337.34,0 337.34,-22 486.34,-22 486.34,0 337.34,0"/>
<text text-anchor="start" x="404.71" y="-5.7" font-family="Times,serif" font-size="14.00">int</text>
<polygon fill="none" stroke="black" points="486.34,0 486.34,-22 560.34,-22 560.34,0 486.34,0"/>
<text text-anchor="start" x="511.71" y="-5.7" font-family="Times,serif" font-size="14.00">year</text>
<polygon fill="none" stroke="black" points="560.34,0 560.34,-22 579.34,-22 579.34,0 560.34,0"/>
</g>
<!-- Factory -->
<g id="node2" class="node">
<title>Factory</title>
<polygon fill="none" stroke="black" points="401.34,-212 401.34,-234 449.34,-234 449.34,-212 401.34,-212"/>
<text text-anchor="start" x="403.96" y="-218.7" font-family="Times,serif" font-style="italic" font-size="14.00">Factory</text>
<polygon fill="none" stroke="black" points="449.34,-212 449.34,-234 496.34,-234 496.34,-212 449.34,-212"/>
<polygon fill="none" stroke="black" points="496.34,-212 496.34,-234 515.34,-234 515.34,-212 496.34,-212"/>
<polygon fill="none" stroke="black" points="401.34,-190 401.34,-212 449.34,-212 449.34,-190 401.34,-190"/>
<text text-anchor="start" x="418.21" y="-195.7" font-family="Times,serif" font-size="14.00">int</text>
<polygon fill="none" stroke="black" points="449.34,-190 449.34,-212 496.34,-212 496.34,-190 449.34,-190"/>
<text text-anchor="start" x="467.59" y="-195.7" font-family="Times,serif" font-size="14.00">id</text>
<polygon fill="none" stroke="black" points="496.34,-190 496.34,-212 515.34,-212 515.34,-190 496.34,-190"/>
<text text-anchor="start" x="499.09" y="-195.7" font-family="Times,serif" font-size="14.00">pk</text>
<polygon fill="none" stroke="black" points="401.34,-168 401.34,-190 449.34,-190 449.34,-168 401.34,-168"/>
<text text-anchor="start" x="409.96" y="-173.7" font-family="Times,serif" font-size="14.00">string</text>
<polygon fill="none" stroke="black" points="449.34,-168 449.34,-190 496.34,-190 496.34,-168 449.34,-168"/>
<text text-anchor="start" x="452.21" y="-173.7" font-family="Times,serif" font-size="14.00">country</text>
<polygon fill="none" stroke="black" points="496.34,-168 496.34,-190 515.34,-190 515.34,-168 496.34,-168"/>
</g>
<!-- FactoryCarSupport -->
<g id="node3" class="node">
<title>FactoryCarSupport</title>
<polygon fill="none" stroke="black" points="10.34,-194 10.34,-216 130.34,-216 130.34,-194 10.34,-194"/>
<text text-anchor="start" x="13.34" y="-200.7" font-family="Times,serif" font-style="italic" font-size="14.00">Factory Car Support</text>
<polygon fill="none" stroke="black" points="130.34,-194 130.34,-216 174.34,-216 174.34,-194 130.34,-194"/>
<polygon fill="none" stroke="black" points="174.34,-194 174.34,-216 193.34,-216 193.34,-194 174.34,-194"/>
<polygon fill="none" stroke="black" points="10.34,-172 10.34,-194 130.34,-194 130.34,-172 10.34,-172"/>
<text text-anchor="start" x="63.21" y="-177.7" font-family="Times,serif" font-size="14.00">int</text>
<polygon fill="none" stroke="black" points="130.34,-172 130.34,-194 174.34,-194 174.34,-172 130.34,-172"/>
<text text-anchor="start" x="147.09" y="-177.7" font-family="Times,serif" font-size="14.00">id</text>
<polygon fill="none" stroke="black" points="174.34,-172 174.34,-194 193.34,-194 193.34,-172 174.34,-172"/>
<text text-anchor="start" x="177.09" y="-177.7" font-family="Times,serif" font-size="14.00">pk</text>
<polygon fill="none" stroke="black" points="10.34,-150 10.34,-172 130.34,-172 130.34,-150 10.34,-150"/>
<text text-anchor="start" x="63.21" y="-155.7" font-family="Times,serif" font-size="14.00">int</text>
<polygon fill="none" stroke="black" points="130.34,-150 130.34,-172 174.34,-172 174.34,-150 130.34,-150"/>
<text text-anchor="start" x="133.21" y="-155.7" font-family="Times,serif" font-size="14.00">factory</text>
<polygon fill="none" stroke="black" points="174.34,-150 174.34,-172 193.34,-172 193.34,-150 174.34,-150"/>
<text text-anchor="start" x="178.21" y="-155.7" font-family="Times,serif" font-size="14.00">fk</text>
<polygon fill="none" stroke="black" points="10.34,-128 10.34,-150 130.34,-150 130.34,-128 10.34,-128"/>
<text text-anchor="start" x="63.21" y="-133.7" font-family="Times,serif" font-size="14.00">int</text>
<polygon fill="none" stroke="black" points="130.34,-128 130.34,-150 174.34,-150 174.34,-128 130.34,-128"/>
<text text-anchor="start" x="144.09" y="-133.7" font-family="Times,serif" font-size="14.00">car</text>
<polygon fill="none" stroke="black" points="174.34,-128 174.34,-150 193.34,-150 193.34,-128 174.34,-128"/>
<text text-anchor="start" x="178.21" y="-133.7" font-family="Times,serif" font-size="14.00">fk</text>
</g>
<!-- FactoryCarSupport&#45;&gt;Car -->
<g id="edge2" class="edge">
<title>FactoryCarSupport:3&#45;&gt;Car:1</title>
<path fill="none" stroke="black" d="M70.34,-127C70.34,-72.33 138.68,-127.02 193.34,-128 236.22,-128.77 548.55,-161.87 579.34,-132 586.08,-125.45 590.62,-113.75 589.15,-106.19"/>
<polygon fill="black" stroke="black" points="591.47,-103.56 581.51,-99.96 587.05,-108.99 591.47,-103.56"/>
</g>
<!-- FactoryCarSupport&#45;&gt;Factory -->
<g id="edge1" class="edge">
<title>FactoryCarSupport:2&#45;&gt;Factory:1</title>
<path fill="none" stroke="black" d="M9.34,-161C-5.34,-161 -0.2,-138.22 10.34,-128 68.71,-71.37 113.17,-114.28 193.34,-128 285.64,-143.8 301.59,-196.54 389.01,-200.73"/>
<polygon fill="black" stroke="black" points="388.74,-204.23 398.82,-200.96 388.91,-197.23 388.74,-204.23"/>
</g>
</g>
</svg>
