<svg aria-roledescription="er" role="graphics-document document" viewBox="-52.21742248535156 0 429.14642333984375 364.458984375" style="max-width: 429.146px; background-color: white;" xmlns:xlink="http://www.w3.org/1999/xlink" xmlns="http://www.w3.org/2000/svg" width="100%" id="mermaid-0"><style>#mermaid-0{font-family:"trebuchet ms",verdana,arial,sans-serif;font-size:16px;fill:#333;}#mermaid-0 .error-icon{fill:#552222;}#mermaid-0 .error-text{fill:#552222;stroke:#552222;}#mermaid-0 .edge-thickness-normal{stroke-width:2px;}#mermaid-0 .edge-thickness-thick{stroke-width:3.5px;}#mermaid-0 .edge-pattern-solid{stroke-dasharray:0;}#mermaid-0 .edge-pattern-dashed{stroke-dasharray:3;}#mermaid-0 .edge-pattern-dotted{stroke-dasharray:2;}#mermaid-0 .marker{fill:#333333;stroke:#333333;}#mermaid-0 .marker.cross{stroke:#333333;}#mermaid-0 svg{font-family:"trebuchet ms",verdana,arial,sans-serif;font-size:16px;}#mermaid-0 .entityBox{fill:#ECECFF;stroke:#9370DB;}#mermaid-0 .attributeBoxOdd{fill:#ffffff;stroke:#9370DB;}#mermaid-0 .attributeBoxEven{fill:#f2f2f2;stroke:#9370DB;}#mermaid-0 .relationshipLabelBox{fill:hsl(80, 100%, 96.2745098039%);opacity:0.7;background-color:hsl(80, 100%, 96.2745098039%);}#mermaid-0 .relationshipLabelBox rect{opacity:0.5;}#mermaid-0 .relationshipLine{stroke:#333333;}#mermaid-0 .entityTitleText{text-anchor:middle;font-size:18px;fill:#333;}#mermaid-0 :root{--mermaid-font-family:"trebuchet ms",verdana,arial,sans-serif;}</style><g/><defs><marker orient="auto" markerHeight="18" markerWidth="18" refY="9" refX="0" id="ONLY_ONE_START"><path d="M9,0 L9,18 M15,0 L15,18" fill="none" stroke="gray"/></marker></defs><defs><marker orient="auto" markerHeight="18" markerWidth="18" refY="9" refX="18" id="ONLY_ONE_END"><path d="M3,0 L3,18 M9,0 L9,18" fill="none" stroke="gray"/></marker></defs><defs><marker orient="auto" markerHeight="18" markerWidth="30" refY="9" refX="0" id="ZERO_OR_ONE_START"><circle r="6" cy="9" cx="21" fill="white" stroke="gray"/><path d="M9,0 L9,18" fill="none" stroke="gray"/></marker></defs><defs><marker orient="auto" markerHeight="18" markerWidth="30" refY="9" refX="30" id="ZERO_OR_ONE_END"><circle r="6" cy="9" cx="9" fill="white" stroke="gray"/><path d="M21,0 L21,18" fill="none" stroke="gray"/></marker></defs><defs><marker orient="auto" markerHeight="36" markerWidth="45" refY="18" refX="18" id="ONE_OR_MORE_START"><path d="M0,18 Q 18,0 36,18 Q 18,36 0,18 M42,9 L42,27" fill="none" stroke="gray"/></marker></defs><defs><marker orient="auto" markerHeight="36" markerWidth="45" refY="18" refX="27" id="ONE_OR_MORE_END"><path d="M3,9 L3,27 M9,18 Q27,0 45,18 Q27,36 9,18" fill="none" stroke="gray"/></marker></defs><defs><marker orient="auto" markerHeight="36" markerWidth="57" refY="18" refX="18" id="ZERO_OR_MORE_START"><circle r="6" cy="18" cx="48" fill="white" stroke="gray"/><path d="M0,18 Q18,0 36,18 Q18,36 0,18" fill="none" stroke="gray"/></marker></defs><defs><marker orient="auto" markerHeight="36" markerWidth="57" refY="18" refX="39" id="ZERO_OR_MORE_END"><circle r="6" cy="18" cx="9" fill="white" stroke="gray"/><path d="M21,18 Q39,0 57,18 Q39,36 21,18" fill="none" stroke="gray"/></marker></defs><path style="stroke: gray; fill: none;" marker-start="url(#ONLY_ONE_START)" marker-end="url(#ZERO_OR_MORE_END)" d="M125.74198321123635,110.091796875L116.45165267603029,118.42513020833333C107.16132214082423,126.75846354166667,88.58066107041212,143.42513020833334,79.29033053520605,165.61474609375C70,187.80436197916666,70,215.51692708333334,70,229.37320963541666L70,243.2294921875" class="er relationshipLine"/><path style="stroke: gray; fill: none;" marker-start="url(#ONLY_ONE_START)" marker-end="url(#ZERO_OR_MORE_END)" d="M226.17989178876365,110.091796875L235.4702223239697,118.42513020833333C244.76055285917576,126.75846354166667,263.34121392958787,143.42513020833334,272.63154446479393,160.091796875C281.921875,176.75846354166666,281.921875,193.42513020833334,281.921875,201.75846354166666L281.921875,210.091796875" class="er relationshipLine"/><g transform="translate(220,210.091796875 )" id="entity-CAR-d58c1c43-b180-5c15-ae3f-ebb2bacf180b"><rect height="134.36719036102295" width="123.84375" y="0" x="0" class="er entityBox"/><text style="dominant-baseline: middle; text-anchor: middle; font-size: 12px;" transform="translate(61.921875,12)" y="0" x="0" id="text-entity-CAR-d58c1c43-b180-5c15-ae3f-ebb2bacf180b" class="er entityLabel">CAR</text><rect height="22" width="58.671875" y="24" x="0" class="er attributeBoxOdd"/><text style="dominant-baseline: middle; font-size: 10.2px;" transform="translate(5,35)" y="0" x="0" id="text-entity-CAR-d58c1c43-b180-5c15-ae3f-ebb2bacf180b-attr-1-type" class="er entityLabel">int</text><rect height="22" width="65.171875" y="24" x="58.671875" class="er attributeBoxOdd"/><text style="dominant-baseline: middle; font-size: 10.2px;" transform="translate(63.671875,35)" y="0" x="0" id="text-entity-CAR-d58c1c43-b180-5c15-ae3f-ebb2bacf180b-attr-1-name" class="er entityLabel">id</text><rect height="22.091797828674316" width="58.671875" y="46" x="0" class="er attributeBoxEven"/><text style="dominant-baseline: middle; font-size: 10.2px;" transform="translate(5,57.04589891433716)" y="0" x="0" id="text-entity-CAR-d58c1c43-b180-5c15-ae3f-ebb2bacf180b-attr-2-type" class="er entityLabel">timestamp</text><rect height="22.091797828674316" width="65.171875" y="46" x="58.671875" class="er attributeBoxEven"/><text style="dominant-baseline: middle; font-size: 10.2px;" transform="translate(63.671875,57.04589891433716)" y="0" x="0" id="text-entity-CAR-d58c1c43-b180-5c15-ae3f-ebb2bacf180b-attr-2-name" class="er entityLabel">lastUpdated</text><rect height="22.091797828674316" width="58.671875" y="68.09179782867432" x="0" class="er attributeBoxOdd"/><text style="dominant-baseline: middle; font-size: 10.2px;" transform="translate(5,79.13769674301147)" y="0" x="0" id="text-entity-CAR-d58c1c43-b180-5c15-ae3f-ebb2bacf180b-attr-3-type" class="er entityLabel">string</text><rect height="22.091797828674316" width="65.171875" y="68.09179782867432" x="58.671875" class="er attributeBoxOdd"/><text style="dominant-baseline: middle; font-size: 10.2px;" transform="translate(63.671875,79.13769674301147)" y="0" x="0" id="text-entity-CAR-d58c1c43-b180-5c15-ae3f-ebb2bacf180b-attr-3-name" class="er entityLabel">make</text><rect height="22.091797828674316" width="58.671875" y="90.18359565734863" x="0" class="er attributeBoxEven"/><text style="dominant-baseline: middle; font-size: 10.2px;" transform="translate(5,101.22949457168579)" y="0" x="0" id="text-entity-CAR-d58c1c43-b180-5c15-ae3f-ebb2bacf180b-attr-4-type" class="er entityLabel">string</text><rect height="22.091797828674316" width="65.171875" y="90.18359565734863" x="58.671875" class="er attributeBoxEven"/><text style="dominant-baseline: middle; font-size: 10.2px;" transform="translate(63.671875,101.22949457168579)" y="0" x="0" id="text-entity-CAR-d58c1c43-b180-5c15-ae3f-ebb2bacf180b-attr-4-name" class="er entityLabel">model</text><rect height="22.091796875" width="58.671875" y="112.27539348602295" x="0" class="er attributeBoxOdd"/><text style="dominant-baseline: middle; font-size: 10.2px;" transform="translate(5,123.32129192352295)" y="0" x="0" id="text-entity-CAR-d58c1c43-b180-5c15-ae3f-ebb2bacf180b-attr-5-type" class="er entityLabel">int</text><rect height="22.091796875" width="65.171875" y="112.27539348602295" x="58.671875" class="er attributeBoxOdd"/><text style="dominant-baseline: middle; font-size: 10.2px;" transform="translate(63.671875,123.32129192352295)" y="0" x="0" id="text-entity-CAR-d58c1c43-b180-5c15-ae3f-ebb2bacf180b-attr-5-name" class="er entityLabel">year</text></g><g transform="translate(20,243.2294921875 )" id="entity-FACTORY-d7859922-2851-552d-b6a4-cf39f27293c2"><rect height="68.09179782867432" width="100" y="0" x="0" class="er entityBox"/><text style="dominant-baseline: middle; text-anchor: middle; font-size: 12px;" transform="translate(50,12)" y="0" x="0" id="text-entity-FACTORY-d7859922-2851-552d-b6a4-cf39f27293c2" class="er entityLabel">FACTORY</text><rect height="22" width="45.515625" y="24" x="0" class="er attributeBoxOdd"/><text style="dominant-baseline: middle; font-size: 10.2px;" transform="translate(5,35)" y="0" x="0" id="text-entity-FACTORY-d7859922-2851-552d-b6a4-cf39f27293c2-attr-1-type" class="er entityLabel">int</text><rect height="22" width="54.484375" y="24" x="45.515625" class="er attributeBoxOdd"/><text style="dominant-baseline: middle; font-size: 10.2px;" transform="translate(50.515625,35)" y="0" x="0" id="text-entity-FACTORY-d7859922-2851-552d-b6a4-cf39f27293c2-attr-1-name" class="er entityLabel">id</text><rect height="22.091797828674316" width="45.515625" y="46" x="0" class="er attributeBoxEven"/><text style="dominant-baseline: middle; font-size: 10.2px;" transform="translate(5,57.04589891433716)" y="0" x="0" id="text-entity-FACTORY-d7859922-2851-552d-b6a4-cf39f27293c2-attr-2-type" class="er entityLabel">string</text><rect height="22.091797828674316" width="54.484375" y="46" x="45.515625" class="er attributeBoxEven"/><text style="dominant-baseline: middle; font-size: 10.2px;" transform="translate(50.515625,57.04589891433716)" y="0" x="0" id="text-entity-FACTORY-d7859922-2851-552d-b6a4-cf39f27293c2-attr-2-name" class="er entityLabel">country</text></g><g transform="translate(96.4375,20 )" id="entity-FACTORYCARSUPPORT-df1fa01b-e0e5-56c4-a578-53fc2726f9cf"><rect height="90.091796875" width="159.046875" y="0" x="0" class="er entityBox"/><text style="dominant-baseline: middle; text-anchor: middle; font-size: 12px;" transform="translate(79.5234375,12)" y="0" x="0" id="text-entity-FACTORYCARSUPPORT-df1fa01b-e0e5-56c4-a578-53fc2726f9cf" class="er entityLabel">FACTORY_CAR_SUPPORT</text><rect height="22" width="69.4375" y="24" x="0" class="er attributeBoxOdd"/><text style="dominant-baseline: middle; font-size: 10.2px;" transform="translate(5,35)" y="0" x="0" id="text-entity-FACTORYCARSUPPORT-df1fa01b-e0e5-56c4-a578-53fc2726f9cf-attr-1-type" class="er entityLabel">int</text><rect height="22" width="89.609375" y="24" x="69.4375" class="er attributeBoxOdd"/><text style="dominant-baseline: middle; font-size: 10.2px;" transform="translate(74.4375,35)" y="0" x="0" id="text-entity-FACTORYCARSUPPORT-df1fa01b-e0e5-56c4-a578-53fc2726f9cf-attr-1-name" class="er entityLabel">id</text><rect height="22.091796875" width="69.4375" y="46" x="0" class="er attributeBoxEven"/><text style="dominant-baseline: middle; font-size: 10.2px;" transform="translate(5,57.0458984375)" y="0" x="0" id="text-entity-FACTORYCARSUPPORT-df1fa01b-e0e5-56c4-a578-53fc2726f9cf-attr-2-type" class="er entityLabel">int</text><rect height="22.091796875" width="89.609375" y="46" x="69.4375" class="er attributeBoxEven"/><text style="dominant-baseline: middle; font-size: 10.2px;" transform="translate(74.4375,57.0458984375)" y="0" x="0" id="text-entity-FACTORYCARSUPPORT-df1fa01b-e0e5-56c4-a578-53fc2726f9cf-attr-2-name" class="er entityLabel">factory</text><rect height="22" width="69.4375" y="68.091796875" x="0" class="er attributeBoxOdd"/><text style="dominant-baseline: middle; font-size: 10.2px;" transform="translate(5,79.091796875)" y="0" x="0" id="text-entity-FACTORYCARSUPPORT-df1fa01b-e0e5-56c4-a578-53fc2726f9cf-attr-3-type" class="er entityLabel">int</text><rect height="22" width="89.609375" y="68.091796875" x="69.4375" class="er attributeBoxOdd"/><text style="dominant-baseline: middle; font-size: 10.2px;" transform="translate(74.4375,79.091796875)" y="0" x="0" id="text-entity-FACTORYCARSUPPORT-df1fa01b-e0e5-56c4-a578-53fc2726f9cf-attr-3-name" class="er entityLabel">car</text></g><rect height="14" width="220.921875" y="161.23941040039062" x="-32.21741485595703" class="er relationshipLabelBox"/><text style="text-anchor: middle; dominant-baseline: middle; font-size: 12px;" y="168.23941040039062" x="78.24352264404297" id="rel1" class="er relationshipLabel">factory_car_support.factory -&gt; factory.id</text><rect height="14" width="177.6875" y="145.90232849121094" x="179.24151611328125" class="er relationshipLabelBox"/><text style="text-anchor: middle; dominant-baseline: middle; font-size: 12px;" y="152.90232849121094" x="268.08526611328125" id="rel2" class="er relationshipLabel">factory_car_support.car -&gt; car.id</text></svg>