<?xml version="1.0" encoding="UTF-8" standalone="no"?><svg xmlns="http://www.w3.org/2000/svg" xmlns:xlink="http://www.w3.org/1999/xlink" contentStyleType="text/css" height="301px" preserveAspectRatio="none" style="width:519px;height:301px;background:#FFFFFF;" version="1.1" viewBox="0 0 519 301" width="519px" zoomAndPan="magnify"><defs/><g><!--class car--><g id="elem_car"><rect codeLine="2" fill="#F1F1F1" height="130.4414" id="car" rx="2.5" ry="2.5" style="stroke:#181818;stroke-width:0.5;" width="303" x="7" y="164"/><ellipse cx="142.25" cy="180" fill="#ADD1B2" rx="11" ry="11" style="stroke:#181818;stroke-width:1.0;"/><path d="M145.8643,186.5 L138.1445,186.5 L138.1445,174.1069 L145.8643,174.1069 L145.8643,176.2651 L140.5933,176.2651 L140.5933,178.938 L145.3662,178.938 L145.3662,181.0962 L140.5933,181.0962 L140.5933,184.3418 L145.8643,184.3418 Z " fill="#000000"/><text fill="#000000" font-family="sans-serif" font-size="14" lengthAdjust="spacing" textLength="24" x="162.75" y="185.291">Car</text><line style="stroke:#181818;stroke-width:0.5;" x1="8" x2="309" y1="196" y2="196"/><ellipse cx="18" cy="209.7441" fill="#000000" rx="3" ry="3" style="stroke:#000000;stroke-width:1.0;"/><text fill="#000000" font-family="sans-serif" font-size="14" lengthAdjust="spacing" textLength="141" x="27" y="213.5352">id : int «primary key»</text><line style="stroke:#181818;stroke-width:1.0;" x1="8" x2="309" y1="220.4883" y2="220.4883"/><ellipse cx="18" cy="234.2324" fill="#000000" rx="3" ry="3" style="stroke:#000000;stroke-width:1.0;"/><text fill="#000000" font-family="sans-serif" font-size="14" lengthAdjust="spacing" textLength="277" x="27" y="238.0234">last_updated : timestamp with time zone</text><text fill="#000000" font-family="sans-serif" font-size="14" lengthAdjust="spacing" textLength="89" x="27" y="254.5117">make : string</text><text fill="#000000" font-family="sans-serif" font-size="14" lengthAdjust="spacing" textLength="95" x="27" y="271">model : string</text><text fill="#000000" font-family="sans-serif" font-size="14" lengthAdjust="spacing" textLength="59" x="27" y="287.4883">year : int</text></g><!--class factory--><g id="elem_factory"><rect codeLine="11" fill="#F1F1F1" height="80.9766" id="factory" rx="2.5" ry="2.5" style="stroke:#181818;stroke-width:0.5;" width="167" x="345" y="188.5"/><ellipse cx="399.25" cy="204.5" fill="#ADD1B2" rx="11" ry="11" style="stroke:#181818;stroke-width:1.0;"/><path d="M402.8643,211 L395.1445,211 L395.1445,198.6069 L402.8643,198.6069 L402.8643,200.7651 L397.5933,200.7651 L397.5933,203.438 L402.3662,203.438 L402.3662,205.5962 L397.5933,205.5962 L397.5933,208.8418 L402.8643,208.8418 Z " fill="#000000"/><text fill="#000000" font-family="sans-serif" font-size="14" lengthAdjust="spacing" textLength="50" x="419.75" y="209.791">Factory</text><line style="stroke:#181818;stroke-width:0.5;" x1="346" x2="511" y1="220.5" y2="220.5"/><ellipse cx="356" cy="234.2441" fill="#000000" rx="3" ry="3" style="stroke:#000000;stroke-width:1.0;"/><text fill="#000000" font-family="sans-serif" font-size="14" lengthAdjust="spacing" textLength="141" x="365" y="238.0352">id : int «primary key»</text><line style="stroke:#181818;stroke-width:1.0;" x1="346" x2="511" y1="244.9883" y2="244.9883"/><ellipse cx="356" cy="258.7324" fill="#000000" rx="3" ry="3" style="stroke:#000000;stroke-width:1.0;"/><text fill="#000000" font-family="sans-serif" font-size="14" lengthAdjust="spacing" textLength="104" x="365" y="262.5234">country : string</text></g><!--class factoryCarSupport--><g id="elem_factoryCarSupport"><rect codeLine="17" fill="#F1F1F1" height="97.4648" id="factoryCarSupport" rx="2.5" ry="2.5" style="stroke:#181818;stroke-width:0.5;" width="169" x="209" y="7"/><ellipse cx="224" cy="23" fill="#ADD1B2" rx="11" ry="11" style="stroke:#181818;stroke-width:1.0;"/><path d="M227.6143,29.5 L219.8945,29.5 L219.8945,17.1069 L227.6143,17.1069 L227.6143,19.2651 L222.3433,19.2651 L222.3433,21.938 L227.1162,21.938 L227.1162,24.0962 L222.3433,24.0962 L222.3433,27.3418 L227.6143,27.3418 Z " fill="#000000"/><text fill="#000000" font-family="sans-serif" font-size="14" lengthAdjust="spacing" textLength="137" x="238" y="28.291">Factory Car Support</text><line style="stroke:#181818;stroke-width:0.5;" x1="210" x2="377" y1="39" y2="39"/><ellipse cx="220" cy="52.7441" fill="#000000" rx="3" ry="3" style="stroke:#000000;stroke-width:1.0;"/><text fill="#000000" font-family="sans-serif" font-size="14" lengthAdjust="spacing" textLength="137" x="229" y="56.5352">id: int «primary key»</text><line style="stroke:#181818;stroke-width:1.0;" x1="210" x2="377" y1="63.4883" y2="63.4883"/><text fill="#000000" font-family="sans-serif" font-size="14" lengthAdjust="spacing" textLength="112" x="215" y="81.0234">factory : int «FK»</text><text fill="#000000" font-family="sans-serif" font-size="14" lengthAdjust="spacing" textLength="86" x="215" y="97.5117">car : int «FK»</text></g><!--link factoryCarSupport to factory--><g id="link_factoryCarSupport_factory"><path codeLine="24" d="M336.81,111.51 C354.32,133.77 374.35,159.21 391.21,180.62 " fill="none" id="factoryCarSupport-factory" style="stroke:#181818;stroke-width:1.0;stroke-dasharray:7.0,7.0;"/><line style="stroke:#181818;stroke-width:1.0;" x1="331.3683" x2="337.6568" y1="111.0768" y2="106.1317"/><line style="stroke:#181818;stroke-width:1.0;" x1="333.2227" x2="339.5112" y1="113.435" y2="108.4899"/><line style="stroke:#181818;stroke-width:1.0;" x1="336.9851" x2="332.04" y1="111.7486" y2="105.46"/><line style="stroke:#181818;stroke-width:1.0;" x1="391.1449" x2="400.8064" y1="180.5414" y2="183.1212"/><line style="stroke:#181818;stroke-width:1.0;" x1="391.1449" x2="391.3736" y1="180.5414" y2="190.5388"/><line style="stroke:#181818;stroke-width:1.0;" x1="391.1449" x2="396.09" y1="180.5414" y2="186.83"/><ellipse cx="387.4361" cy="175.825" fill="none" rx="4" ry="4" style="stroke:#181818;stroke-width:1.0;"/></g><!--link factoryCarSupport to car--><g id="link_factoryCarSupport_car"><path codeLine="25" d="M250.35,111.31 C239.05,125.67 226.69,141.37 214.81,156.46 " fill="none" id="factoryCarSupport-car" style="stroke:#181818;stroke-width:1.0;stroke-dasharray:7.0,7.0;"/><line style="stroke:#181818;stroke-width:1.0;" x1="248.1605" x2="254.96" y1="114.1068" y2="105.46"/><ellipse cx="248.1605" cy="114.1068" fill="none" rx="4" ry="4" style="stroke:#181818;stroke-width:1.0;"/><line style="stroke:#181818;stroke-width:1.0;" x1="249.3432" x2="255.6317" y1="106.1317" y2="111.0768"/><line style="stroke:#181818;stroke-width:1.0;" x1="214.9051" x2="214.6764" y1="156.3414" y2="166.3388"/><line style="stroke:#181818;stroke-width:1.0;" x1="214.9051" x2="205.2436" y1="156.3414" y2="158.9212"/><line style="stroke:#181818;stroke-width:1.0;" x1="214.9051" x2="209.96" y1="156.3414" y2="162.63"/><ellipse cx="218.6139" cy="151.625" fill="none" rx="4" ry="4" style="stroke:#181818;stroke-width:1.0;"/></g><!--SRC=[ZO_B2i8m44Nt-Oh1fL0_G4etGZSk_G0Pqb63va4wHUBZtvr68mL5t6Nk7ERSa6F32MOhZ3F07ZH6k2g0kUbW2SOnr7M8nc9CSAJKDBAhgX4uOS_R8NJ8DA9iBFMCDi3Py26FSF6E1BLu925wZiRjnzbtT9e6YSIQRUgk5BqgjQZPnvHhxPxlFwjfFpYMzAtul0hoOTWC8VZ8KuF4hxIuVgfAhmArwxpJvJybaWAVWjjjiV3NSkCRu3CWrzG3]--></g></svg>