<?xml version="1.0" encoding="UTF-8" standalone="no"?><svg xmlns="http://www.w3.org/2000/svg" xmlns:xlink="http://www.w3.org/1999/xlink" contentStyleType="text/css" height="301px" preserveAspectRatio="none" style="width:519px;height:301px;background:#FFFFFF;" version="1.1" viewBox="0 0 519 301" width="519px" zoomAndPan="magnify"><defs/><g><!--MD5=[3b3eab7c6f523d9ec8a4a473f8e3d6f7]
class car--><g id="elem_car"><rect codeLine="2" fill="#F1F1F1" height="130.4414" id="car" rx="2.5" ry="2.5" style="stroke:#181818;stroke-width:0.5;" width="303" x="7" y="164"/><ellipse cx="142.25" cy="180" fill="#ADD1B2" rx="11" ry="11" style="stroke:#181818;stroke-width:1.0;"/><path d="M145.8643,186.5 L138.1445,186.5 L138.1445,174.1069 L145.8643,174.1069 L145.8643,176.2651 L140.5933,176.2651 L140.5933,178.938 L145.3662,178.938 L145.3662,181.0962 L140.5933,181.0962 L140.5933,184.3418 L145.8643,184.3418 Z " fill="#000000"/><text fill="#000000" font-family="sans-serif" font-size="14" lengthAdjust="spacing" textLength="24" x="162.75" y="185.291">Car</text><line style="stroke:#181818;stroke-width:0.5;" x1="8" x2="309" y1="196" y2="196"/><ellipse cx="18" cy="209.7441" fill="#000000" rx="3" ry="3" style="stroke:#000000;stroke-width:1.0;"/><text fill="#000000" font-family="sans-serif" font-size="14" lengthAdjust="spacing" textLength="141" x="27" y="213.5352">id : int «primary key»</text><line style="stroke:#181818;stroke-width:1.0;" x1="8" x2="309" y1="220.4883" y2="220.4883"/><ellipse cx="18" cy="234.2324" fill="#000000" rx="3" ry="3" style="stroke:#000000;stroke-width:1.0;"/><text fill="#000000" font-family="sans-serif" font-size="14" lengthAdjust="spacing" textLength="277" x="27" y="238.0234">last_updated : timestamp with time zone</text><text fill="#000000" font-family="sans-serif" font-size="14" lengthAdjust="spacing" textLength="89" x="27" y="254.5117">make : string</text><text fill="#000000" font-family="sans-serif" font-size="14" lengthAdjust="spacing" textLength="95" x="27" y="271">model : string</text><text fill="#000000" font-family="sans-serif" font-size="14" lengthAdjust="spacing" textLength="59" x="27" y="287.4883">year : int</text></g><!--MD5=[4ff43964c430846c98e016b63ddfc361]
class factory--><g id="elem_factory"><rect codeLine="11" fill="#F1F1F1" height="80.9766" id="factory" rx="2.5" ry="2.5" style="stroke:#181818;stroke-width:0.5;" width="167" x="345" y="188.5"/><ellipse cx="399.25" cy="204.5" fill="#ADD1B2" rx="11" ry="11" style="stroke:#181818;stroke-width:1.0;"/><path d="M402.8643,211 L395.1445,211 L395.1445,198.6069 L402.8643,198.6069 L402.8643,200.7651 L397.5933,200.7651 L397.5933,203.438 L402.3662,203.438 L402.3662,205.5962 L397.5933,205.5962 L397.5933,208.8418 L402.8643,208.8418 Z " fill="#000000"/><text fill="#000000" font-family="sans-serif" font-size="14" lengthAdjust="spacing" textLength="50" x="419.75" y="209.791">Factory</text><line style="stroke:#181818;stroke-width:0.5;" x1="346" x2="511" y1="220.5" y2="220.5"/><ellipse cx="356" cy="234.2441" fill="#000000" rx="3" ry="3" style="stroke:#000000;stroke-width:1.0;"/><text fill="#000000" font-family="sans-serif" font-size="14" lengthAdjust="spacing" textLength="141" x="365" y="238.0352">id : int «primary key»</text><line style="stroke:#181818;stroke-width:1.0;" x1="346" x2="511" y1="244.9883" y2="244.9883"/><ellipse cx="356" cy="258.7324" fill="#000000" rx="3" ry="3" style="stroke:#000000;stroke-width:1.0;"/><text fill="#000000" font-family="sans-serif" font-size="14" lengthAdjust="spacing" textLength="104" x="365" y="262.5234">country : string</text></g><!--MD5=[fc82e81a46a1178b5197c0312cbaa14b]
class factoryCarSupport--><g id="elem_factoryCarSupport"><rect codeLine="17" fill="#F1F1F1" height="97.4648" id="factoryCarSupport" rx="2.5" ry="2.5" style="stroke:#181818;stroke-width:0.5;" width="169" x="209" y="7"/><ellipse cx="224" cy="23" fill="#ADD1B2" rx="11" ry="11" style="stroke:#181818;stroke-width:1.0;"/><path d="M227.6143,29.5 L219.8945,29.5 L219.8945,17.1069 L227.6143,17.1069 L227.6143,19.2651 L222.3433,19.2651 L222.3433,21.938 L227.1162,21.938 L227.1162,24.0962 L222.3433,24.0962 L222.3433,27.3418 L227.6143,27.3418 Z " fill="#000000"/><text fill="#000000" font-family="sans-serif" font-size="14" lengthAdjust="spacing" textLength="137" x="238" y="28.291">Factory Car Support</text><line style="stroke:#181818;stroke-width:0.5;" x1="210" x2="377" y1="39" y2="39"/><ellipse cx="220" cy="52.7441" fill="#000000" rx="3" ry="3" style="stroke:#000000;stroke-width:1.0;"/><text fill="#000000" font-family="sans-serif" font-size="14" lengthAdjust="spacing" textLength="137" x="229" y="56.5352">id: int «primary key»</text><line style="stroke:#181818;stroke-width:1.0;" x1="210" x2="377" y1="63.4883" y2="63.4883"/><text fill="#000000" font-family="sans-serif" font-size="14" lengthAdjust="spacing" textLength="112" x="215" y="81.0234">factory : int «FK»</text><text fill="#000000" font-family="sans-serif" font-size="14" lengthAdjust="spacing" textLength="86" x="215" y="97.5117">car : int «FK»</text></g><!--MD5=[3e7819b0ae0e1a3f18ee317029d6748c]
link factoryCarSupport to factory--><g id="link_factoryCarSupport_factory"><path codeLine="24" d="M336.07,110.58 C354.12,133.51 374.93,159.95 392.23,181.93 " fill="none" id="factoryCarSupport-factory" style="stroke:#181818;stroke-width:1.0;stroke-dasharray:7.0,7.0;"/><line style="stroke:#181818;stroke-width:1.0;" x1="392.2961" x2="401.9612" y1="182.0184" y2="184.5846"/><line style="stroke:#181818;stroke-width:1.0;" x1="392.2961" x2="392.5388" y1="182.0184" y2="192.0154"/><line style="stroke:#181818;stroke-width:1.0;" x1="392.2961" x2="397.25" y1="182.0184" y2="188.3"/><ellipse cx="388.5807" cy="177.3072" fill="none" rx="4" ry="4" style="stroke:#181818;stroke-width:1.0;"/><line style="stroke:#181818;stroke-width:1.0;" x1="330.4383" x2="336.7268" y1="109.8868" y2="104.9417"/><line style="stroke:#181818;stroke-width:1.0;" x1="332.2927" x2="338.5812" y1="112.245" y2="107.2999"/><line style="stroke:#181818;stroke-width:1.0;" x1="336.0551" x2="331.11" y1="110.5586" y2="104.27"/></g><!--MD5=[0eab4e23108e6b9d52beb89bfae528ba]
link factoryCarSupport to car--><g id="link_factoryCarSupport_car"><path codeLine="25" d="M250.7,110.87 C239.11,125.59 226.4,141.74 214.21,157.23 " fill="none" id="factoryCarSupport-car" style="stroke:#181818;stroke-width:1.0;stroke-dasharray:7.0,7.0;"/><line style="stroke:#181818;stroke-width:1.0;" x1="213.9651" x2="213.7364" y1="157.5314" y2="167.5288"/><line style="stroke:#181818;stroke-width:1.0;" x1="213.9651" x2="204.3036" y1="157.5314" y2="160.1112"/><line style="stroke:#181818;stroke-width:1.0;" x1="213.9651" x2="209.02" y1="157.5314" y2="163.82"/><ellipse cx="217.6739" cy="152.815" fill="none" rx="4" ry="4" style="stroke:#181818;stroke-width:1.0;"/><line style="stroke:#181818;stroke-width:1.0;" x1="249.0905" x2="255.89" y1="112.9168" y2="104.27"/><ellipse cx="249.0905" cy="112.9168" fill="none" rx="4" ry="4" style="stroke:#181818;stroke-width:1.0;"/><line style="stroke:#181818;stroke-width:1.0;" x1="250.2732" x2="256.5617" y1="104.9417" y2="109.8868"/></g><!--MD5=[7ace258c440e5a0cf1e8ae60f64034dc]
@startuml

entity "Car" as car {
  *id : int <<primary key>>
  - -
  *last_updated : timestamp with time zone
  make : string
  model : string
  year : int
}

entity "Factory" as factory {
  *id : int <<primary key>>
  - -
  *country : string
}

entity "Factory Car Support" as factoryCarSupport {
  *id: int <<primary key>>
  - -
  factory : int <<FK>>
  car : int <<FK>>
}

factoryCarSupport ||..o{ factory
factoryCarSupport |o..o{ car

@enduml

PlantUML version 1.2022.8(Sun Sep 25 02:00:33 PDT 2022)
(GPL source distribution)
Java Runtime: OpenJDK Runtime Environment
JVM: OpenJDK 64-Bit Server VM
Default Encoding: UTF-8
Language: en
Country: US
--></g></svg>