<svg xmlns="http://www.w3.org/2000/svg" xmlns:xlink="http://www.w3.org/1999/xlink" contentStyleType="text/css" height="301px" preserveAspectRatio="none" style="width:522px;height:301px;background:#FFFFFF;" version="1.1" viewBox="0 0 522 301" width="522px" zoomAndPan="magnify"><defs/><g><!--class car--><g id="elem_car"><rect codeLine="2" fill="#F1F1F1" height="130.4414" id="car" rx="2.5" ry="2.5" style="stroke:#181818;stroke-width:0.5;" width="303.7852" x="7" y="164.47"/><ellipse cx="143.0693" cy="180.47" fill="#ADD1B2" rx="11" ry="11" style="stroke:#181818;stroke-width:1.0;"/><path d="M146.6836,186.97 L138.9639,186.97 L138.9639,174.5769 L146.6836,174.5769 L146.6836,176.7351 L141.4126,176.7351 L141.4126,179.408 L146.1855,179.408 L146.1855,181.5662 L141.4126,181.5662 L141.4126,184.8118 L146.6836,184.8118 Z " fill="#000000"/><text fill="#000000" font-family="sans-serif" font-size="14" lengthAdjust="spacing" textLength="23.1465" x="163.5693" y="185.761">Car</text><line style="stroke:#181818;stroke-width:0.5;" x1="8" x2="309.7852" y1="196.47" y2="196.47"/><ellipse cx="18" cy="210.2141" fill="#000000" rx="3" ry="3" style="stroke:#000000;stroke-width:1.0;"/><text fill="#000000" font-family="sans-serif" font-size="14" lengthAdjust="spacing" textLength="143.377" x="27" y="214.0052">id : int &#171;primary key&#187;</text><line style="stroke:#181818;stroke-width:1.0;" x1="8" x2="309.7852" y1="220.9583" y2="220.9583"/><ellipse cx="18" cy="234.7024" fill="#000000" rx="3" ry="3" style="stroke:#000000;stroke-width:1.0;"/><text fill="#000000" font-family="sans-serif" font-size="14" lengthAdjust="spacing" textLength="277.7852" x="27" y="238.4934">last_updated : timestamp with time zone</text><text fill="#000000" font-family="sans-serif" font-size="14" lengthAdjust="spacing" textLength="89.6396" x="27" y="254.9817">make : string</text><text fill="#000000" font-family="sans-serif" font-size="14" lengthAdjust="spacing" textLength="95.1836" x="27" y="271.47">model : string</text><text fill="#000000" font-family="sans-serif" font-size="14" lengthAdjust="spacing" textLength="59.835" x="27" y="287.9583">year : int</text></g><!--class factory--><g id="elem_factory"><rect codeLine="11" fill="#F1F1F1" height="80.9766" id="factory" rx="2.5" ry="2.5" style="stroke:#181818;stroke-width:0.5;" width="169.377" x="346.2" y="189.2"/><ellipse cx="401.9949" cy="205.2" fill="#ADD1B2" rx="11" ry="11" style="stroke:#181818;stroke-width:1.0;"/><path d="M405.6092,211.7 L397.8895,211.7 L397.8895,199.3069 L405.6092,199.3069 L405.6092,201.4651 L400.3382,201.4651 L400.3382,204.138 L405.1111,204.138 L405.1111,206.2962 L400.3382,206.2962 L400.3382,209.5418 L405.6092,209.5418 Z " fill="#000000"/><text fill="#000000" font-family="sans-serif" font-size="14" lengthAdjust="spacing" textLength="49.2871" x="422.4949" y="210.491">Factory</text><line style="stroke:#181818;stroke-width:0.5;" x1="347.2" x2="514.577" y1="221.2" y2="221.2"/><ellipse cx="357.2" cy="234.9441" fill="#000000" rx="3" ry="3" style="stroke:#000000;stroke-width:1.0;"/><text fill="#000000" font-family="sans-serif" font-size="14" lengthAdjust="spacing" textLength="143.377" x="366.2" y="238.7352">id : int &#171;primary key&#187;</text><line style="stroke:#181818;stroke-width:1.0;" x1="347.2" x2="514.577" y1="245.6883" y2="245.6883"/><ellipse cx="357.2" cy="259.4324" fill="#000000" rx="3" ry="3" style="stroke:#000000;stroke-width:1.0;"/><text fill="#000000" font-family="sans-serif" font-size="14" lengthAdjust="spacing" textLength="104.2822" x="366.2" y="263.2234">country : string</text></g><!--class factoryCarSupport--><g id="elem_factoryCarSupport"><rect codeLine="17" fill="#F1F1F1" height="97.4648" id="factoryCarSupport" rx="2.5" ry="2.5" style="stroke:#181818;stroke-width:0.5;" width="166.709" x="211.54" y="7"/><ellipse cx="226.54" cy="23" fill="#ADD1B2" rx="11" ry="11" style="stroke:#181818;stroke-width:1.0;"/><path d="M230.1543,29.5 L222.4345,29.5 L222.4345,17.1069 L230.1543,17.1069 L230.1543,19.2651 L224.8833,19.2651 L224.8833,21.938 L229.6562,21.938 L229.6562,24.0962 L224.8833,24.0962 L224.8833,27.3418 L230.1543,27.3418 Z " fill="#000000"/><text fill="#000000" font-family="sans-serif" font-size="14" lengthAdjust="spacing" textLength="134.709" x="240.54" y="28.291">Factory Car Support</text><line style="stroke:#181818;stroke-width:0.5;" x1="212.54" x2="377.249" y1="39" y2="39"/><ellipse cx="222.54" cy="52.7441" fill="#000000" rx="3" ry="3" style="stroke:#000000;stroke-width:1.0;"/><text fill="#000000" font-family="sans-serif" font-size="14" lengthAdjust="spacing" textLength="138.9473" x="231.54" y="56.5352">id: int &#171;primary key&#187;</text><line style="stroke:#181818;stroke-width:1.0;" x1="212.54" x2="377.249" y1="63.4883" y2="63.4883"/><text fill="#000000" font-family="sans-serif" font-size="14" lengthAdjust="spacing" textLength="113.9346" x="217.54" y="81.0234">factory : int &#171;FK&#187;</text><text fill="#000000" font-family="sans-serif" font-size="14" lengthAdjust="spacing" textLength="87.6367" x="217.54" y="97.5117">car : int &#171;FK&#187;</text></g><!--link factoryCarSupport to factory--><g id="link_factoryCarSupport_factory"><path codeLine="24" d="M337.7411,110.9059 C358.7211,137.4459 368.3731,149.6426 388.2431,174.7626 " fill="none" id="factoryCarSupport-factory" style="stroke:#181818;stroke-width:1.0;stroke-dasharray:7.0,7.0;"/><line style="stroke:#181818;stroke-width:1.0;" x1="332.1226" x2="338.3985" y1="110.2485" y2="105.2874"/><line style="stroke:#181818;stroke-width:1.0;" x1="333.983" x2="340.259" y1="112.602" y2="107.6409"/><line style="stroke:#181818;stroke-width:1.0;" x1="337.7411" x2="332.78" y1="110.9059" y2="104.63"/><line style="stroke:#181818;stroke-width:1.0;" x1="394.4469" x2="404.1158" y1="182.6056" y2="185.1577"/><line style="stroke:#181818;stroke-width:1.0;" x1="394.4469" x2="394.7042" y1="182.6056" y2="192.6023"/><line style="stroke:#181818;stroke-width:1.0;" x1="394.4469" x2="399.41" y1="182.6056" y2="188.88"/><ellipse cx="390.7246" cy="177.8998" fill="none" rx="4" ry="4" style="stroke:#181818;stroke-width:1.0;"/></g><!--link factoryCarSupport to car--><g id="link_factoryCarSupport_car"><path codeLine="25" d="M247.7068,116.3965 C233.1668,134.7865 236.7966,130.1924 221.2066,149.9024 " fill="none" id="factoryCarSupport-car" style="stroke:#181818;stroke-width:1.0;stroke-dasharray:7.0,7.0;"/><line style="stroke:#181818;stroke-width:1.0;" x1="250.1877" x2="257.01" y1="113.2588" y2="104.63"/><ellipse cx="250.1877" cy="113.2588" fill="none" rx="4" ry="4" style="stroke:#181818;stroke-width:1.0;"/><line style="stroke:#181818;stroke-width:1.0;" x1="251.3914" x2="257.6669" y1="105.2869" y2="110.2486"/><line style="stroke:#181818;stroke-width:1.0;" x1="215.0029" x2="214.7459" y1="157.7455" y2="167.7422"/><line style="stroke:#181818;stroke-width:1.0;" x1="215.0029" x2="205.3341" y1="157.7455" y2="160.2978"/><line style="stroke:#181818;stroke-width:1.0;" x1="215.0029" x2="210.04" y1="157.7455" y2="164.02"/><ellipse cx="218.7251" cy="153.0396" fill="none" rx="4" ry="4" style="stroke:#181818;stroke-width:1.0;"/></g><!--SRC=[ZO_B2i8m44Nt-Oh1fL0_G4etGZSk_G0Pqb63va4wHUBZtvr68mL5t6Nk7ERSa6F32MOhZ3F07ZH6k2g0kUbW2SOnr7M8nc9CSAJKDBAhgX4uOS_R8NJ8DA9iBFMCDi3Py26FSF6E1BLu925wZiRjnzbtT9e6YSIQRUgk5BqgjQZPnvHhxPxlFwjfFpYMzAtul0hoOTWC8VZ8KuF4hxIuVgfAhmArwxpJvJybaWAVWjjjiV3NSkCRu3CWrzG3]--></g></svg>