<?xml version="1.0" encoding="UTF-8" standalone="no"?>
<!DOCTYPE svg PUBLIC "-//W3C//DTD SVG 1.1//EN"
 "http://www.w3.org/Graphics/SVG/1.1/DTD/svg11.dtd">
<!-- Generated by graphviz version 12.2.1 (20241206.2353)
 -->
<!-- Title: G Pages: 1 -->
<svg width="393pt" height="187pt"
 viewBox="0.00 0.00 392.54 187.05" xmlns="http://www.w3.org/2000/svg" xmlns:xlink="http://www.w3.org/1999/xlink">
<g id="graph0" class="graph" transform="scale(1 1) rotate(0) translate(4 183.05)">
<title>G</title>
<polygon fill="white" stroke="none" points="-4,4 -4,-183.05 388.54,-183.05 388.54,4 -4,4"/>
<g id="clust1" class="cluster">
<title>cluster_0</title>
<polygon fill="none" stroke="black" points="37.44,0 37.44,-179.05 272.36,-179.05 272.36,0 37.44,0"/>
<text text-anchor="middle" x="154.9" y="-161.75" font-family="Times,serif" font-size="14.00">defendants</text>
</g>
<!-- hans -->
<g id="node1" class="node">
<title>hans</title>
<ellipse fill="none" stroke="black" cx="212.68" cy="-94.97" rx="66.71" ry="18"/>
<text text-anchor="middle" x="212.68" y="-89.92" font-family="Times,serif" font-size="14.00">Hans Niemann</text>
</g>
<!-- mc -->
<g id="node2" class="node">
<title>mc</title>
<ellipse fill="none" stroke="black" cx="200.54" cy="-18" rx="71.82" ry="18"/>
<text text-anchor="middle" x="200.54" y="-12.95" font-family="Times,serif" font-size="14.00">Magnus Carlsen</text>
</g>
<!-- hans&#45;&gt;mc -->
<g id="edge4" class="edge">
<title>hans&#45;&gt;mc</title>
<path fill="none" stroke="black" d="M215.62,-76.61C215.15,-67.79 213.73,-57.03 211.82,-47.13"/>
<polygon fill="black" stroke="black" points="215.29,-46.58 209.71,-37.57 208.45,-48.09 215.29,-46.58"/>
<text text-anchor="middle" x="262.85" y="-48.57" font-family="Times,serif" font-size="14.00">sueing for $100M</text>
</g>
<!-- mc&#45;&gt;hans -->
<g id="edge6" class="edge">
<title>mc&#45;&gt;hans</title>
<path fill="none" stroke="black" d="M197.6,-36.36C198.07,-45.18 199.49,-55.95 201.4,-65.84"/>
<polygon fill="black" stroke="black" points="197.93,-66.39 203.51,-75.4 204.77,-64.88 197.93,-66.39"/>
<text text-anchor="middle" x="99.75" y="-54.3" font-family="Times,serif" font-size="14.00">Lost then withdrew with accusations</text>
</g>
<!-- playmagnus -->
<g id="node3" class="node">
<title>playmagnus</title>
<ellipse fill="none" stroke="black" cx="123.6" cy="-30.59" rx="86.15" ry="18"/>
<text text-anchor="middle" x="123.6" y="-25.54" font-family="Times,serif" font-size="14.00">Play Magnus Group</text>
</g>
<!-- mc&#45;&gt;playmagnus -->
<g id="edge1" class="edge">
<title>mc&#45;&gt;playmagnus</title>
<path fill="none" stroke="black" d="M139.91,-27.92C139.84,-27.93 139.76,-27.95 139.69,-27.96"/>
<polygon fill="black" stroke="black" points="150.26,-22.68 140.96,-27.75 151.4,-29.59 150.26,-22.68"/>
<text text-anchor="middle" x="98.93" y="-31.14" font-family="Times,serif" font-size="14.00">Owns majority</text>
</g>
<!-- chesscom -->
<g id="node4" class="node">
<title>chesscom</title>
<ellipse fill="none" stroke="black" cx="135.78" cy="-107.68" rx="51.86" ry="18"/>
<text text-anchor="middle" x="135.78" y="-102.63" font-family="Times,serif" font-size="14.00">Chess.com</text>
</g>
<!-- playmagnus&#45;&gt;chesscom -->
<g id="edge2" class="edge">
<title>playmagnus&#45;&gt;chesscom</title>
<path fill="none" stroke="black" d="M128.27,-60.21C129.19,-66.01 130.16,-72.11 131.07,-77.92"/>
<polygon fill="black" stroke="black" points="131.74,-59.69 126.72,-50.36 124.82,-60.78 131.74,-59.69"/>
<polygon fill="black" stroke="black" points="127.61,-78.45 132.63,-87.78 134.53,-77.35 127.61,-78.45"/>
<text text-anchor="middle" x="94.8" y="-72.26" font-family="Times,serif" font-size="14.00">Merger talks</text>
</g>
<!-- chesscom&#45;&gt;hans -->
<g id="edge7" class="edge">
<title>chesscom&#45;&gt;hans</title>
<path fill="none" stroke="black" d="M183.17,-99.85C183.23,-99.84 183.29,-99.83 183.35,-99.82"/>
<polygon fill="black" stroke="black" points="172.75,-105.12 182.05,-100.03 171.61,-98.21 172.75,-105.12"/>
<text text-anchor="middle" x="111.64" y="-103.03" font-family="Times,serif" font-size="14.00">72 page report of cheating</text>
</g>
<!-- naka -->
<g id="node5" class="node">
<title>naka</title>
<ellipse fill="none" stroke="black" cx="184.27" cy="-161.05" rx="77.97" ry="18"/>
<text text-anchor="middle" x="184.27" y="-156" font-family="Times,serif" font-size="14.00">Hikaru Nakamura</text>
</g>
<!-- chesscom&#45;&gt;naka -->
<g id="edge3" class="edge">
<title>chesscom&#45;&gt;naka</title>
<path fill="none" stroke="black" d="M151.65,-125.15C154.41,-128.19 157.34,-131.41 160.26,-134.62"/>
<polygon fill="black" stroke="black" points="157.52,-136.82 166.84,-141.87 162.7,-132.11 157.52,-136.82"/>
<text text-anchor="middle" x="125.2" y="-133.09" font-family="Times,serif" font-size="14.00">Sponsoring</text>
</g>
<!-- naka&#45;&gt;hans -->
<g id="edge5" class="edge">
<title>naka&#45;&gt;hans</title>
<path fill="none" stroke="black" d="M192.03,-142.99C194.66,-136.88 197.67,-129.89 200.56,-123.17"/>
<polygon fill="black" stroke="black" points="203.59,-124.97 204.33,-114.4 197.16,-122.2 203.59,-124.97"/>
<text text-anchor="middle" x="290.42" y="-119.78" font-family="Times,serif" font-size="14.00">Accused of cheating on his stream</text>
</g>
</g>
</svg>
