<?xml version="1.0" encoding="UTF-8" standalone="no"?>
<!DOCTYPE svg PUBLIC "-//W3C//DTD SVG 1.1//EN"
 "http://www.w3.org/Graphics/SVG/1.1/DTD/svg11.dtd">
<!-- Generated by graphviz version 6.0.2 (20221011.1828)
 -->
<!-- Title: G Pages: 1 -->
<svg width="636pt" height="360pt"
 viewBox="0.00 0.00 636.00 360.00" xmlns="http://www.w3.org/2000/svg" xmlns:xlink="http://www.w3.org/1999/xlink">
<g id="graph0" class="graph" transform="scale(1 1) rotate(0) translate(4 356)">
<title>G</title>
<polygon fill="white" stroke="none" points="-4,4 -4,-356 632,-356 632,4 -4,4"/>
<g id="clust1" class="cluster">
<title>cluster_0</title>
<polygon fill="none" stroke="black" points="8,-8 8,-344 190,-344 190,-8 8,-8"/>
<text text-anchor="middle" x="99" y="-328.8" font-family="Times,serif" font-size="14.00">defendants</text>
</g>
<!-- hans -->
<g id="node1" class="node">
<title>hans</title>
<ellipse fill="none" stroke="black" cx="436" cy="-34" rx="63.89" ry="18"/>
<text text-anchor="middle" x="436" y="-30.3" font-family="Times,serif" font-size="14.00">Hans Niemann</text>
</g>
<!-- mc -->
<g id="node2" class="node">
<title>mc</title>
<ellipse fill="none" stroke="black" cx="113" cy="-295" rx="68.79" ry="18"/>
<text text-anchor="middle" x="113" y="-291.3" font-family="Times,serif" font-size="14.00">Magnus Carlsen</text>
</g>
<!-- hans&#45;&gt;mc -->
<g id="edge4" class="edge">
<title>hans&#45;&gt;mc</title>
<path fill="none" stroke="black" d="M421.61,-51.64C387.18,-90.64 295.89,-189.49 198.53,-255.25"/>
<polygon fill="black" stroke="black" points="196.39,-252.47 190,-260.91 200.26,-258.3 196.39,-252.47"/>
<text text-anchor="middle" x="366.5" y="-160.8" font-family="Times,serif" font-size="14.00">sueing for $100M</text>
</g>
<!-- mc&#45;&gt;hans -->
<g id="edge6" class="edge">
<title>mc&#45;&gt;hans</title>
<path fill="none" stroke="black" d="M176.78,-287.99C248.51,-277.55 362.46,-249.11 420,-172 443.72,-140.21 443.44,-92.19 440.29,-62.27"/>
<polygon fill="black" stroke="black" points="443.74,-61.62 439.04,-52.12 436.79,-62.47 443.74,-61.62"/>
<text text-anchor="middle" x="528" y="-160.8" font-family="Times,serif" font-size="14.00">Lost then withdrew with accusations</text>
</g>
<!-- playmagnus -->
<g id="node3" class="node">
<title>playmagnus</title>
<ellipse fill="none" stroke="black" cx="99" cy="-208" rx="82.59" ry="18"/>
<text text-anchor="middle" x="99" y="-204.3" font-family="Times,serif" font-size="14.00">Play Magnus Group</text>
</g>
<!-- mc&#45;&gt;playmagnus -->
<g id="edge1" class="edge">
<title>mc&#45;&gt;playmagnus</title>
<path fill="none" stroke="black" d="M110.17,-276.8C108.25,-265.16 105.68,-249.55 103.49,-236.24"/>
<polygon fill="black" stroke="black" points="106.91,-235.47 101.83,-226.18 100,-236.61 106.91,-235.47"/>
<text text-anchor="middle" x="148" y="-247.8" font-family="Times,serif" font-size="14.00">Owns majority</text>
</g>
<!-- chesscom -->
<g id="node4" class="node">
<title>chesscom</title>
<ellipse fill="none" stroke="black" cx="99" cy="-121" rx="50.09" ry="18"/>
<text text-anchor="middle" x="99" y="-117.3" font-family="Times,serif" font-size="14.00">Chess.com</text>
</g>
<!-- playmagnus&#45;&gt;chesscom -->
<g id="edge2" class="edge">
<title>playmagnus&#45;&gt;chesscom</title>
<path fill="none" stroke="black" d="M99,-179.73C99,-170.06 99,-159.17 99,-149.48"/>
<polygon fill="black" stroke="black" points="95.5,-179.8 99,-189.8 102.5,-179.8 95.5,-179.8"/>
<polygon fill="black" stroke="black" points="102.5,-149.18 99,-139.18 95.5,-149.18 102.5,-149.18"/>
<text text-anchor="middle" x="134" y="-160.8" font-family="Times,serif" font-size="14.00">Merger talks</text>
</g>
<!-- chesscom&#45;&gt;hans -->
<g id="edge7" class="edge">
<title>chesscom&#45;&gt;hans</title>
<path fill="none" stroke="black" d="M118.94,-104.31C136.72,-90.46 160.72,-72.14 166,-70 200.95,-55.84 297.22,-45.73 364.8,-40.13"/>
<polygon fill="black" stroke="black" points="365.28,-43.6 374.96,-39.3 364.71,-36.62 365.28,-43.6"/>
<text text-anchor="middle" x="238" y="-73.8" font-family="Times,serif" font-size="14.00">72 page report of cheating</text>
</g>
<!-- naka -->
<g id="node5" class="node">
<title>naka</title>
<ellipse fill="none" stroke="black" cx="91" cy="-34" rx="74.99" ry="18"/>
<text text-anchor="middle" x="91" y="-30.3" font-family="Times,serif" font-size="14.00">Hikaru Nakamura</text>
</g>
<!-- chesscom&#45;&gt;naka -->
<g id="edge3" class="edge">
<title>chesscom&#45;&gt;naka</title>
<path fill="none" stroke="black" d="M88.31,-103.19C85.34,-97.62 82.51,-91.24 81,-85 79.2,-77.55 79.76,-69.41 81.29,-61.91"/>
<polygon fill="black" stroke="black" points="84.69,-62.76 83.85,-52.2 77.92,-60.98 84.69,-62.76"/>
<text text-anchor="middle" x="112" y="-73.8" font-family="Times,serif" font-size="14.00">Sponsoring</text>
</g>
<!-- naka&#45;&gt;hans -->
<g id="edge5" class="edge">
<title>naka&#45;&gt;hans</title>
<path fill="none" stroke="black" d="M165.86,-34C224,-34 304.21,-34 362.11,-34"/>
<polygon fill="black" stroke="black" points="362.29,-37.5 372.29,-34 362.29,-30.5 362.29,-37.5"/>
<text text-anchor="middle" x="269.02" y="-40.8" font-family="Times,serif" font-size="14.00">Accused of cheating on his stream</text>
</g>
</g>
</svg>
