<?xml version="1.0" encoding="UTF-8" standalone="no"?>
<!DOCTYPE svg PUBLIC "-//W3C//DTD SVG 1.1//EN"
 "http://www.w3.org/Graphics/SVG/1.1/DTD/svg11.dtd">
<!-- Generated by graphviz version 6.0.2 (20221011.1828)
 -->
<!-- Title: G Pages: 1 -->
<svg width="394pt" height="187pt"
 viewBox="0.00 0.00 393.91 187.05" xmlns="http://www.w3.org/2000/svg" xmlns:xlink="http://www.w3.org/1999/xlink">
<g id="graph0" class="graph" transform="scale(1 1) rotate(0) translate(4 183.05)">
<title>G</title>
<polygon fill="white" stroke="none" points="-4,4 -4,-183.05 389.91,-183.05 389.91,4 -4,4"/>
<g id="clust1" class="cluster">
<title>cluster_0</title>
<polygon fill="none" stroke="black" points="41.46,0 41.46,-179.05 269.84,-179.05 269.84,0 41.46,0"/>
<text text-anchor="middle" x="155.65" y="-163.85" font-family="Times,serif" font-size="14.00">defendants</text>
</g>
<!-- hans -->
<g id="node1" class="node">
<title>hans</title>
<ellipse fill="none" stroke="black" cx="213.09" cy="-94.97" rx="63.89" ry="18"/>
<text text-anchor="middle" x="213.09" y="-91.27" font-family="Times,serif" font-size="14.00">Hans Niemann</text>
</g>
<!-- mc -->
<g id="node2" class="node">
<title>mc</title>
<ellipse fill="none" stroke="black" cx="200.94" cy="-18" rx="68.79" ry="18"/>
<text text-anchor="middle" x="200.94" y="-14.3" font-family="Times,serif" font-size="14.00">Magnus Carlsen</text>
</g>
<!-- hans&#45;&gt;mc -->
<g id="edge4" class="edge">
<title>hans&#45;&gt;mc</title>
<path fill="none" stroke="black" d="M216.02,-76.61C215.54,-67.51 214.05,-56.32 212.04,-46.17"/>
<polygon fill="black" stroke="black" points="215.39,-45.09 209.79,-36.09 208.56,-46.62 215.39,-45.09"/>
<text text-anchor="middle" x="263.53" y="-65.19" font-family="Times,serif" font-size="14.00">sueing for $100M</text>
</g>
<!-- mc&#45;&gt;hans -->
<g id="edge6" class="edge">
<title>mc&#45;&gt;hans</title>
<path fill="none" stroke="black" d="M198.01,-36.36C198.49,-45.46 199.99,-56.65 201.99,-66.8"/>
<polygon fill="black" stroke="black" points="198.65,-67.88 204.25,-76.88 205.48,-66.36 198.65,-67.88"/>
<text text-anchor="middle" x="100" y="-55.38" font-family="Times,serif" font-size="14.00">Lost then withdrew with accusations</text>
</g>
<!-- playmagnus -->
<g id="node3" class="node">
<title>playmagnus</title>
<ellipse fill="none" stroke="black" cx="124" cy="-30.59" rx="82.59" ry="18"/>
<text text-anchor="middle" x="124" y="-26.89" font-family="Times,serif" font-size="14.00">Play Magnus Group</text>
</g>
<!-- mc&#45;&gt;playmagnus -->
<g id="edge1" class="edge">
<title>mc&#45;&gt;playmagnus</title>
<path fill="none" stroke="black" d="M142.24,-27.61C142.15,-27.62 142.07,-27.64 141.99,-27.65"/>
<polygon fill="black" stroke="black" points="151.05,-22.62 141.74,-27.69 152.18,-29.52 151.05,-22.62"/>
<text text-anchor="middle" x="101.11" y="-31.43" font-family="Times,serif" font-size="14.00">Owns majority</text>
</g>
<!-- chesscom -->
<g id="node4" class="node">
<title>chesscom</title>
<ellipse fill="none" stroke="black" cx="136.18" cy="-107.68" rx="50.09" ry="18"/>
<text text-anchor="middle" x="136.18" y="-103.98" font-family="Times,serif" font-size="14.00">Chess.com</text>
</g>
<!-- playmagnus&#45;&gt;chesscom -->
<g id="edge2" class="edge">
<title>playmagnus&#45;&gt;chesscom</title>
<path fill="none" stroke="black" d="M128.49,-59C129.55,-65.7 130.68,-72.84 131.73,-79.53"/>
<polygon fill="black" stroke="black" points="131.91,-58.19 126.89,-48.86 124.99,-59.28 131.91,-58.19"/>
<polygon fill="black" stroke="black" points="128.3,-80.21 133.32,-89.54 135.21,-79.12 128.3,-80.21"/>
<text text-anchor="middle" x="95.11" y="-73.06" font-family="Times,serif" font-size="14.00">Merger talks</text>
</g>
<!-- chesscom&#45;&gt;hans -->
<g id="edge7" class="edge">
<title>chesscom&#45;&gt;hans</title>
<path fill="none" stroke="black" d="M181.81,-100.14C181.87,-100.13 181.94,-100.12 182,-100.11"/>
<polygon fill="black" stroke="black" points="172.9,-105.16 182.19,-100.07 171.76,-98.26 172.9,-105.16"/>
<text text-anchor="middle" x="109.9" y="-103.92" font-family="Times,serif" font-size="14.00">72 page report of cheating</text>
</g>
<!-- naka -->
<g id="node5" class="node">
<title>naka</title>
<ellipse fill="none" stroke="black" cx="184.67" cy="-161.05" rx="74.99" ry="18"/>
<text text-anchor="middle" x="184.67" y="-157.35" font-family="Times,serif" font-size="14.00">Hikaru Nakamura</text>
</g>
<!-- chesscom&#45;&gt;naka -->
<g id="edge3" class="edge">
<title>chesscom&#45;&gt;naka</title>
<path fill="none" stroke="black" d="M151.79,-124.86C154.95,-128.33 158.33,-132.05 161.68,-135.74"/>
<polygon fill="black" stroke="black" points="159.11,-138.12 168.43,-143.17 164.29,-133.41 159.11,-138.12"/>
<text text-anchor="middle" x="125.74" y="-134.1" font-family="Times,serif" font-size="14.00">Sponsoring</text>
</g>
<!-- naka&#45;&gt;hans -->
<g id="edge5" class="edge">
<title>naka&#45;&gt;hans</title>
<path fill="none" stroke="black" d="M192.44,-142.99C195.19,-136.58 198.36,-129.22 201.37,-122.21"/>
<polygon fill="black" stroke="black" points="204.6,-123.58 205.33,-113.01 198.17,-120.81 204.6,-123.58"/>
<text text-anchor="middle" x="291.41" y="-121.4" font-family="Times,serif" font-size="14.00">Accused of cheating on his stream</text>
</g>
</g>
</svg>
