<?xml version="1.0" encoding="UTF-8" standalone="no"?>
<!DOCTYPE svg PUBLIC "-//W3C//DTD SVG 1.1//EN"
 "http://www.w3.org/Graphics/SVG/1.1/DTD/svg11.dtd">
<!-- Generated by graphviz version 12.1.0 (20240811.2233)
 -->
<!-- Title: G Pages: 1 -->
<svg width="645pt" height="366pt"
 viewBox="0.00 0.00 645.03 366.00" xmlns="http://www.w3.org/2000/svg" xmlns:xlink="http://www.w3.org/1999/xlink">
<g id="graph0" class="graph" transform="scale(1 1) rotate(0) translate(4 362)">
<title>G</title>
<polygon fill="white" stroke="none" points="-4,4 -4,-362 641.03,-362 641.03,4 -4,4"/>
<g id="clust1" class="cluster">
<title>cluster_0</title>
<polygon fill="none" stroke="black" points="8,-8 8,-350 196,-350 196,-8 8,-8"/>
<text text-anchor="middle" x="102" y="-332.7" font-family="Times,serif" font-size="14.00">defendants</text>
</g>
<!-- hans -->
<g id="node1" class="node">
<title>hans</title>
<ellipse fill="none" stroke="black" cx="444" cy="-34" rx="66.71" ry="18"/>
<text text-anchor="middle" x="444" y="-28.95" font-family="Times,serif" font-size="14.00">Hans Niemann</text>
</g>
<!-- mc -->
<g id="node2" class="node">
<title>mc</title>
<ellipse fill="none" stroke="black" cx="116" cy="-299.5" rx="71.82" ry="18"/>
<text text-anchor="middle" x="116" y="-294.45" font-family="Times,serif" font-size="14.00">Magnus Carlsen</text>
</g>
<!-- hans&#45;&gt;mc -->
<g id="edge4" class="edge">
<title>hans&#45;&gt;mc</title>
<path fill="none" stroke="black" d="M429.31,-51.97C393.15,-92.91 295.51,-198.52 196,-263.5 186.77,-269.53 176.32,-274.96 166.1,-279.64"/>
<polygon fill="black" stroke="black" points="164.73,-276.42 156.98,-283.64 167.54,-282.83 164.73,-276.42"/>
<text text-anchor="middle" x="374.42" y="-161.7" font-family="Times,serif" font-size="14.00">sueing for $100M</text>
</g>
<!-- mc&#45;&gt;hans -->
<g id="edge6" class="edge">
<title>mc&#45;&gt;hans</title>
<path fill="none" stroke="black" d="M182.52,-292.31C255.55,-281.66 370.12,-252.83 428,-175 452.1,-142.59 451.77,-93.76 448.5,-63.17"/>
<polygon fill="black" stroke="black" points="452.01,-63.01 447.28,-53.53 445.06,-63.89 452.01,-63.01"/>
<text text-anchor="middle" x="537.28" y="-161.7" font-family="Times,serif" font-size="14.00">Lost then withdrew with accusations</text>
</g>
<!-- playmagnus -->
<g id="node3" class="node">
<title>playmagnus</title>
<ellipse fill="none" stroke="black" cx="102" cy="-211" rx="86.15" ry="18"/>
<text text-anchor="middle" x="102" y="-205.95" font-family="Times,serif" font-size="14.00">Play Magnus Group</text>
</g>
<!-- mc&#45;&gt;playmagnus -->
<g id="edge1" class="edge">
<title>mc&#45;&gt;playmagnus</title>
<path fill="none" stroke="black" d="M113.23,-281.41C111.35,-269.76 108.81,-254.05 106.62,-240.52"/>
<polygon fill="black" stroke="black" points="110.1,-240.16 105.05,-230.84 103.19,-241.28 110.1,-240.16"/>
<text text-anchor="middle" x="151.13" y="-250.2" font-family="Times,serif" font-size="14.00">Owns majority</text>
</g>
<!-- chesscom -->
<g id="node4" class="node">
<title>chesscom</title>
<ellipse fill="none" stroke="black" cx="102" cy="-122.5" rx="51.86" ry="18"/>
<text text-anchor="middle" x="102" y="-117.45" font-family="Times,serif" font-size="14.00">Chess.com</text>
</g>
<!-- playmagnus&#45;&gt;chesscom -->
<g id="edge2" class="edge">
<title>playmagnus&#45;&gt;chesscom</title>
<path fill="none" stroke="black" d="M102,-181.78C102,-172.29 102,-161.7 102,-152.18"/>
<polygon fill="black" stroke="black" points="98.5,-181.4 102,-191.4 105.5,-181.4 98.5,-181.4"/>
<polygon fill="black" stroke="black" points="105.5,-152.36 102,-142.36 98.5,-152.36 105.5,-152.36"/>
<text text-anchor="middle" x="136.88" y="-161.7" font-family="Times,serif" font-size="14.00">Merger talks</text>
</g>
<!-- chesscom&#45;&gt;hans -->
<g id="edge7" class="edge">
<title>chesscom&#45;&gt;hans</title>
<path fill="none" stroke="black" d="M123.47,-105.83C144.16,-90.73 172.39,-70.14 172.75,-70 234.66,-45.36 310.2,-37.22 365.83,-34.89"/>
<polygon fill="black" stroke="black" points="365.65,-38.4 375.52,-34.54 365.4,-31.4 365.65,-38.4"/>
<text text-anchor="middle" x="244.38" y="-73.2" font-family="Times,serif" font-size="14.00">72 page report of cheating</text>
</g>
<!-- naka -->
<g id="node5" class="node">
<title>naka</title>
<ellipse fill="none" stroke="black" cx="94" cy="-34" rx="77.97" ry="18"/>
<text text-anchor="middle" x="94" y="-28.95" font-family="Times,serif" font-size="14.00">Hikaru Nakamura</text>
</g>
<!-- chesscom&#45;&gt;naka -->
<g id="edge3" class="edge">
<title>chesscom&#45;&gt;naka</title>
<path fill="none" stroke="black" d="M93.97,-104.42C91.74,-98.84 89.62,-92.52 88.5,-86.5 87.12,-79.07 87.23,-70.98 88.02,-63.45"/>
<polygon fill="black" stroke="black" points="91.45,-64.17 89.45,-53.76 84.52,-63.14 91.45,-64.17"/>
<text text-anchor="middle" x="119.25" y="-73.2" font-family="Times,serif" font-size="14.00">Sponsoring</text>
</g>
<!-- naka&#45;&gt;hans -->
<g id="edge5" class="edge">
<title>naka&#45;&gt;hans</title>
<path fill="none" stroke="black" d="M172.11,-34C229.81,-34 308.04,-34 365.77,-34"/>
<polygon fill="black" stroke="black" points="365.52,-37.5 375.52,-34 365.52,-30.5 365.52,-37.5"/>
<text text-anchor="middle" x="274.63" y="-40.2" font-family="Times,serif" font-size="14.00">Accused of cheating on his stream</text>
</g>
</g>
</svg>
