<?xml version="1.0" encoding="UTF-8" standalone="no"?>
<!DOCTYPE svg PUBLIC "-//W3C//DTD SVG 1.1//EN"
 "http://www.w3.org/Graphics/SVG/1.1/DTD/svg11.dtd">
<!-- Generated by graphviz version 7.0.4 (20221203.1631)
 -->
<!-- Title: G Pages: 1 -->
<svg width="394pt" height="187pt"
 viewBox="0.00 0.00 393.79 187.05" xmlns="http://www.w3.org/2000/svg" xmlns:xlink="http://www.w3.org/1999/xlink">
<g id="graph0" class="graph" transform="scale(1 1) rotate(0) translate(4 183.05)">
<title>G</title>
<polygon fill="white" stroke="none" points="-4,4 -4,-183.05 389.79,-183.05 389.79,4 -4,4"/>
<g id="clust1" class="cluster">
<title>cluster_0</title>
<polygon fill="none" stroke="black" points="41.55,0 41.55,-179.05 269.93,-179.05 269.93,0 41.55,0"/>
<text text-anchor="middle" x="155.74" y="-163.85" font-family="Times,serif" font-size="14.00">defendants</text>
</g>
<!-- hans -->
<g id="node1" class="node">
<title>hans</title>
<ellipse fill="none" stroke="black" cx="213.18" cy="-94.97" rx="63.89" ry="18"/>
<text text-anchor="middle" x="213.18" y="-91.27" font-family="Times,serif" font-size="14.00">Hans Niemann</text>
</g>
<!-- mc -->
<g id="node2" class="node">
<title>mc</title>
<ellipse fill="none" stroke="black" cx="201.04" cy="-18" rx="68.79" ry="18"/>
<text text-anchor="middle" x="201.04" y="-14.3" font-family="Times,serif" font-size="14.00">Magnus Carlsen</text>
</g>
<!-- hans&#45;&gt;mc -->
<g id="edge4" class="edge">
<title>hans&#45;&gt;mc</title>
<path fill="none" stroke="black" d="M216.12,-76.61C215.65,-67.79 214.23,-57.03 212.32,-47.13"/>
<polygon fill="black" stroke="black" points="215.79,-46.58 210.21,-37.57 208.95,-48.09 215.79,-46.58"/>
<text text-anchor="middle" x="263.72" y="-65.67" font-family="Times,serif" font-size="14.00">sueing for $100M</text>
</g>
<!-- mc&#45;&gt;hans -->
<g id="edge6" class="edge">
<title>mc&#45;&gt;hans</title>
<path fill="none" stroke="black" d="M198.1,-36.36C198.57,-45.18 199.99,-55.95 201.9,-65.84"/>
<polygon fill="black" stroke="black" points="198.43,-66.39 204.01,-75.4 205.27,-64.88 198.43,-66.39"/>
<text text-anchor="middle" x="100" y="-54.9" font-family="Times,serif" font-size="14.00">Lost then withdrew with accusations</text>
</g>
<!-- playmagnus -->
<g id="node3" class="node">
<title>playmagnus</title>
<ellipse fill="none" stroke="black" cx="124.1" cy="-30.59" rx="82.59" ry="18"/>
<text text-anchor="middle" x="124.1" y="-26.89" font-family="Times,serif" font-size="14.00">Play Magnus Group</text>
</g>
<!-- mc&#45;&gt;playmagnus -->
<g id="edge1" class="edge">
<title>mc&#45;&gt;playmagnus</title>
<path fill="none" stroke="black" d="M142.33,-27.61C142.25,-27.62 142.17,-27.64 142.08,-27.65"/>
<polygon fill="black" stroke="black" points="152.63,-22.37 143.33,-27.44 153.77,-29.28 152.63,-22.37"/>
<text text-anchor="middle" x="101.21" y="-31.43" font-family="Times,serif" font-size="14.00">Owns majority</text>
</g>
<!-- chesscom -->
<g id="node4" class="node">
<title>chesscom</title>
<ellipse fill="none" stroke="black" cx="136.28" cy="-107.68" rx="50.09" ry="18"/>
<text text-anchor="middle" x="136.28" y="-103.98" font-family="Times,serif" font-size="14.00">Chess.com</text>
</g>
<!-- playmagnus&#45;&gt;chesscom -->
<g id="edge2" class="edge">
<title>playmagnus&#45;&gt;chesscom</title>
<path fill="none" stroke="black" d="M128.77,-60.21C129.69,-66.01 130.66,-72.11 131.57,-77.92"/>
<polygon fill="black" stroke="black" points="132.24,-59.69 127.22,-50.36 125.32,-60.78 132.24,-59.69"/>
<polygon fill="black" stroke="black" points="128.11,-78.45 133.13,-87.78 135.03,-77.35 128.11,-78.45"/>
<text text-anchor="middle" x="95.17" y="-72.86" font-family="Times,serif" font-size="14.00">Merger talks</text>
</g>
<!-- chesscom&#45;&gt;hans -->
<g id="edge7" class="edge">
<title>chesscom&#45;&gt;hans</title>
<path fill="none" stroke="black" d="M182.34,-100.07C182.41,-100.05 182.47,-100.04 182.54,-100.03"/>
<polygon fill="black" stroke="black" points="171.94,-105.34 181.23,-100.25 170.8,-98.43 171.94,-105.34"/>
<text text-anchor="middle" x="110.44" y="-103.85" font-family="Times,serif" font-size="14.00">72 page report of cheating</text>
</g>
<!-- naka -->
<g id="node5" class="node">
<title>naka</title>
<ellipse fill="none" stroke="black" cx="184.77" cy="-161.05" rx="74.99" ry="18"/>
<text text-anchor="middle" x="184.77" y="-157.35" font-family="Times,serif" font-size="14.00">Hikaru Nakamura</text>
</g>
<!-- chesscom&#45;&gt;naka -->
<g id="edge3" class="edge">
<title>chesscom&#45;&gt;naka</title>
<path fill="none" stroke="black" d="M152.15,-125.15C155.05,-128.35 158.14,-131.74 161.2,-135.12"/>
<polygon fill="black" stroke="black" points="158.36,-137.18 167.67,-142.23 163.54,-132.48 158.36,-137.18"/>
<text text-anchor="middle" x="125.68" y="-133.93" font-family="Times,serif" font-size="14.00">Sponsoring</text>
</g>
<!-- naka&#45;&gt;hans -->
<g id="edge5" class="edge">
<title>naka&#45;&gt;hans</title>
<path fill="none" stroke="black" d="M192.53,-142.99C195.16,-136.88 198.17,-129.89 201.06,-123.17"/>
<polygon fill="black" stroke="black" points="204.09,-124.97 204.83,-114.4 197.66,-122.2 204.09,-124.97"/>
<text text-anchor="middle" x="291.29" y="-121.88" font-family="Times,serif" font-size="14.00">Accused of cheating on his stream</text>
</g>
</g>
</svg>
