<?xml version="1.0" encoding="UTF-8" standalone="no"?>
<!DOCTYPE svg PUBLIC "-//W3C//DTD SVG 1.1//EN"
 "http://www.w3.org/Graphics/SVG/1.1/DTD/svg11.dtd">
<!-- Generated by graphviz version 7.0.4 (20221203.1631)
 -->
<!-- Title: G Pages: 1 -->
<svg width="636pt" height="360pt"
 viewBox="0.00 0.00 636.00 360.00" xmlns="http://www.w3.org/2000/svg" xmlns:xlink="http://www.w3.org/1999/xlink">
<g id="graph0" class="graph" transform="scale(1 1) rotate(0) translate(4 356)">
<title>G</title>
<polygon fill="white" stroke="none" points="-4,4 -4,-356 632,-356 632,4 -4,4"/>
<g id="clust1" class="cluster">
<title>cluster_0</title>
<polygon fill="none" stroke="black" points="8,-8 8,-344 190,-344 190,-8 8,-8"/>
<text text-anchor="middle" x="99" y="-328.8" font-family="Times,serif" font-size="14.00">defendants</text>
</g>
<!-- hans -->
<g id="node1" class="node">
<title>hans</title>
<ellipse fill="none" stroke="black" cx="436" cy="-34" rx="63.89" ry="18"/>
<text text-anchor="middle" x="436" y="-30.3" font-family="Times,serif" font-size="14.00">Hans Niemann</text>
</g>
<!-- mc -->
<g id="node2" class="node">
<title>mc</title>
<ellipse fill="none" stroke="black" cx="113" cy="-295" rx="68.79" ry="18"/>
<text text-anchor="middle" x="113" y="-291.3" font-family="Times,serif" font-size="14.00">Magnus Carlsen</text>
</g>
<!-- hans&#45;&gt;mc -->
<g id="edge4" class="edge">
<title>hans&#45;&gt;mc</title>
<path fill="none" stroke="black" d="M421.34,-51.94C385.71,-92.29 290.28,-195.46 193,-259 183.58,-265.16 172.89,-270.68 162.46,-275.43"/>
<polygon fill="black" stroke="black" points="161.34,-272.11 153.57,-279.31 164.14,-278.52 161.34,-272.11"/>
<text text-anchor="middle" x="366.5" y="-160.8" font-family="Times,serif" font-size="14.00">sueing for $100M</text>
</g>
<!-- mc&#45;&gt;hans -->
<g id="edge6" class="edge">
<title>mc&#45;&gt;hans</title>
<path fill="none" stroke="black" d="M176.78,-287.99C248.51,-277.55 362.46,-249.11 420,-172 443.41,-140.63 443.45,-93.46 440.42,-63.46"/>
<polygon fill="black" stroke="black" points="443.9,-63.13 439.22,-53.62 436.95,-63.97 443.9,-63.13"/>
<text text-anchor="middle" x="528" y="-160.8" font-family="Times,serif" font-size="14.00">Lost then withdrew with accusations</text>
</g>
<!-- playmagnus -->
<g id="node3" class="node">
<title>playmagnus</title>
<ellipse fill="none" stroke="black" cx="99" cy="-208" rx="82.59" ry="18"/>
<text text-anchor="middle" x="99" y="-204.3" font-family="Times,serif" font-size="14.00">Play Magnus Group</text>
</g>
<!-- mc&#45;&gt;playmagnus -->
<g id="edge1" class="edge">
<title>mc&#45;&gt;playmagnus</title>
<path fill="none" stroke="black" d="M110.17,-276.8C108.32,-265.58 105.86,-250.67 103.72,-237.69"/>
<polygon fill="black" stroke="black" points="107.2,-237.26 102.12,-227.96 100.29,-238.4 107.2,-237.26"/>
<text text-anchor="middle" x="148" y="-247.8" font-family="Times,serif" font-size="14.00">Owns majority</text>
</g>
<!-- chesscom -->
<g id="node4" class="node">
<title>chesscom</title>
<ellipse fill="none" stroke="black" cx="99" cy="-121" rx="50.09" ry="18"/>
<text text-anchor="middle" x="99" y="-117.3" font-family="Times,serif" font-size="14.00">Chess.com</text>
</g>
<!-- playmagnus&#45;&gt;chesscom -->
<g id="edge2" class="edge">
<title>playmagnus&#45;&gt;chesscom</title>
<path fill="none" stroke="black" d="M99,-178.62C99,-169.72 99,-159.88 99,-150.94"/>
<polygon fill="black" stroke="black" points="95.5,-178.29 99,-188.29 102.5,-178.29 95.5,-178.29"/>
<polygon fill="black" stroke="black" points="102.5,-150.98 99,-140.98 95.5,-150.98 102.5,-150.98"/>
<text text-anchor="middle" x="134" y="-160.8" font-family="Times,serif" font-size="14.00">Merger talks</text>
</g>
<!-- chesscom&#45;&gt;hans -->
<g id="edge7" class="edge">
<title>chesscom&#45;&gt;hans</title>
<path fill="none" stroke="black" d="M118.94,-104.31C136.72,-90.46 160.72,-72.14 166,-70 200.68,-55.95 295.75,-45.89 363.24,-40.26"/>
<polygon fill="black" stroke="black" points="363.47,-43.75 373.15,-39.45 362.9,-36.77 363.47,-43.75"/>
<text text-anchor="middle" x="238" y="-73.8" font-family="Times,serif" font-size="14.00">72 page report of cheating</text>
</g>
<!-- naka -->
<g id="node5" class="node">
<title>naka</title>
<ellipse fill="none" stroke="black" cx="91" cy="-34" rx="74.99" ry="18"/>
<text text-anchor="middle" x="91" y="-30.3" font-family="Times,serif" font-size="14.00">Hikaru Nakamura</text>
</g>
<!-- chesscom&#45;&gt;naka -->
<g id="edge3" class="edge">
<title>chesscom&#45;&gt;naka</title>
<path fill="none" stroke="black" d="M88.31,-103.19C85.34,-97.62 82.51,-91.24 81,-85 79.3,-77.97 79.7,-70.33 81.04,-63.2"/>
<polygon fill="black" stroke="black" points="84.39,-64.22 83.48,-53.67 77.61,-62.49 84.39,-64.22"/>
<text text-anchor="middle" x="112" y="-73.8" font-family="Times,serif" font-size="14.00">Sponsoring</text>
</g>
<!-- naka&#45;&gt;hans -->
<g id="edge5" class="edge">
<title>naka&#45;&gt;hans</title>
<path fill="none" stroke="black" d="M166.29,-34C223.91,-34 303.02,-34 360.65,-34"/>
<polygon fill="black" stroke="black" points="360.37,-37.5 370.37,-34 360.37,-30.5 360.37,-37.5"/>
<text text-anchor="middle" x="269.02" y="-40.8" font-family="Times,serif" font-size="14.00">Accused of cheating on his stream</text>
</g>
</g>
</svg>
