<svg xmlns="http://www.w3.org/2000/svg" xmlns:xlink="http://www.w3.org/1999/xlink" contentStyleType="text/css" height="303px" preserveAspectRatio="none" style="width:1000px;height:303px;background:#FFFFFF;" version="1.1" viewBox="0 0 1000 303" width="1000px" zoomAndPan="magnify"><defs/><g><!--cluster defendants--><g id="cluster_defendants"><rect fill="none" height="143.49" rx="2.5" ry="2.5" style="stroke:#181818;stroke-width:1.0;" width="851" x="7" y="7"/><text fill="#000000" font-family="sans-serif" font-size="14" font-weight="bold" lengthAdjust="spacing" textLength="80.9717" x="392.0142" y="22.5352">defendants</text></g><!--entity mc--><g id="elem_mc"><ellipse cx="85.0006" cy="58.5" fill="#F1F1F1" rx="8" ry="8" style="stroke:#181818;stroke-width:0.5;"/><path d="M85.0006,66.5 L85.0006,93.5 M72.0006,74.5 L98.0006,74.5 M85.0006,93.5 L72.0006,108.5 M85.0006,93.5 L98.0006,108.5 " fill="none" style="stroke:#181818;stroke-width:0.5;"/><text fill="#000000" font-family="sans-serif" font-size="14" lengthAdjust="spacing" textLength="108.2813" x="30.86" y="123.5352">Magnus Carlsen</text></g><!--entity playmagnus--><g id="elem_playmagnus"><ellipse cx="331.0045" cy="58.5" fill="#F1F1F1" rx="8" ry="8" style="stroke:#181818;stroke-width:0.5;"/><path d="M331.0045,66.5 L331.0045,93.5 M318.0045,74.5 L344.0045,74.5 M331.0045,93.5 L318.0045,108.5 M331.0045,93.5 L344.0045,108.5 " fill="none" style="stroke:#181818;stroke-width:0.5;"/><text fill="#000000" font-family="sans-serif" font-size="14" lengthAdjust="spacing" textLength="130.6689" x="265.67" y="123.5352">Play Magnus Group</text></g><!--entity chesscom--><g id="elem_chesscom"><ellipse cx="547.9994" cy="58.5" fill="#F1F1F1" rx="8" ry="8" style="stroke:#181818;stroke-width:0.5;"/><path d="M547.9994,66.5 L547.9994,93.5 M534.9994,74.5 L560.9994,74.5 M547.9994,93.5 L534.9994,108.5 M547.9994,93.5 L560.9994,108.5 " fill="none" style="stroke:#181818;stroke-width:0.5;"/><text fill="#000000" font-family="sans-serif" font-size="14" lengthAdjust="spacing" textLength="73.7188" x="511.14" y="123.5352">Chess.com</text></g><!--entity naka--><g id="elem_naka"><ellipse cx="752.0014" cy="58.5" fill="#F1F1F1" rx="8" ry="8" style="stroke:#181818;stroke-width:0.5;"/><path d="M752.0014,66.5 L752.0014,93.5 M739.0014,74.5 L765.0014,74.5 M752.0014,93.5 L739.0014,108.5 M752.0014,93.5 L765.0014,108.5 " fill="none" style="stroke:#181818;stroke-width:0.5;"/><text fill="#000000" font-family="sans-serif" font-size="14" lengthAdjust="spacing" textLength="118.3027" x="692.85" y="123.5352">Hikaru Nakamura</text></g><!--entity hans--><g id="elem_hans"><ellipse cx="564.0013" cy="229.99" fill="#F1F1F1" rx="8" ry="8" style="stroke:#181818;stroke-width:0.5;"/><path d="M564.0013,237.99 L564.0013,264.99 M551.0013,245.99 L577.0013,245.99 M564.0013,264.99 L551.0013,279.99 M564.0013,264.99 L577.0013,279.99 " fill="none" style="stroke:#181818;stroke-width:0.5;"/><text fill="#000000" font-family="sans-serif" font-size="14" lengthAdjust="spacing" textLength="98.6426" x="514.68" y="295.0252">Hans Niemann</text></g><!--link mc to playmagnus--><g id="link_mc_playmagnus"><path d="M139.6,88.25 C176.68,88.25 219.93,88.25 259.19,88.25 " fill="none" id="mc-to-playmagnus" style="stroke:#181818;stroke-width:1.0;"/><polygon fill="#181818" points="265.19,88.25,256.19,84.25,260.19,88.25,256.19,92.25,265.19,88.25" style="stroke:#181818;stroke-width:1.0;"/><text fill="#000000" font-family="sans-serif" font-size="13" lengthAdjust="spacing" textLength="90.9111" x="157.4" y="81.8184">Owns majority</text></g><!--link playmagnus to chesscom--><g id="link_playmagnus_chesscom"><path d="M402.7,88.25 C440.12,88.25 473.63,88.25 504.91,88.25 " fill="none" id="playmagnus-chesscom" style="stroke:#181818;stroke-width:1.0;"/><polygon fill="#181818" points="396.7,88.25,405.7,92.25,401.7,88.25,405.7,84.25,396.7,88.25" style="stroke:#181818;stroke-width:1.0;"/><polygon fill="#181818" points="510.91,88.25,501.91,84.25,505.91,88.25,501.91,92.25,510.91,88.25" style="stroke:#181818;stroke-width:1.0;"/><text fill="#000000" font-family="sans-serif" font-size="13" lengthAdjust="spacing" textLength="78.5649" x="414.74" y="81.8184">Merger talks</text></g><!--link chesscom to naka--><g id="link_chesscom_naka"><path d="M584.94,88.25 C614.91,88.25 651.74,88.25 686.52,88.25 " fill="none" id="chesscom-to-naka" style="stroke:#181818;stroke-width:1.0;"/><polygon fill="#181818" points="692.52,88.25,683.52,84.25,687.52,88.25,683.52,92.25,692.52,88.25" style="stroke:#181818;stroke-width:1.0;"/><text fill="#000000" font-family="sans-serif" font-size="13" lengthAdjust="spacing" textLength="71.1001" x="603.35" y="81.8184">Sponsoring</text></g><!--link hans to defendants--><g id="link_hans_defendants"><path d="M613.79,255.52 C694.01,249.19 846.2,232.03 879,191.49 C893,174.185 887.0625,150.6375 876.8038,130.5025 C871.6744,120.435 865.4647,111.2206 860.1267,104.0663 C859.4595,103.172 862.4627,107.0667 861.8265,106.2391 " fill="none" id="hans-to-defendants" style="stroke:#181818;stroke-width:1.0;"/><polygon fill="#181818" points="858.1697,101.4823,860.4837,111.0554,861.217,105.4463,866.8261,106.1797,858.1697,101.4823" style="stroke:#181818;stroke-width:1.0;"/><text fill="#000000" font-family="sans-serif" font-size="13" lengthAdjust="spacing" textLength="105.0156" x="887.62" y="188.0584">suing for $100M</text></g><!--link naka to hans--><g id="link_naka_hans"><path d="M710.28,126.86 C679.12,154.95 641.1853,189.1413 610.0653,217.2113 " fill="none" id="naka-to-hans" style="stroke:#181818;stroke-width:1.0;"/><polygon fill="#181818" points="605.61,221.23,614.9721,218.1722,609.3228,217.8811,609.6139,212.2317,605.61,221.23" style="stroke:#181818;stroke-width:1.0;"/><text fill="#000000" font-family="sans-serif" font-size="13" lengthAdjust="spacing" textLength="217.5532" x="653.36" y="188.0584">Accused of cheating on his stream</text></g><!--link mc to hans--><g id="link_mc_hans"><path d="M122,126.92 C145.94,149.09 178.9,175.79 213,191.49 C313.45,237.76 438.2023,251.8158 508.3423,256.3158 " fill="none" id="mc-to-hans" style="stroke:#181818;stroke-width:1.0;"/><polygon fill="#181818" points="514.33,256.7,505.6046,252.132,509.3403,256.3799,505.0924,260.1156,514.33,256.7" style="stroke:#181818;stroke-width:1.0;"/><text fill="#000000" font-family="sans-serif" font-size="13" lengthAdjust="spacing" textLength="228.9409" x="214" y="188.0584">Lost then withdrew with accusations</text></g><!--link chesscom to hans--><g id="link_chesscom_hans"><path d="M510.76,107.69 C477.77,126.7 437.51,158.2 456,191.49 C468.6,214.18 486.9925,227.5896 509.0325,238.2896 " fill="none" id="chesscom-to-hans" style="stroke:#181818;stroke-width:1.0;"/><polygon fill="#181818" points="514.43,240.91,508.0806,233.381,509.932,238.7263,504.5867,240.5778,514.43,240.91" style="stroke:#181818;stroke-width:1.0;"/><text fill="#000000" font-family="sans-serif" font-size="13" lengthAdjust="spacing" textLength="169.2222" x="457" y="188.0584">72 page report of cheating</text></g><!--SRC=[JP3DQiCm48JlUeh1579AINifc58eEJI79Ydq2HPv_LDRaj7AX53wxbqv2SvDkz_Cx6fNUBSfH375ZhpWqB4ZxmkGeDM6CP5j8jyCZABYcdr5Fac1NmCKUshy9DXI78Gl9cSp-1heZ2lzY64QPpPgrytDhDcsBF9eWvkPpPKMcUowdkA40_NafaWpzreOXSvY_NQNLE9uqhqT_OJOfRCg5ePNbTw2I-mvDXoHQEZp0ZUGyt9wYUynUD4OtvW_OrPw6Ji9fKwx9XyZAvSRb919fQX3nCFJPhFFbcEjMDZaGAnLF_lAInHN27MUgvbg31vj9v0KcPp97rlqdq4IKiiUfowrLUJJ_03ThRHyuEehyVACaHf6v374T3_j7m00]--></g></svg>