<?xml version="1.0" encoding="us-ascii" standalone="no"?><svg xmlns="http://www.w3.org/2000/svg" xmlns:xlink="http://www.w3.org/1999/xlink" contentStyleType="text/css" height="230px" preserveAspectRatio="none" style="width:1412px;height:230px;background:#FFFFFF;" version="1.1" viewBox="0 0 1412 230" width="1412px" zoomAndPan="magnify"><defs/><g><!--cluster defendants--><g id="cluster_defendants"><polygon fill="none" points="16,81.5,26,71.5,1029,71.5,1029,203.5,1019,213.5,16,213.5,16,81.5" style="stroke:#181818;stroke-width:1.0;"/><line style="stroke:#181818;stroke-width:1.0;" x1="1019" x2="1029" y1="81.5" y2="71.5"/><line style="stroke:#181818;stroke-width:1.0;" x1="16" x2="1019" y1="81.5" y2="81.5"/><line style="stroke:#181818;stroke-width:1.0;" x1="1019" x2="1019" y1="81.5" y2="213.5"/><text fill="#000000" font-family="sans-serif" font-size="14" font-weight="bold" lengthAdjust="spacing" textLength="80" x="478.5" y="98.0352">defendants</text></g><!--entity mc--><g id="elem_mc"><rect fill="#F1F1F1" height="46.4883" rx="2.5" ry="2.5" style="stroke:#181818;stroke-width:0.5;" width="150" x="59" y="143.5"/><rect fill="#F1F1F1" height="10" style="stroke:#181818;stroke-width:0.5;" width="15" x="189" y="148.5"/><rect fill="#F1F1F1" height="2" style="stroke:#181818;stroke-width:0.5;" width="4" x="187" y="150.5"/><rect fill="#F1F1F1" height="2" style="stroke:#181818;stroke-width:0.5;" width="4" x="187" y="154.5"/><text fill="#000000" font-family="sans-serif" font-size="14" lengthAdjust="spacing" textLength="110" x="74" y="177.0352">Magnus Carlsen</text></g><!--entity playmagnus--><g id="elem_playmagnus"><rect fill="#F1F1F1" height="46.4883" rx="2.5" ry="2.5" style="stroke:#181818;stroke-width:0.5;" width="172" x="337" y="143.5"/><rect fill="#F1F1F1" height="10" style="stroke:#181818;stroke-width:0.5;" width="15" x="489" y="148.5"/><rect fill="#F1F1F1" height="2" style="stroke:#181818;stroke-width:0.5;" width="4" x="487" y="150.5"/><rect fill="#F1F1F1" height="2" style="stroke:#181818;stroke-width:0.5;" width="4" x="487" y="154.5"/><text fill="#000000" font-family="sans-serif" font-size="14" lengthAdjust="spacing" textLength="132" x="352" y="177.0352">Play Magnus Group</text></g><!--entity chesscom--><g id="elem_chesscom"><rect fill="#F1F1F1" height="46.4883" rx="2.5" ry="2.5" style="stroke:#181818;stroke-width:0.5;" width="114" x="624" y="143.5"/><rect fill="#F1F1F1" height="10" style="stroke:#181818;stroke-width:0.5;" width="15" x="718" y="148.5"/><rect fill="#F1F1F1" height="2" style="stroke:#181818;stroke-width:0.5;" width="4" x="716" y="150.5"/><rect fill="#F1F1F1" height="2" style="stroke:#181818;stroke-width:0.5;" width="4" x="716" y="154.5"/><text fill="#000000" font-family="sans-serif" font-size="14" lengthAdjust="spacing" textLength="74" x="639" y="177.0352">Chess.com</text></g><!--entity naka--><g id="elem_naka"><rect fill="#F1F1F1" height="46.4883" rx="2.5" ry="2.5" style="stroke:#181818;stroke-width:0.5;" width="159" x="845.5" y="143.5"/><rect fill="#F1F1F1" height="10" style="stroke:#181818;stroke-width:0.5;" width="15" x="984.5" y="148.5"/><rect fill="#F1F1F1" height="2" style="stroke:#181818;stroke-width:0.5;" width="4" x="982.5" y="150.5"/><rect fill="#F1F1F1" height="2" style="stroke:#181818;stroke-width:0.5;" width="4" x="982.5" y="154.5"/><text fill="#000000" font-family="sans-serif" font-size="14" lengthAdjust="spacing" textLength="119" x="860.5" y="177.0352">Hikaru Nakamura</text></g><!--entity hans--><g id="elem_hans"><rect fill="#F1F1F1" height="46.4883" rx="2.5" ry="2.5" style="stroke:#181818;stroke-width:0.5;" width="139" x="1267.5" y="143.5"/><rect fill="#F1F1F1" height="10" style="stroke:#181818;stroke-width:0.5;" width="15" x="1386.5" y="148.5"/><rect fill="#F1F1F1" height="2" style="stroke:#181818;stroke-width:0.5;" width="4" x="1384.5" y="150.5"/><rect fill="#F1F1F1" height="2" style="stroke:#181818;stroke-width:0.5;" width="4" x="1384.5" y="154.5"/><text fill="#000000" font-family="sans-serif" font-size="14" lengthAdjust="spacing" textLength="99" x="1282.5" y="177.0352">Hans Niemann</text></g><!--link mc to playmagnus--><g id="link_mc_playmagnus"><path d="M209.18,166.5 C246.25,166.5 291.29,166.5 330.46,166.5 " fill="none" id="mc-to-playmagnus" style="stroke:#181818;stroke-width:1.0;"/><polygon fill="#181818" points="335.18,166.5,326.18,162.5,330.18,166.5,326.18,170.5,335.18,166.5" style="stroke:#181818;stroke-width:1.0;"/><text fill="#000000" font-family="sans-serif" font-size="13" lengthAdjust="spacing" textLength="91" x="227.5" y="160.0684">Owns majority</text></g><!--link playmagnus to chesscom--><g id="link_playmagnus_chesscom"><path d="M515.49,166.5 C549.21,166.5 586.55,166.5 617.21,166.5 " fill="none" id="playmagnus-chesscom" style="stroke:#181818;stroke-width:1.0;"/><polygon fill="#181818" points="510.78,166.5,519.78,170.5,515.78,166.5,519.78,162.5,510.78,166.5" style="stroke:#181818;stroke-width:1.0;"/><polygon fill="#181818" points="622.14,166.5,613.14,162.5,617.14,166.5,613.14,170.5,622.14,166.5" style="stroke:#181818;stroke-width:1.0;"/><text fill="#000000" font-family="sans-serif" font-size="13" lengthAdjust="spacing" textLength="78" x="527.5" y="160.0684">Merger talks</text></g><!--link chesscom to naka--><g id="link_chesscom_naka"><path d="M738.21,166.5 C768.18,166.5 805.49,166.5 838.88,166.5 " fill="none" id="chesscom-to-naka" style="stroke:#181818;stroke-width:1.0;"/><polygon fill="#181818" points="843.55,166.5,834.55,162.5,838.55,166.5,834.55,170.5,843.55,166.5" style="stroke:#181818;stroke-width:1.0;"/><text fill="#000000" font-family="sans-serif" font-size="13" lengthAdjust="spacing" textLength="71" x="756.25" y="160.0684">Sponsoring</text></g><!--link hans to defendants--><g id="link_hans_defendants"><path d="M1284.96,143.04 C1223.4,116.69 1117.14,75.55 1021,59.75 C967.39,50.94 84.65,24.86 43,59.75 C40.7994,61.5938 38.7935,63.5966 36.967,65.7332 C36.0538,66.8014 35.1854,67.9031 34.3599,69.035 C33.9472,69.6009 33.5451,70.1745 33.1536,70.7551 C33.0557,70.9003 32.9585,71.0459 32.8619,71.1919 " fill="none" id="hans-to-defendants" style="stroke:#181818;stroke-width:1.0;"/><polygon fill="#181818" points="32.8619,71.1919,41.1625,65.8909,35.6197,67.0212,34.4893,61.4785,32.8619,71.1919" style="stroke:#181818;stroke-width:1.0;"/><text fill="#000000" font-family="sans-serif" font-size="13" lengthAdjust="spacing" textLength="117" x="912.5" y="44.0684">'sueing for $100M'</text></g><!--link naka to hans--><g id="link_naka_hans"><path d="M1004.93,166.5 C1078.86,166.5 1188.01,166.5 1260.75,166.5 " fill="none" id="naka-to-hans" style="stroke:#181818;stroke-width:1.0;"/><polygon fill="#181818" points="1265.72,166.5,1256.72,162.5,1260.72,166.5,1256.72,170.5,1265.72,166.5" style="stroke:#181818;stroke-width:1.0;"/><text fill="#000000" font-family="sans-serif" font-size="13" lengthAdjust="spacing" textLength="218" x="1027" y="160.0684">Accused of cheating on his stream</text></g><!--link mc to hans--><g id="link_mc_hans"><path d="M163.4,143.04 C198.34,116.8 259.56,75.86 320,59.75 C470.52,19.63 867.28,34.49 1021,59.75 C1114.13,75.06 1216.77,114.15 1279.06,140.53 " fill="none" id="mc-to-hans" style="stroke:#181818;stroke-width:1.0;"/><polygon fill="#181818" points="1283.56,142.45,1276.8444,135.2458,1278.9591,140.4925,1273.7124,142.6072,1283.56,142.45" style="stroke:#181818;stroke-width:1.0;"/><text fill="#000000" font-family="sans-serif" font-size="13" lengthAdjust="spacing" textLength="230" x="1037" y="44.0684">Lost then withdrew with accusations</text></g><!--link chesscom to hans--><g id="link_chesscom_hans"><path d="M703.3,143.13 C730.05,116.98 777.6,76.12 828,59.75 C993.49,6 1198.27,93.67 1289.4,140.3 " fill="none" id="chesscom-to-hans" style="stroke:#181818;stroke-width:1.0;"/><polygon fill="#181818" points="1293.63,142.48,1287.4764,134.7902,1289.1897,140.1813,1283.7986,141.8946,1293.63,142.48" style="stroke:#181818;stroke-width:1.0;"/><text fill="#000000" font-family="sans-serif" font-size="13" lengthAdjust="spacing" textLength="167" x="738.5" y="44.0684">72 page report of cheating</text></g><!--SRC=[LP3DQm8n4CNl-IiUKjXJY-sb8ALGFDH3rKAFYuTXT_P3JR9aieYK_k-THAlsbipxlJSV1Twgw8EOSa5EiEhPadCRaA3JWZ7Erun9pGsxcboK2RuDK2wfTQDWJc4lVE9jbOJFFHrnLj-37uUi3LgrkPYOUSSY3vMtMQlIJpz9MVGx2YDMj2Cx1igwquz9egqsk7z5UGtRpB0-wDYMjZxqyPYe6nKl2V_BLtZ9eUM0IFjT7kGYvTpKIA6lmJlHEDUQ7sCAFL0r2iLUgwPCHydqzI8p53AoucXymDtZTBeiac_TA25iJhcvGtRFJebSmpTfUOrMhtVeUe74m6JDPTUpuyDBHEpOuT37hWvyo0_GxMp_jpaxdvymKCi8FFWGRrkQNm00]--></g></svg>