<svg xmlns="http://www.w3.org/2000/svg" xmlns:xlink="http://www.w3.org/1999/xlink" contentStyleType="text/css" height="244px" preserveAspectRatio="none" style="width:1489px;height:244px;background:#FFFFFF;" version="1.1" viewBox="0 0 1489 244" width="1489px" zoomAndPan="magnify"><defs/><g><!--cluster defendants--><g id="cluster_defendants"><polygon fill="none" points="16,94.96,26,84.96,1027,84.96,1027,217.45,1017,227.45,16,227.45,16,94.96" style="stroke:#181818;stroke-width:1.0;"/><line style="stroke:#181818;stroke-width:1.0;" x1="1017" x2="1027" y1="94.96" y2="84.96"/><line style="stroke:#181818;stroke-width:1.0;" x1="16" x2="1017" y1="94.96" y2="94.96"/><line style="stroke:#181818;stroke-width:1.0;" x1="1017" x2="1017" y1="94.96" y2="227.45"/><text fill="#000000" font-family="sans-serif" font-size="14" font-weight="bold" lengthAdjust="spacing" textLength="80.9717" x="477.0142" y="111.4952">defendants</text></g><!--entity mc--><g id="elem_mc"><rect fill="#F1F1F1" height="46.4883" rx="2.5" ry="2.5" style="stroke:#181818;stroke-width:0.5;" width="148.2813" x="39.86" y="156.96"/><rect fill="#F1F1F1" height="10" style="stroke:#181818;stroke-width:0.5;" width="15" x="168.1413" y="161.96"/><rect fill="#F1F1F1" height="2" style="stroke:#181818;stroke-width:0.5;" width="4" x="166.1413" y="163.96"/><rect fill="#F1F1F1" height="2" style="stroke:#181818;stroke-width:0.5;" width="4" x="166.1413" y="167.96"/><text fill="#000000" font-family="sans-serif" font-size="14" lengthAdjust="spacing" textLength="108.2813" x="54.86" y="190.4952">Magnus Carlsen</text></g><!--entity playmagnus--><g id="elem_playmagnus"><rect fill="#F1F1F1" height="46.4883" rx="2.5" ry="2.5" style="stroke:#181818;stroke-width:0.5;" width="170.6689" x="314.67" y="156.96"/><rect fill="#F1F1F1" height="10" style="stroke:#181818;stroke-width:0.5;" width="15" x="465.3389" y="161.96"/><rect fill="#F1F1F1" height="2" style="stroke:#181818;stroke-width:0.5;" width="4" x="463.3389" y="163.96"/><rect fill="#F1F1F1" height="2" style="stroke:#181818;stroke-width:0.5;" width="4" x="463.3389" y="167.96"/><text fill="#000000" font-family="sans-serif" font-size="14" lengthAdjust="spacing" textLength="130.6689" x="329.67" y="190.4952">Play Magnus Group</text></g><!--entity chesscom--><g id="elem_chesscom"><rect fill="#F1F1F1" height="46.4883" rx="2.5" ry="2.5" style="stroke:#181818;stroke-width:0.5;" width="113.7188" x="600.14" y="156.96"/><rect fill="#F1F1F1" height="10" style="stroke:#181818;stroke-width:0.5;" width="15" x="693.8588" y="161.96"/><rect fill="#F1F1F1" height="2" style="stroke:#181818;stroke-width:0.5;" width="4" x="691.8588" y="163.96"/><rect fill="#F1F1F1" height="2" style="stroke:#181818;stroke-width:0.5;" width="4" x="691.8588" y="167.96"/><text fill="#000000" font-family="sans-serif" font-size="14" lengthAdjust="spacing" textLength="73.7188" x="615.14" y="190.4952">Chess.com</text></g><!--entity naka--><g id="elem_naka"><rect fill="#F1F1F1" height="46.4883" rx="2.5" ry="2.5" style="stroke:#181818;stroke-width:0.5;" width="158.3027" x="821.85" y="156.96"/><rect fill="#F1F1F1" height="10" style="stroke:#181818;stroke-width:0.5;" width="15" x="960.1527" y="161.96"/><rect fill="#F1F1F1" height="2" style="stroke:#181818;stroke-width:0.5;" width="4" x="958.1527" y="163.96"/><rect fill="#F1F1F1" height="2" style="stroke:#181818;stroke-width:0.5;" width="4" x="958.1527" y="167.96"/><text fill="#000000" font-family="sans-serif" font-size="14" lengthAdjust="spacing" textLength="118.3027" x="836.85" y="190.4952">Hikaru Nakamura</text></g><!--entity hans--><g id="elem_hans"><rect fill="#F1F1F1" height="46.4883" rx="2.5" ry="2.5" style="stroke:#181818;stroke-width:0.5;" width="138.6426" x="1344.68" y="156.96"/><rect fill="#F1F1F1" height="10" style="stroke:#181818;stroke-width:0.5;" width="15" x="1463.3226" y="161.96"/><rect fill="#F1F1F1" height="2" style="stroke:#181818;stroke-width:0.5;" width="4" x="1461.3226" y="163.96"/><rect fill="#F1F1F1" height="2" style="stroke:#181818;stroke-width:0.5;" width="4" x="1461.3226" y="167.96"/><text fill="#000000" font-family="sans-serif" font-size="14" lengthAdjust="spacing" textLength="98.6426" x="1359.68" y="190.4952">Hans Niemann</text></g><!--link mc to playmagnus--><g id="link_mc_playmagnus"><path d="M188.4,180.21 C226.96,180.21 268.25,180.21 308.33,180.21 " fill="none" id="mc-to-playmagnus" style="stroke:#181818;stroke-width:1.0;"/><polygon fill="#181818" points="314.33,180.21,305.33,176.21,309.33,180.21,305.33,184.21,314.33,180.21" style="stroke:#181818;stroke-width:1.0;"/><text fill="#000000" font-family="sans-serif" font-size="13" lengthAdjust="spacing" textLength="90.9111" x="206.4" y="173.7784">Owns majority</text></g><!--link playmagnus to chesscom--><g id="link_playmagnus_chesscom"><path d="M491.58,180.21 C529.1,180.21 560.15,180.21 593.72,180.21 " fill="none" id="playmagnus-chesscom" style="stroke:#181818;stroke-width:1.0;"/><polygon fill="#181818" points="485.58,180.21,494.58,184.21,490.58,180.21,494.58,176.21,485.58,180.21" style="stroke:#181818;stroke-width:1.0;"/><polygon fill="#181818" points="599.72,180.21,590.72,176.21,594.72,180.21,590.72,184.21,599.72,180.21" style="stroke:#181818;stroke-width:1.0;"/><text fill="#000000" font-family="sans-serif" font-size="13" lengthAdjust="spacing" textLength="78.5649" x="503.74" y="173.7784">Merger talks</text></g><!--link chesscom to naka--><g id="link_chesscom_naka"><path d="M714.21,180.21 C746.18,180.21 780.52,180.21 815.52,180.21 " fill="none" id="chesscom-to-naka" style="stroke:#181818;stroke-width:1.0;"/><polygon fill="#181818" points="821.52,180.21,812.52,176.21,816.52,180.21,812.52,184.21,821.52,180.21" style="stroke:#181818;stroke-width:1.0;"/><text fill="#000000" font-family="sans-serif" font-size="13" lengthAdjust="spacing" textLength="71.1001" x="732.35" y="173.7784">Sponsoring</text></g><!--link hans to defendants--><g id="link_hans_defendants"><path d="M1344.51,180.21 C1290.925,180.21 1215.22,180.21 1150.0925,180.21 C1117.5288,180.21 1087.6094,180.21 1064.4216,180.21 C1052.8277,180.21 1042.9166,180.21 1035.1994,180.21 C1033.2701,180.21 1031.4779,180.21 1029.8308,180.21 C1029.0073,180.21 1034.22,180.21 1033.47,180.21 " fill="none" id="hans-to-defendants" style="stroke:#181818;stroke-width:1.0;"/><polygon fill="#181818" points="1027.47,180.21,1036.47,184.21,1032.47,180.21,1036.47,176.21,1027.47,180.21" style="stroke:#181818;stroke-width:1.0;"/><text fill="#000000" font-family="sans-serif" font-size="13" lengthAdjust="spacing" textLength="118.2124" x="1122.74" y="173.7784">'sueing for $100M'</text></g><!--link naka to hans--><g id="link_naka_hans"><path d="M911.34,156.67 C924.17,130.77 948.75,90.52 984,73.25 C1121.31,6 1299.5593,104.3701 1374.6693,153.1901 " fill="none" id="naka-to-hans" style="stroke:#181818;stroke-width:1.0;"/><polygon fill="#181818" points="1379.7,156.46,1374.3338,148.2014,1375.5077,153.7351,1369.974,154.909,1379.7,156.46" style="stroke:#181818;stroke-width:1.0;"/><text fill="#000000" font-family="sans-serif" font-size="13" lengthAdjust="spacing" textLength="217.5532" x="1126.5" y="57.5284">Accused of cheating on his stream</text></g><!--link mc to hans--><g id="link_mc_hans"><path d="M143.16,156.47 C177.52,130.18 237.5,89.36 297,73.25 C455.3,30.39 872.55,50.77 1035,73.25 C1148.77,89 1270.7865,128.1305 1345.1165,154.5505 " fill="none" id="mc-to-hans" style="stroke:#181818;stroke-width:1.0;"/><polygon fill="#181818" points="1350.77,156.56,1343.6294,149.7768,1346.0588,154.8854,1340.9501,157.3148,1350.77,156.56" style="stroke:#181818;stroke-width:1.0;"/><text fill="#000000" font-family="sans-serif" font-size="13" lengthAdjust="spacing" textLength="228.9409" x="891" y="57.5284">Lost then withdrew with accusations</text></g><!--link chesscom to hans--><g id="link_chesscom_hans"><path d="M679.29,156.79 C706.03,130.59 753.58,89.65 804,73.25 C1007.21,7.15 1257.1214,105.616 1361.1714,154.096 " fill="none" id="chesscom-to-hans" style="stroke:#181818;stroke-width:1.0;"/><polygon fill="#181818" points="1366.61,156.63,1360.1414,149.2032,1362.0778,154.5183,1356.7627,156.4547,1366.61,156.63" style="stroke:#181818;stroke-width:1.0;"/><text fill="#000000" font-family="sans-serif" font-size="13" lengthAdjust="spacing" textLength="169.2222" x="714.5" y="57.5284">72 page report of cheating</text></g><!--SRC=[LP3DQm8n4CNl-IiUKjXJY-sb8ALGFDH3rKAFYuTXT_P3JR9aieYK_k-THAlsbipxlJSV1Twgw8EOSa5EiEhPadCRaA3JWZ7Erun9pGsxcboK2RuDK2wfTQDWJc4lVE9jbOJFFHrnLj-37uUi3LgrkPYOUSSY3vMtMQlIJpz9MVGx2YDMj2Cx1igwquz9egqsk7z5UGtRpB0-wDYMjZxqyPYe6nKl2V_BLtZ9eUM0IFjT7kGYvTpKIA6lmJlHEDUQ7sCAFL0r2iLUgwPCHydqzI8p53AoucXymDtZTBeiac_TA25iJhcvGtRFJebSmpTfUOrMhtVeUe74m6JDPTUpuyDBHEpOuT37hWvyo0_GxMp_jpaxdvymKCi8FFWGRrkQNm00]--></g></svg>